<svg width="85" height="47" viewBox="0 0 85 47" fill="none" xmlns="http://www.w3.org/2000/svg">
<path d="M20.6551 20.2819C25.0232 18.2354 29.4601 15.5527 26.6742 9.55084C23.871 3.53182 14.9285 5.32033 8.44512 7.17763C8.32474 7.21202 8.18716 7.24642 8.04958 7.29801C6.86298 7.60756 5.09166 8.08908 4.95409 9.39607C4.8853 10.1528 5.16045 10.2903 6.1063 10.6687C6.32986 10.7547 6.57062 10.8578 6.82858 10.961C7.18972 11.133 8.25595 10.8062 9.28778 10.4967C11.7986 9.75721 15.5992 8.605 18.8494 10.789C19.7437 11.3909 20.1736 12.0788 20.1048 12.8527C19.9157 14.968 15.9947 16.8597 11.9706 18.5966C11.0763 18.9749 10.3196 19.3189 10.0789 19.4908C7.80882 21.1418 7.3617 22.5175 8.53111 24.4264C9.44256 25.9226 11.0763 26.1118 12.796 26.3181C14.3782 26.5073 16.0119 26.6965 17.0953 27.9519C19.7609 31.0646 19.0902 32.9735 18.0584 34.0225C15.3412 36.8256 6.7082 36.5161 2.92481 33.4722C2.54647 33.1798 2.16814 33.0251 1.80699 33.0251C1.63502 33.0251 1.48025 33.0594 1.32547 33.1282C0.637583 33.4206 0.10447 34.332 0.0184839 35.3983C-0.136291 36.9976 0.689174 38.5454 2.18533 39.5256C3.50952 40.4027 13.2259 41.5033 15.0489 41.1593C16.8202 40.8326 22.2029 39.8352 24.5245 33.0423C26.9493 25.957 22.4093 23.9965 19.9845 22.9303C19.5201 22.7239 19.159 22.5691 18.9182 22.3972C18.6087 22.1908 18.5743 21.9156 18.5915 21.7781C18.6431 21.2278 19.3138 20.9182 20.6551 20.2819Z" fill="#F8B21F"/>
<path d="M62.2552 18.3214C65.4538 16.9628 70.2691 13.5405 71.2837 9.4648C71.5932 8.2266 72.006 -1.78219 63.9577 2.0356C61.2577 3.30819 58.317 6.07694 57.4399 9.55078C56.2705 14.194 56.9068 20.5914 62.2552 18.3214ZM66.1589 3.96168C66.5373 3.75532 71.5245 6.59286 63.3558 13.3686C62.6163 13.9877 58.7641 15.4838 58.5921 13.317C58.5577 12.8698 59.3144 7.24635 66.1589 3.96168ZM79.5384 24.9767C76.2193 23.7213 73.5365 27.4359 72.7971 28.4333C71.662 30.0155 70.699 31.632 69.7016 33.3001C67.5347 36.946 67.8958 46.0777 74.104 42.7758C78.2142 40.5918 80.381 37.4103 82.1179 32.8702C83.2874 29.8435 81.8428 26.5244 79.5212 24.9767H79.5384ZM73.4333 39.6631C70.8882 41.3656 70.7678 37.0319 71.6964 35.4326C72.178 34.6071 75.669 27.1607 78.3861 29.2416C80.3122 30.7206 76.0989 37.8918 73.4505 39.6631H73.4333ZM43.4758 4.94193C43.0115 5.30307 43.7853 6.38649 43.235 6.30051C40.6382 5.92217 37.5599 8.15781 36.253 9.82594C31.0422 16.4125 27.4824 26.9716 28.2391 36.8084C28.8925 45.4414 36.4937 43.4121 40.3459 39.388C46.0038 33.4721 48.4286 23.9449 48.7037 15.6386C48.8413 11.4253 48.205 7.95144 46.021 5.14829C44.9548 3.77252 43.9573 4.59798 43.493 4.95912L43.4758 4.94193ZM41.3261 28.2442C37.0956 37.4275 32.0396 38.3045 31.0078 35.7249C29.8728 32.8874 31.1282 28.4849 31.8849 25.9397C32.8479 22.741 34.0001 19.7315 35.737 17.2035C37.13 15.1915 40.9134 9.61957 43.3898 9.34442C43.665 9.31002 43.9057 9.87753 44.1465 10.1011C44.6452 10.5826 45.0407 11.0813 45.3159 12.0272C46.9152 17.5131 43.3726 23.7729 41.3089 28.227L41.3261 28.2442ZM84.6459 3.05023C83.6829 5.18269 78.4893 12.7667 76.9072 14.9507C73.8461 19.1984 71.0773 23.8417 68.3602 28.3473C67.1736 30.325 65.8838 32.2339 64.68 34.1944C63.1666 36.6708 61.7392 39.2332 60.2431 41.7096C59.0737 43.6529 58.2998 45.3898 56.6661 46.7312C55.1527 47.9522 55.1183 43.8592 55.1527 43.7561C56.7004 38.3045 57.0616 37.8058 58.7297 34.9167C61.4125 30.3078 65.3679 25.699 68.1022 21.1245C70.6646 16.8424 79.5384 4.27124 81.4473 2.29355C81.7052 2.0184 83.4249 -0.131253 83.7345 0.00632465C84.6803 0.401861 85.0243 2.19037 84.6287 3.05023H84.6459Z" fill="#F8B21F"/>
</svg>
