<svg width="37" height="37" viewBox="0 0 37 37" fill="none" xmlns="http://www.w3.org/2000/svg">
<path fill-rule="evenodd" clip-rule="evenodd" d="M18.5 0.5625C28.4066 0.5625 36.4375 8.59338 36.4375 18.5C36.4375 28.4066 28.4066 36.4375 18.5 36.4375C8.59338 36.4375 0.5625 28.4066 0.5625 18.5C0.5625 8.59338 8.59338 0.5625 18.5 0.5625Z" fill="#FBFBFB"/>
<path fill-rule="evenodd" clip-rule="evenodd" d="M35.4899 12.7344H1.5083C3.90944 5.65617 10.6094 0.5625 18.4991 0.5625C26.3888 0.5625 33.0888 5.65617 35.4899 12.7344Z" fill="#32AB45"/>
<path fill-rule="evenodd" clip-rule="evenodd" d="M35.4899 24.2656C33.0888 31.3438 26.3888 36.4375 18.4991 36.4375C10.6094 36.4375 3.90944 31.3438 1.5083 24.2656H35.4899Z" fill="#1D1D1D"/>
<path fill-rule="evenodd" clip-rule="evenodd" d="M10.1719 2.60889V34.3911C4.45904 31.391 0.5625 25.4005 0.5625 18.5C0.5625 11.5994 4.45904 5.60901 10.1719 2.60889Z" fill="#E92B2B"/>
</svg>
