<svg width="19" height="24" viewBox="0 0 19 24" fill="none" xmlns="http://www.w3.org/2000/svg">
<path d="M15.3997 12.8896C15.3697 10.0296 17.7397 8.63965 17.8497 8.56965C16.5097 6.60965 14.4297 6.34965 13.6997 6.32965C11.9497 6.14965 10.2597 7.36965 9.36975 7.36965C8.47975 7.36965 7.08975 6.33965 5.61975 6.36965C3.71975 6.39965 1.93974 7.49965 0.969745 9.20965C-1.04026 12.6896 0.459743 17.8096 2.38974 20.6196C3.34974 21.9996 4.47974 23.5396 5.94974 23.4796C7.38974 23.4196 7.92974 22.5596 9.66974 22.5596C11.4097 22.5596 11.8997 23.4797 13.3997 23.4496C14.9497 23.4196 15.9197 22.0696 16.8497 20.6696C17.9597 19.0896 18.4097 17.5296 18.4297 17.4496C18.3897 17.4396 15.4197 16.2996 15.3897 12.8796L15.3997 12.8896Z" fill="white"/>
<path d="M12.5601 4.47961C13.3401 3.50961 13.8701 2.18961 13.7201 0.849609C12.6001 0.899609 11.1901 1.62961 10.3801 2.57961C9.66012 3.41961 9.03012 4.78961 9.19012 6.07961C10.4501 6.16961 11.7501 5.43961 12.5601 4.48961V4.47961Z" fill="white"/>
</svg>
