<svg width="68" height="68" viewBox="0 0 68 68" fill="none" xmlns="http://www.w3.org/2000/svg">
<path d="M68 29.5306C68 29.9124 67.5852 30.6364 66.769 31.7028C65.1633 34.046 63.0224 36.1129 60.3463 37.9033C58.8209 38.9696 57.2019 39.8911 55.5159 40.681C53.937 41.405 52.3046 41.9975 50.6187 42.4319C49.0799 42.8005 47.5144 43.0769 45.9488 43.2612C43.9819 43.485 42.015 43.6167 40.048 43.643C38.6564 43.643 37.2113 43.2218 35.6993 42.3661C35.6993 43.1296 35.6726 43.9853 35.6057 44.92C35.5388 45.8547 35.4585 46.8815 35.3782 47.9873C35.0704 50.7914 34.6824 52.5028 34.2141 53.0952C32.3943 55.6491 29.3302 57.7159 24.9949 59.2825C21.2349 60.6911 17.5553 61.3889 13.9559 61.3889C9.84809 61.3889 6.59662 60.5595 4.21488 58.9008C1.40496 56.9919 0 54.122 0 50.2911C0 46.763 2.24793 41.6288 6.7438 34.9017H7.06493C7.93467 34.9017 8.57694 35.3098 9.0185 36.1129C6.63676 39.6015 5.44589 42.7742 5.44589 45.6309C5.44589 48.1453 6.52971 50.0805 8.69736 51.4364C10.4235 52.4633 12.6714 52.9635 15.4412 52.9635C18.3447 52.9635 21.3955 52.5159 24.5935 51.6207C28.4872 50.4359 31.0429 48.9352 32.2471 47.158C31.3373 42.3002 29.3971 38.4693 26.4132 35.6653L29.7851 27.4901C30.8689 28.9382 31.7387 30.0967 32.4077 30.9655C32.876 31.5974 33.3845 32.2162 33.9331 32.7823C35.7127 34.4015 37.7198 35.2045 39.9677 35.2045C41.6938 33.164 43.2593 31.4 44.6375 29.9387C45.7883 28.7012 47.0059 27.5164 48.2771 26.3974C52.0905 23.2116 55.6497 21.6055 58.9815 21.6055C61.1893 21.6055 63.2231 22.3954 65.083 23.962C67.0232 25.5944 68 27.4374 68 29.5306ZM60.6674 31.9529C60.6674 30.5048 60.1724 29.3595 59.1688 28.5038C58.1787 27.7402 56.9343 27.3584 55.4758 27.3584C51.9701 27.3584 48.2101 30.044 44.1826 35.402C52.1976 35.402 57.6836 34.2435 60.6674 31.9529ZM59.5033 11.4556L54.3786 16.1817L49.3876 11.2713L54.5793 6.61108L59.5033 11.4556Z" fill="#0056B1"/>
</svg>
