<svg width="39" height="61" viewBox="0 0 39 61" fill="none" xmlns="http://www.w3.org/2000/svg">
<g clip-path="url(#clip0_206_234)">
<path fill-rule="evenodd" clip-rule="evenodd" d="M27.9986 3.33257C27.6973 3.33656 27.1777 3.64513 26.8613 3.99661C26.0224 4.9031 26.0919 5.94135 27.241 9.49146C28.7837 14.2497 28.8466 16.5415 27.6714 23.7322C27.4389 25.2376 26.8297 27.4286 26.1502 29.3499C25.2019 32.1054 24.8312 32.8484 23.305 35.0732C19.4357 40.7607 15.2543 44.616 9.36366 47.9773C9.23068 48.0408 9.38856 47.5201 9.72758 46.7922C10.3739 45.3515 10.2877 44.6655 9.41312 44.3561C8.6835 44.0981 8.37767 44.3453 7.01541 46.1883C5.53534 48.2082 3.25772 50.5489 2.14611 51.222C0.760269 52.0457 0.344967 52.528 0.356416 53.2693C0.400351 54.4617 1.23495 54.728 4.01347 54.3706C5.38649 54.2006 7.95505 54.1244 9.68233 54.1877C13.7131 54.3812 14.5136 54.2826 14.7884 53.5057C15.0632 52.7288 14.4665 52.3255 12.2778 51.7146C11.3858 51.4544 10.6819 51.2054 10.6993 51.1563C10.7167 51.1071 11.6486 50.5626 12.7345 49.962C18.4574 46.7626 22.9712 42.5852 26.7483 37.0019C29.8896 32.3681 30.9987 29.2323 32.0629 21.976C32.9181 16.315 32.7644 13.4987 31.3631 9.58298C30.8819 8.23586 30.2881 6.44084 30.0191 5.57955C29.411 3.66887 29.0831 3.27909 27.9986 3.33257Z" fill="#F8B21F"/>
</g>
<defs>
<clipPath id="clip0_206_234">
<rect width="20.6178" height="57.2716" fill="white" transform="translate(19.0977) rotate(19.4786)"/>
</clipPath>
</defs>
</svg>
