<svg width="52" height="51" viewBox="0 0 52 51" fill="none" xmlns="http://www.w3.org/2000/svg">
<path fill-rule="evenodd" clip-rule="evenodd" d="M50.5012 0.398516C53.3972 2.71217 51.8827 13.1618 47.7701 19.5053C42.6024 27.4719 37.007 33.749 31.9027 37.334C28.579 39.6444 22.3562 42.8177 17.4832 44.6468C15.5726 45.3704 13.8966 46.0608 13.7635 46.2003C13.6304 46.3397 14.5873 46.6152 15.9022 46.8907C20.1162 47.6509 21.4976 48.5471 20.9051 50.1338C20.6104 50.9272 19.3906 51.1695 17.0523 50.894C15.9338 50.7545 12.4106 50.4458 9.25167 50.1703C2.20828 49.5496 1.58093 49.4102 0.725463 48.5836C-0.52606 47.3422 -0.196542 46.1007 1.91045 44.2385C4.14735 42.2368 7.07813 38.446 8.95383 35.1332C10.1705 33.0287 10.4367 32.72 11.1907 32.8229C11.8498 32.8926 12.0811 33.1316 12.1444 33.9249C12.3092 35.2693 11.1242 38.4427 9.3784 41.4103C8.55461 42.7912 7.96212 43.963 8.02866 44.0327C8.48808 44.4808 19.3843 39.5149 24.1242 36.7199C30.9711 32.6171 35.0521 28.823 40.2863 21.5467C45.4001 14.4365 47.4406 9.40086 47.4406 3.71133C47.4406 1.77941 47.5736 0.91635 47.9665 0.537933C48.5907 -0.115999 49.744 -0.185707 50.5012 0.398516Z" fill="#F8B21F"/>
</svg>
