<svg width="93" height="93" viewBox="0 0 93 93" fill="none" xmlns="http://www.w3.org/2000/svg">
<g clip-path="url(#clip0_296_304)">
<path d="M26.1908 65.6153C23.1061 69.6147 14.4408 73.4924 17.8855 77.9881C21.5784 82.2259 26.3854 85.3884 30.9005 88.6871C31.5865 89.1688 32.3747 89.5386 33.2164 89.6116C35.2113 89.9035 36.5249 87.3638 35.2745 85.8311C18.1872 72.5194 31.2995 83.5006 50.4741 70.7386C72.748 56.7068 77.1317 21.846 61.6256 1.41615C59.2124 -0.306207 56.7213 2.72008 58.6918 5.04089C61.2169 8.51966 62.696 12.4704 63.7615 16.5719C66.997 29.0809 65.9558 42.9084 59.3681 54.1865C52.8776 65.085 39.5026 73.2735 26.906 72.6945C26.3854 72.0571 27.412 71.4782 27.7185 70.9673C30.5843 67.8972 33.6349 64.8953 36.1065 61.5089C36.7682 60.4288 36.2476 58.867 35.0312 58.3123C32.1704 57.3782 27.8499 64.579 26.1956 65.6202L26.1908 65.6153Z" fill="#F8B21F"/>
</g>
<defs>
<clipPath id="clip0_296_304">
<rect width="85.1492" height="45.1239" fill="white" transform="matrix(-0.707107 0.707107 0.707107 0.707107 60.2095 0)"/>
</clipPath>
</defs>
</svg>
