<svg width="48" height="45" viewBox="0 0 48 45" fill="none" xmlns="http://www.w3.org/2000/svg">
<path fill-rule="evenodd" clip-rule="evenodd" d="M45.864 44.1681C48.4843 42.1699 47.114 33.1449 43.3927 27.6663C38.7169 20.7858 33.654 15.3646 29.0354 12.2683C26.0281 10.273 20.3975 7.53225 15.9883 5.9526C14.2595 5.32762 12.743 4.73131 12.6226 4.6109C12.5021 4.49049 13.3679 4.25254 14.5577 4.01459C18.3706 3.35808 19.6206 2.58402 19.0845 1.21365C18.8179 0.528467 17.7141 0.319182 15.5984 0.557131C14.5864 0.677542 11.3984 0.944163 8.54011 1.18211C2.16705 1.71822 1.5994 1.83863 0.825344 2.55248C-0.307072 3.62469 -0.00891504 4.6969 1.89756 6.30522C3.92157 8.03395 6.57344 11.3079 8.27063 14.1691C9.37151 15.9867 9.61232 16.2533 10.2946 16.1644C10.891 16.1042 11.1002 15.8978 11.1576 15.2126C11.3067 14.0515 10.2344 11.3108 8.65479 8.7478C7.9094 7.55518 7.37329 6.54318 7.4335 6.48297C7.8492 6.09594 17.7084 10.3848 21.9972 12.7987C28.1926 16.3422 31.8851 19.619 36.6212 25.9032C41.2483 32.044 43.0946 36.3931 43.0946 41.3069C43.0946 42.9754 43.215 43.7208 43.5705 44.0477C44.1353 44.6124 45.1788 44.6726 45.864 44.1681Z" fill="#F8B21F"/>
</svg>
