<svg width="52" height="51" viewBox="0 0 52 51" fill="none" xmlns="http://www.w3.org/2000/svg">
<path fill-rule="evenodd" clip-rule="evenodd" d="M50.5012 0.398394C53.3972 2.71205 51.8827 13.1617 47.7701 19.5051C42.6024 27.4718 37.007 33.7489 31.9027 37.3339C28.579 39.6442 22.3562 42.8176 17.4832 44.6466C15.5726 45.3703 13.8966 46.0607 13.7635 46.2001C13.6304 46.3396 14.5873 46.6151 15.9022 46.8906C20.1162 47.6507 21.4976 48.547 20.9051 50.1337C20.6104 50.927 19.3906 51.1694 17.0523 50.8938C15.9338 50.7544 12.4106 50.4457 9.25167 50.1702C2.20828 49.5495 1.58093 49.41 0.725463 48.5835C-0.52606 47.342 -0.196542 46.1006 1.91045 44.2383C4.14735 42.2367 7.07813 38.4459 8.95383 35.1331C10.1705 33.0286 10.4367 32.7199 11.1907 32.8228C11.8498 32.8925 12.0811 33.1315 12.1444 33.9248C12.3092 35.2692 11.1242 38.4426 9.3784 41.4102C8.55461 42.7911 7.96212 43.9628 8.02866 44.0325C8.48808 44.4807 19.3843 39.5148 24.1242 36.7198C30.9711 32.617 35.0521 28.8228 40.2863 21.5466C45.4001 14.4363 47.4406 9.40074 47.4406 3.7112C47.4406 1.77928 47.5736 0.916228 47.9665 0.537811C48.5907 -0.116121 49.744 -0.185829 50.5012 0.398394Z" fill="#F8B21F"/>
</svg>
