<svg width="69" height="68" viewBox="0 0 69 68" fill="none" xmlns="http://www.w3.org/2000/svg">
<g clip-path="url(#clip0_3326_10)">
<path fill-rule="evenodd" clip-rule="evenodd" d="M67.0111 0.531273C70.8538 3.61615 68.8441 17.549 63.387 26.0069C56.5299 36.6292 49.1052 44.9986 42.3322 49.7786C37.9219 52.8591 29.6648 57.0902 23.1987 59.5289C20.6635 60.4938 18.4395 61.4144 18.2629 61.6003C18.0863 61.7861 19.356 62.1535 21.1008 62.5209C26.6924 63.5344 28.5255 64.7294 27.7393 66.845C27.3483 67.9028 25.7297 68.2259 22.6269 67.8585C21.1428 67.6726 16.4677 67.261 12.2761 66.8937C2.93005 66.066 2.09761 65.8801 0.962464 64.7781C-0.698211 63.1228 -0.260969 61.4675 2.53485 58.9845C5.50305 56.3157 9.39197 51.2613 11.8809 46.8442C13.4953 44.0382 13.8485 43.6266 14.8491 43.7638C15.7236 43.8567 16.0305 44.1754 16.1146 45.2332C16.3332 47.0257 14.7608 51.2569 12.4442 55.2136C11.3511 57.0548 10.565 58.6172 10.6532 58.7101C11.2629 59.3076 25.7212 52.6864 32.0108 48.9598C41.0962 43.4894 46.5112 38.4305 53.4566 28.7289C60.2423 19.2485 62.9498 12.5344 62.9498 4.94835C62.9498 2.37246 63.1264 1.22172 63.6477 0.717162C64.4759 -0.154746 66.0063 -0.247691 67.0111 0.531273Z" fill="#F8B21F"/>
</g>
<defs>
<clipPath id="clip0_3326_10">
<rect width="69" height="68" fill="white" transform="matrix(-1 0 0 1 69 0)"/>
</clipPath>
</defs>
</svg>
