<svg width="55" height="54" viewBox="0 0 55 54" fill="none" xmlns="http://www.w3.org/2000/svg">
<g clip-path="url(#clip0_3157_59)">
<path fill-rule="evenodd" clip-rule="evenodd" d="M50.4604 53.0063C53.4658 50.8367 52.4632 40.3256 48.6651 33.789C43.8925 25.5796 38.6101 19.0369 33.6869 15.207C30.48 12.7372 24.4195 9.26381 19.6416 7.19911C17.7686 6.38308 16.1282 5.61165 16.0021 5.4659C15.876 5.32015 16.8452 5.09168 18.1719 4.88067C22.418 4.32712 23.8416 3.49936 23.3272 1.88564C23.0716 1.07885 21.8651 0.777274 19.5161 0.938323C18.3922 1.02298 14.858 1.15935 11.6895 1.28035C4.62417 1.55654 3.99077 1.66517 3.09597 2.44897C1.78534 3.62788 2.05386 4.88396 4.06745 6.84679C6.20399 8.95522 8.94624 12.8846 10.658 16.285C11.7705 18.4464 12.0213 18.7677 12.7795 18.7017C13.4411 18.6643 13.6838 18.4369 13.7858 17.6476C14.016 16.3128 12.9873 13.0854 11.3885 10.0361C10.6331 8.61665 10.0985 7.41737 10.1683 7.35099C10.6491 6.92582 21.2899 12.4177 25.8877 15.4407C32.5262 19.8728 36.4171 23.8616 41.2899 31.3847C46.0506 38.7361 47.8428 43.8653 47.5651 49.548C47.4708 51.4776 47.5616 52.3461 47.9355 52.7433C48.527 53.4269 49.6756 53.5528 50.4604 53.0063Z" fill="#F8B21F"/>
</g>
<defs>
<clipPath id="clip0_3157_59">
<rect width="52" height="51" fill="white" transform="translate(51.938 53.4774) rotate(-177.202)"/>
</clipPath>
</defs>
</svg>
