<svg width="48" height="53" viewBox="0 0 48 53" fill="none" xmlns="http://www.w3.org/2000/svg">
<path d="M9.10402 35.6529C6.24725 37.5799 -0.197084 38.2291 1.06758 41.8803C2.54832 45.4179 4.98158 48.4986 7.19653 51.6048C7.53727 52.0641 7.96821 52.4729 8.49758 52.701C9.72659 53.3187 11.1229 51.9563 10.6425 50.6952C2.43793 38.4039 8.56926 48.332 23.7277 44.188C41.1659 39.8875 51.4948 18.2556 45.8435 1.69475C44.6509 0.0609363 42.3876 1.48535 43.1649 3.41155C44.0526 6.20676 44.1615 9.08282 43.9702 11.9677C43.3776 20.763 39.7324 29.4932 33.0433 35.3807C26.4988 41.0435 16.0785 43.4721 8.04611 40.3906C7.84595 39.8661 8.63511 39.7117 8.94337 39.4468C11.4587 38.0745 14.0791 36.7861 16.4072 35.1243C17.0677 34.5671 17.0662 33.4439 16.3977 32.8234C14.7459 31.6038 10.401 35.3383 9.10612 35.6571L9.10402 35.6529Z" fill="#F8B21F"/>
</svg>
