<svg width="45" height="47" viewBox="0 0 45 47" fill="none" xmlns="http://www.w3.org/2000/svg">
<path fill-rule="evenodd" clip-rule="evenodd" d="M10.5879 45.3849C12.6902 47.0081 19.4305 44.0585 22.9196 40.0186C27.3009 34.9429 30.4653 29.8703 31.9124 25.6287C32.8385 22.8711 33.7977 17.9158 34.1077 14.1535C34.2336 12.6772 34.3815 11.3721 34.4501 11.2533C34.5188 11.1344 34.8846 11.7588 35.3181 12.6355C36.6246 15.467 37.488 16.2787 38.443 15.5754C38.9209 15.2249 38.8535 14.322 38.2269 12.7244C37.9221 11.9616 37.0495 9.53532 36.2679 7.35968C34.5211 2.50985 34.3089 2.09304 33.5917 1.63932C32.5207 0.981365 31.7481 1.43716 30.8937 3.25693C29.9701 5.19333 27.9744 7.94088 26.1009 9.85906C24.9155 11.0953 24.7581 11.3384 24.9697 11.8511C25.1409 12.3028 25.3453 12.4226 25.8907 12.3243C26.8258 12.1982 28.7358 10.7917 30.4017 9.02722C31.1747 8.19812 31.8507 7.56963 31.9102 7.60394C32.2982 7.84684 31.0159 16.4173 30.0313 20.2599C28.565 25.8223 26.7841 29.3807 22.8796 34.3788C19.064 39.2623 16.0632 41.6069 12.2376 42.632C10.9386 42.9801 10.3834 43.2293 10.2032 43.5742C9.88128 44.1317 10.0521 44.9567 10.5879 45.3849Z" fill="#F8B21F"/>
</svg>
