<svg width="162" height="163" viewBox="0 0 162 163" fill="none" xmlns="http://www.w3.org/2000/svg">
<g clip-path="url(#clip0_698_3068)">
<path fill-rule="evenodd" clip-rule="evenodd" d="M153.893 98.2159C144.409 97.4779 137.997 95.6839 126.183 90.4181C122.76 88.8663 119.401 87.5785 118.785 87.5342C116.38 87.3671 114.989 90.5012 116.68 92.2507C117.445 93.0427 127.543 97.7956 131.038 99.0197L133.886 99.9767L132.287 100.242C130.004 100.597 118.852 100.123 112.36 99.4335C106.45 98.8156 87.3424 95.8123 80.274 94.4618C65.231 91.4864 44.4181 83.9309 28.1396 75.5057C22.2727 72.4836 14.0746 67.113 7.4 61.9987C3.51841 58.9771 2.61336 58.6338 1.61894 59.5948C1.08986 60.1061 0.879661 60.8198 1.09466 61.5717C1.79635 64.1538 11.5072 72.2824 20.4813 77.8564C31.4535 84.6369 54.8675 94.1568 69.9918 98.0073C76.9217 99.7438 79.8086 100.282 96.2591 102.66C114.787 105.331 122.519 105.979 134.007 105.74C136.839 105.686 139.084 105.694 138.985 105.789C138.918 105.854 136.355 107.309 133.33 109.014C126.984 112.589 124.243 114.918 124.642 116.39C125.59 119.693 127.516 119.364 136.059 114.688C139.937 112.54 145.846 109.573 149.224 108.099C159.65 103.516 159.52 103.58 159.971 102.056C160.247 101.149 160.133 100.367 159.56 99.641C158.828 98.7493 157.824 98.5077 153.893 98.2159Z" fill="#F8B21F"/>
</g>
<defs>
<clipPath id="clip0_698_3068">
<rect width="141" height="88" fill="white" transform="translate(63.2793) rotate(45.9788)"/>
</clipPath>
</defs>
</svg>
