<svg width="39" height="61" viewBox="0 0 39 61" fill="none" xmlns="http://www.w3.org/2000/svg">
<g clip-path="url(#clip0_277_31)">
<path fill-rule="evenodd" clip-rule="evenodd" d="M27.9986 3.33247C27.6973 3.33647 27.1777 3.64504 26.8613 3.99652C26.0224 4.90301 26.0919 5.94126 27.241 9.49137C28.7837 14.2496 28.8466 16.5414 27.6714 23.7322C27.4389 25.2375 26.8297 27.4285 26.1502 29.3498C25.2019 32.1053 24.8312 32.8484 23.305 35.0731C19.4357 40.7606 15.2543 44.6159 9.36366 47.9772C9.23068 48.0407 9.38856 47.52 9.72758 46.7921C10.3739 45.3515 10.2877 44.6654 9.41312 44.356C8.6835 44.098 8.37767 44.3452 7.01541 46.1882C5.53534 48.2081 3.25772 50.5488 2.14611 51.2219C0.760269 52.0456 0.344967 52.5279 0.356416 53.2692C0.400351 54.4616 1.23495 54.7279 4.01347 54.3705C5.38649 54.2005 7.95505 54.1243 9.68233 54.1876C13.7131 54.3811 14.5136 54.2825 14.7884 53.5056C15.0632 52.7287 14.4665 52.3254 12.2778 51.7145C11.3858 51.4543 10.6819 51.2053 10.6993 51.1562C10.7167 51.1071 11.6486 50.5626 12.7345 49.962C18.4574 46.7625 22.9712 42.5851 26.7483 37.0018C29.8896 32.368 30.9987 29.2322 32.0629 21.9759C32.9181 16.3149 32.7644 13.4986 31.3631 9.58288C30.8819 8.23577 30.2881 6.44075 30.0191 5.57946C29.411 3.66878 29.0831 3.279 27.9986 3.33247Z" fill="#F8B21F"/>
</g>
<defs>
<clipPath id="clip0_277_31">
<rect width="20.6178" height="57.2716" fill="white" transform="translate(19.0977) rotate(19.4786)"/>
</clipPath>
</defs>
</svg>
