<svg width="77" height="70" viewBox="0 0 77 70" fill="none" xmlns="http://www.w3.org/2000/svg">
<g clip-path="url(#clip0_768_80)">
<path d="M52.876 2.02476C53.8335 9.54328 54.7241 17.0658 55.6593 24.5857C55.9977 27.3117 56.3497 30.0414 56.688 32.7675C56.9041 34.5018 57.7408 37.9909 57.5595 39.8969L57.7863 41.8098C56.6415 42.3668 55.4496 42.6624 54.2106 42.6964C47.9657 43.5999 41.313 43.4571 35.0155 43.4095C28.4538 43.3643 21.3763 41.9657 14.9024 42.7127C12.6597 42.9682 11.9208 46.1084 14.3514 46.8182C21.7883 48.9793 30.9579 48.0616 38.6499 47.9045C42.9188 47.8185 47.1897 47.6159 51.4489 47.2931C53.9288 47.1084 58.1139 47.4172 60.3295 45.8147C61.9529 44.6465 62.0964 43.155 61.9888 41.2887C61.7445 36.8456 60.8089 32.3051 60.1555 27.9134C58.8284 19.0147 57.1655 10.1945 55.3687 1.38232C55.0264 -0.290646 52.6729 0.43304 52.876 2.02476Z" fill="#F8B21F"/>
<path d="M24.9334 31.506C20.7748 36.8631 16.3324 41.4486 10.5661 45.1011C9.00394 46.0954 9.00497 48.2772 10.5784 49.2624C17.5513 53.6198 24.3626 58.1974 31.163 62.816C33.7508 64.5782 36.0542 60.4077 33.5543 58.6179C26.8662 53.8537 19.9499 49.3944 12.9574 45.083C12.9599 46.4672 12.9673 47.8601 12.9697 49.2443C19.0317 45.144 24.1512 39.9712 27.41 33.3555C28.1364 31.8738 26.089 30.0075 24.9457 31.4874L24.9334 31.506Z" fill="#F8B21F"/>
</g>
<defs>
<clipPath id="clip0_768_80">
<rect width="43.89" height="63.12" fill="white" transform="translate(54.6631) rotate(60)"/>
</clipPath>
</defs>
</svg>
