<svg width="75" height="75" viewBox="0 0 75 75" fill="none" xmlns="http://www.w3.org/2000/svg">
<path d="M37.5 29.4434C35.9066 29.4434 34.3489 29.9159 33.024 30.8011C31.6991 31.6864 30.6664 32.9447 30.0566 34.4169C29.4469 35.889 29.2873 37.5089 29.5982 39.0718C29.909 40.6346 30.6764 42.0702 31.8031 43.1969C32.9298 44.3236 34.3654 45.091 35.9282 45.4018C37.4911 45.7127 39.111 45.5532 40.5831 44.9434C42.0553 44.3336 43.3136 43.3009 44.1989 41.976C45.0841 40.6511 45.5566 39.0935 45.5566 37.5C45.5543 35.364 44.7047 33.3161 43.1943 31.8057C41.6839 30.2953 39.636 29.4457 37.5 29.4434ZM37.5 43.5059C36.3122 43.5059 35.151 43.1536 34.1633 42.4937C33.1757 41.8338 32.4059 40.8958 31.9513 39.7983C31.4967 38.7009 31.3778 37.4933 31.6095 36.3283C31.8413 35.1633 32.4133 34.0932 33.2532 33.2532C34.0932 32.4133 35.1633 31.8413 36.3283 31.6095C37.4933 31.3778 38.7009 31.4967 39.7983 31.9513C40.8958 32.4059 41.8338 33.1757 42.4937 34.1633C43.1536 35.151 43.5059 36.3122 43.5059 37.5C43.5042 39.0923 42.8709 40.619 41.7449 41.7449C40.619 42.8708 39.0923 43.5042 37.5 43.5059Z" fill="#0056B1"/>
<path d="M41.0157 36.4746C40.7438 36.4746 40.483 36.5826 40.2907 36.7749C40.0984 36.9672 39.9903 37.228 39.9903 37.5C39.9888 37.936 39.8735 38.3641 39.6557 38.7419C39.4379 39.1197 39.1253 39.4341 38.7487 39.6539C38.6324 39.7217 38.5306 39.8118 38.449 39.919C38.3675 40.0262 38.3079 40.1484 38.2736 40.2786C38.2393 40.4088 38.231 40.5446 38.2491 40.678C38.2672 40.8114 38.3115 40.94 38.3793 41.0563C38.4471 41.1727 38.5372 41.2745 38.6444 41.3561C38.7516 41.4376 38.8738 41.4972 39.004 41.5315C39.1342 41.5658 39.27 41.5741 39.4034 41.556C39.5368 41.5379 39.6654 41.4936 39.7818 41.4258C40.4676 41.0248 41.0369 40.4517 41.4331 39.7631C41.8294 39.0746 42.039 38.2945 42.0411 37.5C42.0411 37.228 41.9331 36.9672 41.7408 36.7749C41.5485 36.5826 41.2877 36.4746 41.0157 36.4746Z" fill="#0056B1"/>
<path d="M64.0022 35.1035C64.3759 35.2017 64.7606 35.2521 65.1471 35.2535C66.0448 35.253 66.9223 34.9864 67.6686 34.4874C68.4149 33.9885 68.9966 33.2795 69.3402 32.4501C69.6838 31.6207 69.7739 30.7081 69.5991 29.8275C69.4243 28.947 68.9924 28.138 68.358 27.5027C68.2836 27.4289 68.2045 27.3621 68.1236 27.2936C68.8854 24.5314 68.7096 22.1256 67.5653 20.1416C65.1043 15.876 58.642 14.4785 49.775 16.2439C46.8611 7.68223 42.4174 2.7832 37.5002 2.7832C32.583 2.7832 28.1399 7.68164 25.2231 16.2445C16.3543 14.4779 9.89376 15.876 7.43341 20.141C6.32423 22.057 6.1297 24.4646 6.83693 27.1371C6.00215 27.7907 5.42236 28.7157 5.19803 29.7519C4.97371 30.788 5.11901 31.87 5.60874 32.8103C6.09847 33.7506 6.90176 34.4899 7.87937 34.9001C8.85699 35.3102 9.94731 35.3654 10.9613 35.0561C11.5695 35.8652 12.2358 36.6838 12.9535 37.5035C6.99513 44.3027 4.97423 50.5975 7.43283 54.8584C9.19943 57.9211 13.0233 59.5096 18.3213 59.5096C20.6406 59.4811 22.9516 59.2276 25.2219 58.7525C28.1381 67.3166 32.5824 72.2168 37.5002 72.2168C39.7221 72.2168 41.9135 71.175 43.8828 69.2145C44.8518 69.639 45.9386 69.7118 46.9554 69.4201C47.9723 69.1285 48.8554 68.4909 49.4521 67.6173C50.0488 66.7438 50.3216 65.6893 50.2234 64.636C50.1252 63.5827 49.6622 62.5968 48.9143 61.8486C48.8404 61.7742 48.7613 61.7068 48.6834 61.6389C49.0672 60.7313 49.4346 59.7639 49.7815 58.7525C52.0507 59.2279 54.3608 59.4815 56.6791 59.5096C61.9766 59.5096 65.801 57.9205 67.5676 54.8584C70.0285 50.5975 68.0053 44.3027 62.0481 37.5041C62.7395 36.7148 63.3922 35.9121 64.0022 35.1035ZM66.9072 32.475C66.4399 32.941 65.8068 33.2028 65.1468 33.2028C64.4868 33.2028 63.8537 32.941 63.3863 32.475C63.0384 32.1268 62.8016 31.6833 62.7057 31.2005C62.6098 30.7178 62.6592 30.2174 62.8477 29.7627C63.0361 29.308 63.3552 28.9194 63.7644 28.646C64.1737 28.3725 64.6549 28.2266 65.1471 28.2266C65.6393 28.2266 66.1204 28.3725 66.5297 28.646C66.939 28.9194 67.258 29.308 67.4465 29.7627C67.6349 30.2174 67.6843 30.7178 67.5885 31.2005C67.4926 31.6833 67.2551 32.1268 66.9072 32.475ZM65.791 21.1664C66.5932 22.5592 66.7479 24.2906 66.2651 26.3227C65.3021 26.0778 64.2855 26.1557 63.3711 26.5444C62.4568 26.9331 61.6952 27.6112 61.2034 28.4745C60.7117 29.3378 60.5168 30.3386 60.6487 31.3234C60.7806 32.3081 61.2321 33.2224 61.9338 33.9258C62.0076 34.0002 62.0867 34.067 62.1647 34.1355C61.6889 34.7551 61.1865 35.3699 60.6576 35.9801C58.1443 33.3703 55.4068 30.9859 52.4768 28.8545C52.0941 25.2526 51.4001 21.6907 50.4026 18.2086C58.1299 16.7145 63.8445 17.7926 65.791 21.1664ZM48.3922 56.3566C45.5395 55.6606 42.743 54.7516 40.0262 53.6373C41.7752 52.7918 43.5172 51.873 45.2264 50.8863C46.949 49.8902 48.616 48.8402 50.2069 47.7533C49.8179 50.6624 49.2113 53.5383 48.3922 56.3566ZM26.6082 56.3566C25.7885 53.5383 25.1813 50.6625 24.7918 47.7533C26.3867 48.8402 28.0531 49.8914 29.7752 50.8863C31.4826 51.873 33.2229 52.793 34.9748 53.6373C32.2578 54.7516 29.4611 55.6606 26.6082 56.3566ZM26.6082 18.6434C29.461 19.3393 32.2575 20.2483 34.9742 21.3627C33.2246 22.2082 31.4832 23.127 29.774 24.1166C28.0514 25.1127 26.3844 26.1627 24.7906 27.2496C25.1803 24.3394 25.7879 21.4626 26.6082 18.6434ZM22.2658 43.3793C19.9398 41.5882 17.7534 39.6228 15.7256 37.5C17.7536 35.3774 19.94 33.412 22.2658 31.6207C22.1211 33.5543 22.0444 35.5248 22.0444 37.5C22.0444 39.4752 22.1199 41.4434 22.2658 43.3793ZM30.8012 49.1098C28.5817 47.8283 26.4576 46.4525 24.469 45.0217C24.224 42.566 24.0951 40.0412 24.0951 37.5C24.0951 34.9588 24.224 32.4346 24.469 29.9783C26.4559 28.5486 28.5805 27.1723 30.8012 25.8902C32.9985 24.6205 35.2508 23.4662 37.5008 22.4461C39.7526 23.4668 42.0043 24.6211 44.2016 25.8902C46.4211 27.1717 48.5451 28.5475 50.5338 29.9783C50.7787 32.434 50.9076 34.9588 50.9076 37.5C50.9076 40.0412 50.7787 42.5654 50.5338 45.0217C48.5469 46.4514 46.4223 47.8277 44.2016 49.1098C42.0043 50.3795 39.752 51.5338 37.502 52.5539C35.249 51.5332 32.9973 50.3789 30.8 49.1098H30.8012ZM48.3934 18.641C49.2131 21.4593 49.8203 24.3352 50.2098 27.2443C48.6149 26.1574 46.9485 25.1063 45.2293 24.1113C43.5178 23.127 41.7775 22.207 40.0256 21.3627C42.7426 20.2484 45.5393 19.3394 48.3922 18.6434L48.3934 18.641ZM52.7346 31.6207C55.0606 33.4118 57.247 35.3772 59.2748 37.5C57.2468 39.6226 55.0604 41.588 52.7346 43.3793C52.8793 41.4457 52.9561 39.4752 52.9561 37.5C52.9561 35.5248 52.8805 33.5566 52.7346 31.6207ZM37.5002 4.83398C41.3897 4.83398 45.1836 9.24551 47.7629 16.6846C44.2469 17.5586 40.8131 18.7349 37.4996 20.2002C34.1867 18.7347 30.7532 17.5585 27.2375 16.6846C29.8174 9.24492 33.6108 4.83398 37.5002 4.83398ZM7.86876 32.475C7.46009 32.0676 7.20537 31.531 7.14803 30.9568C7.09069 30.3826 7.23427 29.8062 7.5543 29.326C7.87433 28.8458 8.351 28.4915 8.90305 28.3234C9.4551 28.1553 10.0484 28.1838 10.5817 28.4042C11.1151 28.6246 11.5555 29.0231 11.8279 29.5318C12.1003 30.0406 12.1878 30.628 12.0756 31.1941C11.9633 31.7601 11.6582 32.2697 11.2123 32.636C10.7663 33.0023 10.2072 33.2026 9.63009 33.2027C9.30286 33.2041 8.97862 33.1405 8.67617 33.0155C8.37372 32.8906 8.09966 32.7069 7.86876 32.475ZM12.8404 27.5027C12.3098 26.9731 11.6564 26.583 10.9383 26.3674C10.2203 26.1518 9.46002 26.1173 8.7254 26.267C8.25197 24.2596 8.41017 22.5463 9.2088 21.1693C11.1559 17.7938 16.8705 16.7162 24.5979 18.2109C23.6003 21.6932 22.9061 25.2554 22.5231 28.8574C19.5929 30.9866 16.8553 33.3688 14.3416 35.9766C13.7709 35.318 13.2377 34.6633 12.742 34.0125C12.7742 33.982 12.8088 33.9539 12.8404 33.9229C13.691 33.0707 14.1687 31.9159 14.1687 30.7119C14.1687 29.5079 13.691 28.3531 12.8404 27.501V27.5027ZM9.20763 53.833C7.26583 50.4627 9.18888 44.973 14.3445 39.0234C16.8574 41.632 19.5943 44.0152 22.5236 46.1455C22.9063 49.7474 23.6003 53.3093 24.5979 56.7914C16.8699 58.2844 11.1553 57.2074 9.2088 53.833H9.20763ZM47.4641 66.8203C47.0566 67.2291 46.5199 67.484 45.9455 67.5414C45.3711 67.5988 44.7946 67.4552 44.3143 67.1351C43.8339 66.815 43.4795 66.3382 43.3113 65.786C43.1432 65.2338 43.1717 64.6404 43.3922 64.1069C43.6126 63.5734 44.0112 63.1329 44.5201 62.8604C45.029 62.588 45.6166 62.5004 46.1828 62.6127C46.749 62.725 47.2587 63.0303 47.6251 63.4763C47.9914 63.9224 48.1917 64.4818 48.1918 65.059C48.192 65.7193 47.9303 66.3527 47.4641 66.8203ZM45.7063 60.5197C44.8421 60.5197 43.9958 60.7663 43.267 61.2306C42.5381 61.6949 41.957 62.3577 41.5918 63.1409C41.2267 63.9242 41.0927 64.7954 41.2056 65.6521C41.3185 66.5089 41.6737 67.3157 42.2293 67.9775C40.7059 69.4289 39.1192 70.166 37.5031 70.166C33.6137 70.166 29.8197 65.7545 27.2404 58.3154C30.7564 57.4414 34.1903 56.2651 37.5037 54.7998C40.8175 56.2654 44.2518 57.4416 47.7682 58.3154C47.4811 59.1387 47.1822 59.9268 46.8694 60.6738C46.489 60.5723 46.097 60.5205 45.7033 60.5197H45.7063ZM65.7945 53.833C63.8475 57.208 58.1328 58.2861 50.4055 56.7914C51.403 53.3091 52.0972 49.747 52.4803 46.1449C55.4085 44.0147 58.1442 41.6318 60.6559 39.0234C65.8115 44.973 67.7346 50.4627 65.7916 53.833H65.7945Z" fill="#0056B1"/>
</svg>
