<svg width="39" height="39" viewBox="0 0 39 39" fill="none" xmlns="http://www.w3.org/2000/svg">
<g clip-path="url(#clip0_5121_51)">
<path d="M0.956949 24.3041C1.17066 24.4526 1.39633 24.5831 1.63165 24.6941C1.91245 24.8378 2.3837 25.0783 2.41685 25.2466C2.4577 25.4689 2.43099 25.6982 2.34015 25.9051C2.2433 26.1131 2.1419 26.2918 2.05415 26.4459C1.81625 26.8664 1.4178 27.571 2.0184 28.0618C2.1588 28.1918 2.40125 28.3797 2.62225 28.5493C2.45956 28.8338 2.38597 29.1605 2.411 29.4872C2.44549 29.7446 2.58503 29.9761 2.79645 30.1268C2.94075 30.2282 3.0948 30.3166 3.24625 30.4031C3.63105 30.6215 3.7812 30.7235 3.83125 30.9277C3.86736 31.1893 3.84517 31.4556 3.76625 31.7076C3.7279 31.8812 3.69085 32.0554 3.66875 32.2276C3.6042 32.82 3.67739 33.4193 3.8826 33.9787C4.17498 35.0115 5.10912 35.731 6.1823 35.75C6.36143 35.7495 6.54004 35.7305 6.7153 35.6934C8.5722 35.2533 10.402 34.7057 12.1954 34.0535C13.6599 34.9128 14.5848 37.5258 14.826 38.5066C14.898 38.7966 15.1584 39.0001 15.4571 39L31.7722 38.9545C31.9789 38.9541 32.1731 38.8554 32.2953 38.6885C32.4175 38.5217 32.453 38.3067 32.3909 38.1095C32.2302 37.6691 32.0086 37.2534 31.7325 36.8745C31.5766 36.6498 31.4361 36.4148 31.3119 36.1712C31.0175 35.5755 30.7721 34.9568 30.5781 34.3213C30.2069 33.0656 29.9495 31.7791 29.8091 30.4772C29.6395 28.9716 29.7833 27.4472 30.2316 26H31.8501C32.9271 26 33.8001 25.127 33.8001 24.05V15.6C33.8001 15.241 33.5091 14.95 33.1502 14.95H30.5267C30.542 14.8423 30.5498 14.7337 30.5501 14.625C30.5501 13.3686 29.5316 12.35 28.2751 12.35C27.0187 12.35 26.0001 13.3686 26.0001 14.625C26.0005 14.7337 26.0083 14.8423 26.0235 14.95H24.0501V12.9773C24.4093 13.0284 24.7755 12.9939 25.1187 12.8765C25.8608 12.6238 26.4186 12.0042 26.5923 11.2398C26.7624 10.5078 26.56 9.73894 26.0515 9.18555C25.5429 8.63217 24.7939 8.36564 24.0501 8.4734V5.85C24.0501 5.49101 23.7591 5.2 23.4001 5.2H14.9501C13.8732 5.2 13.0001 6.07304 13.0001 7.15V24.05C13.0001 25.127 13.8732 26 14.9501 26H28.8666C28.4576 27.5088 28.34 29.0817 28.5202 30.6345C28.6701 32.0148 28.9438 33.3787 29.3379 34.71C29.5518 35.4087 29.8215 36.0891 30.1445 36.7445C30.2929 37.0389 30.4612 37.3227 30.6483 37.5941L30.6918 37.659L15.9485 37.7C15.5171 36.1581 14.7339 34.7372 13.6606 33.5491L14.2455 33.3443C14.681 33.1922 15.0093 33.0779 15.1776 33.0239C17.9622 32.1432 19.3545 30.875 19.3168 29.2539C19.3084 28.8949 19.0106 28.6107 18.6516 28.6192C18.2926 28.6276 18.0084 28.9255 18.0168 29.2845C18.0324 29.9533 17.4845 30.9289 14.7824 31.7837C14.6063 31.8402 14.267 31.9585 13.8165 32.1158C13.3336 32.2848 12.7193 32.4993 12.042 32.7295H12.0375C10.2083 33.4 8.34182 33.9642 6.4475 34.4194C5.84263 34.5343 5.25464 34.1523 5.1137 33.553C4.97484 33.1832 4.92258 32.7865 4.96095 32.3934C4.97785 32.2569 5.00905 32.1217 5.03895 31.9858C5.1714 31.5365 5.19082 31.0613 5.0955 30.6026C4.90644 30.0055 4.46708 29.5202 3.8917 29.2727L3.75715 29.196C3.82733 29.0543 3.91115 28.9198 4.0074 28.7943C4.11644 28.6562 4.16479 28.4797 4.14139 28.3053C4.11799 28.1308 4.02485 27.9733 3.88325 27.8687C3.72725 27.7543 3.35935 27.4788 3.09025 27.2617C3.12145 27.2051 3.15525 27.1427 3.18775 27.0861C3.2898 26.9074 3.40615 26.6994 3.5199 26.4589C3.72559 26.0033 3.78618 25.4954 3.69345 25.0042C3.53745 24.2112 2.7776 23.8225 2.2238 23.5391C2.03679 23.4502 1.85744 23.3461 1.68755 23.2277C1.54934 23.1343 1.4197 23.0288 1.30015 22.9125C1.30015 22.8137 1.4061 22.5745 1.9014 21.972C3.06559 20.4732 4.06377 18.8526 4.8784 17.1385C5.03072 16.87 5.11653 16.5689 5.12865 16.2604C5.06151 15.607 4.71528 15.0146 4.179 14.6354C3.919 14.3942 3.66875 14.1667 3.6395 13.9548C3.64381 13.8014 3.67827 13.6504 3.7409 13.5102C3.84685 13.2314 3.96905 12.9584 4.0919 12.6847C4.35843 12.1352 4.57132 11.5612 4.7276 10.9707L4.7926 10.6938C4.92981 10.044 5.10672 9.40317 5.32235 8.775C5.83474 7.36077 6.62807 6.06487 7.65455 4.96535C8.898 3.64975 10.8551 2.71895 13.4811 2.197C15.4891 1.7561 17.5267 1.4626 19.5775 1.31885C22.5392 1.1709 25.4713 1.96828 27.9501 3.5958V4.225C27.9501 4.4712 28.0893 4.69627 28.3095 4.80638C28.5297 4.91648 28.7932 4.89272 28.9901 4.745C29.4149 4.44532 29.9983 4.52011 30.3337 4.91725C30.5226 5.15342 30.5919 5.46357 30.5215 5.7577C30.4452 6.07776 30.211 6.33679 29.9001 6.44475C29.5913 6.55354 29.2485 6.50112 28.9862 6.305C28.7893 6.15958 28.5274 6.13715 28.3086 6.24696C28.0898 6.35677 27.9512 6.5802 27.9501 6.825V9.75C27.9501 10.468 28.5322 11.05 29.2501 11.05H32.1751C32.4213 11.05 32.6464 10.9109 32.7565 10.6907C32.8666 10.4705 32.8429 10.207 32.6951 10.01C32.3935 9.60776 32.4471 9.04207 32.8191 8.70374C33.191 8.36542 33.7593 8.36542 34.1312 8.70374C34.5032 9.04207 34.5568 9.60776 34.2551 10.01C34.1074 10.207 34.0837 10.4705 34.1938 10.6907C34.3039 10.9109 34.5289 11.05 34.7752 11.05H38.3501C38.7091 11.05 39.0001 10.759 39.0001 10.4V1.95C39.0001 0.873045 38.1271 0 37.0501 0H28.6001C28.2412 0 27.9501 0.291015 27.9501 0.65V2.03905C25.3891 0.571103 22.46 -0.129692 19.5118 0.02015C17.3968 0.166848 15.2954 0.468389 13.2244 0.92235C10.2935 1.50735 8.1635 2.535 6.70945 4.0716C5.56247 5.29891 4.67563 6.74558 4.1023 8.32455C3.86821 9.00398 3.67589 9.69709 3.5264 10.4L3.4614 10.6743C3.32267 11.1841 3.13661 11.6798 2.90565 12.155C2.77565 12.4514 2.64045 12.7478 2.5241 13.0546C2.3745 13.3961 2.3154 13.7704 2.3525 14.1414C2.48329 14.7239 2.81948 15.2399 3.29955 15.5948C3.6174 15.886 3.82605 16.0914 3.82865 16.2701C3.80539 16.369 3.76819 16.4639 3.71815 16.5522C2.93976 18.191 1.98629 19.7408 0.874399 21.1744C0.403149 21.7477 -0.0908507 22.4165 0.0131493 23.086C0.151027 23.6025 0.49126 24.0417 0.956949 24.3041ZM14.3001 7.15C14.3001 6.79101 14.5912 6.5 14.9501 6.5H22.7501V9.425C22.7501 9.6712 22.8893 9.89627 23.1095 10.0064C23.3297 10.1165 23.5932 10.0927 23.7901 9.945C24.2149 9.64532 24.7983 9.72011 25.1337 10.1172C25.3226 10.3534 25.3919 10.6636 25.3216 10.9577C25.2452 11.2778 25.011 11.5368 24.7001 11.6448C24.3903 11.7535 24.0465 11.7001 23.7843 11.5024C23.587 11.3579 23.3253 11.3363 23.107 11.4466C22.8887 11.5569 22.7508 11.7804 22.7501 12.025V14.95H20.778C20.8284 14.5912 20.7937 14.2256 20.6766 13.8827C20.4245 13.1401 19.8052 12.5816 19.0406 12.4072C18.3643 12.2499 17.6532 12.41 17.1096 12.842C16.5661 13.2741 16.2495 13.9307 16.2501 14.625C16.2505 14.7337 16.2583 14.8423 16.2735 14.95H14.3001V7.15ZM14.3001 24.05V16.25H17.2251C17.4714 16.25 17.6964 16.1109 17.8065 15.8907C17.9166 15.6705 17.8929 15.407 17.7451 15.21C17.4309 14.7887 17.5071 14.1942 17.9174 13.8658C18.1539 13.677 18.4643 13.6079 18.7585 13.6786C19.0787 13.7544 19.3377 13.9889 19.4449 14.3C19.5544 14.6097 19.5007 14.9537 19.3019 15.2152C19.1569 15.4126 19.1352 15.6747 19.2457 15.8933C19.3562 16.1119 19.5802 16.2498 19.8251 16.25H22.7501V18.2234C21.8682 18.0959 20.9931 18.4951 20.5111 19.2446C20.0292 19.9941 20.0292 20.9559 20.5111 21.7054C20.9931 22.4549 21.8682 22.8541 22.7501 22.7266V24.7H14.9501C14.5912 24.7 14.3001 24.409 14.3001 24.05ZM23.6894 21.19C23.468 21.0814 23.2044 21.1065 23.0075 21.255C22.6053 21.5567 22.0396 21.503 21.7013 21.1311C21.363 20.7591 21.363 20.1909 21.7013 19.8189C22.0396 19.447 22.6053 19.3933 23.0075 19.695C23.2045 19.8427 23.468 19.8665 23.6882 19.7564C23.9084 19.6463 24.0475 19.4212 24.0475 19.175V16.25H26.9725C27.2188 16.25 27.4438 16.1109 27.5539 15.8907C27.664 15.6705 27.6403 15.407 27.4925 15.21C27.1909 14.8078 27.2445 14.2421 27.6165 13.9037C27.9884 13.5654 28.5567 13.5654 28.9286 13.9037C29.3006 14.2421 29.3542 14.8078 29.0525 15.21C28.9048 15.407 28.8811 15.6705 28.9912 15.8907C29.1013 16.1109 29.3263 16.25 29.5725 16.25H32.5001V24.05C32.5001 24.409 32.2091 24.7 31.8501 24.7H24.0501V21.775C24.0513 21.5272 23.9113 21.3003 23.6894 21.19ZM29.2501 1.3H37.0501C37.4091 1.3 37.7001 1.59101 37.7001 1.95V9.75H35.7267C35.742 9.64233 35.7498 9.53374 35.7501 9.425C35.7501 8.16855 34.7316 7.15 33.4751 7.15C32.2187 7.15 31.2001 8.16855 31.2001 9.425C31.2005 9.53374 31.2083 9.64233 31.2235 9.75H29.2501V7.77725C29.6093 7.82842 29.9755 7.7939 30.3187 7.6765C31.0608 7.42378 31.6186 6.80421 31.7923 6.0398C31.9624 5.30775 31.76 4.53894 31.2515 3.98555C30.7429 3.43217 29.9939 3.16564 29.2501 3.2734V1.3Z" fill="#0056B1"/>
<path d="M7.25791 11.5642L7.32291 11.2821C7.43826 10.7388 7.58454 10.2025 7.76101 9.67593C8.15203 8.58951 8.76048 7.59424 9.54916 6.75093C10.055 6.24224 10.6557 5.83768 11.3172 5.56013C11.5364 5.46992 11.6891 5.26752 11.7157 5.03195C11.7423 4.79638 11.6386 4.56502 11.445 4.4282C11.2514 4.29138 10.9986 4.27082 10.7855 4.37453C9.96749 4.72096 9.22596 5.22547 8.60341 5.85913C7.69324 6.83059 6.99099 7.97765 6.53966 9.23003C6.34352 9.80742 6.18139 10.3958 6.05411 10.9922L5.98911 11.2782C5.9503 11.4467 5.98027 11.6238 6.07237 11.7702C6.16447 11.9166 6.31112 12.0202 6.47986 12.0582C6.52698 12.069 6.57517 12.0744 6.62351 12.0744C6.9285 12.0742 7.19234 11.862 7.25791 11.5642Z" fill="#0056B1"/>
<path d="M5.84995 14.3C6.20894 14.3 6.49995 14.009 6.49995 13.65C6.49995 13.291 6.20894 13 5.84995 13C5.49097 13 5.19995 13.291 5.19995 13.65C5.19995 14.009 5.49097 14.3 5.84995 14.3Z" fill="#0056B1"/>
</g>
<defs>
<clipPath id="clip0_5121_51">
<rect width="39" height="39" fill="white"/>
</clipPath>
</defs>
</svg>
