<svg width="60" height="60" viewBox="0 0 60 60" fill="none" xmlns="http://www.w3.org/2000/svg">
<path fill-rule="evenodd" clip-rule="evenodd" d="M39.284 6.79687H20.4238C20.2198 6.79687 20.0391 6.92898 19.9772 7.1235L16.4111 18.3313C16.3449 18.5392 16.431 18.7652 16.6186 18.8766L29.6147 26.5866C29.7622 26.674 29.9457 26.674 30.0931 26.5866L43.0892 18.8766C43.2769 18.7652 43.3629 18.5392 43.2967 18.3313L39.7306 7.1235C39.6687 6.92898 39.488 6.79687 39.284 6.79687ZM20.4238 4.33594C19.1481 4.33594 18.0189 5.16157 17.6321 6.37733L14.0659 17.5852C13.6525 18.8845 14.1903 20.2973 15.363 20.9931L28.3591 28.7031C29.2806 29.2498 30.4272 29.2498 31.3488 28.7031L44.3449 20.9931C45.5175 20.2973 46.0553 18.8845 45.6419 17.5852L42.0757 6.37733C41.6889 5.16158 40.5598 4.33594 39.284 4.33594H20.4238Z" fill="white"/>
<path fill-rule="evenodd" clip-rule="evenodd" d="M21.9289 23.2851L27.8901 5.508L25.5569 4.72559L19.5957 22.5027L21.9289 23.2851Z" fill="white"/>
<path fill-rule="evenodd" clip-rule="evenodd" d="M27.9602 26.8527L35.0391 5.74238L32.7059 4.95996L25.627 26.0703L27.9602 26.8527Z" fill="white"/>
<path fill-rule="evenodd" clip-rule="evenodd" d="M30 53.7891C36.731 53.7891 42.1875 48.3326 42.1875 41.6016C42.1875 34.8705 36.731 29.4141 30 29.4141C23.269 29.4141 17.8125 34.8705 17.8125 41.6016C17.8125 48.3326 23.269 53.7891 30 53.7891ZM30 56.25C38.0902 56.25 44.6484 49.6917 44.6484 41.6016C44.6484 33.5114 38.0902 26.9531 30 26.9531C21.9098 26.9531 15.3516 33.5114 15.3516 41.6016C15.3516 49.6917 21.9098 56.25 30 56.25Z" fill="white"/>
<path fill-rule="evenodd" clip-rule="evenodd" d="M36.0011 45.2836C36.2303 44.9438 36.4291 44.5832 36.594 44.2052C36.9511 43.3867 37.1484 42.4871 37.1484 41.543C37.1484 40.5988 36.9511 39.6993 36.594 38.8807C36.4291 38.5028 36.2303 38.1422 36.0011 37.8023C35.7695 37.4591 35.507 37.1372 35.2173 36.8402C34.2506 37.4909 33.8558 38.7585 34.3383 39.8646C34.5632 40.3801 34.6875 40.9453 34.6875 41.543C34.6875 42.1406 34.5632 42.7058 34.3383 43.2213C33.8558 44.3275 34.2506 45.5951 35.2173 46.2457C35.507 45.9488 35.7695 45.6268 36.0011 45.2836ZM34.8343 46.6099C34.223 45.607 32.9614 45.1586 31.8314 45.6041C31.2898 45.8177 30.6925 45.9375 30.0586 45.9375C29.4247 45.9375 28.8274 45.8177 28.2858 45.6041C27.1557 45.1586 25.8942 45.607 25.2829 46.6099C25.5919 46.8824 25.926 47.1287 26.2813 47.3455C26.6292 47.5577 26.9977 47.7415 27.383 47.8935C28.2087 48.219 29.112 48.3984 30.0586 48.3984C31.0052 48.3984 31.9085 48.219 32.7342 47.8935C33.1195 47.7415 33.488 47.5577 33.8359 47.3455C34.1912 47.1287 34.5253 46.8824 34.8343 46.6099ZM24.8999 46.2457C25.8666 45.5951 26.2614 44.3275 25.7789 43.2213C25.554 42.7058 25.4297 42.1406 25.4297 41.543C25.4297 40.9453 25.554 40.3801 25.7789 39.8646C26.2614 38.7585 25.8666 37.4909 24.8999 36.8402C24.6102 37.1372 24.3477 37.4591 24.1161 37.8023C23.8869 38.1422 23.688 38.5028 23.5232 38.8807C23.1661 39.6993 22.9688 40.5988 22.9688 41.543C22.9688 42.4871 23.1661 43.3867 23.5232 44.2052C23.688 44.5832 23.8869 44.9438 24.1161 45.2836C24.3477 45.6268 24.6102 45.9488 24.8999 46.2457ZM25.2829 36.476C25.8942 37.4789 27.1557 37.9274 28.2858 37.4818C28.8274 37.2682 29.4247 37.1484 30.0586 37.1484C30.6925 37.1484 31.2898 37.2682 31.8314 37.4818C32.9614 37.9274 34.223 37.4789 34.8343 36.476C34.5253 36.2036 34.1912 35.9572 33.8359 35.7404C33.488 35.5282 33.1195 35.3445 32.7342 35.1925C31.9085 34.8669 31.0052 34.6875 30.0586 34.6875C29.112 34.6875 28.2087 34.8669 27.383 35.1925C26.9977 35.3445 26.6292 35.5282 26.2813 35.7404C25.926 35.9572 25.5919 36.2036 25.2829 36.476Z" fill="white"/>
</svg>
