<svg width="38" height="38" viewBox="0 0 38 38" fill="none" xmlns="http://www.w3.org/2000/svg">
<g clip-path="url(#clip0_4615_63)">
<path d="M30.0833 6.33333H28.3417C27.9742 4.5464 27.0019 2.9408 25.5886 1.78714C24.1754 0.633476 22.4077 0.002303 20.5833 0L17.4167 0C15.5923 0.002303 13.8246 0.633476 12.4114 1.78714C10.9981 2.9408 10.0258 4.5464 9.65833 6.33333H7.91667C5.81781 6.33585 3.80563 7.17073 2.32151 8.65485C0.837396 10.139 0.00251411 12.1511 0 14.25L0 30.0833C0.00251411 32.1822 0.837396 34.1944 2.32151 35.6785C3.80563 37.1626 5.81781 37.9975 7.91667 38H30.0833C32.1822 37.9975 34.1944 37.1626 35.6785 35.6785C37.1626 34.1944 37.9975 32.1822 38 30.0833V14.25C37.9975 12.1511 37.1626 10.139 35.6785 8.65485C34.1944 7.17073 32.1822 6.33585 30.0833 6.33333ZM17.4167 3.16667H20.5833C21.5622 3.17072 22.516 3.47713 23.3141 4.04397C24.1122 4.61081 24.7157 5.4104 25.042 6.33333H12.958C13.2843 5.4104 13.8878 4.61081 14.6859 4.04397C15.484 3.47713 16.4378 3.17072 17.4167 3.16667ZM7.91667 9.5H30.0833C31.3431 9.5 32.5513 10.0004 33.4421 10.8912C34.3329 11.782 34.8333 12.9902 34.8333 14.25V19H3.16667V14.25C3.16667 12.9902 3.66711 11.782 4.55791 10.8912C5.44871 10.0004 6.65689 9.5 7.91667 9.5ZM30.0833 34.8333H7.91667C6.65689 34.8333 5.44871 34.3329 4.55791 33.4421C3.66711 32.5513 3.16667 31.3431 3.16667 30.0833V22.1667H17.4167V23.75C17.4167 24.1699 17.5835 24.5727 17.8804 24.8696C18.1773 25.1665 18.5801 25.3333 19 25.3333C19.4199 25.3333 19.8227 25.1665 20.1196 24.8696C20.4165 24.5727 20.5833 24.1699 20.5833 23.75V22.1667H34.8333V30.0833C34.8333 31.3431 34.3329 32.5513 33.4421 33.4421C32.5513 34.3329 31.3431 34.8333 30.0833 34.8333Z" fill="#0056B1"/>
</g>
<defs>
<clipPath id="clip0_4615_63">
<rect width="38" height="38" fill="white"/>
</clipPath>
</defs>
</svg>
