<svg width="91" height="102" viewBox="0 0 91 102" fill="none" xmlns="http://www.w3.org/2000/svg">
<g clip-path="url(#clip0_393_3694)">
<path d="M72.3806 0.778931C56.3959 15.4513 43.4106 33.3883 34.5322 53.1722C29.9142 64.0612 25.8014 75.7095 22.5491 87.0745C21.2996 91.7506 20.1608 96.4365 18.968 101.155L18.5707 101.105C18.6197 98.6623 18.7636 96.2188 18.906 93.7688C19.5691 86.6594 21.0984 79.0141 23.0388 72.1011C24.4723 67.3983 26.1751 62.7794 28.1477 58.2781L31.3421 51.6412C36.8669 40.8052 43.5838 30.2725 51.3549 20.9633C57.6365 13.495 64.5531 6.57409 72.1177 0.476301L72.3806 0.778931Z" fill="#F8B21F"/>
</g>
<defs>
<clipPath id="clip0_393_3694">
<rect width="74" height="87" fill="white" transform="translate(0.0136719 16.2435) rotate(-12.3349)"/>
</clipPath>
</defs>
</svg>
