<svg width="44" height="44" viewBox="0 0 44 44" fill="none" xmlns="http://www.w3.org/2000/svg">
<g clip-path="url(#clip0_5121_34)">
<path d="M24.5338 21.5182C24.4684 21.5182 24.4034 21.5215 24.339 21.5282C23.9482 20.8828 23.1101 20.4485 22.1366 20.4485C21.4587 20.4485 20.8251 20.6639 20.3737 21.0312C20.0264 20.8829 19.6457 20.8059 19.2508 20.8059C18.099 20.8059 17.127 21.4618 16.7859 22.3854C15.9624 22.4058 15.1373 22.9584 14.6955 23.8546C14.4171 24.4205 14.3322 25.0456 14.4565 25.6148C14.5515 26.0498 14.7673 26.4263 15.0682 26.6975C14.8032 27.3784 14.7718 28.1061 14.988 28.743C15.1987 29.3633 15.6295 29.8501 16.2038 30.1147C16.2491 30.1354 16.2949 30.1545 16.341 30.1721L15.6311 31.6918C15.4908 31.9922 15.6205 32.3495 15.9207 32.4899L17.9629 33.4453C18.0434 33.483 18.1303 33.502 18.2174 33.502C18.2866 33.502 18.356 33.49 18.4223 33.4659C18.5721 33.4115 18.6941 33.2998 18.7615 33.1555L19.7659 31.0044C20.3168 30.9898 20.8259 30.7374 21.1714 30.327C21.4498 30.3898 21.7385 30.4215 22.0344 30.4215C22.7314 30.4215 23.4057 30.2381 23.9554 29.9074C24.3802 30.2386 24.8984 30.4215 25.4381 30.4215C26.8163 30.4215 27.9374 29.2371 27.9374 27.7812C27.9374 27.722 27.935 27.6631 27.9313 27.6044C27.9302 27.5884 27.9289 27.5726 27.9276 27.5567C27.9239 27.5104 27.9191 27.4643 27.913 27.4185C27.9113 27.4054 27.9098 27.3922 27.908 27.3791C27.8907 27.2594 27.8656 27.1417 27.8333 27.0265C27.8312 27.0189 27.8289 27.0114 27.8268 27.004C27.8108 26.949 27.7933 26.8946 27.774 26.8409C27.773 26.8382 27.7722 26.8354 27.7712 26.8328C27.7285 26.7152 27.678 26.6013 27.6199 26.4914C27.6188 26.4894 27.6177 26.4872 27.6166 26.4852C27.5876 26.4306 27.557 26.377 27.5243 26.3246C27.8337 25.9803 28.0151 25.5276 28.0151 25.051C28.0151 24.1078 27.323 23.3231 26.4193 23.1767C26.2999 22.2424 25.4998 21.5182 24.5338 21.5182ZM26.8142 25.0508C26.8142 25.2109 26.7604 25.3597 26.6672 25.4799C26.2939 25.2578 25.8705 25.1384 25.4382 25.1384C24.9712 25.1384 24.5136 25.2765 24.1147 25.5381C23.8373 25.7199 23.7598 26.0921 23.9416 26.3695C24.1234 26.6469 24.4957 26.7244 24.773 26.5426C24.9758 26.4096 25.2058 26.3393 25.4382 26.3393C25.737 26.3393 26.0191 26.4498 26.2528 26.6575C26.257 26.6616 26.2606 26.6662 26.265 26.6701C26.4897 26.876 26.6425 27.1552 26.7048 27.4637C26.7062 27.4705 26.7067 27.4775 26.708 27.4843C26.7164 27.5291 26.7238 27.5742 26.7284 27.62C26.7336 27.6731 26.7365 27.7268 26.7365 27.7809C26.7365 28.5746 26.1541 29.2202 25.4382 29.2202C25.2345 29.2202 25.0365 29.1651 24.8582 29.066C25.1206 28.678 25.2607 28.2373 25.2607 27.781C25.2607 27.4494 24.9918 27.1805 24.6602 27.1805C24.3286 27.1805 24.0597 27.4494 24.0597 27.781C24.0597 28.1011 23.9032 28.4167 23.6189 28.6698C23.6162 28.6722 23.6138 28.6749 23.6112 28.6774C23.2225 29.0225 22.648 29.2203 22.0345 29.2203C21.7108 29.2203 21.4025 29.1667 21.118 29.061C21.1143 29.0595 21.1104 29.0587 21.1065 29.0574C21.1064 29.0573 21.1062 29.0572 21.106 29.0572C20.4397 28.8062 20.0093 28.3053 20.0093 27.7811C20.0093 27.4495 19.7404 27.1806 19.4087 27.1806C19.0771 27.1806 18.8082 27.4495 18.8082 27.7811C18.8082 28.5553 19.2249 29.2801 19.9162 29.7743C19.8519 29.7936 19.7844 29.8039 19.7152 29.8039C19.6562 29.8039 19.6034 29.7976 19.554 29.7847C19.2737 29.7109 18.9802 29.8485 18.8575 30.1115L17.9277 32.1026L16.9735 31.6562L17.7576 29.9778C17.8453 29.7901 17.83 29.5702 17.7171 29.3965C17.6041 29.2227 17.4128 29.1166 17.2024 29.1233C17.0254 29.1245 16.857 29.0922 16.7039 29.0226C16.3587 28.8635 16.1988 28.5726 16.1255 28.3567C15.977 27.9195 16.0373 27.391 16.2909 26.906C16.3132 26.8657 16.3355 26.8272 16.3598 26.7867C16.3618 26.7832 16.3634 26.7794 16.3654 26.7759C16.7412 26.1598 17.3698 25.7697 17.9708 25.7801C18.3028 25.7819 18.5762 25.5222 18.5822 25.1906C18.5883 24.859 18.3244 24.5853 17.9928 24.5792C17.1732 24.5654 16.3365 24.9635 15.7317 25.6286C15.6761 25.5306 15.6458 25.4304 15.6301 25.3584C15.5644 25.058 15.6167 24.7031 15.7732 24.3852C16.0561 23.8111 16.6296 23.4698 17.0514 23.6237C17.2318 23.6896 17.433 23.6651 17.5924 23.558C17.7519 23.4508 17.8504 23.2739 17.8575 23.0818C17.8794 22.4891 18.5045 22.0069 19.251 22.0069C19.5804 22.0069 19.9009 22.1013 20.1537 22.2728C20.1549 22.2736 20.1562 22.2742 20.1575 22.2751C20.1605 22.2772 20.1632 22.2796 20.1662 22.2818C20.4699 22.4919 20.644 22.7949 20.644 23.1131C20.644 23.4698 20.4244 23.807 20.0566 24.0151C19.768 24.1783 19.6663 24.5448 19.8296 24.8335C19.9401 25.0287 20.1434 25.1384 20.3529 25.1384C20.4531 25.1384 20.5546 25.1133 20.6481 25.0605C21.3977 24.6365 21.8452 23.9085 21.8452 23.1132C21.8452 22.6358 21.684 22.1832 21.3907 21.8045C21.5899 21.7121 21.8432 21.6495 22.1369 21.6495C22.8214 21.6495 23.3365 22.0003 23.3706 22.315C23.3919 22.5092 23.5061 22.681 23.677 22.7756C23.848 22.8701 24.0544 22.8756 24.23 22.7903C24.327 22.7432 24.4293 22.7193 24.5341 22.7193C24.9202 22.7193 25.2343 23.0334 25.2343 23.4194C25.2343 23.4887 25.2243 23.5564 25.2047 23.6207C25.1407 23.83 25.1956 24.0573 25.348 24.2144C25.5004 24.3715 25.726 24.4334 25.9372 24.3757C25.9928 24.3605 26.0509 24.3531 26.1145 24.3531C26.5001 24.3531 26.8142 24.666 26.8142 25.0508ZM42.6488 4.91417C41.3484 2.66149 39.2485 1.05025 36.7359 0.377269C31.5509 -1.01148 26.2012 2.07797 24.8094 7.2643C23.9658 10.4167 24.737 13.726 26.8719 16.1778L26.5434 18.1342C24.9332 17.2115 23.0972 16.7264 21.1786 16.7264C19.8411 16.7264 18.5518 16.9597 17.3349 17.4194L17.1264 16.1778C19.2615 13.7257 20.0317 10.4164 19.1864 7.26421C18.5135 4.75183 16.9025 2.65178 14.65 1.35094C12.3975 0.0501052 9.77412 -0.295621 7.26243 0.377269C2.07584 1.76645 -1.01361 7.11657 0.375653 12.3039C0.976614 14.5435 2.35918 16.4986 4.26879 17.8092C6.13166 19.0877 8.38322 19.6818 10.6204 19.4865L13.398 20.0552C11.8249 21.7673 10.9407 23.9639 10.9407 26.2348C10.9407 28.0301 11.4821 29.7777 12.5068 31.2911C14.8275 35.6676 14.8598 39.509 12.6058 43.0345C12.4877 43.2193 12.4797 43.454 12.5851 43.6464C12.6905 43.8389 12.8924 43.9585 13.1118 43.9585H25.5233C25.8454 43.9585 26.1102 43.7043 26.1233 43.3824L26.248 40.3214L29.1524 40.0115C30.4249 39.8729 31.4034 38.8041 31.4286 37.5249L31.4553 36.1391C31.4588 35.9585 31.3807 35.7858 31.2427 35.669L30.9106 35.3882L31.3452 35.1679C31.5681 35.055 31.6977 34.8159 31.6707 34.5675L31.5331 33.299L32.3003 32.9071C32.6447 32.7329 32.8852 32.4448 32.9961 32.0739C33.1058 31.7065 33.0655 31.3358 32.8782 30.9995L31.2265 28.0692C31.3542 27.464 31.419 26.8481 31.419 26.2348C31.419 24.0683 30.6431 22.0115 29.2147 20.3388L33.3756 19.4865C35.6139 19.682 37.8661 19.0878 39.7289 17.8092C41.6386 16.4985 43.0205 14.5433 43.6203 12.3039C44.2944 9.79146 43.9495 7.16702 42.6488 4.91417ZM10.6539 18.2799C10.6345 18.2799 10.6152 18.2808 10.5959 18.2827C10.3152 18.3099 10.0362 18.3233 9.75934 18.3233C5.93108 18.3232 2.54867 15.768 1.53581 11.993C0.317903 7.44554 3.02631 2.75525 7.57326 1.53743C9.77472 0.947464 12.0747 1.25057 14.0493 2.39096C16.024 3.53135 17.4364 5.37239 18.0264 7.57514C18.7901 10.4228 18.0495 13.417 16.0455 15.5844C15.9193 15.721 15.8634 15.9082 15.8942 16.0915L16.4592 19.4561L14.7498 19.1061C14.7447 19.1051 14.7398 19.1038 14.7347 19.103L10.7744 18.2921C10.7346 18.2839 10.6943 18.2799 10.6539 18.2799ZM30.2179 26.2347C30.2179 26.833 30.1466 27.4347 30.0059 28.0231C29.9706 28.1704 29.9924 28.3256 30.0668 28.4575L31.8303 31.5863C31.8584 31.6369 31.8622 31.6732 31.8453 31.73C31.8291 31.784 31.8071 31.8105 31.756 31.8364L30.6183 32.4175C30.3964 32.5309 30.2675 32.7693 30.2944 33.0171L30.4319 34.2843L29.5599 34.7262C29.3802 34.8172 29.2582 34.9921 29.2348 35.1921C29.2115 35.392 29.2898 35.5904 29.4435 35.7204L30.2489 36.4015L30.2277 37.5014C30.2141 38.1894 29.7072 38.7429 29.0236 38.8174L25.6053 39.1821C25.3093 39.2136 25.0811 39.4573 25.0689 39.7548L24.9466 42.7574H14.1563C16.077 39.1154 15.8755 35.064 13.552 30.6984C13.5417 30.6791 13.5304 30.6604 13.5179 30.6421C12.6177 29.3227 12.1419 27.7986 12.1419 26.2348C12.1419 24.0282 13.11 21.8972 14.8074 20.3438L17.0759 20.8083C17.1159 20.8166 17.1563 20.8205 17.1964 20.8205C17.3504 20.8205 17.5003 20.7612 17.6134 20.6521C17.7558 20.5147 17.8214 20.3157 17.7887 20.1205L17.5382 18.6293C18.6837 18.1637 19.906 17.9273 21.1787 17.9273C23.0406 17.9273 24.8131 18.4378 26.3297 19.4068L26.2099 20.1205C26.1772 20.3157 26.2428 20.5146 26.3852 20.6521C26.4982 20.7611 26.6481 20.8205 26.8022 20.8204C26.8423 20.8204 26.8827 20.8164 26.9227 20.8082L27.8408 20.6202C29.3758 22.1568 30.2179 24.1389 30.2179 26.2347ZM42.4602 11.9929C41.4493 15.7682 38.0674 18.3233 34.2371 18.3232C33.9603 18.3232 33.6807 18.3098 33.4 18.2826C33.3404 18.2768 33.2802 18.2799 33.2216 18.292L27.9428 19.3732C27.9214 19.3764 27.9001 19.3808 27.879 19.3863L27.5393 19.4559L27.5738 19.2508C27.5767 19.2375 27.5786 19.2241 27.5805 19.2108L28.1042 16.0915C28.135 15.9081 28.0792 15.7208 27.9529 15.5843C25.9489 13.4171 25.2075 10.4228 25.9696 7.57514C26.9919 3.7651 30.4509 1.24593 34.2198 1.24593C34.9483 1.24593 35.6889 1.34011 36.4251 1.53734C38.6278 2.1273 40.4688 3.53977 41.6087 5.51453C42.7489 7.48954 43.0513 9.79018 42.4602 11.9929ZM36.813 5.30682C36.8124 5.30682 36.8117 5.30682 36.8111 5.30682C36.0013 5.30733 35.2434 5.63175 34.6767 6.22042L34.2459 6.66832L33.8137 6.22033C33.2473 5.63183 32.4893 5.30742 31.6795 5.3069C31.6788 5.3069 31.6782 5.3069 31.6776 5.3069C30.8674 5.3069 30.1084 5.63106 29.5403 6.21982C29.5402 6.21999 29.54 6.22016 29.5398 6.22033C28.38 7.42518 28.38 9.38575 29.5409 10.5917L30.4055 11.4855L33.8141 15.023C33.9274 15.1405 34.0834 15.2068 34.2465 15.2068H34.2466C34.4098 15.2068 34.5659 15.1404 34.6792 15.0228L38.0843 11.4864L38.9509 10.5907C40.1106 9.38575 40.1106 7.42526 38.9503 6.21982C38.3821 5.63097 37.6233 5.30682 36.813 5.30682ZM38.0866 9.75657L37.22 10.6522L34.2463 13.7406L31.2694 10.6512L30.4051 9.75761C29.6874 9.0121 29.6872 7.79918 30.4045 7.0535C30.7442 6.7015 31.1962 6.50771 31.6775 6.50771H31.6787C32.1592 6.50796 32.6101 6.70167 32.9487 7.0535L33.8143 7.9506C33.9275 8.0679 34.0835 8.13416 34.2465 8.13416H34.2469C34.4101 8.13407 34.5661 8.06756 34.6792 7.95L35.5422 7.05298C35.8804 6.70158 36.3313 6.50796 36.8119 6.50771H36.8131C37.2943 6.50771 37.7463 6.7015 38.0855 7.05298C38.8032 7.79875 38.8032 9.01201 38.0866 9.75657ZM14.8124 13.3674C14.9789 13.1291 14.9507 12.8056 14.7455 12.5996L14.428 12.2809C14.5775 11.997 14.7004 11.7009 14.7957 11.3945H15.244C15.5351 11.3945 15.7842 11.1859 15.8353 10.8994C15.8979 10.5476 15.9297 10.1859 15.9297 9.82404C15.9297 9.4649 15.8979 9.10336 15.8354 8.74947C15.7847 8.46261 15.5354 8.25353 15.244 8.25353H14.7952C14.7 7.94828 14.5773 7.65265 14.4279 7.36846L14.7447 7.05161C14.9507 6.8457 14.9791 6.5218 14.8124 6.28307C14.3988 5.69104 13.8878 5.17997 13.2933 4.76378C13.0548 4.5968 12.7304 4.62507 12.5243 4.83115L12.208 5.14757C11.9243 4.99821 11.6284 4.8755 11.3225 4.78036V4.33194C11.3225 4.04061 11.1134 3.79131 10.8266 3.74061C10.1192 3.61548 9.38465 3.61548 8.67721 3.74061C8.39044 3.79131 8.18127 4.04061 8.18127 4.33194V4.78036C7.87533 4.87558 7.57954 4.99821 7.29586 5.14757L6.97952 4.83115C6.77301 4.62473 6.44808 4.59671 6.20943 4.76455C5.61311 5.18393 5.1023 5.69482 4.69143 6.28307C4.52463 6.5218 4.55316 6.8457 4.75907 7.05161L5.07592 7.36846C4.92656 7.65265 4.80384 7.94836 4.70862 8.25353H4.25986C3.96853 8.25353 3.71931 8.46253 3.66852 8.7493C3.60596 9.10276 3.57425 9.4643 3.57425 9.82404C3.57425 10.1864 3.60604 10.5483 3.66869 10.8995C3.71982 11.186 3.96887 11.3946 4.25986 11.3946H4.70819C4.80341 11.7008 4.9263 11.997 5.07592 12.2809L4.75829 12.5997C4.55307 12.8057 4.52497 13.1291 4.69143 13.3675C5.10239 13.9557 5.61311 14.4666 6.20943 14.886C6.44834 15.0541 6.77396 15.0257 6.98029 14.8186L7.29577 14.502C7.57936 14.6519 7.87533 14.7746 8.18127 14.8693V15.3163C8.18127 15.6076 8.39044 15.8569 8.67721 15.9076C9.03093 15.9702 9.39247 16.0019 9.75195 16.0019C10.1114 16.0019 10.473 15.9702 10.8267 15.9076C11.1135 15.8569 11.3226 15.6076 11.3226 15.3163V14.8693C11.6286 14.7746 11.9245 14.6519 12.2081 14.502L12.5236 14.8186C12.7296 15.0254 13.0544 15.0541 13.2934 14.8868C13.8878 14.4706 14.3988 13.9594 14.8124 13.3674ZM13.7449 10.6696C13.6404 11.1624 13.4479 11.6266 13.1727 12.049C13.018 12.2866 13.0504 12.5999 13.2504 12.8007L13.5221 13.0734C13.3616 13.2601 13.1872 13.4344 13.0001 13.5954L12.73 13.3243C12.5288 13.1222 12.2132 13.0897 11.9752 13.2461C11.5539 13.5226 11.0912 13.7145 10.5998 13.8165C10.3211 13.8744 10.1214 14.1199 10.1214 14.4045V14.787C9.87536 14.8053 9.62837 14.8053 9.38233 14.787V14.4045C9.38233 14.1199 9.18253 13.8744 8.90392 13.8165C8.41261 13.7145 7.94993 13.5225 7.52857 13.2461C7.29053 13.0897 6.97497 13.1222 6.7737 13.3243L6.50403 13.595C6.31643 13.4334 6.14214 13.2592 5.98179 13.0732L6.25335 12.8007C6.45332 12.5999 6.48581 12.2867 6.33112 12.0491C6.05578 11.6264 5.86336 11.1623 5.75895 10.6697C5.70017 10.3922 5.45516 10.1936 5.17148 10.1936H4.78889C4.77978 10.0709 4.77522 9.94761 4.77522 9.82404C4.77522 9.70089 4.77986 9.57757 4.78897 9.4545H5.17148C5.45499 9.4545 5.69982 9.25625 5.75886 8.97893C5.86319 8.48822 6.05604 8.02356 6.33189 7.59782C6.48589 7.36004 6.45281 7.04696 6.25257 6.84664L5.98247 6.57654C6.14275 6.39066 6.3172 6.21646 6.5048 6.0549L6.77447 6.32466C6.97522 6.52541 7.28898 6.55832 7.52686 6.40321C7.9495 6.12795 8.41356 5.93545 8.90624 5.83103C9.18382 5.77225 9.38233 5.52725 9.38233 5.24357V4.86106C9.62837 4.84275 9.87536 4.84275 10.1214 4.86106V5.24357C10.1214 5.52725 10.3199 5.77225 10.5975 5.83103C11.0902 5.93545 11.5542 6.12795 11.9769 6.40321C12.2146 6.55807 12.5284 6.52541 12.7293 6.32466L12.9994 6.05447C13.1864 6.21543 13.3609 6.38972 13.5214 6.57629L13.2512 6.84656C13.0508 7.04688 13.0178 7.36004 13.1718 7.59782C13.4476 8.0233 13.6404 8.48796 13.7449 8.97893C13.8039 9.25625 14.0488 9.45442 14.3322 9.45442H14.7148C14.7239 9.57757 14.7285 9.70089 14.7285 9.82395C14.7285 9.94744 14.7239 10.0708 14.7148 10.1935H14.3322C14.0487 10.1936 13.8037 10.392 13.7449 10.6696ZM9.75186 6.43732C7.88307 6.43732 6.36266 7.95653 6.36266 9.82404C6.36266 11.6928 7.88307 13.2132 9.75186 13.2132C11.6207 13.2132 13.1411 11.6928 13.1411 9.82404C13.1411 7.95661 11.6207 6.43732 9.75186 6.43732ZM9.75186 12.0121C8.5453 12.0121 7.56381 11.0305 7.56381 9.82404C7.56381 8.61885 8.54539 7.63839 9.75186 7.63839C10.9583 7.63839 11.9399 8.61885 11.9399 9.82404C11.94 11.0306 10.9584 12.0121 9.75186 12.0121Z" fill="#0056B1"/>
</g>
<defs>
<clipPath id="clip0_5121_34">
<rect width="44" height="44" fill="white"/>
</clipPath>
</defs>
</svg>
