<svg width="80" height="80" viewBox="0 0 80 80" fill="none" xmlns="http://www.w3.org/2000/svg">
<path d="M71.25 26.2496H66.25V22.4996C66.25 22.168 66.1183 21.8501 65.8839 21.6157C65.6495 21.3812 65.3315 21.2496 65 21.2496C60.7287 21.2483 56.4876 21.9667 52.455 23.3746C52.4663 23.2208 52.4875 23.0708 52.4925 22.9146C52.5021 22.6571 52.4318 22.403 52.2914 22.1869C52.151 21.9709 51.9472 21.8036 51.7081 21.7078C51.4689 21.612 51.2059 21.5925 50.9552 21.6519C50.7045 21.7113 50.4783 21.8467 50.3075 22.0396C48.9548 23.5735 47.1075 24.5852 45.0864 24.8987C43.0654 25.2123 40.9984 24.8081 39.2444 23.7562C37.4905 22.7043 36.1604 21.0712 35.4853 19.1406C34.8101 17.2101 34.8326 15.104 35.5487 13.1883C35.6387 12.9469 35.6518 12.6837 35.5864 12.4346C35.521 12.1855 35.3803 11.9626 35.1834 11.7965C34.9865 11.6305 34.7432 11.5292 34.4866 11.5067C34.23 11.4842 33.9728 11.5415 33.75 11.6708C31.8524 12.7718 30.2767 14.3511 29.18 16.2512C28.0833 18.1513 27.5041 20.3057 27.5 22.4996C27.5 22.7933 27.5238 23.0821 27.5438 23.3746C23.5115 21.9667 19.2709 21.2483 15 21.2496C14.6685 21.2496 14.3505 21.3812 14.1161 21.6157C13.8817 21.8501 13.75 22.168 13.75 22.4996V26.2496H8.75C8.41848 26.2496 8.10054 26.3812 7.86612 26.6157C7.6317 26.8501 7.5 27.168 7.5 27.4996V64.9995C7.5 65.3311 7.6317 65.649 7.86612 65.8834C8.10054 66.1179 8.41848 66.2495 8.75 66.2495H15.9913C20.5019 66.2514 24.9457 67.3398 28.9466 69.4227C32.9476 71.5057 36.3878 74.5218 38.9762 78.2158C39.0915 78.3803 39.2448 78.5147 39.423 78.6074C39.6012 78.7001 39.7991 78.7486 40 78.7486C40.2009 78.7486 40.3988 78.7001 40.577 78.6074C40.7552 78.5147 40.9085 78.3803 41.0238 78.2158C43.6122 74.5218 47.0524 71.5057 51.0534 69.4227C55.0543 67.3398 59.4981 66.2514 64.0088 66.2495H71.25C71.5815 66.2495 71.8995 66.1179 72.1339 65.8834C72.3683 65.649 72.5 65.3311 72.5 64.9995V27.4996C72.5 27.168 72.3683 26.8501 72.1339 26.6157C71.8995 26.3812 71.5815 26.2496 71.25 26.2496ZM51.9238 26.2496C55.6955 24.7545 59.6953 23.9161 63.75 23.7708V57.4995H62.875C58.4383 57.5113 54.0872 58.7208 50.2809 61.0004C46.4747 63.28 43.3545 66.545 41.25 70.4508V34.9383C43.6876 34.7038 46.0014 33.7538 47.9006 32.2078C49.7998 30.6618 51.1995 28.5889 51.9238 26.2496ZM32.5062 15.8846C32.5062 16.0096 32.5062 16.1271 32.5062 16.2496C32.5064 18.2253 33.0268 20.1661 34.0152 21.8768C35.0036 23.5875 36.425 25.0077 38.1366 25.9947C39.8481 26.9816 41.7894 27.5003 43.7651 27.4988C45.7408 27.4972 47.6813 26.9754 49.3913 25.9858C48.8789 27.3605 48.0704 28.6057 47.023 29.633C45.9756 30.6603 44.715 31.4446 43.3306 31.9302C41.9462 32.4158 40.4719 32.5908 39.0123 32.4428C37.5527 32.2949 36.1435 31.8276 34.8847 31.0741C33.6259 30.3205 32.5483 29.2993 31.7283 28.0827C30.9084 26.8661 30.3662 25.484 30.1402 24.0344C29.9141 22.5849 30.0098 21.1033 30.4205 19.6948C30.8311 18.2864 31.5466 16.9855 32.5163 15.8846H32.5062ZM16.25 23.7708C20.3047 23.916 24.3045 24.7543 28.0763 26.2496C28.8136 28.5811 30.2171 30.6459 32.1138 32.1894C34.0104 33.7328 36.3173 34.6876 38.75 34.9358V70.4508C36.6455 66.545 33.5253 63.28 29.7191 61.0004C25.9128 58.7208 21.5617 57.5113 17.125 57.4995H16.25V23.7708ZM15.9913 63.7495H10V28.7496H13.75V58.7495C13.75 59.0811 13.8817 59.399 14.1161 59.6334C14.3505 59.8679 14.6685 59.9995 15 59.9995H17.125C21.1386 60.0114 25.0733 61.1144 28.5082 63.1906C31.9431 65.2667 34.7488 68.2378 36.625 71.7858C30.9925 66.6235 23.6316 63.7566 15.9913 63.7495ZM70 63.7495H64.0088C56.3654 63.7544 49.001 66.6214 43.3662 71.7858C45.2431 68.2364 48.0502 65.2645 51.4868 63.1883C54.9233 61.1121 58.86 60.0098 62.875 59.9995H65C65.3315 59.9995 65.6495 59.8679 65.8839 59.6334C66.1183 59.399 66.25 59.0811 66.25 58.7495V28.7496H70V63.7495Z" fill="#0056B1"/>
<path d="M34.1162 59.6351L35.8838 57.8651L34.9362 56.9201C33.1434 55.1167 31.0105 53.687 28.6612 52.7138C26.3119 51.7405 23.7929 51.243 21.25 51.2501V53.7501C23.4645 53.7439 25.6582 54.1771 27.7041 55.0246C29.75 55.8722 31.6074 57.1172 33.1687 58.6876L34.1162 59.6351Z" fill="#0056B1"/>
<path d="M34.1162 52.1351L35.8838 50.3651L34.9362 49.4201C33.1434 47.6167 31.0105 46.187 28.6612 45.2138C26.3119 44.2405 23.7929 43.743 21.25 43.7501V46.2501C23.4645 46.2439 25.6582 46.6771 27.7041 47.5246C29.75 48.3722 31.6074 49.6172 33.1687 51.1876L34.1162 52.1351Z" fill="#0056B1"/>
<path d="M34.1162 44.6351L35.8838 42.8651L34.9362 41.9201C33.1434 40.1167 31.0105 38.687 28.6612 37.7138C26.3119 36.7405 23.7929 36.243 21.25 36.2501V38.7501C23.4645 38.7439 25.6582 39.1771 27.7041 40.0246C29.75 40.8722 31.6074 42.1172 33.1687 43.6876L34.1162 44.6351Z" fill="#0056B1"/>
<path d="M44.1162 57.8651L45.8837 59.6351L46.8312 58.6876C48.3926 57.1172 50.25 55.8722 52.2959 55.0246C54.3418 54.1771 56.5355 53.7439 58.75 53.7501V51.2501C56.2072 51.243 53.6882 51.7404 51.339 52.7135C48.9897 53.6865 46.8568 55.1159 45.0637 56.9188L44.1162 57.8651Z" fill="#0056B1"/>
<path d="M44.1162 50.3651L45.8837 52.1351L46.8312 51.1876C48.3926 49.6172 50.25 48.3722 52.2959 47.5246C54.3418 46.6771 56.5355 46.2439 58.75 46.2501V43.7501C56.2072 43.743 53.6882 44.2404 51.339 45.2135C48.9897 46.1865 46.8568 47.6159 45.0637 49.4188L44.1162 50.3651Z" fill="#0056B1"/>
<path d="M44.1162 42.8651L45.8837 44.6351L46.8312 43.6876C48.3926 42.1172 50.25 40.8722 52.2959 40.0246C54.3418 39.1771 56.5355 38.7439 58.75 38.7501V36.2501C56.2072 36.243 53.6882 36.7404 51.339 37.7135C48.9897 38.6865 46.8568 40.1159 45.0637 41.9188L44.1162 42.8651Z" fill="#0056B1"/>
<path d="M39.2686 11.0149C39.3361 11.0624 39.3936 11.1037 39.4524 11.1399C39.9899 11.4962 41.9524 12.8061 42.7336 13.3274L45.0886 19.2174C45.1812 19.4498 45.3414 19.649 45.5484 19.7894C45.7554 19.9298 45.9998 20.0048 46.2499 20.0048C46.5 20.0048 46.7444 19.9298 46.9514 19.7894C47.1584 19.649 47.3186 19.4498 47.4111 19.2174L49.7661 13.3274L53.1936 11.0424C53.3884 10.9126 53.5428 10.7307 53.6393 10.5174C53.7358 10.3041 53.7704 10.068 53.7393 9.83601C53.7081 9.604 53.6125 9.3854 53.4632 9.2051C53.3139 9.02479 53.117 8.89003 52.8949 8.81615L49.6949 7.7499L47.4099 2.0374C47.3173 1.80504 47.1572 1.60578 46.9502 1.46541C46.7431 1.32504 46.4988 1.25 46.2486 1.25C45.9985 1.25 45.7542 1.32504 45.5471 1.46541C45.3401 1.60578 45.18 1.80504 45.0874 2.0374L42.8036 7.7499L39.8274 8.7424C39.6787 8.76505 39.5365 8.81871 39.4099 8.8999C39.2226 8.9999 39.0638 9.14599 38.9486 9.32436C38.8333 9.50274 38.7654 9.70754 38.7513 9.91943C38.7372 10.1313 38.7773 10.3433 38.8678 10.5354C38.9583 10.7275 39.0963 10.8934 39.2686 11.0174V11.0149ZM44.1436 9.93615C44.3162 9.87873 44.4742 9.78433 44.6066 9.65954C44.7389 9.53475 44.8424 9.38258 44.9099 9.21365L46.2499 5.8649L47.5899 9.2149C47.6575 9.3836 47.7611 9.53552 47.8934 9.66009C48.0258 9.78465 48.1837 9.87886 48.3561 9.93615L49.6811 10.3774L48.0561 11.4599C47.8458 11.5999 47.6828 11.8004 47.5886 12.0349L46.2499 15.3849L44.9111 12.0349C44.817 11.8004 44.654 11.5999 44.4436 11.4599C43.8186 11.0412 43.2799 10.6837 42.8186 10.3774L44.1436 9.93615Z" fill="#0056B1"/>
</svg>
