<svg width="54" height="54" viewBox="0 0 54 54" fill="none" xmlns="http://www.w3.org/2000/svg">
<path d="M45.5625 8.4375H43.5375C37.9078 8.44476 32.4469 10.3602 28.0463 13.8713C27.7483 14.1067 27.3797 14.2347 27 14.2347C26.6203 14.2347 26.2517 14.1067 25.9538 13.8713C21.5531 10.3602 16.0922 8.44476 10.4625 8.4375H8.4375C7.09484 8.4375 5.80717 8.97087 4.85777 9.92027C3.90837 10.8697 3.375 12.1573 3.375 13.5V35.4375C3.375 36.7802 3.90837 38.0678 4.85777 39.0172C5.80717 39.9666 7.09484 40.5 8.4375 40.5H10.4625C15.3244 40.5106 20.0401 42.1638 23.8444 45.1912C24.7409 45.9059 25.8535 46.2951 27 46.2951C28.1465 46.2951 29.2591 45.9059 30.1556 45.1912C33.9599 42.1638 38.6756 40.5106 43.5375 40.5H45.5625C46.9052 40.5 48.1928 39.9666 49.1422 39.0172C50.0916 38.0678 50.625 36.7802 50.625 35.4375V13.5C50.625 12.1573 50.0916 10.8697 49.1422 9.92027C48.1928 8.97087 46.9052 8.4375 45.5625 8.4375ZM10.4625 37.125H8.4375C7.98995 37.125 7.56073 36.9472 7.24426 36.6307C6.92779 36.3143 6.75 35.8851 6.75 35.4375V13.5C6.75 13.0524 6.92779 12.6232 7.24426 12.3068C7.56073 11.9903 7.98995 11.8125 8.4375 11.8125H10.4625C15.3244 11.8231 20.0401 13.4763 23.8444 16.5037C24.2823 16.8622 24.779 17.142 25.3125 17.3306V42.1875C21.0406 38.9379 15.8298 37.1615 10.4625 37.125ZM47.25 35.4375C47.25 35.8851 47.0722 36.3143 46.7557 36.6307C46.4393 36.9472 46.0101 37.125 45.5625 37.125H43.5375C38.1833 37.1419 32.9767 38.8814 28.6875 42.0863V17.3306C29.221 17.142 29.7177 16.8622 30.1556 16.5037C33.9599 13.4763 38.6756 11.8231 43.5375 11.8125H45.5625C46.0101 11.8125 46.4393 11.9903 46.7557 12.3068C47.0722 12.6232 47.25 13.0524 47.25 13.5V35.4375Z" fill="#0056B1"/>
</svg>
