<svg width="66" height="66" viewBox="0 0 66 66" fill="none" xmlns="http://www.w3.org/2000/svg">
<g clip-path="url(#clip0_4200_1504)">
<path d="M65.8079 54.4732L63.1501 50.925C62.8299 50.4978 62.2239 50.4108 61.7967 50.7307C61.3694 51.0508 61.2824 51.6569 61.6024 52.0841L63.1019 54.0859H44.044V47.6824C44.044 47.1484 43.6113 46.7156 43.0772 46.7156C42.5431 46.7156 42.1104 47.1484 42.1104 47.6824V54.0859H22.1012V41.6196C22.1012 41.0856 21.6684 40.6528 21.1343 40.6528C20.6003 40.6528 20.1675 41.0856 20.1675 41.6196V54.0859H11.3757V33.1872C14.2904 33.493 17.2707 33.6913 20.1675 33.6884V37.7539C20.1675 38.288 20.6003 38.7207 21.1343 38.7207C21.6684 38.7207 22.1012 38.288 22.1012 37.7539V33.6561C29.6397 33.4042 36.4931 31.6537 42.1104 26.6198V43.8167C42.1104 44.3508 42.5431 44.7835 43.0772 44.7835C43.6113 44.7835 44.044 44.3508 44.044 43.8167V24.6842C47.2444 21.1608 49.8977 16.4783 52.1585 10.4275C52.3454 9.92733 52.0913 9.37032 51.5913 9.18353C51.0908 8.99636 50.534 9.2507 50.3473 9.75073C43.1923 28.8991 32.2471 33.471 11.3757 31.2425V2.89811L13.3776 4.39757C13.8058 4.71829 14.4115 4.62973 14.731 4.2033C15.051 3.7761 14.9642 3.16998 14.5367 2.8499L10.9885 0.192072C10.641 -0.0685799 10.1647 -0.0594274 9.82936 0.192072L6.28117 2.8499C5.85384 3.16998 5.76683 3.7761 6.08691 4.2033C6.40711 4.63076 7.01324 4.71765 7.44031 4.39757L9.44213 2.89811V54.0859H0.96681C0.432744 54.0859 0 54.5187 0 55.0527C0 55.5868 0.432744 56.0196 0.96681 56.0196H9.44213V65.0332C9.44213 65.5673 9.87487 66 10.4089 66C10.943 66 11.3757 65.5673 11.3757 65.0332V56.0196H63.1019L61.6024 58.0214C61.2824 58.4486 61.3692 59.0547 61.7967 59.3748C62.2249 59.6955 62.8307 59.6069 63.1501 59.1805L65.8079 55.6323C66.0691 55.2853 66.0588 54.8067 65.8079 54.4732Z" fill="#0056B1"/>
<path d="M2.83875 12.5199H3.05802V18.4161C3.05802 18.9502 3.49077 19.3829 4.02483 19.3829C4.5589 19.3829 4.99164 18.9502 4.99164 18.4161V12.5199H5.59107C6.12513 12.5199 6.55788 12.0871 6.55788 11.5531C6.55788 11.019 6.12513 10.5863 5.59107 10.5863H4.99164V9.1537C4.99164 9.02711 5.01175 8.96794 5.01936 8.95028C5.09516 8.90568 5.3397 8.89498 5.50934 8.92979C6.02703 9.04387 6.54112 8.72018 6.66023 8.20236C6.77986 7.68209 6.45501 7.1631 5.93461 7.04348C5.72384 6.99501 4.63135 6.78682 3.80891 7.44154C3.4664 7.71418 3.05815 8.23265 3.05815 9.1537V10.5861H2.83888C2.30481 10.5861 1.87207 11.0189 1.87207 11.5529C1.87207 12.087 2.30469 12.5199 2.83875 12.5199Z" fill="#0056B1"/>
<path d="M23.2614 59.2461C22.8767 59.2461 22.5457 59.4712 22.39 59.7963C22.006 59.6249 21.5812 59.5289 21.1342 59.5289C19.4281 59.5289 18.04 60.917 18.04 62.6229C18.04 64.329 19.4281 65.7171 21.1342 65.7171C21.5811 65.7171 22.0058 65.621 22.39 65.4497C22.5457 65.7748 22.8769 65.9999 23.2614 65.9999C23.7954 65.9999 24.2282 65.5671 24.2282 65.0331V60.2128C24.2282 59.679 23.7954 59.2461 23.2614 59.2461ZM21.1342 63.7836C20.4943 63.7836 19.9736 63.2629 19.9736 62.623C19.9736 61.9832 20.4943 61.4626 21.1342 61.4626C21.7741 61.4626 22.2946 61.9832 22.2946 62.623C22.2946 63.2629 21.7741 63.7836 21.1342 63.7836Z" fill="#0056B1"/>
<path d="M43.077 59.313C42.5733 59.313 42.0957 59.4255 41.667 59.6259V57.9453C41.667 57.4113 41.2343 56.9785 40.7002 56.9785C40.1661 56.9785 39.7334 57.4113 39.7334 57.9453V65.0332C39.7334 65.5673 40.1661 66 40.7002 66C41.0239 66 41.3097 65.8404 41.4851 65.5962C41.9587 65.8536 42.501 66 43.0768 66C44.9205 66 46.4204 64.5001 46.4204 62.6564C46.4204 60.8128 44.9206 59.313 43.077 59.313ZM43.077 64.0664C42.2995 64.0664 41.667 63.434 41.667 62.6564C41.667 61.8789 42.2994 61.2465 43.077 61.2465C43.8545 61.2465 44.4869 61.8789 44.4869 62.6564C44.4869 63.434 43.8544 64.0664 43.077 64.0664Z" fill="#0056B1"/>
</g>
<defs>
<clipPath id="clip0_4200_1504">
<rect width="66" height="66" fill="white"/>
</clipPath>
</defs>
</svg>
