<svg width="41" height="49" viewBox="0 0 41 49" fill="none" xmlns="http://www.w3.org/2000/svg">
<g clip-path="url(#clip0_407_134)">
<path fill-rule="evenodd" clip-rule="evenodd" d="M13.3836 40.9417C16.4381 40.1555 20.2054 39.3135 21.7136 39.0414C24.84 38.4033 25.8518 37.3723 24.7526 35.8539C24.196 35.0144 23.6234 34.8362 21.6927 34.6612C19.1793 34.5103 7.266 37.2066 6.15605 38.2317C5.06808 39.2188 5.29619 40.8031 6.62187 41.5685C7.59708 42.1316 8.8788 41.9878 13.3814 40.9455L13.3836 40.9417Z" fill="#F8B21F"/>
<path fill-rule="evenodd" clip-rule="evenodd" d="M25.1967 27.0536C26.7409 26.9039 27.364 25.9126 26.9079 24.4506C26.5837 23.4812 25.7706 22.9102 20.1597 19.8282C14.3926 16.656 13.6858 16.3495 12.7964 16.7198C11.5926 17.2742 11.5024 17.4304 11.6484 18.7083C11.7342 19.6417 12.4089 20.1887 17.8415 23.4827C23.0418 26.6425 24.1394 27.1695 25.1967 27.0536Z" fill="#F8B21F"/>
<path fill-rule="evenodd" clip-rule="evenodd" d="M34.8672 15.9871C35.3218 15.8331 35.8188 15.2362 36.0013 14.5594C36.2579 13.6663 35.6976 12.5606 33.241 9.06488C29.8817 4.15913 28.5662 3.19137 27.4262 4.71726C25.4907 7.34827 31.891 17.0776 34.8634 15.9849L34.8672 15.9871Z" fill="#F8B21F"/>
</g>
<defs>
<clipPath id="clip0_407_134">
<rect width="21.5539" height="43.5784" fill="white" transform="translate(18.666 48.517) rotate(-150)"/>
</clipPath>
</defs>
</svg>
