<svg width="94" height="94" viewBox="0 0 94 94" fill="none" xmlns="http://www.w3.org/2000/svg">
<path fill-rule="evenodd" clip-rule="evenodd" d="M75.5171 46.9321C75.0879 49.2424 74.8134 51.3108 74.5948 52.9744C74.3771 54.6094 74.19 56.023 73.9928 56.5111L72.1512 61.0392C72.1136 61.1287 72.0882 61.2242 72.0748 61.3199L69.8081 76.7348C69.8051 76.7542 69.801 76.7745 69.8 76.7938C69.7512 77.3042 69.315 77.8197 68.5797 77.8197H65.946C65.2119 77.8197 64.7756 77.3042 64.7269 76.7938C64.7259 76.7887 64.7259 76.7816 64.7239 76.7754C64.4482 74.3481 64.3883 70.8652 64.3304 67.4983C64.2623 63.4949 64.1971 59.7133 63.7884 57.4994C62.861 52.4576 60.7529 47.169 58.7152 42.052C57.7624 39.6593 56.8604 37.3977 56.1131 35.2389C56.105 35.2195 56.0967 35.1983 56.0886 35.178C56.2157 35.0783 56.5594 34.9542 56.9072 35.0172C57.2631 35.2135 58.6197 36.4439 62.4105 44.045C62.4867 44.1995 62.5528 44.3317 62.6068 44.4364C63.1915 46.5364 65.1632 48.0849 67.4989 48.0849C69.9394 48.0849 71.9823 46.3948 72.4644 44.1546C73.1192 42.7899 75.0939 37.8805 74.7117 34.4882C74.6589 34.0052 75.0473 32.8052 75.3564 32.6516C75.3859 32.6557 75.4987 32.6791 75.7113 32.8285C75.932 32.9825 77.8 34.6929 75.5171 46.9321ZM55.807 63.2845C57.8692 62.5239 59.8287 61.4959 61.6581 60.2207C61.5931 59.329 61.5087 58.5499 61.3968 57.9408C60.984 55.6925 60.3087 53.3607 59.5065 51.0047C58.988 52.1152 58.5191 53.009 58.1093 53.79C56.716 56.4377 55.9493 57.9032 55.807 63.2845ZM53.3502 65.2542C53.3502 57.6163 54.2767 55.8551 55.9555 52.6603C56.6368 51.3648 57.4026 49.9055 58.3055 47.6736C57.9914 46.8437 57.668 46.013 57.3426 45.1843C56.8474 45.708 56.1244 46.5785 55.1135 48.0264C53.8618 49.813 52.7178 51.7107 52.4553 52.2262C52.4085 52.3196 52.3486 52.4021 52.2805 52.4783C51.6674 54.7612 49.5329 56.4513 47 56.4513C44.6784 56.4513 42.6934 55.0328 41.9044 53.0387C41.6369 52.5232 40.4747 50.528 39.0927 48.4759C37.9609 46.798 37.1719 45.8056 36.643 45.222C36.3227 46.0376 36.0044 46.8561 35.6942 47.6737C36.5972 49.9059 37.3629 51.3649 38.0442 52.6604C39.724 55.8555 40.6495 57.6167 40.6495 65.2596C40.6638 65.5544 41.1244 66.4493 41.4 66.9853C41.8606 67.8802 42.2594 68.6549 42.3334 69.3567L44.0835 83.4263C44.0845 83.4364 44.0845 83.4477 44.0865 83.4567C44.1465 84.073 44.6682 84.6964 45.5509 84.6964H48.4491C49.3317 84.6964 49.8534 84.073 49.9134 83.4567C49.9155 83.4475 49.9155 83.4364 49.9164 83.4263L51.6665 69.3567C51.7408 68.6551 52.1393 67.8802 52.5999 66.9853C52.8753 66.4489 53.3359 65.5541 53.3502 65.2542ZM32.6029 57.9408C33.0158 55.6925 33.6911 53.3607 34.4933 51.0047C35.012 52.1152 35.4806 53.009 35.8905 53.79C37.2815 56.4379 38.0504 57.9032 38.1916 63.2845C36.1304 62.5239 34.1708 61.4959 32.3414 60.2207C32.4067 59.3288 32.4911 58.5499 32.6029 57.9408ZM29.6692 67.4983C29.6113 70.8652 29.5513 74.3481 29.2757 76.7754C29.2748 76.7816 29.2748 76.7867 29.2727 76.7938C29.2238 77.3042 28.7877 77.8197 28.0535 77.8197H25.4189C24.6847 77.8197 24.2484 77.3042 24.1997 76.7938C24.1988 76.7745 24.1946 76.7542 24.1916 76.7348L21.9251 61.3199C21.9129 61.2244 21.8864 61.1287 21.8488 61.0392L20.0071 56.5111C19.8099 56.023 19.6228 54.6106 19.4061 52.9744C19.1863 51.3129 18.913 49.2424 18.4817 46.9321C16.1997 34.6929 18.0679 32.9825 18.2884 32.8291C18.5009 32.6796 18.6148 32.6563 18.6434 32.6522C18.9536 32.8058 19.341 34.0056 19.2891 34.4887C18.8915 38.0092 20.5378 42.6442 21.1481 43.8461C21.2071 43.9589 21.2812 44.0596 21.3658 44.1471C21.8437 46.3923 23.8887 48.0855 26.3322 48.0855C28.8397 48.0855 30.9284 46.2998 31.3322 43.966C34.033 38.6945 36.4197 35.7232 36.4441 35.6938C36.556 35.5545 36.6374 35.3908 36.681 35.2169C36.7034 35.1823 36.8122 35.0806 37.0491 35.0266C37.4122 34.9443 37.7803 35.0755 37.9115 35.1781C37.9013 35.1984 37.8951 35.2199 37.887 35.2391C37.1386 37.3979 36.2377 39.6595 35.2829 42.0531C33.2472 47.169 31.1392 52.4578 30.2118 57.4994C29.8023 59.7133 29.7384 63.4949 29.6692 67.4983ZM43.7203 9.51708C40.9584 12.3918 38.6257 15.8532 36.8848 19.693C36.057 21.5132 35.3667 23.4217 34.8144 25.3884C31.1628 24.8628 27.5702 24.1012 24.0822 23.1005C28.1783 15.7089 35.3962 10.5919 43.7203 9.51708ZM69.9172 23.1005C66.4232 24.1021 62.8204 24.8658 59.1626 25.3894C57.4217 19.2861 54.3619 13.7796 50.2761 9.51689C58.6013 10.5909 65.8201 15.7077 69.9172 23.1005ZM46.9998 9.71636C42.4797 13.7941 39.116 19.3961 37.2621 25.7016C43.7051 26.4358 50.2841 26.4358 56.7261 25.7026C54.8612 19.3818 51.4964 13.7768 46.9998 9.71636ZM30.5163 40.3498C31.5687 38.4839 32.5134 37.0196 33.2233 35.9833C33.2925 33.2094 33.626 30.4505 34.2148 27.773C30.3904 27.2086 26.6401 26.385 22.9833 25.3102C22.0875 27.3276 21.4134 29.4825 20.9934 31.747C21.6076 32.8217 21.7722 34.1661 21.7063 34.7589C21.5282 36.3432 21.9076 38.3973 22.3682 40.0629C23.2986 38.9282 24.7284 38.1959 26.332 38.1959C28.0665 38.1961 29.6 39.0513 30.5163 40.3498ZM26.3318 45.6527C27.7881 45.6527 28.9706 44.5261 28.9706 43.1411C28.9706 41.7551 27.7881 40.6284 26.3318 40.6284C24.8776 40.6284 23.6919 41.7551 23.6919 43.1411C23.6919 44.5261 24.8776 45.6527 26.3318 45.6527ZM43.9726 51.1328C43.9726 49.5423 45.3311 48.2468 46.9998 48.2468C48.6685 48.2468 50.027 49.5423 50.027 51.1328C50.027 52.7251 48.6685 54.0187 46.9998 54.0187C45.3311 54.0186 43.9726 52.7251 43.9726 51.1328ZM53.8261 36.0678C53.4854 35.2116 53.6166 34.331 54.1921 33.6486C54.9151 32.7883 56.2706 32.3796 57.4868 32.6531C57.6974 32.702 57.9179 32.7894 58.1559 32.9359C57.982 31.2937 57.7115 29.6748 57.3505 28.0945C53.9469 28.4981 50.4917 28.7036 46.9998 28.7036C43.5047 28.7036 40.0473 28.4981 36.6419 28.0945C36.2881 29.6555 36.0236 31.2529 35.8568 32.8738C36.0621 32.7813 36.2819 32.7071 36.5137 32.6531C37.7289 32.3796 39.0844 32.7883 39.8075 33.6486C40.3829 34.3308 40.5151 35.2114 40.1746 36.0678C39.4283 38.2113 38.5486 40.4312 37.6141 42.772C38.3634 43.4137 39.4241 44.6268 41.0206 46.986C41.4111 47.5615 41.7924 48.1464 42.1464 48.7046C43.0544 46.9911 44.8878 45.8156 47 45.8156C49.0704 45.8156 50.8752 46.9434 51.8005 48.6038C52.2226 47.946 52.6954 47.2351 53.1805 46.5446C54.6529 44.4499 55.6545 43.3475 56.3776 42.7547C55.447 40.4179 54.5685 38.2051 53.8261 36.0678ZM72.2937 34.7591C72.2275 34.1663 72.3933 32.8219 73.0075 31.7471C72.5875 29.4825 71.9134 27.3278 71.0164 25.3104C67.3557 26.3852 63.6004 27.2109 59.7708 27.7762C60.3686 30.4516 60.7206 33.2216 60.799 36.0343C61.4925 37.1234 62.3069 38.5469 63.2811 40.4017C64.1901 39.0737 65.7419 38.1961 67.4991 38.1961C69.0956 38.1961 70.5203 38.9201 71.4507 40.0468C72.0017 38.3038 72.4625 36.2539 72.2937 34.7591ZM64.8602 43.1411C64.8602 44.5261 66.0438 45.6527 67.4989 45.6527C68.9552 45.6527 70.1386 44.5261 70.1386 43.1411C70.1386 41.7551 68.955 40.6284 67.4989 40.6284C66.0438 40.6284 64.8602 41.7551 64.8602 43.1411ZM77.1074 30.838C76.3652 30.3153 75.7081 30.1873 75.1763 30.2268C73.7791 23.9485 70.4569 18.248 65.7092 14.0411C60.4955 9.41838 53.8494 6.87305 46.9996 6.87305C40.1498 6.87305 33.5046 9.41838 28.29 14.0411C23.5423 18.2478 20.2211 23.9485 18.8229 30.2268C18.291 30.1871 17.6342 30.3151 16.892 30.838C15.4165 31.8722 13.7294 34.7113 16.0916 47.3775C16.5116 49.6258 16.778 51.6595 16.9946 53.2927C17.2619 55.3143 17.439 56.6504 17.7552 57.4274L19.5399 61.8193L21.7822 77.0623C21.9764 78.8834 23.5332 80.2523 25.4185 80.2523H28.0531C29.9455 80.2523 31.5086 78.8712 31.6926 77.0408C31.9805 74.4987 32.0414 70.9619 32.1004 67.5412C32.1278 66.0169 32.1532 64.4712 32.201 63.0396C34.1218 64.2364 36.1627 65.1933 38.2961 65.8949C38.4569 66.5803 38.8393 67.3237 39.2367 68.0966C39.4798 68.5664 39.8855 69.3545 39.9139 69.6107C39.9159 69.6229 39.918 69.6321 39.9201 69.6432L41.667 83.7118C41.8662 85.6601 43.5329 87.1274 45.5505 87.1274H48.4487C50.4661 87.1274 52.1329 85.6601 52.332 83.7118L54.08 69.6432C54.081 69.6321 54.0831 69.6229 54.0851 69.6107C54.1135 69.3545 54.5194 68.5664 54.7623 68.0966C55.1599 67.3237 55.5423 66.5803 55.7029 65.8949C57.8363 65.1933 59.877 64.2375 61.799 63.0396C61.8458 64.4714 61.8711 66.0169 61.8986 67.5412C61.9576 70.9619 62.0197 74.4987 62.3064 77.0408C62.4904 78.8712 64.0544 80.2523 65.9457 80.2523H68.5794C70.4646 80.2523 72.0226 78.8834 72.2168 77.0623L74.4591 61.8193L76.2447 57.4274C76.5609 56.6506 76.7378 55.3143 77.0042 53.2927C77.2208 51.6586 77.4872 49.6258 77.9081 47.3775C80.2709 34.7111 78.583 31.8722 77.1074 30.838Z" fill="#0056B1"/>
</svg>
