<svg width="44" height="44" viewBox="0 0 44 44" fill="none" xmlns="http://www.w3.org/2000/svg">
<path d="M15.3959 19.3813C15.7505 19.8734 16.1085 20.2737 16.4545 20.6608C17.0789 21.3591 17.5905 21.9334 17.8686 22.8113C17.4395 23.1249 17.159 23.6308 17.159 24.2024C17.159 24.8705 17.5427 25.4496 18.1006 25.7344C18.0451 25.9033 18.014 26.0833 18.014 26.2706C18.014 27.0069 18.4804 27.6347 19.133 27.8798C19.0924 28.0263 19.0689 28.1797 19.0689 28.3389C19.0689 29.2888 19.8418 30.0618 20.7917 30.0618H23.2108C24.1594 30.0618 24.9312 29.2888 24.9312 28.3389C24.9312 28.1799 24.9079 28.0266 24.8675 27.8803C25.5197 27.6356 25.9861 27.0074 25.9861 26.2707C25.9861 26.0834 25.9551 25.9034 25.8997 25.7345C26.4576 25.4497 26.8412 24.8706 26.8412 24.2025C26.8412 23.6312 26.561 23.1254 26.1321 22.8117C26.4112 21.9333 26.9226 21.3587 27.5466 20.6603C27.8922 20.2734 28.2498 19.8733 28.6036 19.3823C29.6085 17.9926 30.1397 16.3488 30.1397 14.6286C30.1397 10.1404 26.4883 6.48903 22.0002 6.48903C17.512 6.48903 13.863 10.1404 13.863 14.6286C13.863 16.351 14.3932 17.9947 15.3959 19.3813ZM20.4015 15.3953H19.7272C19.3554 15.3953 19.0529 15.0928 19.0529 14.7211C19.0529 14.3493 19.3554 14.0492 19.7272 14.0492C20.099 14.0492 20.4015 14.3506 20.4015 14.7211V15.3953ZM21.7765 16.7703H22.2261V22.4795H21.7765V16.7703ZM25.1207 23.8545C25.308 23.8545 25.4662 24.0138 25.4662 24.2024C25.4662 24.3896 25.308 24.5478 25.1207 24.5478H18.8794C18.6922 24.5478 18.534 24.3896 18.534 24.2024C18.534 24.0138 18.6922 23.8545 18.8794 23.8545H25.1207ZM24.611 26.2706C24.611 26.4579 24.4528 26.6161 24.2656 26.6161H19.7368C19.5483 26.6161 19.389 26.4579 19.389 26.2706C19.389 26.0788 19.545 25.9228 19.7368 25.9228H24.2656C24.4528 25.9228 24.611 26.0821 24.611 26.2706ZM23.2108 28.6868H20.7917C20.6032 28.6868 20.4439 28.5274 20.4439 28.3389C20.4439 28.1471 20.5999 27.9911 20.7917 27.9911H23.2108C23.398 27.9911 23.5562 28.1503 23.5562 28.3389C23.5562 28.5274 23.398 28.6868 23.2108 28.6868ZM22.0001 7.86394C25.73 7.86394 28.7646 10.8985 28.7646 14.6285C28.7646 16.0576 28.3236 17.4229 27.4887 18.5774C27.1763 19.0109 26.8432 19.3836 26.5211 19.7441C25.8501 20.4951 25.1592 21.2687 24.7949 22.4795H23.601V16.7703H24.2728C25.4028 16.7703 26.3221 15.851 26.3221 14.7211C26.3221 13.5912 25.4029 12.6742 24.2728 12.6742C23.1427 12.6742 22.226 13.5924 22.226 14.7211V15.3953H21.7764V14.7211C21.7764 13.5924 20.8571 12.6742 19.7271 12.6742C18.5971 12.6742 17.6779 13.5924 17.6779 14.7211C17.6779 15.8497 18.5971 16.7703 19.7271 16.7703H20.4014V22.4795H19.2057C18.8422 21.2688 18.1509 20.4953 17.4795 19.7443C17.1572 19.3838 16.8237 19.0109 16.5107 18.5765C15.6781 17.425 15.2379 16.0597 15.2379 14.6285C15.2379 10.8985 18.2714 7.86394 22.0001 7.86394ZM23.6011 15.3953V14.7211C23.6011 14.3506 23.9025 14.0492 24.2729 14.0492C24.6433 14.0492 24.9472 14.3506 24.9472 14.7211C24.9472 15.0915 24.6447 15.3953 24.2729 15.3953H23.6011ZM9.56811 14.6285C9.56811 14.2488 9.87594 13.941 10.2556 13.941H11.9536C12.3332 13.941 12.6411 14.2488 12.6411 14.6285C12.6411 15.0082 12.3332 15.316 11.9536 15.316H10.2556C9.87594 15.316 9.56811 15.0082 9.56811 14.6285ZM13.2093 6.80992C12.9407 6.54145 12.9407 6.10617 13.2093 5.83771C13.4777 5.56915 13.913 5.56915 14.1815 5.83771L15.3826 7.03877C15.6511 7.30724 15.6511 7.74251 15.3826 8.01098C15.2483 8.14521 15.0724 8.21233 14.8964 8.21233C14.7204 8.21233 14.5445 8.14521 14.4103 8.01098L13.2093 6.80992ZM21.3126 4.58199V2.88403C21.3126 2.50436 21.6204 2.19653 22.0001 2.19653C22.3798 2.19653 22.6876 2.50436 22.6876 2.88403V4.58199C22.6876 4.96166 22.3798 5.26949 22.0001 5.26949C21.6204 5.26949 21.3126 4.96166 21.3126 4.58199ZM28.6175 8.01098C28.3491 7.74251 28.3491 7.30724 28.6175 7.03877L29.8186 5.83771C30.0871 5.56915 30.5223 5.56915 30.7909 5.83771C31.0594 6.10617 31.0594 6.54145 30.7909 6.80992L29.5898 8.01098C29.4556 8.14521 29.2797 8.21233 29.1037 8.21233C28.9277 8.21233 28.7518 8.14521 28.6175 8.01098ZM31.359 14.6285C31.359 14.2488 31.6668 13.941 32.0465 13.941H33.7445C34.1241 13.941 34.432 14.2488 34.432 14.6285C34.432 15.0082 34.1241 15.316 33.7445 15.316H32.0465C31.6668 15.316 31.359 15.0082 31.359 14.6285ZM40.1836 26.4587C41.0462 25.405 41.4967 23.9121 41.4967 22.4679C41.4967 20.1222 39.5884 18.214 37.2427 18.214C34.8971 18.214 32.9911 20.1223 32.9911 22.4679C32.9911 23.6784 33.3443 24.9748 33.9361 25.9357C34.5512 26.9344 35.415 27.5764 36.4195 27.8019C36.2862 27.9282 36.1616 28.0528 36.0441 28.1705L31.0844 33.1302H25.2838C23.9766 33.1302 22.913 34.1937 22.913 35.501C22.913 35.8557 22.992 36.1921 23.1324 36.4944H20.8677C21.008 36.1921 21.0869 35.8557 21.0869 35.501C21.0869 34.1937 20.0245 33.1302 18.7185 33.1302H12.9154L7.95584 28.1705C7.83827 28.0529 7.71384 27.9283 7.58055 27.802C8.58576 27.5765 9.44986 26.9344 10.0647 25.9355C10.6558 24.9751 11.0088 23.6788 11.0088 22.4678C11.0088 20.1222 9.10155 18.2139 6.75718 18.2139C4.4128 18.2139 2.50327 20.1222 2.50327 22.4678C2.50327 23.9121 2.95376 25.4052 3.81666 26.4588C2.28413 26.7336 1.11719 28.0756 1.11719 29.686V41.1162C1.11719 41.4958 1.42502 41.8037 1.80469 41.8037C2.18436 41.8037 2.49219 41.4958 2.49219 41.1162V29.686C2.49219 28.6358 3.34649 27.7815 4.39665 27.7815C5.62401 27.7815 6.28418 28.4424 6.98302 29.1422L12.3459 34.5051H18.7185C19.2662 34.5051 19.7119 34.9518 19.7119 35.5009C19.7119 36.0501 19.2662 36.4944 18.7185 36.4944H12.0289C11.683 36.4944 11.4079 36.3803 11.1631 36.1356L6.69281 31.6629C6.42443 31.3943 5.98916 31.3942 5.7206 31.6626C5.45205 31.931 5.45196 32.3664 5.72034 32.6349L8.02098 34.9368V41.1163C8.02098 41.4959 8.3288 41.8038 8.70848 41.8038C9.08815 41.8038 9.39598 41.4959 9.39598 41.1163V36.3126L10.1907 37.1078C10.3152 37.2322 10.4482 37.3421 10.5886 37.4367V41.1163C10.5886 41.4959 10.8964 41.8038 11.2761 41.8038H32.7236C33.1033 41.8038 33.4111 41.4959 33.4111 41.1163V37.4367C33.5516 37.342 33.6846 37.2322 33.809 37.1078L34.6038 36.313V41.1163C34.6038 41.496 34.9116 41.8038 35.2913 41.8038C35.6709 41.8038 35.9788 41.496 35.9788 41.1163V34.938L38.2817 32.6351C38.5502 32.3666 38.5502 31.9313 38.2817 31.6629C38.0132 31.3944 37.578 31.3943 37.3094 31.6629L32.8367 36.1356C32.5919 36.3804 32.3167 36.4945 31.9709 36.4945H25.2838C24.7347 36.4945 24.288 36.0489 24.288 35.5011C24.288 34.9533 24.7347 34.5053 25.2838 34.5053H31.654L37.0169 29.1422C37.7158 28.4425 38.3759 27.7816 39.6057 27.7816C40.6544 27.7816 41.5077 28.6359 41.5077 29.6861V41.1163C41.5077 41.4959 41.8155 41.8038 42.1952 41.8038C42.5749 41.8038 42.8827 41.4959 42.8827 41.1163V29.6861C42.8827 28.0751 41.7158 26.7327 40.1836 26.4587ZM6.75727 19.5888C8.34341 19.5888 9.63385 20.8803 9.63385 22.4677C9.63385 24.0339 8.85294 26.5185 6.75727 26.5185C4.77151 26.5185 3.87836 24.1498 3.87836 22.4677C3.87836 20.8803 5.16983 19.5888 6.75727 19.5888ZM31.971 37.8694H32.0363V40.4287H11.9638V37.8694H31.971ZM34.3661 22.4677C34.3661 20.8803 35.6566 19.5888 37.2427 19.5888C38.8289 19.5888 40.1217 20.8803 40.1217 22.4677C40.1217 24.1497 39.2285 26.5185 37.2427 26.5185C35.257 26.5185 34.3661 24.1498 34.3661 22.4677Z" fill="#0056B1"/>
</svg>
