<svg width="479" height="22" viewBox="0 0 479 22" fill="none" xmlns="http://www.w3.org/2000/svg">
<path d="M476.692 10.9478C465.407 6.51994 445.449 6.90645 432.681 7.71115C416.731 8.70546 402.678 11.2291 388.035 13.1494C373.312 15.0916 357.023 16.8576 339.359 15.3349C317.841 13.4912 298.412 8.08106 278.262 4.40221C260.195 1.09983 241.092 -0.85591 223.836 1.00683C208.959 2.61505 197.899 6.21991 186.244 9.43389C174.832 12.5824 161.729 15.8353 144.499 14.6999C125.984 13.4655 108.553 8.64242 91.7363 5.17871C74.4392 1.60997 55.0349 -1.24965 38.6859 1.43586C28.2309 3.14155 21.9184 6.68577 15.2127 9.81993C11.2302 11.6683 7.32764 13.542 3.66522 15.4682C0.248187 17.211 0.134493 18.7196 0.0031155 21.0306C0.00103496 21.125 0.240168 21.2247 0.522624 21.1837C4.87539 20.7838 9.02246 20.5919 12.3033 19.5544C16.3537 18.2743 19.6109 16.4808 22.9826 14.9731C29.4022 12.0452 35.1565 8.27615 44.3699 6.33059C58.5939 3.33853 77.0523 7.14536 92.1043 10.3813C108.438 13.8816 125.28 18.0305 143.31 19.3724C159.292 20.551 173.121 19.0613 184.965 16.371C197.173 13.5942 207.19 9.87192 219.876 7.31818C235.228 4.23292 252.431 4.80095 271.102 8.06942C290.414 11.4701 308.329 16.1858 328.3 18.8926C345.344 21.1807 361.956 21.1455 377.472 19.7874C394.478 18.2734 409.624 15.4669 426.155 13.6118C433.574 12.7836 441.272 12.0797 449.518 12.0725C458.125 12.0734 466.463 13.3432 475.027 13.5084C479.007 13.5961 479.284 11.973 476.732 10.9723L476.692 10.9478Z" fill="#F8B21F"/>
</svg>
