<svg width="42" height="42" viewBox="0 0 42 42" fill="none" xmlns="http://www.w3.org/2000/svg">
<path d="M3.93754 31.7724C3.93499 31.6 3.86472 31.4356 3.74193 31.3146C3.61913 31.1936 3.45367 31.1258 3.28129 31.1258C3.10891 31.1258 2.94345 31.1936 2.82066 31.3146C2.69786 31.4356 2.6276 31.6 2.62504 31.7724C2.62504 36.1312 5.06772 37.5591 5.51123 37.7821C9.10322 40.2763 15.3267 39.4224 17.3439 35.3537C17.9641 34.1749 18.1312 32.9093 18.5321 31.6958C19.9412 27.8631 23.8847 25.8669 25.4464 22.1036C27.1158 17.8494 26.4517 12.3965 24.3644 8.5207C21.3833 2.56374 13.9675 1.18395 8.53281 4.71493C4.65187 7.37598 2.57021 12.6372 2.62508 17.5316C2.62816 17.7036 2.69866 17.8676 2.8214 17.9881C2.94413 18.1087 3.10929 18.1762 3.28133 18.1762C3.45337 18.1762 3.61853 18.1087 3.74125 17.9881C3.86398 17.8675 3.93447 17.7036 3.93754 17.5316C3.91291 15.2068 4.38371 12.9033 5.31861 10.7746C6.15599 8.78525 7.52382 7.06415 9.27277 5.79924C14.0425 2.67937 20.6212 3.88541 23.2119 9.14946C25.1173 12.6867 25.7467 17.7029 24.2326 21.604C22.6486 25.226 18.6188 27.3563 17.2869 31.2802C16.5421 34.3373 15.775 36.7863 12.2799 37.6507C11.2344 37.9133 10.1458 37.9566 9.08275 37.7776C8.0197 37.5987 7.00525 37.2014 6.10336 36.6109C6.08157 36.6017 3.93754 35.6167 3.93754 31.7724Z" fill="#0056B1"/>
<path d="M6.31543 26.091C6.14138 26.091 5.97447 26.1602 5.8514 26.2833C5.72833 26.4063 5.65919 26.5732 5.65918 26.7473V28.4132C5.66591 28.9983 5.84416 29.5686 6.17186 30.0533C6.49955 30.5381 6.96228 30.9161 7.5027 31.1404C8.04313 31.3647 8.6375 31.4255 9.21215 31.3153C9.78681 31.2051 10.3165 30.9287 10.7356 30.5203C11.6004 29.7512 11.667 28.5059 11.6125 27.4218C11.6173 26.8413 11.7738 26.2721 12.0664 25.7708C12.3591 25.2694 12.7777 24.8532 13.2807 24.5635C15.0154 23.603 17.095 23.851 17.9674 21.3637C18.2767 20.3355 18.2854 19.2403 17.9927 18.2072C17.7 17.1742 17.1179 16.2465 16.3153 15.5333C15.2901 14.6981 14.069 14.1379 12.7673 13.9055C11.4655 13.6732 10.126 13.7764 8.87525 14.2055C9.49301 11.5194 12.4395 8.41205 16.5733 9.57895C19.0816 10.441 20.7347 13.207 20.5934 16.3059C20.5868 16.479 20.6489 16.6476 20.7662 16.7751C20.8835 16.9026 21.0464 16.9785 21.2194 16.9864C21.3924 16.9942 21.5615 16.9334 21.6899 16.8171C21.8182 16.7008 21.8954 16.5385 21.9046 16.3655C22.0718 12.6888 20.055 9.38773 17 8.33767C13.6412 7.18378 10.7035 9.32012 10.3795 9.56717C7.37191 11.865 6.42756 16.4585 8.08328 20.7372C8.14827 20.8965 8.27317 21.0238 8.43112 21.0919C8.58907 21.16 8.76744 21.1634 8.92785 21.1013C9.08827 21.0393 9.21791 20.9167 9.28888 20.76C9.35985 20.6034 9.36648 20.4251 9.30735 20.2636C8.74311 18.8292 8.50743 17.2866 8.61763 15.7492C9.70619 15.1987 10.9317 14.9778 12.1439 15.1135C13.3562 15.2492 14.5025 15.7356 15.4424 16.5131C16.0559 17.0527 16.5025 17.7563 16.7296 18.5412C16.9566 19.326 16.9547 20.1594 16.7241 20.9432C16.1442 22.7416 14.0454 22.5171 12.621 23.4289C11.9196 23.8344 11.3364 24.4162 10.9293 25.1166C10.5222 25.817 10.3053 26.6117 10.3001 27.4218V28.4132C10.2992 28.854 10.1235 29.2764 9.81148 29.5878C9.49948 29.8992 9.07669 30.0741 8.63589 30.0741C8.1951 30.0741 7.77231 29.8992 7.46031 29.5878C7.14831 29.2764 6.97259 28.854 6.97172 28.4132V26.7473C6.97171 26.5732 6.90256 26.4063 6.77948 26.2832C6.65641 26.1602 6.48948 26.091 6.31543 26.091Z" fill="#0056B1"/>
<path d="M32.8799 23.5513C33.0087 23.5492 33.1342 23.5095 33.2408 23.4371C33.3474 23.3646 33.4304 23.2626 33.4797 23.1435C33.5291 23.0244 33.5425 22.8935 33.5183 22.7669C33.4942 22.6403 33.4335 22.5236 33.3438 22.431C31.7532 20.8367 30.8599 18.6766 30.8599 16.4245C30.8599 14.1724 31.7532 12.0122 33.3439 10.418C33.4048 10.357 33.4531 10.2847 33.4861 10.2051C33.5191 10.1255 33.5361 10.0401 33.5361 9.95397C33.5361 9.8678 33.5191 9.78247 33.4861 9.70286C33.4531 9.62325 33.4048 9.55091 33.3439 9.48998C33.283 9.42905 33.2106 9.38072 33.131 9.34774C33.0514 9.31476 32.9661 9.29779 32.8799 9.29779C32.7937 9.29779 32.7084 9.31476 32.6288 9.34774C32.5492 9.38072 32.4768 9.42905 32.4159 9.48998C30.5795 11.3306 29.5481 13.8245 29.5481 16.4245C29.5481 19.0246 30.5795 21.5184 32.4159 23.359C32.4768 23.4201 32.5491 23.4685 32.6287 23.5015C32.7083 23.5345 32.7937 23.5514 32.8799 23.5513Z" fill="#0056B1"/>
<path d="M35.3353 21.2022C35.4592 21.3214 35.6249 21.3872 35.7967 21.3855C35.9686 21.3839 36.1329 21.3149 36.2545 21.1933C36.376 21.0718 36.445 20.9074 36.4466 20.7355C36.4483 20.5637 36.3825 20.398 36.2633 20.2742C35.2439 19.2523 34.6714 17.8679 34.6714 16.4245C34.6714 14.9811 35.2439 13.5967 36.2633 12.5748C36.3242 12.5139 36.3726 12.4416 36.4056 12.3619C36.4385 12.2823 36.4555 12.197 36.4555 12.1108C36.4555 12.0247 36.4385 11.9393 36.4056 11.8597C36.3726 11.7801 36.3242 11.7078 36.2633 11.6468C36.2024 11.5859 36.13 11.5376 36.0504 11.5046C35.9708 11.4716 35.8855 11.4547 35.7993 11.4547C35.7132 11.4547 35.6278 11.4716 35.5482 11.5046C35.4686 11.5376 35.3963 11.5859 35.3353 11.6468C34.07 12.9149 33.3594 14.6331 33.3594 16.4245C33.3594 18.2159 34.07 19.9341 35.3353 21.2022Z" fill="#0056B1"/>
<path d="M38.7187 19.2376C38.8476 19.2356 38.9731 19.1959 39.0797 19.1234C39.1862 19.051 39.2693 18.949 39.3186 18.8299C39.368 18.7108 39.3814 18.5799 39.3572 18.4533C39.3331 18.3267 39.2724 18.2099 39.1827 18.1174C38.7346 17.668 38.4829 17.0592 38.4829 16.4245C38.4829 15.7899 38.7346 15.1811 39.1828 14.7317C39.3019 14.6078 39.3677 14.4422 39.366 14.2703C39.3643 14.0985 39.2953 13.9341 39.1738 13.8126C39.0523 13.6911 38.8879 13.6221 38.7161 13.6205C38.5442 13.6188 38.3786 13.6846 38.2547 13.8037C37.5607 14.4994 37.1709 15.4419 37.1709 16.4246C37.1709 17.4072 37.5607 18.3498 38.2548 19.0454C38.3156 19.1064 38.3879 19.1548 38.4676 19.1878C38.5472 19.2208 38.6326 19.2377 38.7187 19.2376Z" fill="#0056B1"/>
</svg>
