<svg width="46" height="46" viewBox="0 0 46 46" fill="none" xmlns="http://www.w3.org/2000/svg">
<path d="M41.777 35.6827L34.8284 26.0874C34.4978 25.6318 34.0641 25.2609 33.5627 25.0048C33.0614 24.7487 32.5067 24.6148 31.9437 24.6139H23.0467V22.7092H29.9503C30.657 22.7011 31.3321 22.4146 31.8289 21.9119C32.3258 21.4093 32.6045 20.731 32.6045 20.0242C32.6045 19.3174 32.3258 18.6391 31.8289 18.1364C31.3321 17.6338 30.657 17.3473 29.9503 17.3391H23.0467V14.2456C23.0463 13.703 22.9217 13.1678 22.6825 12.6808C22.4433 12.1938 22.0958 11.768 21.6667 11.436C22.6928 10.9417 23.5206 10.1137 24.0147 9.08752C24.5088 8.06134 24.6398 6.89781 24.3863 5.78746C24.1328 4.6771 23.5098 3.68571 22.6193 2.97563C21.7289 2.26555 20.6237 1.87885 19.4847 1.87885C18.3458 1.87885 17.2406 2.26555 16.3502 2.97563C15.4597 3.68571 14.8367 4.6771 14.5832 5.78746C14.3297 6.89781 14.4607 8.06134 14.9548 9.08752C15.4489 10.1137 16.2767 10.9417 17.3028 11.436C16.8736 11.7679 16.5261 12.1937 16.2868 12.6807C16.0476 13.1677 15.9231 13.703 15.9228 14.2456V18.1182C13.4071 18.2398 10.9808 19.0893 8.93863 20.5636C6.89648 22.0378 5.32636 24.0733 4.41896 26.4228C3.51157 28.7724 3.30595 31.3348 3.82709 33.799C4.34822 36.2632 5.57369 38.523 7.35463 40.304C9.13558 42.085 11.3954 43.3105 13.8595 43.8317C16.3237 44.3529 18.8861 44.1473 21.2357 43.24C23.5853 42.3327 25.6208 40.7626 27.0951 38.7205C28.5694 36.6784 29.4189 34.2521 29.5406 31.7364H30.1239L36.0058 39.8604C36.2791 40.2402 36.6251 40.5619 37.0237 40.8071C37.4222 41.0522 37.8654 41.2159 38.3277 41.2886C38.5164 41.3189 38.7072 41.3341 38.8984 41.3342C39.5541 41.3325 40.1966 41.1499 40.7552 40.8065C41.3138 40.4631 41.7668 39.9722 42.0644 39.3879C42.3619 38.8036 42.4925 38.1485 42.4416 37.4948C42.3908 36.841 42.1605 36.214 41.7762 35.6827H41.777ZM15.7151 6.91399C15.7151 6.16848 15.9361 5.4397 16.3503 4.81982C16.7645 4.19994 17.3532 3.71679 18.042 3.43148C18.7307 3.14616 19.4886 3.0715 20.2198 3.21691C20.951 3.36233 21.6227 3.7213 22.1499 4.24844C22.6771 4.77557 23.0361 5.4472 23.1816 6.17838C23.3271 6.90957 23.2525 7.66747 22.9672 8.35626C22.682 9.04505 22.1989 9.63379 21.579 10.048C20.9592 10.4623 20.2304 10.6834 19.4849 10.6835C18.4855 10.6825 17.5272 10.2851 16.8204 9.57839C16.1137 8.87169 15.7161 7.91346 15.7151 6.91399ZM19.4849 31.7364H24.9237C24.8036 33.3392 24.2261 34.8738 23.2596 36.1581C22.2932 37.4424 20.9785 38.4223 19.4716 38.9814C17.9647 39.5406 16.329 39.6555 14.7587 39.3126C13.1884 38.9696 11.7496 38.1832 10.6131 37.0467C9.47651 35.9102 8.69003 34.4714 8.34702 32.9011C8.004 31.3309 8.11887 29.6952 8.67797 28.1883C9.23708 26.6814 10.2169 25.3666 11.5012 24.4001C12.7854 23.4336 14.32 22.856 15.9228 22.7358V28.175C15.9239 29.1193 16.2996 30.0246 16.9674 30.6923C17.6352 31.3599 18.5406 31.7354 19.4849 31.7364ZM16.5517 42.8554C13.4896 42.857 10.5479 41.6628 8.3533 39.5273C6.15872 37.3918 4.88472 34.4838 4.80273 31.4228C4.72073 28.3617 5.83722 25.3897 7.91433 23.1397C9.99144 20.8898 12.865 19.5399 15.9228 19.3775V21.4748C14.0707 21.5955 12.2926 22.2475 10.8015 23.3527C9.3104 24.4579 8.16948 25.9695 7.51537 27.7065C6.86126 29.4434 6.72169 31.3321 7.11337 33.1464C7.50505 34.9606 8.41139 36.6235 9.72383 37.9359C11.0363 39.2483 12.6992 40.1546 14.5135 40.5462C16.3277 40.9378 18.2164 40.7982 19.9534 40.144C21.6903 39.4899 23.2019 38.3489 24.307 36.8577C25.4122 35.3666 26.0641 33.5885 26.1848 31.7364H28.2828C28.1185 34.7378 26.8113 37.5623 24.6297 39.6301C22.4481 41.698 19.5576 42.852 16.5517 42.8554ZM40.2424 39.638C39.7474 39.9961 39.1303 40.1431 38.527 40.0464C37.9236 39.9498 37.3834 39.6175 37.0249 39.1226L30.9551 30.7388C30.8968 30.6583 30.8203 30.5927 30.7317 30.5475C30.6432 30.5023 30.5453 30.4786 30.4459 30.4786H19.4849C18.8741 30.478 18.2884 30.2351 17.8564 29.8033C17.4244 29.3714 17.1814 28.7858 17.1806 28.175V14.2456C17.1768 13.9406 17.2336 13.6379 17.3477 13.355C17.4618 13.0721 17.6309 12.8147 17.8452 12.5976C18.0595 12.3806 18.3148 12.2083 18.5963 12.0907C18.8777 11.9731 19.1797 11.9125 19.4847 11.9125C19.7898 11.9125 20.0918 11.9731 20.3732 12.0907C20.6547 12.2083 20.9099 12.3806 21.1243 12.5976C21.3386 12.8147 21.5077 13.0721 21.6218 13.355C21.7359 13.6379 21.7927 13.9406 21.7889 14.2456V17.9687C21.7888 18.0513 21.8051 18.1331 21.8367 18.2095C21.8682 18.2858 21.9146 18.3551 21.973 18.4135C22.0314 18.4719 22.1007 18.5183 22.1771 18.5499C22.2534 18.5814 22.3352 18.5977 22.4178 18.5976H29.9503C30.3249 18.6036 30.6821 18.7566 30.945 19.0236C31.2078 19.2906 31.3551 19.6502 31.3551 20.0249C31.3551 20.3995 31.2078 20.7592 30.945 21.0262C30.6821 21.2932 30.3249 21.4462 29.9503 21.4522H22.4178C22.251 21.4522 22.091 21.5184 21.9731 21.6364C21.8551 21.7543 21.7889 21.9143 21.7889 22.0811V25.2436C21.7888 25.3262 21.8051 25.408 21.8367 25.4843C21.8682 25.5606 21.9146 25.63 21.973 25.6884C22.0314 25.7468 22.1007 25.7931 22.1771 25.8247C22.2534 25.8563 22.3352 25.8725 22.4178 25.8725H31.9434C32.3076 25.873 32.6664 25.9596 32.9908 26.1252C33.3151 26.2908 33.5957 26.5308 33.8096 26.8255L40.7578 36.4208C41.1156 36.9161 41.2623 37.5332 41.1657 38.1365C41.0691 38.7399 40.737 39.2803 40.2424 39.639V39.638Z" fill="#0056B1"/>
</svg>
