<svg width="67" height="67" viewBox="0 0 67 67" fill="none" xmlns="http://www.w3.org/2000/svg">
<g clip-path="url(#clip0_4200_1496)">
<path d="M61.4924 17.3629C60.8504 18.0049 60.1828 18.5263 59.4794 18.9403L48.0589 7.51925C48.4729 6.81639 48.9938 6.1488 49.6363 5.50626C50.8642 4.27843 50.8642 2.28027 49.6358 1.05192C48.408 -0.175907 46.4098 -0.176418 45.1815 1.05192C40.0698 6.16362 39.9952 12.3426 40.8897 17.9216C34.3953 16.5828 27.2159 16.0134 21.4847 21.7441C18.8941 24.3352 17.4045 27.3782 16.9312 31.0479C16.8616 31.5862 17.242 32.0789 17.7802 32.1484C18.3169 32.218 18.8113 31.8377 18.8803 31.2994C19.2964 28.077 20.6024 25.4061 22.8745 23.134C28.1549 17.8536 34.8257 18.6137 41.268 20.0107C41.4602 20.9732 41.6304 21.7282 41.818 22.5579C35.4171 21.1021 29.2177 20.0731 24.5425 24.8157C14.0921 35.2809 31.8497 53.1345 20.1679 64.8163C19.7063 65.2779 18.9549 65.2779 18.4933 64.8163C18.0312 64.3547 18.0312 63.6033 18.4933 63.1417C25.9007 55.7338 19.282 45.0923 18.7632 34.9042C18.7351 34.3623 18.2776 33.9442 17.7317 33.9728C17.1893 34.0004 16.7722 34.4625 16.7998 35.0044C16.9077 37.1175 17.2665 39.2353 17.6616 41.1491C12.0827 40.2551 5.90421 40.3297 0.792506 45.4409C-0.438392 46.6713 -0.438903 48.6643 0.792506 49.8952C2.0234 51.1267 4.01594 51.1267 5.24735 49.8952C5.88938 49.2532 6.55697 48.7323 7.25983 48.3183L18.6809 59.7388C18.2663 60.4422 17.7455 61.1098 17.1034 61.7518C15.8751 62.9797 15.8751 64.9783 17.1034 66.2062C18.3313 67.4345 20.3294 67.4345 21.5578 66.2062C26.6695 61.0945 26.7441 54.9154 25.8496 49.3365C33.2625 50.8644 39.8868 50.8818 45.2546 45.514C50.9858 39.7828 50.4154 32.6024 49.0766 26.1079C50.9414 26.4044 52.8143 26.5838 54.7 26.5246C55.2423 26.5072 55.6681 26.0533 55.6513 25.5109C55.6339 24.9685 55.181 24.5407 54.6381 24.5596C52.8766 24.6148 50.9531 24.4497 48.6252 24.0392C48.4361 23.2096 48.2521 22.428 48.0451 21.5294C53.4967 22.6269 58.6856 22.9494 62.8823 18.7527C63.3439 18.2911 64.0948 18.2911 64.5569 18.7527C65.02 19.2153 65.02 19.9647 64.5569 20.4273C62.7182 22.2665 60.6413 23.4606 58.2081 24.0776C57.6822 24.211 57.3637 24.7452 57.4971 25.2717C57.6305 25.7977 58.1652 26.1161 58.6912 25.9827C61.4771 25.2763 63.8504 23.914 65.9468 21.8172C66.5418 21.2222 66.8694 20.4314 66.8694 19.59C66.8694 16.7924 63.465 15.3902 61.4924 17.3629ZM3.85748 48.5054C3.39436 48.9685 2.6455 48.9685 2.18238 48.5054C1.71977 48.0428 1.71926 47.2939 2.18238 46.8308C5.36543 43.6477 9.09697 42.6903 12.8081 42.6903C14.6028 42.6903 16.3934 42.9142 18.1145 43.2189C18.3021 44.0439 18.4933 44.8551 18.6947 45.7292C13.2431 44.6312 8.05419 44.3087 3.85748 48.5054ZM9.19052 47.4687C11.8573 46.6493 15.047 46.9627 19.164 47.8347C20.0365 51.9517 20.3499 55.1414 19.53 57.8082L9.19052 47.4687ZM24.429 42.5702C23.6796 39.334 23.0166 36.316 23.0458 33.5853L33.4133 43.9529C30.6827 43.982 27.6647 43.3196 24.429 42.5702ZM35.9344 43.6948L23.3039 31.0643C23.6162 29.5737 24.2332 28.1894 25.277 26.9258L40.0723 41.7216C38.8092 42.766 37.4255 43.3824 35.9344 43.6948ZM41.4627 40.3323L26.6669 25.5365C27.93 24.4927 29.3143 23.8757 30.8048 23.5633L43.4353 36.1938C43.123 37.6844 42.5065 39.0687 41.4627 40.3323ZM42.3108 24.6879C43.0601 27.9241 43.7226 30.9421 43.694 33.6728L33.3264 23.3052C36.0566 23.2761 39.0751 23.9385 42.3108 24.6879ZM43.8647 44.1241C38.5843 49.4045 31.9141 48.6444 25.4713 47.2474C25.3328 46.5563 25.182 45.8442 24.9213 44.7002C31.4044 46.1749 37.4761 47.163 42.1901 42.449C52.571 32.0687 34.9566 14.0566 46.5719 2.4418C47.0335 1.98021 47.7844 1.9797 48.2465 2.4418C48.7081 2.90338 48.7081 3.6548 48.2465 4.11639C37.8063 14.5565 55.5429 32.4465 43.8647 44.1241ZM47.5758 19.4234C46.7032 15.3064 46.3899 12.1167 47.2098 9.44994L57.5493 19.7894C54.8825 20.6093 51.6928 20.2959 47.5758 19.4234Z" fill="#0056B1"/>
</g>
<defs>
<clipPath id="clip0_4200_1496">
<rect width="67" height="67" fill="white"/>
</clipPath>
</defs>
</svg>
