<svg width="93" height="67" viewBox="0 0 93 67" fill="none" xmlns="http://www.w3.org/2000/svg">
<g clip-path="url(#clip0_207_298)">
<path fill-rule="evenodd" clip-rule="evenodd" d="M73.3814 18.358C76.7471 13.6233 83.1243 8.48665 91.76 4.24332C94.0186 3.12665 93 -0.312681 90.52 -1.45715e-05C72.3186 2.32265 60.5386 10.3627 54.1171 22.2887C51.7257 26.7553 50.22 31.4453 49.4229 36.314C48.8914 39.4853 48.7586 41.8973 48.7586 44.6667C48.7586 56.9947 58.6786 67 70.9014 67C83.1243 67 93.0443 56.9947 93.0443 44.6667C93.0443 32.3387 82.9914 22.3333 71.3886 22.3333C72.0086 20.636 72.1414 20.1447 73.4257 18.4027L73.3814 18.358ZM24.6671 18.358C28.0329 13.6233 34.41 8.48665 43.0457 4.24332C45.3043 3.12665 44.2857 -0.312681 41.8057 -1.45715e-05C23.6043 2.32265 11.8243 10.3627 5.35857 22.3333C2.96714 26.8 1.46143 31.49 0.664286 36.3587C0.132857 39.53 0 41.942 0 44.7113C0 57.0393 9.92 67.0447 22.1429 67.0447C34.3657 67.0447 44.2857 57.0393 44.2857 44.7113C44.2857 32.3833 34.2329 22.378 22.63 22.378C23.25 20.6807 23.3829 20.1893 24.6671 18.4473V18.358Z" fill="#F8B21F"/>
</g>
<defs>
<clipPath id="clip0_207_298">
<rect width="93" height="67" fill="white"/>
</clipPath>
</defs>
</svg>
