<svg width="93" height="77" viewBox="0 0 93 77" fill="none" xmlns="http://www.w3.org/2000/svg">
<g clip-path="url(#clip0_689_2952)">
<path fill-rule="evenodd" clip-rule="evenodd" d="M45.7006 10.3949C44.7601 10.335 43.8703 10.7981 43.4136 11.5973C43.1953 11.9667 41.9868 14.924 40.7618 18.1258C39.509 21.3183 37.4153 26.2613 36.0856 29.1113L33.6678 34.2605L33.8939 35.7928C34.1407 37.457 34.6698 38.0781 35.7139 37.9194C36.4322 37.7773 36.6996 37.4547 39.1597 33.8071C41.3049 30.6249 47.4414 22.8473 50.5453 19.3834C53.401 16.1845 53.9901 14.9873 53.3157 13.7479C52.9099 13.0429 52.4022 12.746 49.5975 11.6545C47.8104 10.9656 46.0467 10.4094 45.6997 10.3885L45.7006 10.3949Z" fill="#F8B21F"/>
<path fill-rule="evenodd" clip-rule="evenodd" d="M16.3957 16.2944C11.6404 16.2642 11.1622 16.7392 12.3936 20.4411C12.8097 21.689 13.5398 24.3066 14.0246 26.2085C15.142 30.54 17.6099 36.2992 18.5024 36.5961C18.8489 36.7114 19.2705 36.6931 19.4039 36.579C19.8437 36.2192 20.3192 32.6706 20.8147 26.4704C21.0639 23.4165 21.3593 20.6036 21.4926 20.2029C21.635 19.7747 21.5847 18.8709 21.3791 18.138C20.8953 16.5199 20.4415 16.3385 16.3967 16.2916L16.3957 16.2944Z" fill="#F8B21F"/>
<path fill-rule="evenodd" clip-rule="evenodd" d="M61.915 37.325C60.862 37.7977 58.2026 39.6384 52.0548 44.2754C47.7431 47.5296 46.6153 48.514 46.4553 49.1894C46.1438 50.6069 46.8265 51.0535 48.4459 50.5161C53.731 48.7593 56.2129 47.8412 58.3659 46.8472C59.7157 46.2506 62.2541 45.1623 64.0347 44.52C65.9487 43.7636 67.299 43.0726 67.4131 42.7296C67.6405 42.0461 66.6372 40.4443 64.8868 38.6915C63.2522 37.0717 62.9158 36.9262 61.9187 37.3231L61.915 37.325Z" fill="#F8B21F"/>
<path fill-rule="evenodd" clip-rule="evenodd" d="M72.7601 64.1457C70.8988 64.1607 68.1199 64.3429 66.5583 64.5215C64.9966 64.7001 61.6882 64.9287 59.2051 64.9898C52.7739 65.1948 52.2444 65.2412 51.4903 65.9719C50.6673 66.8078 50.6892 67.5101 51.5541 68.0843C52.38 68.5816 66.5051 72.0759 70.8911 72.8368C72.6078 73.1548 74.46 73.4539 74.9698 73.5594C76.3336 73.7906 76.7904 73.278 77.1743 70.967C77.3625 69.92 77.6532 68.3705 77.8229 67.5735C78.2283 65.5866 77.9451 64.6054 76.9299 64.2981C76.4884 64.1818 74.6277 64.1024 72.7601 64.1457Z" fill="#F8B21F"/>
</g>
<defs>
<clipPath id="clip0_689_2952">
<rect width="79" height="53" fill="white" transform="translate(17.3833 0.887207) rotate(18.3988)"/>
</clipPath>
</defs>
</svg>
