<svg width="66" height="66" viewBox="0 0 66 66" fill="none" xmlns="http://www.w3.org/2000/svg">
<mask id="path-1-inside-1_206_178" fill="white">
<path d="M60.0497 48.4688H58.7812V25.7812C58.7812 25.5077 58.6726 25.2454 58.4792 25.052C58.2858 24.8586 58.0235 24.75 57.75 24.75C57.4765 24.75 57.2142 24.8586 57.0208 25.052C56.8274 25.2454 56.7187 25.5077 56.7187 25.7812V48.4688H46.3454C46.0894 46.2014 45.0082 44.1076 43.3078 42.5861C41.6074 41.0647 39.4067 40.222 37.125 40.2188H28.875C26.5933 40.222 24.3925 41.0647 22.6921 42.5861C20.9917 44.1076 19.9105 46.2014 19.6546 48.4688H9.28122V20.625C9.28158 20.3516 9.39034 20.0895 9.58366 19.8962C9.77698 19.7029 10.0391 19.5941 10.3125 19.5938H40.2187C40.4922 19.5938 40.7545 19.4851 40.9479 19.2917C41.1413 19.0983 41.25 18.836 41.25 18.5625C41.25 18.289 41.1413 18.0267 40.9479 17.8333C40.7545 17.6399 40.4922 17.5312 40.2187 17.5312H10.3125C9.49223 17.5322 8.70585 17.8584 8.12585 18.4384C7.54586 19.0184 7.21962 19.8048 7.21872 20.625V48.4688H5.95028C5.46123 48.4663 4.97876 48.5815 4.54357 48.8047C4.10837 49.0278 3.73321 49.3523 3.44971 49.7508C3.16357 50.1481 2.97561 50.6076 2.90122 51.0916C2.82683 51.5755 2.86813 52.0702 3.02174 52.5352L3.70608 54.6072C3.91369 55.2215 4.30836 55.7554 4.83473 56.1341C5.3611 56.5127 5.99279 56.7172 6.64122 56.7188H59.3587C60.0088 56.7168 60.6419 56.5111 61.1691 56.1307C61.6963 55.7503 62.091 55.2142 62.2978 54.5979L62.9784 52.5373C63.1324 52.0721 63.1739 51.5771 63.0996 51.0927C63.0253 50.6083 62.8373 50.1485 62.551 49.7508C62.2674 49.3522 61.8921 49.0276 61.4568 48.8045C61.0214 48.5814 60.5388 48.4662 60.0497 48.4688ZM28.875 42.2812H37.125C38.8603 42.2835 40.5369 42.9097 41.8487 44.0457C43.1605 45.1817 44.02 46.7516 44.2702 48.4688H38.1562C37.8827 48.4688 37.6204 48.5774 37.427 48.7708C37.2336 48.9642 37.125 49.2265 37.125 49.5V50.5312H28.875V49.5C28.875 49.2265 28.7663 48.9642 28.5729 48.7708C28.3795 48.5774 28.1172 48.4688 27.8437 48.4688H21.7298C21.98 46.7516 22.8394 45.1817 24.1512 44.0457C25.463 42.9097 27.1397 42.2835 28.875 42.2812ZM61.0205 51.8863L61.0194 51.8888L60.3422 53.9417C60.2733 54.1485 60.1415 54.3286 59.9651 54.4567C59.7887 54.5849 59.5767 54.6546 59.3587 54.6562H6.64122C6.42492 54.6551 6.21435 54.5866 6.03878 54.4603C5.8632 54.3339 5.73135 54.156 5.66153 53.9513L4.97946 51.8863C4.92704 51.7312 4.91267 51.5659 4.93757 51.4041C4.96246 51.2423 5.02589 51.0889 5.1225 50.9567C5.21628 50.8247 5.34043 50.7171 5.48449 50.643C5.62856 50.569 5.78831 50.5306 5.95028 50.5312H26.8125V51.5625C26.8125 51.836 26.9211 52.0983 27.1145 52.2917C27.3079 52.4851 27.5702 52.5938 27.8437 52.5938H38.1562C38.4297 52.5938 38.692 52.4851 38.8854 52.2917C39.0788 52.0983 39.1875 51.836 39.1875 51.5625V50.5312H60.0497C60.2116 50.5306 60.3714 50.569 60.5154 50.643C60.6595 50.7171 60.7837 50.8247 60.8774 50.9567C60.9741 51.0889 61.0375 51.2423 61.0624 51.4041C61.0873 51.5659 61.0729 51.7312 61.0205 51.8863Z"/>
</mask>
<path d="M60.0497 48.4688H58.7812V25.7812C58.7812 25.5077 58.6726 25.2454 58.4792 25.052C58.2858 24.8586 58.0235 24.75 57.75 24.75C57.4765 24.75 57.2142 24.8586 57.0208 25.052C56.8274 25.2454 56.7187 25.5077 56.7187 25.7812V48.4688H46.3454C46.0894 46.2014 45.0082 44.1076 43.3078 42.5861C41.6074 41.0647 39.4067 40.222 37.125 40.2188H28.875C26.5933 40.222 24.3925 41.0647 22.6921 42.5861C20.9917 44.1076 19.9105 46.2014 19.6546 48.4688H9.28122V20.625C9.28158 20.3516 9.39034 20.0895 9.58366 19.8962C9.77698 19.7029 10.0391 19.5941 10.3125 19.5938H40.2187C40.4922 19.5938 40.7545 19.4851 40.9479 19.2917C41.1413 19.0983 41.25 18.836 41.25 18.5625C41.25 18.289 41.1413 18.0267 40.9479 17.8333C40.7545 17.6399 40.4922 17.5312 40.2187 17.5312H10.3125C9.49223 17.5322 8.70585 17.8584 8.12585 18.4384C7.54586 19.0184 7.21962 19.8048 7.21872 20.625V48.4688H5.95028C5.46123 48.4663 4.97876 48.5815 4.54357 48.8047C4.10837 49.0278 3.73321 49.3523 3.44971 49.7508C3.16357 50.1481 2.97561 50.6076 2.90122 51.0916C2.82683 51.5755 2.86813 52.0702 3.02174 52.5352L3.70608 54.6072C3.91369 55.2215 4.30836 55.7554 4.83473 56.1341C5.3611 56.5127 5.99279 56.7172 6.64122 56.7188H59.3587C60.0088 56.7168 60.6419 56.5111 61.1691 56.1307C61.6963 55.7503 62.091 55.2142 62.2978 54.5979L62.9784 52.5373C63.1324 52.0721 63.1739 51.5771 63.0996 51.0927C63.0253 50.6083 62.8373 50.1485 62.551 49.7508C62.2674 49.3522 61.8921 49.0276 61.4568 48.8045C61.0214 48.5814 60.5388 48.4662 60.0497 48.4688ZM28.875 42.2812H37.125C38.8603 42.2835 40.5369 42.9097 41.8487 44.0457C43.1605 45.1817 44.02 46.7516 44.2702 48.4688H38.1562C37.8827 48.4688 37.6204 48.5774 37.427 48.7708C37.2336 48.9642 37.125 49.2265 37.125 49.5V50.5312H28.875V49.5C28.875 49.2265 28.7663 48.9642 28.5729 48.7708C28.3795 48.5774 28.1172 48.4688 27.8437 48.4688H21.7298C21.98 46.7516 22.8394 45.1817 24.1512 44.0457C25.463 42.9097 27.1397 42.2835 28.875 42.2812ZM61.0205 51.8863L61.0194 51.8888L60.3422 53.9417C60.2733 54.1485 60.1415 54.3286 59.9651 54.4567C59.7887 54.5849 59.5767 54.6546 59.3587 54.6562H6.64122C6.42492 54.6551 6.21435 54.5866 6.03878 54.4603C5.8632 54.3339 5.73135 54.156 5.66153 53.9513L4.97946 51.8863C4.92704 51.7312 4.91267 51.5659 4.93757 51.4041C4.96246 51.2423 5.02589 51.0889 5.1225 50.9567C5.21628 50.8247 5.34043 50.7171 5.48449 50.643C5.62856 50.569 5.78831 50.5306 5.95028 50.5312H26.8125V51.5625C26.8125 51.836 26.9211 52.0983 27.1145 52.2917C27.3079 52.4851 27.5702 52.5938 27.8437 52.5938H38.1562C38.4297 52.5938 38.692 52.4851 38.8854 52.2917C39.0788 52.0983 39.1875 51.836 39.1875 51.5625V50.5312H60.0497C60.2116 50.5306 60.3714 50.569 60.5154 50.643C60.6595 50.7171 60.7837 50.8247 60.8774 50.9567C60.9741 51.0889 61.0375 51.2423 61.0624 51.4041C61.0873 51.5659 61.0729 51.7312 61.0205 51.8863Z" fill="#0056B1"/>
<path d="M60.0497 48.4688V72.4688H60.1119L60.1741 72.4684L60.0497 48.4688ZM58.7812 48.4688H34.7812V72.4688H58.7812V48.4688ZM56.7187 48.4688V72.4688H80.7187V48.4688H56.7187ZM46.3454 48.4688L22.4969 51.161L24.9022 72.4688H46.3454V48.4688ZM37.125 40.2188L37.1594 16.2188L37.1422 16.2188H37.125V40.2188ZM28.875 40.2188V16.2188H28.8578L28.8405 16.2188L28.875 40.2188ZM19.6546 48.4688V72.4688H41.0977L43.5031 51.161L19.6546 48.4688ZM9.28122 48.4688H-14.7188V72.4688H9.28122V48.4688ZM9.28122 20.625L-14.7188 20.5939L-14.7188 20.6094V20.625H9.28122ZM10.3125 19.5938V-4.40625H10.2969L10.2813 -4.40623L10.3125 19.5938ZM10.3125 17.5312V-6.46875H10.2993L10.2861 -6.46874L10.3125 17.5312ZM7.21872 20.625L-16.7813 20.5986L-16.7813 20.6118V20.625H7.21872ZM7.21872 48.4688V72.4688H31.2187V48.4688H7.21872ZM5.95028 48.4688L5.83146 72.4685L5.89087 72.4688H5.95028V48.4688ZM3.44971 49.7508L22.9253 63.7759L22.9658 63.7196L23.006 63.663L3.44971 49.7508ZM3.02174 52.5352L25.8109 45.0084L25.8102 45.0062L3.02174 52.5352ZM3.70608 54.6072L-19.0831 62.134L-19.0571 62.2129L-19.0305 62.2916L3.70608 54.6072ZM6.64122 56.7188L6.58357 80.7187L6.61239 80.7188H6.64122V56.7188ZM59.3587 56.7188V80.7188H59.3956L59.4325 80.7186L59.3587 56.7188ZM62.2978 54.5979L85.0513 62.2317L85.0692 62.1786L85.0867 62.1254L62.2978 54.5979ZM62.9784 52.5373L40.1938 44.9966L40.1894 45.0098L62.9784 52.5373ZM62.551 49.7508L42.9946 63.663L43.0343 63.7188L43.0743 63.7744L62.551 49.7508ZM28.875 42.2812V18.2812H28.8597L28.8444 18.2813L28.875 42.2812ZM37.125 42.2812L37.1556 18.2813L37.1403 18.2812H37.125V42.2812ZM44.2702 48.4688V72.4688H72.0207L68.0194 45.0082L44.2702 48.4688ZM37.125 50.5312V74.5312H61.125V50.5312H37.125ZM28.875 50.5312H4.87497V74.5312H28.875V50.5312ZM21.7298 48.4688L-2.01945 45.0082L-6.02077 72.4688H21.7298V48.4688ZM61.0205 51.8863L83.1754 61.1146L83.4923 60.3536L83.7564 59.5727L61.0205 51.8863ZM61.0194 51.8888L38.8646 42.6605L38.5135 43.5032L38.2276 44.3701L61.0194 51.8888ZM60.3422 53.9417L83.1122 61.5265L83.1232 61.4934L83.1341 61.4604L60.3422 53.9417ZM59.3587 54.6562V78.6562H59.4473L59.5358 78.6556L59.3587 54.6562ZM6.64122 54.6562L6.51329 78.6559L6.57725 78.6562H6.64122V54.6562ZM5.66153 53.9513L-17.1275 61.4786L-17.0913 61.5881L-17.0541 61.6973L5.66153 53.9513ZM4.97946 51.8863L27.7685 44.359L27.7422 44.2794L27.7153 44.2L4.97946 51.8863ZM5.1225 50.9567L24.496 65.1225L24.5943 64.988L24.6908 64.8521L5.1225 50.9567ZM5.95028 50.5312L5.86065 74.5311L5.90547 74.5312H5.95028V50.5312ZM26.8125 50.5312H50.8125V26.5312H26.8125V50.5312ZM39.1875 50.5312V26.5312H15.1875V50.5312H39.1875ZM60.0497 50.5312V74.5312H60.0945L60.1393 74.5311L60.0497 50.5312ZM60.8774 50.9567L41.3091 64.8521L41.4056 64.988L41.504 65.1225L60.8774 50.9567ZM60.0497 48.4688V24.4688H58.7812V48.4688V72.4688H60.0497V48.4688ZM58.7812 48.4688H82.7812V25.7812H58.7812H34.7812V48.4688H58.7812ZM58.7812 25.7812H82.7812C82.7812 19.1426 80.1441 12.7758 75.4497 8.08148L58.4792 25.052L41.5086 42.0226C37.2011 37.7151 34.7812 31.8729 34.7812 25.7812H58.7812ZM58.4792 25.052L75.4497 8.08148C70.7554 3.38717 64.3886 0.75 57.75 0.75V24.75V48.75C51.6583 48.75 45.8161 46.3301 41.5086 42.0226L58.4792 25.052ZM57.75 24.75V0.75C51.1113 0.75 44.7445 3.38717 40.0502 8.08148L57.0208 25.052L73.9913 42.0226C69.6838 46.3301 63.8416 48.75 57.75 48.75V24.75ZM57.0208 25.052L40.0502 8.08148C35.3559 12.7758 32.7187 19.1426 32.7187 25.7812H56.7187H80.7187C80.7187 31.8729 78.2989 37.7151 73.9913 42.0226L57.0208 25.052ZM56.7187 25.7812H32.7187V48.4688H56.7187H80.7187V25.7812H56.7187ZM56.7187 48.4688V24.4688H46.3454V48.4688V72.4688H56.7187V48.4688ZM46.3454 48.4688L70.1939 45.7765C69.2769 37.6533 65.4032 30.1515 59.3111 24.7005L43.3078 42.5861L27.3046 60.4718C24.6132 58.0637 22.902 54.7496 22.4969 51.161L46.3454 48.4688ZM43.3078 42.5861L59.3111 24.7005C53.2189 19.2495 45.3342 16.2305 37.1594 16.2188L37.125 40.2188L37.0905 64.2187C33.4792 64.2135 29.9959 62.8798 27.3046 60.4718L43.3078 42.5861ZM37.125 40.2188V16.2188H28.875V40.2188V64.2188H37.125V40.2188ZM28.875 40.2188L28.8405 16.2188C20.6658 16.2305 12.781 19.2495 6.68887 24.7005L22.6921 42.5861L38.6954 60.4718C36.004 62.8798 32.5208 64.2135 28.9094 64.2187L28.875 40.2188ZM22.6921 42.5861L6.68887 24.7005C0.59672 30.1515 -3.27694 37.6533 -4.19396 45.7765L19.6546 48.4688L43.5031 51.161C43.098 54.7496 41.3867 58.0637 38.6954 60.4718L22.6921 42.5861ZM19.6546 48.4688V24.4688H9.28122V48.4688V72.4688H19.6546V48.4688ZM9.28122 48.4688H33.2812V20.625H9.28122H-14.7188V48.4688H9.28122ZM9.28122 20.625L33.2812 20.6561C33.2733 26.7372 30.8541 32.5668 26.5542 36.8668L9.58366 19.8962L-7.3869 2.92563C-12.0735 7.61218 -14.7102 13.9661 -14.7188 20.5939L9.28122 20.625ZM9.58366 19.8962L26.5542 36.8668C22.2543 41.1666 16.4247 43.5858 10.3436 43.5937L10.3125 19.5938L10.2813 -4.40623C3.65349 -4.39763 -2.70037 -1.76091 -7.3869 2.92563L9.58366 19.8962ZM10.3125 19.5938V43.5938H40.2187V19.5938V-4.40625H10.3125V19.5938ZM40.2187 19.5938V43.5938C46.8574 43.5938 53.2242 40.9566 57.9185 36.2623L40.9479 19.2917L23.9774 2.32114C28.2849 -1.98638 34.1271 -4.40625 40.2187 -4.40625V19.5938ZM40.9479 19.2917L57.9185 36.2623C62.6128 31.568 65.25 25.2011 65.25 18.5625H41.25H17.25C17.25 12.4709 19.6698 6.62866 23.9774 2.32114L40.9479 19.2917ZM41.25 18.5625H65.25C65.25 11.9239 62.6128 5.55705 57.9185 0.862733L40.9479 17.8333L23.9774 34.8039C19.6698 30.4963 17.25 24.6541 17.25 18.5625H41.25ZM40.9479 17.8333L57.9185 0.862733C53.2242 -3.83158 46.8574 -6.46875 40.2187 -6.46875V17.5312V41.5312C34.1271 41.5312 28.2849 39.1114 23.9774 34.8039L40.9479 17.8333ZM40.2187 17.5312V-6.46875H10.3125V17.5312V41.5312H40.2187V17.5312ZM10.3125 17.5312L10.2861 -6.46874C3.10982 -6.46085 -3.7703 -3.60659 -8.84471 1.46782L8.12585 18.4384L25.0964 35.4089C21.182 39.3234 15.8746 41.5252 10.3388 41.5312L10.3125 17.5312ZM8.12585 18.4384L-8.84471 1.46782C-13.9191 6.54223 -16.7734 13.4223 -16.7813 20.5986L7.21872 20.625L31.2187 20.6514C31.2126 26.1872 29.0108 31.4945 25.0964 35.4089L8.12585 18.4384ZM7.21872 20.625H-16.7813V48.4688H7.21872H31.2187V20.625H7.21872ZM7.21872 48.4688V24.4688H5.95028V48.4688V72.4688H7.21872V48.4688ZM5.95028 48.4688L6.06911 24.469C1.73198 24.4476 -2.54666 25.4693 -6.40603 27.448L4.54357 48.8047L15.4932 70.1613C12.5042 71.6938 9.19048 72.4851 5.83146 72.4685L5.95028 48.4688ZM4.54357 48.8047L-6.40603 27.448C-10.2654 29.4267 -13.5925 32.3044 -16.1066 35.8386L3.44971 49.7508L23.006 63.663C21.0589 66.4002 18.4821 68.6289 15.4932 70.1613L4.54357 48.8047ZM3.44971 49.7508L-16.0258 35.7257C-18.527 39.1989 -20.17 43.2151 -20.8202 47.4455L2.90122 51.0916L26.6226 54.7376C26.1212 58.0001 24.8542 61.0974 22.9253 63.7759L3.44971 49.7508ZM2.90122 51.0916L-20.8202 47.4455C-21.4704 51.6759 -21.1094 56.0001 -19.7667 60.0641L3.02174 52.5352L25.8102 45.0062C26.8457 48.1404 27.1241 51.4752 26.6226 54.7376L2.90122 51.0916ZM3.02174 52.5352L-19.7674 60.062L-19.0831 62.134L3.70608 54.6072L26.4953 47.0803L25.8109 45.0084L3.02174 52.5352ZM3.70608 54.6072L-19.0305 62.2916C-17.2187 67.6523 -13.7746 72.3117 -9.18108 75.6163L4.83473 56.1341L18.8505 36.6518C22.3913 39.1991 25.046 42.7906 26.4426 46.9228L3.70608 54.6072ZM4.83473 56.1341L-9.18108 75.6163C-4.58757 78.9209 0.924953 80.7051 6.58357 80.7187L6.64122 56.7188L6.69887 32.7188C11.0606 32.7293 15.3098 34.1046 18.8505 36.6518L4.83473 56.1341ZM6.64122 56.7188V80.7188H59.3587V56.7188V32.7188H6.64122V56.7188ZM59.3587 56.7188L59.4325 80.7186C65.0991 80.7012 70.6179 78.9086 75.2131 75.5926L61.1691 56.1307L47.1251 36.6688C50.666 34.1136 54.9185 32.7323 59.285 32.7189L59.3587 56.7188ZM61.1691 56.1307L75.2131 75.5926C79.8083 72.2767 83.2489 67.6041 85.0513 62.2317L62.2978 54.5979L39.5442 46.9641C40.9331 42.8243 43.5843 39.2239 47.1251 36.6688L61.1691 56.1307ZM62.2978 54.5979L85.0867 62.1254L85.7674 60.0648L62.9784 52.5373L40.1894 45.0098L39.5088 47.0704L62.2978 54.5979ZM62.9784 52.5373L85.763 60.0781C87.1084 56.0127 87.4714 51.6864 86.8221 47.4537L63.0996 51.0927L39.3771 54.7317C38.8764 51.4677 39.1563 48.1315 40.1938 44.9966L62.9784 52.5373ZM63.0996 51.0927L86.8221 47.4537C86.1728 43.2209 84.5297 39.2023 82.0276 35.7272L62.551 49.7508L43.0743 63.7744C41.1448 61.0946 39.8778 57.9957 39.3771 54.7317L63.0996 51.0927ZM62.551 49.7508L82.1073 35.8386C79.5926 32.3036 76.2645 29.4253 72.4039 27.4466L61.4568 48.8045L50.5097 70.1624C47.5197 68.6299 44.9422 66.4008 42.9946 63.663L62.551 49.7508ZM61.4568 48.8045L72.4039 27.4466C68.5432 25.4678 64.2633 24.4466 59.9252 24.4691L60.0497 48.4688L60.1741 72.4684C56.8144 72.4859 53.4997 71.695 50.5097 70.1624L61.4568 48.8045ZM28.875 42.2812V66.2812H37.125V42.2812V18.2812H28.875V42.2812ZM37.125 42.2812L37.0944 66.2812C33.0693 66.2761 29.1804 64.8235 26.1377 62.1886L41.8487 44.0457L57.5597 25.9029C51.8934 20.996 44.6512 18.2908 37.1556 18.2813L37.125 42.2812ZM41.8487 44.0457L26.1377 62.1886C23.0949 59.5537 21.1014 55.9123 20.521 51.9293L44.2702 48.4688L68.0194 45.0082C66.9386 37.5909 63.2261 30.8097 57.5597 25.9029L41.8487 44.0457ZM44.2702 48.4688V24.4688H38.1562V48.4688V72.4688H44.2702V48.4688ZM38.1562 48.4688V24.4688C31.5176 24.4688 25.1508 27.1059 20.4565 31.8002L37.427 48.7708L54.3976 65.7414C50.0901 70.0489 44.2478 72.4688 38.1562 72.4688V48.4688ZM37.427 48.7708L20.4565 31.8002C15.7621 36.4945 13.125 42.8614 13.125 49.5H37.125H61.125C61.125 55.5916 58.7051 61.4338 54.3976 65.7414L37.427 48.7708ZM37.125 49.5H13.125V50.5312H37.125H61.125V49.5H37.125ZM37.125 50.5312V26.5312H28.875V50.5312V74.5312H37.125V50.5312ZM28.875 50.5312H52.875V49.5H28.875H4.87497V50.5312H28.875ZM28.875 49.5H52.875C52.875 42.8614 50.2378 36.4945 45.5435 31.8002L28.5729 48.7708L11.6024 65.7414C7.29484 61.4338 4.87497 55.5916 4.87497 49.5H28.875ZM28.5729 48.7708L45.5435 31.8002C40.8492 27.1059 34.4824 24.4688 27.8437 24.4688V48.4688V72.4688C21.7521 72.4688 15.9099 70.0489 11.6024 65.7414L28.5729 48.7708ZM27.8437 48.4688V24.4688H21.7298V48.4688V72.4688H27.8437V48.4688ZM21.7298 48.4688L45.479 51.9293C44.8986 55.9123 42.905 59.5537 39.8623 62.1886L24.1512 44.0457L8.4402 25.9029C2.77385 30.8097 -0.938662 37.5909 -2.01945 45.0082L21.7298 48.4688ZM24.1512 44.0457L39.8623 62.1886C36.8196 64.8235 32.9306 66.2761 28.9056 66.2812L28.875 42.2812L28.8444 18.2813C21.3487 18.2908 14.1065 20.996 8.4402 25.9029L24.1512 44.0457ZM61.0205 51.8863L38.8656 42.658L38.8646 42.6605L61.0194 51.8888L83.1743 61.1171L83.1754 61.1146L61.0205 51.8863ZM61.0194 51.8888L38.2276 44.3701L37.5503 46.423L60.3422 53.9417L83.1341 61.4604L83.8113 59.4075L61.0194 51.8888ZM60.3422 53.9417L37.5723 46.3569C39.0859 41.8128 41.9831 37.8558 45.8583 35.0403L59.9651 54.4567L74.0719 73.8732C78.2998 70.8014 81.4607 66.4842 83.1122 61.5265L60.3422 53.9417ZM59.9651 54.4567L45.8583 35.0403C49.7334 32.2249 54.392 30.6923 59.1816 30.6569L59.3587 54.6562L59.5358 78.6556C64.7614 78.617 69.8441 76.9448 74.0719 73.8732L59.9651 54.4567ZM59.3587 54.6562V30.6562H6.64122V54.6562V78.6562H59.3587V54.6562ZM6.64122 54.6562L6.76915 30.6566C11.5399 30.682 16.1843 32.193 20.0567 34.9795L6.03878 54.4603L-7.97914 73.941C-3.75555 76.9802 1.30992 78.6282 6.51329 78.6559L6.64122 54.6562ZM6.03878 54.4603L20.0567 34.9795C23.9292 37.7661 26.8374 41.6898 28.3771 46.2052L5.66153 53.9513L-17.0541 61.6973C-15.3747 66.6223 -12.2028 70.9017 -7.97914 73.941L6.03878 54.4603ZM5.66153 53.9513L28.4506 46.424L27.7685 44.359L4.97946 51.8863L-17.8096 59.4136L-17.1275 61.4786L5.66153 53.9513ZM4.97946 51.8863L27.7153 44.2C28.8952 47.6901 29.2187 51.4127 28.6584 55.054L4.93757 51.4041L-18.7833 47.7541C-19.3933 51.719 -19.0412 55.7724 -17.7564 59.5727L4.97946 51.8863ZM4.93757 51.4041L28.6584 55.054C28.0981 58.6954 26.6705 62.1486 24.496 65.1225L5.1225 50.9567L-14.251 36.791C-16.6187 40.0292 -18.1732 43.7892 -18.7833 47.7541L4.93757 51.4041ZM5.1225 50.9567L24.6908 64.8521C22.5576 67.8562 19.7335 70.3038 16.4563 71.9883L5.48449 50.643L-5.48729 29.2978C-9.05262 31.1304 -12.1251 33.7931 -14.4458 37.0614L5.1225 50.9567ZM5.48449 50.643L16.4563 71.9883C13.1792 73.6728 9.54521 74.5448 5.86065 74.5311L5.95028 50.5312L6.03992 26.5314C2.03141 26.5164 -1.92205 27.4652 -5.48729 29.2978L5.48449 50.643ZM5.95028 50.5312V74.5312H26.8125V50.5312V26.5312H5.95028V50.5312ZM26.8125 50.5312H2.81247V51.5625H26.8125H50.8125V50.5312H26.8125ZM26.8125 51.5625H2.81247C2.81247 58.2011 5.44964 64.568 10.144 69.2623L27.1145 52.2917L44.0851 35.3211C48.3926 39.6287 50.8125 45.4709 50.8125 51.5625H26.8125ZM27.1145 52.2917L10.144 69.2623C14.8383 73.9566 21.2051 76.5938 27.8437 76.5938V52.5938V28.5938C33.9353 28.5938 39.7776 31.0136 44.0851 35.3211L27.1145 52.2917ZM27.8437 52.5938V76.5938H38.1562V52.5938V28.5938H27.8437V52.5938ZM38.1562 52.5938V76.5938C44.7949 76.5938 51.1617 73.9566 55.856 69.2623L38.8854 52.2917L21.9149 35.3211C26.2224 31.0136 32.0646 28.5938 38.1562 28.5938V52.5938ZM38.8854 52.2917L55.856 69.2623C60.5503 64.568 63.1875 58.2011 63.1875 51.5625H39.1875H15.1875C15.1875 45.4709 17.6073 39.6287 21.9149 35.3211L38.8854 52.2917ZM39.1875 51.5625H63.1875V50.5312H39.1875H15.1875V51.5625H39.1875ZM39.1875 50.5312V74.5312H60.0497V50.5312V26.5313H39.1875V50.5312ZM60.0497 50.5312L60.1393 74.5311C56.4548 74.5448 52.8208 73.6728 49.5437 71.9883L60.5154 50.643L71.4872 29.2978C67.922 27.4652 63.9685 26.5164 59.96 26.5314L60.0497 50.5312ZM60.5154 50.643L49.5437 71.9883C46.2664 70.3037 43.4423 67.8562 41.3091 64.8521L60.8774 50.9567L80.4458 37.0614C78.125 33.7932 75.0526 31.1304 71.4872 29.2978L60.5154 50.643ZM60.8774 50.9567L41.504 65.1225C39.3294 62.1486 37.9018 58.6953 37.3415 55.054L61.0624 51.4041L84.7832 47.7541C84.1731 43.7893 82.6187 40.0292 80.2509 36.791L60.8774 50.9567ZM61.0624 51.4041L37.3415 55.054C36.7812 51.4126 37.1047 47.69 38.2846 44.2L61.0205 51.8863L83.7564 59.5727C85.0411 55.7725 85.3933 51.7191 84.7832 47.7541L61.0624 51.4041Z" fill="#0056B1" mask="url(#path-1-inside-1_206_178)"/>
<path d="M33 21.6562C31.3683 21.6562 29.7733 22.1401 28.4166 23.0466C27.0598 23.9531 26.0024 25.2416 25.378 26.7491C24.7536 28.2566 24.5902 29.9154 24.9085 31.5157C25.2269 33.1161 26.0126 34.5861 27.1664 35.7399C28.3202 36.8937 29.7902 37.6794 31.3905 37.9977C32.9909 38.3161 34.6497 38.1527 36.1571 37.5283C37.6646 36.9038 38.9531 35.8464 39.8596 34.4897C40.7662 33.133 41.25 31.5379 41.25 29.9062C41.2475 27.719 40.3775 25.622 38.8309 24.0754C37.2842 22.5288 35.1873 21.6588 33 21.6562ZM33 36.0938C31.7762 36.0938 30.5799 35.7309 29.5624 35.051C28.5449 34.3711 27.7518 33.4047 27.2835 32.2741C26.8152 31.1435 26.6926 29.8994 26.9314 28.6991C27.1701 27.4989 27.7594 26.3964 28.6248 25.531C29.4901 24.6657 30.5926 24.0764 31.7929 23.8376C32.9931 23.5989 34.2372 23.7214 35.3679 24.1897C36.4985 24.6581 37.4648 25.4511 38.1447 26.4687C38.8246 27.4862 39.1875 28.6825 39.1875 29.9062C39.1857 31.5467 38.5332 33.1195 37.3732 34.2795C36.2132 35.4395 34.6405 36.0919 33 36.0938Z" fill="#0056B1"/>
<path d="M60.8438 9.28125H45.375C44.5548 9.28215 43.7684 9.60839 43.1884 10.1884C42.6084 10.7684 42.2822 11.5548 42.2812 12.375V25.7812C42.2813 25.9637 42.3297 26.1428 42.4216 26.3004C42.5135 26.4581 42.6456 26.5885 42.8044 26.6783C42.9631 26.7682 43.1429 26.8144 43.3253 26.8121C43.5077 26.8099 43.6863 26.7593 43.8428 26.6654L48.5005 23.8734C48.6615 23.774 48.8467 23.7205 49.0359 23.7187H60.8438C61.664 23.7178 62.4504 23.3916 63.0304 22.8116C63.6104 22.2316 63.9366 21.4452 63.9375 20.625V12.375C63.9366 11.5548 63.6104 10.7684 63.0304 10.1884C62.4504 9.60839 61.664 9.28215 60.8438 9.28125ZM61.875 20.625C61.8746 20.8984 61.7659 21.1605 61.5726 21.3538C61.3792 21.5471 61.1171 21.6559 60.8438 21.6562H49.0359C48.4748 21.6591 47.9249 21.8131 47.4438 22.1019L44.3438 23.9605V12.375C44.3441 12.1016 44.4529 11.8395 44.6462 11.6462C44.8395 11.4529 45.1016 11.3441 45.375 11.3437H60.8438C61.1171 11.3441 61.3792 11.4529 61.5726 11.6462C61.7659 11.8395 61.8746 12.1016 61.875 12.375V20.625Z" fill="#0056B1"/>
<path d="M53.625 15.4688H52.5938C52.3202 15.4688 52.0579 15.5774 51.8645 15.7708C51.6711 15.9642 51.5625 16.2265 51.5625 16.5C51.5625 16.7735 51.6711 17.0358 51.8645 17.2292C52.0579 17.4226 52.3202 17.5312 52.5938 17.5312H53.625C53.8985 17.5312 54.1608 17.4226 54.3542 17.2292C54.5476 17.0358 54.6562 16.7735 54.6562 16.5C54.6562 16.2265 54.5476 15.9642 54.3542 15.7708C54.1608 15.5774 53.8985 15.4688 53.625 15.4688Z" fill="#0056B1"/>
<path d="M48.4688 15.4688H47.4375C47.164 15.4688 46.9017 15.5774 46.7083 15.7708C46.5149 15.9642 46.4062 16.2265 46.4062 16.5C46.4062 16.7735 46.5149 17.0358 46.7083 17.2292C46.9017 17.4226 47.164 17.5312 47.4375 17.5312H48.4688C48.7423 17.5312 49.0046 17.4226 49.198 17.2292C49.3914 17.0358 49.5 16.7735 49.5 16.5C49.5 16.2265 49.3914 15.9642 49.198 15.7708C49.0046 15.5774 48.7423 15.4688 48.4688 15.4688Z" fill="#0056B1"/>
<path d="M58.7812 15.4688H57.75C57.4765 15.4688 57.2142 15.5774 57.0208 15.7708C56.8274 15.9642 56.7188 16.2265 56.7188 16.5C56.7188 16.7735 56.8274 17.0358 57.0208 17.2292C57.2142 17.4226 57.4765 17.5312 57.75 17.5312H58.7812C59.0548 17.5312 59.3171 17.4226 59.5105 17.2292C59.7039 17.0358 59.8125 16.7735 59.8125 16.5C59.8125 16.2265 59.7039 15.9642 59.5105 15.7708C59.3171 15.5774 59.0548 15.4688 58.7812 15.4688Z" fill="#0056B1"/>
</svg>
