<?xml version="1.0" encoding="UTF-8"?>
<svg xmlns="http://www.w3.org/2000/svg" version="1.1" viewBox="0 0 512 512">
  <defs>
    <style>
      .cls-1 {
        fill: #fff;
      }
    </style>
  </defs>
  <!-- Generator: Adobe Illustrator 28.7.7, SVG Export Plug-In . SVG Version: 1.2.0 Build 194)  -->
  <g>
    <g id="Layer_1">
      <g>
        <path class="cls-1" d="M465.8,376h-9.8v-176c0-4.4-3.6-8-8-8s-8,3.6-8,8v176h-80.5c-4.1-36.4-34.9-63.9-71.5-64h-64c-36.6,0-67.4,27.6-71.5,64h-80.5v-216c0-4.4,3.6-8,8-8h232c4.4,0,8-3.6,8-8s-3.6-8-8-8H80c-13.2,0-24,10.8-24,24v216h-9.8c-7.7,0-14.9,3.7-19.4,9.9-4.5,6.3-5.7,14.3-3.3,21.6l5.3,16.1c3.3,9.8,12.5,16.4,22.8,16.4h409c10.3,0,19.5-6.6,22.8-16.5l5.3-16c2.4-7.3,1.2-15.4-3.3-21.6-4.5-6.3-11.7-10-19.4-9.9ZM224,328h64c27.8,0,51.4,20.5,55.4,48h-47.4c-4.4,0-8,3.6-8,8v8h-64v-8c0-4.4-3.6-8-8-8h-47.4c4-27.5,27.6-48,55.4-48ZM473.4,402.5h0s-5.3,15.9-5.3,15.9c-1.1,3.3-4.2,5.5-7.6,5.5H51.5c-3.4,0-6.5-2.2-7.6-5.5l-5.3-16c-.8-2.4-.4-5.1,1.1-7.2,1.5-2.1,3.9-3.3,6.4-3.3h161.8v8c0,4.4,3.6,8,8,8h80c4.4,0,8-3.6,8-8v-8h161.8c2.5,0,4.9,1.2,6.4,3.3,1.5,2.1,1.9,4.8,1.1,7.2h0Z"/>
        <path class="cls-1" d="M256,168c-35.3,0-64,28.7-64,64s28.7,64,64,64,64-28.7,64-64c0-35.3-28.7-64-64-64ZM256,280c-26.5,0-48-21.5-48-48s21.5-48,48-48,48,21.5,48,48c0,26.5-21.5,48-48,48Z"/>
        <path class="cls-1" d="M472,72h-120c-13.2,0-24,10.8-24,24v104c0,4.4,3.6,8,8,8,1.4,0,2.9-.4,4.1-1.1l36.1-21.7c1.2-.8,2.7-1.2,4.2-1.2h91.6c13.2,0,24-10.8,24-24v-64c0-13.2-10.8-24-24-24ZM480,160c0,4.4-3.6,8-8,8h-91.6c-4.4,0-8.6,1.2-12.4,3.5l-24,14.4v-89.9c0-4.4,3.6-8,8-8h120c4.4,0,8,3.6,8,8v64Z"/>
        <path class="cls-1" d="M416,120h-8c-4.4,0-8,3.6-8,8s3.6,8,8,8h8c4.4,0,8-3.6,8-8s-3.6-8-8-8Z"/>
        <path class="cls-1" d="M376,120h-8c-4.4,0-8,3.6-8,8s3.6,8,8,8h8c4.4,0,8-3.6,8-8s-3.6-8-8-8Z"/>
        <path class="cls-1" d="M456,120h-8c-4.4,0-8,3.6-8,8s3.6,8,8,8h8c4.4,0,8-3.6,8-8s-3.6-8-8-8Z"/>
      </g>
    </g>
  </g>
</svg>