<svg width="76" height="76" viewBox="0 0 76 76" fill="none" xmlns="http://www.w3.org/2000/svg">
<g clip-path="url(#clip0_4198_1097)">
<path d="M73.6967 15.823H71.2403V12.1768C71.2403 11.5618 70.7421 11.0635 70.1271 11.0635H45.1394C42.1901 11.0635 39.4765 12.6323 38 15.174C36.5236 12.6325 33.8099 11.0635 30.8606 11.0635H5.87278C5.2578 11.0635 4.7595 11.5618 4.7595 12.1768V15.823H2.3033C1.03327 15.823 0 16.8561 0 18.1261V58.5826C0 59.8527 1.03327 60.8858 2.3033 60.8858H30.7785C31.2747 60.8858 31.7168 61.1116 31.932 61.4751C33.2375 63.6792 35.5272 64.9362 38 64.936C38.6911 64.936 39.3969 64.8378 40.0992 64.6346C41.6997 64.1714 43.1042 63.0574 44.054 61.4979C44.2911 61.1089 44.6867 60.8858 45.1394 60.8858H73.6968C74.9669 60.8858 76.0001 59.8527 76.0001 58.5826V18.1261C76 16.8561 74.9667 15.823 73.6967 15.823ZM73.7734 58.5826C73.7734 58.6248 73.7392 58.6592 73.6967 58.6592H45.1394C43.91 58.6592 42.7933 59.2874 42.1524 60.3397C41.4932 61.4221 40.5441 62.1879 39.4802 62.4957C37.256 63.1394 34.9928 62.2731 33.8479 60.3403C33.2335 59.3034 32.0575 58.6592 30.7785 58.6592H2.3033C2.261 58.6592 2.22656 58.6249 2.22656 58.5826V18.1261C2.22656 18.084 2.26085 18.0495 2.3033 18.0495H4.75965V55.0128C4.75965 55.6278 5.25795 56.1261 5.87293 56.1261H30.8608C32.9999 56.1261 34.9342 57.2234 36.0348 59.0612C36.4531 59.7596 37.1879 60.1767 38 60.1767C38.8121 60.1767 39.5469 59.7596 39.9653 59.061C41.0658 57.2232 43.0001 56.1261 45.1393 56.1261H60.6079C61.2229 56.1261 61.7212 55.6278 61.7212 55.0128C61.7212 54.3979 61.2229 53.8996 60.6079 53.8996H45.1393C42.2538 53.8996 39.539 55.439 38.0551 57.9169C38.0466 57.931 38.0352 57.9501 37.9999 57.9501C37.9645 57.9501 37.9531 57.931 37.9448 57.917C36.4607 55.439 33.7461 53.8996 30.8605 53.8996H6.98606V13.29H30.8606C33.0725 13.29 35.1031 14.4988 36.16 16.4445C36.5219 17.1108 37.2269 17.5247 38 17.5247C38.7731 17.5247 39.478 17.1108 39.84 16.4445C40.8969 14.4988 42.9275 13.29 45.1394 13.29H69.0139V53.8996H65.3677C64.7527 53.8996 64.2544 54.3979 64.2544 55.0128C64.2544 55.6278 64.7527 56.1261 65.3677 56.1261H70.1272C70.7422 56.1261 71.2405 55.6278 71.2405 55.0128V18.0495H73.6968C73.7392 18.0495 73.7736 18.0838 73.7736 18.1261V58.5826H73.7734Z" fill="#0056B1"/>
<path d="M40.2805 24.3828C40.2768 24.3828 40.2731 24.3828 40.2695 24.3828C39.6546 24.3887 39.161 24.8921 39.1669 25.5068L39.3106 40.3453L28.6427 24.8974C28.3659 24.4965 27.8608 24.3224 27.3953 24.4673C26.9302 24.6123 26.6133 25.0429 26.6133 25.5301V43.6533C26.6133 44.2682 27.1116 44.7665 27.7266 44.7665C28.3415 44.7665 28.8398 44.2682 28.8398 43.6533V29.1013L39.0641 43.9068C39.5168 44.5605 40.1551 44.6445 40.6028 44.5051C41.1863 44.3229 41.5633 43.7483 41.5633 43.0306L41.3935 25.4854C41.3876 24.8741 40.8904 24.3828 40.2805 24.3828Z" fill="#0056B1"/>
<path d="M22.3624 26.7754C22.9774 26.7754 23.4757 26.2771 23.4757 25.6621C23.4757 25.0471 22.9774 24.5488 22.3624 24.5488H14.7817C14.1668 24.5488 13.6685 25.0471 13.6685 25.6621V43.6533C13.6685 44.2683 14.1668 44.7666 14.7817 44.7666H22.3624C22.9774 44.7666 23.4757 44.2683 23.4757 43.6533C23.4757 43.0384 22.9774 42.54 22.3624 42.54H15.895V35.7709H21.8036C22.4186 35.7709 22.9169 35.2725 22.9169 34.6576C22.9169 34.0426 22.4186 33.5443 21.8036 33.5443H15.895V26.7752H22.3624V26.7754Z" fill="#0056B1"/>
<path d="M62.4085 33.4614H56.9768C56.3619 33.4614 55.8636 33.9597 55.8636 34.5747C55.8636 35.1897 56.3619 35.688 56.9768 35.688H61.2425C61.0684 37.5005 60.4668 39.1075 59.5055 40.2928C58.3131 41.7628 56.6069 42.5398 54.5714 42.5398C50.1793 42.5398 46.6061 38.9666 46.6061 34.5747C46.6061 30.1826 50.1793 26.6094 54.5714 26.6094C56.1677 26.6094 57.7074 27.0796 59.0241 27.9691C59.5335 28.3131 60.2255 28.1793 60.5698 27.6697C60.9139 27.1602 60.78 26.4682 60.2704 26.124C58.5843 24.9849 56.6135 24.3828 54.5713 24.3828C48.9514 24.3828 44.3794 28.9548 44.3794 34.5747C44.3794 40.1944 48.9514 44.7664 54.5713 44.7664C57.3009 44.7664 59.6051 43.7045 61.2346 41.6954C62.7095 39.8772 63.5216 37.3484 63.5216 34.5747C63.5217 33.9599 63.0233 33.4614 62.4085 33.4614Z" fill="#0056B1"/>
</g>
<defs>
<clipPath id="clip0_4198_1097">
<rect width="76" height="76" fill="white"/>
</clipPath>
</defs>
</svg>
