<svg width="44" height="49" viewBox="0 0 44 49" fill="none" xmlns="http://www.w3.org/2000/svg">
<path d="M19.2286 48.6721C18.706 48.6721 16.0498 48.5948 13.956 47.0905C13.6889 46.8941 13.3666 46.787 13.0351 46.7844H11.9357C11.7525 46.7844 11.5769 46.7117 11.4474 46.5821C11.3179 46.4526 11.2451 46.277 11.2451 46.0938V33.1422C11.2453 33.0498 11.264 32.9584 11.3 32.8734C11.3361 32.7884 11.3888 32.7115 11.4551 32.6472C11.5214 32.5829 11.5998 32.5325 11.6859 32.499C11.7719 32.4655 11.8638 32.4496 11.9561 32.4521C11.9655 32.4521 13.3013 32.466 14.7736 31.5472C16.7514 30.3108 18.0441 28.0469 18.6148 24.8184C18.6408 24.5421 18.8115 23.2886 19.7822 22.7069C20.4153 22.3273 21.1893 22.3362 22.0826 22.7334C22.213 22.7886 23.7112 23.4925 24.3902 25.3813C24.9885 27.0475 24.7736 29.0761 23.7515 31.4224H27.4309C27.9713 31.4223 28.499 31.586 28.9445 31.8919C29.3899 32.1978 29.7323 32.6316 29.9263 33.1359C30.1203 33.6403 30.1569 34.1916 30.0312 34.7172C29.9056 35.2428 29.6236 35.718 29.2225 36.0801C29.5182 36.3469 29.7506 36.6766 29.9026 37.0448C30.0545 37.413 30.1222 37.8106 30.1007 38.2084C30.0792 38.6061 29.9691 38.9941 29.7783 39.3438C29.5875 39.6935 29.321 39.9961 28.9982 40.2296C29.278 40.5359 29.4827 40.9032 29.596 41.3023C29.7094 41.7015 29.7282 42.1215 29.651 42.5292C29.5738 42.9369 29.4027 43.321 29.1513 43.6511C28.8999 43.9811 28.5751 44.2482 28.2026 44.431C28.4916 44.83 28.6646 45.3012 28.7027 45.7924C28.7407 46.2836 28.6423 46.7758 28.4182 47.2145C28.1942 47.6533 27.8532 48.0217 27.433 48.2789C27.0128 48.5361 26.5297 48.6722 26.037 48.6721H19.2286ZM12.6251 45.4033H13.034C13.6548 45.4052 14.2592 45.6032 14.7609 45.969C16.6708 47.3413 19.2529 47.2916 19.2794 47.2905H26.0348C26.3731 47.2835 26.6952 47.1442 26.932 46.9024C27.1688 46.6607 27.3014 46.3358 27.3014 45.9974C27.3014 45.6591 27.1688 45.3342 26.932 45.0924C26.6952 44.8507 26.3731 44.7114 26.0348 44.7044H20.591C20.4078 44.7044 20.2322 44.6317 20.1026 44.5022C19.9731 44.3727 19.9004 44.197 19.9004 44.0139C19.9004 43.8307 19.9731 43.6551 20.1026 43.5256C20.2322 43.3961 20.4078 43.3233 20.591 43.3233H27.0209C27.193 43.3269 27.364 43.296 27.524 43.2327C27.684 43.1693 27.8297 43.0746 27.9527 42.9542C28.0756 42.8338 28.1733 42.69 28.2399 42.5314C28.3066 42.3727 28.341 42.2024 28.341 42.0303C28.341 41.8582 28.3066 41.6878 28.2399 41.5292C28.1733 41.3705 28.0756 41.2268 27.9527 41.1064C27.8297 40.986 27.684 40.8913 27.524 40.8279C27.364 40.7645 27.193 40.7337 27.0209 40.7373H21.5633C21.3801 40.7373 21.2045 40.6645 21.075 40.535C20.9455 40.4055 20.8727 40.2298 20.8727 40.0467C20.8727 39.8636 20.9455 39.6879 21.075 39.5584C21.2045 39.4289 21.3801 39.3561 21.5633 39.3561H27.4309C27.7692 39.3491 28.0912 39.2098 28.328 38.9681C28.5648 38.7264 28.6974 38.4015 28.6974 38.0631C28.6974 37.7247 28.5648 37.3998 28.328 37.1581C28.0912 36.9164 27.7692 36.7771 27.4309 36.7701H23.0212C22.838 36.7701 22.6624 36.6974 22.5329 36.5678C22.4034 36.4383 22.3306 36.2627 22.3306 36.0795C22.3306 35.8964 22.4034 35.7207 22.5329 35.5912C22.6624 35.4617 22.838 35.389 23.0212 35.389H27.4309C27.7692 35.382 28.0912 35.2427 28.328 35.001C28.5648 34.7592 28.6974 34.4343 28.6974 34.096C28.6974 33.7576 28.5648 33.4327 28.328 33.191C28.0912 32.9492 27.7692 32.8099 27.4309 32.8029H22.6577C22.5394 32.803 22.423 32.7726 22.3198 32.7148C22.2166 32.657 22.13 32.5736 22.0683 32.4727C22.0065 32.3717 21.9718 32.2566 21.9673 32.1384C21.9629 32.0202 21.9888 31.9028 22.0428 31.7975C23.267 29.4092 23.6283 27.3519 23.088 25.8481C22.6013 24.4935 21.5367 24.0024 21.5263 23.998L21.5196 23.9946C21.2042 23.8549 20.7699 23.7228 20.4904 23.8908C20.1241 24.1118 19.9982 24.799 19.9871 24.9576C19.9871 24.9808 19.9822 25.004 19.9783 25.0266C19.6264 27.0365 18.996 28.7491 18.1055 30.1169C17.3768 31.2362 16.4746 32.1273 15.4239 32.7687C14.569 33.2918 13.6169 33.636 12.6251 33.7802V45.4033Z" fill="#0055B8"/>
<path d="M11.9355 48.4999H4.63148C4.44833 48.4999 4.27269 48.4271 4.14318 48.2976C4.01367 48.1681 3.94092 47.9925 3.94092 47.8093V31.4269C3.94092 31.2437 4.01367 31.0681 4.14318 30.9386C4.27269 30.8091 4.44833 30.7363 4.63148 30.7363H11.9355C12.1186 30.7363 12.2943 30.8091 12.4238 30.9386C12.5533 31.0681 12.626 31.2437 12.626 31.4269V47.8093C12.6261 47.9 12.6083 47.9898 12.5736 48.0737C12.5389 48.1575 12.4881 48.2336 12.4239 48.2978C12.3598 48.3619 12.2836 48.4128 12.1998 48.4475C12.116 48.4821 12.0262 48.4999 11.9355 48.4999ZM5.32205 47.1187H11.2438V32.1175H5.32205V47.1187Z" fill="#0055B8"/>
<path d="M26.739 18.2877C26.6271 18.2878 26.5169 18.2605 26.418 18.2081L21.3542 15.5464L16.2905 18.2081C16.1764 18.2681 16.0479 18.295 15.9194 18.2857C15.7909 18.2765 15.6675 18.2315 15.5633 18.1558C15.459 18.0801 15.378 17.9767 15.3294 17.8574C15.2808 17.7381 15.2666 17.6075 15.2883 17.4805L16.2556 11.8417L12.1587 7.84854C12.0664 7.75859 12.0012 7.64462 11.9703 7.51952C11.9394 7.39442 11.9442 7.26318 11.984 7.14064C12.0239 7.0181 12.0972 6.90915 12.1957 6.8261C12.2942 6.74306 12.414 6.68923 12.5415 6.67071L18.2053 5.84811L20.7371 0.718042C20.7942 0.60247 20.8824 0.505158 20.9918 0.437113C21.1013 0.369069 21.2276 0.333008 21.3564 0.333008C21.4853 0.333008 21.6116 0.369069 21.7211 0.437113C21.8305 0.505158 21.9187 0.60247 21.9757 0.718042L24.5032 5.84811L30.1642 6.67071C30.2917 6.68923 30.4115 6.74306 30.51 6.8261C30.6085 6.90915 30.6819 7.0181 30.7217 7.14064C30.7615 7.26318 30.7663 7.39442 30.7354 7.51952C30.7045 7.64462 30.6393 7.75859 30.547 7.84854L26.4506 11.8417L27.4174 17.4805C27.4344 17.5797 27.4295 17.6813 27.4031 17.7783C27.3767 17.8753 27.3295 17.9654 27.2647 18.0423C27.1998 18.1192 27.119 18.1809 27.0278 18.2233C26.9367 18.2657 26.8373 18.2877 26.7368 18.2877H26.739ZM21.3542 14.0752C21.4661 14.0752 21.5763 14.1025 21.6752 14.1548L25.8219 16.3348L25.0302 11.7174C25.0113 11.6071 25.0195 11.4938 25.054 11.3874C25.0886 11.281 25.1485 11.1845 25.2286 11.1064L28.5831 7.83639L23.9474 7.1624C23.8367 7.14642 23.7315 7.10372 23.6409 7.03798C23.5503 6.97224 23.4771 6.88544 23.4276 6.78507L21.3542 2.58644L19.2809 6.78783C19.2314 6.8882 19.1581 6.975 19.0676 7.04074C18.977 7.10648 18.8718 7.14918 18.761 7.16516L14.1248 7.83915L17.4793 11.1091C17.5595 11.1872 17.6195 11.2836 17.6542 11.3901C17.6888 11.4965 17.6971 11.6098 17.6782 11.7201L16.886 16.3375L21.0327 14.1575C21.1316 14.1043 21.2419 14.0761 21.3542 14.0752Z" fill="#0055B8"/>
<path d="M33.1697 22.4303C33.0692 22.4302 32.9699 22.4082 32.8787 22.3657C32.7876 22.3233 32.7068 22.2615 32.642 22.1847C32.5772 22.1078 32.53 22.0178 32.5035 21.9208C32.4771 21.8238 32.4722 21.7222 32.4891 21.6231L33.1133 17.983L30.4693 15.4053C30.3767 15.3154 30.3112 15.2014 30.2801 15.0762C30.249 14.951 30.2536 14.8195 30.2934 14.6968C30.3332 14.5741 30.4066 14.465 30.5053 14.3818C30.6039 14.2987 30.7239 14.2448 30.8516 14.2264L34.5066 13.6955L36.1408 10.3841C36.1978 10.2685 36.286 10.1712 36.3954 10.1031C36.5049 10.0351 36.6312 9.99902 36.7601 9.99902C36.8889 9.99902 37.0152 10.0351 37.1247 10.1031C37.2341 10.1712 37.3223 10.2685 37.3794 10.3841L39.0135 13.6955L42.668 14.2264C42.7955 14.2449 42.9153 14.2987 43.0138 14.3818C43.1123 14.4648 43.1857 14.5737 43.2255 14.6963C43.2653 14.8188 43.2701 14.9501 43.2392 15.0752C43.2083 15.2003 43.1431 15.3142 43.0508 15.4042L40.4063 17.983L41.0305 21.6231C41.0527 21.7504 41.0387 21.8813 40.9901 22.001C40.9415 22.1207 40.8603 22.2244 40.7557 22.3002C40.6511 22.376 40.5273 22.421 40.3984 22.4299C40.2696 22.4388 40.1408 22.4114 40.0267 22.3507L36.7601 20.6348L33.4912 22.3529C33.3919 22.4046 33.2816 22.4311 33.1697 22.4303ZM36.7606 19.162C36.8725 19.1618 36.9826 19.1889 37.0816 19.241L39.4334 20.4774L38.9842 17.8587C38.9654 17.7484 38.9736 17.6351 39.0083 17.5287C39.0429 17.4222 39.1029 17.3258 39.1831 17.2477L41.0852 15.3931L38.4561 15.0114C38.3453 14.9952 38.2402 14.9523 38.1496 14.8865C38.0591 14.8207 37.9858 14.7339 37.9362 14.6335L36.7606 12.2508L35.5845 14.6335C35.5349 14.7339 35.4617 14.8208 35.3712 14.8866C35.2806 14.9524 35.1754 14.9953 35.0646 15.0114L32.4355 15.3931L34.3365 17.2477C34.4166 17.3258 34.4766 17.4222 34.5113 17.5287C34.5459 17.6351 34.5542 17.7484 34.5353 17.8587L34.0862 20.4774L36.4374 19.241C36.5369 19.1887 36.6477 19.1616 36.7601 19.162H36.7606Z" fill="#0055B8"/>
<path d="M10.4217 22.4303C10.3096 22.4304 10.1992 22.4031 10.1001 22.3507L6.83128 20.6348L3.56464 22.3507C3.45065 22.4108 3.32212 22.4377 3.19361 22.4285C3.06511 22.4192 2.94175 22.3742 2.83751 22.2985C2.73327 22.2228 2.65232 22.1194 2.60381 22C2.5553 21.8807 2.54118 21.7501 2.56304 21.6231L3.1851 17.983L0.540512 15.4053C0.447932 15.3154 0.3824 15.2013 0.351346 15.0761C0.320292 14.9508 0.324959 14.8194 0.364819 14.6966C0.404679 14.5739 0.478136 14.4647 0.576859 14.3816C0.675582 14.2985 0.795621 14.2447 0.923361 14.2264L4.57783 13.6955L6.21199 10.3841C6.269 10.2685 6.35722 10.1712 6.46667 10.1031C6.57611 10.0351 6.70241 9.99902 6.83128 9.99902C6.96016 9.99902 7.08646 10.0351 7.1959 10.1031C7.30535 10.1712 7.39357 10.2685 7.45058 10.3841L9.08474 13.6955L12.7398 14.2264C12.8675 14.2448 12.9874 14.2987 13.0861 14.3818C13.1847 14.465 13.2581 14.5741 13.2979 14.6968C13.3377 14.8195 13.3423 14.951 13.3112 15.0762C13.2802 15.2014 13.2146 15.3154 13.1221 15.4053L10.478 17.983L11.1023 21.6231C11.1192 21.7222 11.1142 21.8238 11.0878 21.9208C11.0614 22.0178 11.0141 22.1078 10.9493 22.1847C10.8845 22.2615 10.8037 22.3233 10.7126 22.3657C10.6215 22.4082 10.5222 22.4302 10.4217 22.4303ZM2.50669 15.3931L4.40878 17.2477C4.48897 17.3258 4.54897 17.4222 4.58362 17.5287C4.61827 17.6351 4.62652 17.7484 4.60767 17.8587L4.15852 20.4774L6.51031 19.241C6.60942 19.189 6.71965 19.1618 6.83156 19.1618C6.94347 19.1618 7.05371 19.189 7.15281 19.241L9.50405 20.4774L9.0549 17.8587C9.03605 17.7484 9.0443 17.6351 9.07895 17.5287C9.1136 17.4222 9.1736 17.3258 9.25379 17.2477L11.1564 15.3931L8.52731 15.0114C8.41652 14.9953 8.31131 14.9524 8.22075 14.8866C8.13018 14.8208 8.05698 14.7339 8.00746 14.6335L6.83128 12.2508L5.65567 14.6335C5.60606 14.7339 5.53284 14.8207 5.44229 14.8865C5.35174 14.9523 5.24657 14.9952 5.13581 15.0114L2.50669 15.3931Z" fill="#0055B8"/>
</svg>
