<svg width="58" height="58" viewBox="0 0 58 58" fill="none" xmlns="http://www.w3.org/2000/svg">
<path d="M48.7112 0.000122062C48.6808 0.000122062 48.6504 0.000122062 48.62 0.00390623C48.5592 0.00390623 48.4984 0.000122062 48.4376 0.000122062H35.0762C26.5549 0.000122062 19.4962 6.33104 18.3793 14.52H9.49321C6.87944 14.52 4.75955 12.4084 4.75955 9.80491V9.25621C4.75955 6.66783 6.86804 4.55626 9.46282 4.54113C9.47421 4.54113 9.48562 4.54113 9.49702 4.54113H15.9213C17.1788 4.54113 18.2007 3.52319 18.2007 2.27063C18.2007 1.01806 17.1788 0.000122062 15.9213 0.000122062H9.49702C4.37585 0.000122062 0.208252 4.15136 0.208252 9.25242V9.80113C0.208252 14.9135 4.36825 19.0534 9.49702 19.0534H18.2235V40.9297C18.2235 41.2514 18.3185 41.5617 18.4932 41.8304L29.1041 57.9925L39.7149 41.8304C39.8897 41.5617 39.9847 41.2476 39.9847 40.9297V25.9898C39.9847 24.76 39.0615 23.6588 37.8268 23.5944C36.5123 23.5263 35.4258 24.567 35.4258 25.8612V39.575C35.4258 39.8966 35.3308 40.2069 35.156 40.4756L29.1003 49.6976L23.0445 40.4756C22.8698 40.2069 22.7748 39.8929 22.7748 39.575V19.0496H48.7073C53.8399 19.0496 57.9961 14.906 57.9961 9.79734V9.24864C57.9961 4.14757 53.8285 -0.00366211 48.7073 -0.00366211L48.7112 0.000122062ZM48.4338 14.52H22.9875C24.0589 8.84751 29.0699 4.54113 35.0724 4.54113H48.4338C51.1958 4.54113 53.4448 6.77757 53.4448 9.53245C53.4448 12.2873 51.1996 14.5238 48.4338 14.5238V14.52Z" fill="#0056B1"/>
<path d="M26.8247 25.8535V39.6241H31.3836V25.8535C31.3836 24.601 30.3617 23.583 29.1042 23.583C27.8467 23.583 26.8247 24.601 26.8247 25.8535Z" fill="#0056B1"/>
</svg>
