<svg width="40" height="40" viewBox="0 0 40 40" fill="none" xmlns="http://www.w3.org/2000/svg">
<path d="M28.575 18.8744C28.6915 19.4506 28.7502 20.0371 28.75 20.625V27.0137L27.0421 31.6593L28.2153 32.0907L29.9616 27.3407C29.987 27.2716 30 27.1986 30 27.125V20.625C30.0002 19.9535 29.9331 19.2837 29.7999 18.6256L28.575 18.8744Z" fill="#0056B1"/>
<path d="M25.6634 35.4093C25.638 35.4784 25.625 35.5514 25.625 35.625V37.5H16.875V36.25H17.6964C18.1714 36.2485 18.6331 36.0931 19.0123 35.807C19.3915 35.521 19.6678 35.1197 19.7998 34.6634L20.476 32.2967L19.2741 31.9531L18.5978 34.3203C18.5412 34.5158 18.4228 34.6877 18.2603 34.8102C18.0978 34.9328 17.8999 34.9993 17.6964 35H11.738L10.6063 30.4734C10.5725 30.3382 10.4945 30.2182 10.3846 30.1324C10.2748 30.0466 10.1394 30 10 30H7.5V28.3634L10.4663 25.0412C10.5685 24.9267 10.625 24.7785 10.625 24.625V20.625C10.6249 20.0371 10.6835 19.4506 10.8 18.8744L9.57508 18.6256C9.44186 19.2837 9.37483 19.9535 9.375 20.625V24.3865L6.40875 27.7087C6.3065 27.8233 6.24999 27.9714 6.25 28.125V30.625C6.25 30.7907 6.31585 30.9497 6.43306 31.0669C6.55027 31.1841 6.70924 31.25 6.875 31.25H9.51203L10.6437 35.7765C10.6775 35.9118 10.7555 36.0318 10.8654 36.1176C10.9752 36.2034 11.1106 36.25 11.25 36.25H15.625V38.125C15.625 38.2907 15.6908 38.4497 15.8081 38.5669C15.9253 38.6841 16.0842 38.75 16.25 38.75H26.25C26.4158 38.75 26.5747 38.6841 26.6919 38.5669C26.8092 38.4497 26.875 38.2907 26.875 38.125V35.7362L27.7557 33.3407L26.5825 32.9093L25.6634 35.4093Z" fill="#0056B1"/>
<path d="M6.25 6.25C5.58719 6.25074 4.95173 6.51438 4.48306 6.98306C4.01438 7.45174 3.75074 8.08719 3.75 8.75H5C5 8.41848 5.1317 8.10054 5.36612 7.86612C5.60054 7.6317 5.91848 7.5 6.25 7.5C6.58152 7.5 6.89946 7.6317 7.13388 7.86612C7.3683 8.10054 7.5 8.41848 7.5 8.75H8.75C8.74926 8.08719 8.48562 7.45174 8.01694 6.98306C7.54826 6.51438 6.91281 6.25074 6.25 6.25Z" fill="#0056B1"/>
<path d="M12.5 7.5C12.8314 7.50039 13.1491 7.63222 13.3834 7.86655C13.6178 8.10089 13.7496 8.4186 13.75 8.75H15C15 8.08696 14.7366 7.45107 14.2678 6.98223C13.7989 6.51339 13.163 6.25 12.5 6.25C11.837 6.25 11.2011 6.51339 10.7322 6.98223C10.2634 7.45107 10 8.08696 10 8.75H11.25C11.2504 8.4186 11.3822 8.10089 11.6166 7.86655C11.8509 7.63222 12.1686 7.50039 12.5 7.5Z" fill="#0056B1"/>
<path d="M6.875 10.625H5.625C5.625 11.6196 6.02009 12.5734 6.72335 13.2767C7.42661 13.9799 8.38044 14.375 9.375 14.375C10.3696 14.375 11.3234 13.9799 12.0267 13.2767C12.7299 12.5734 13.125 11.6196 13.125 10.625H11.875C11.875 11.288 11.6116 11.9239 11.1428 12.3928C10.6739 12.8616 10.038 13.125 9.375 13.125C8.71196 13.125 8.07607 12.8616 7.60723 12.3928C7.13839 11.9239 6.875 11.288 6.875 10.625Z" fill="#0056B1"/>
<path d="M30.625 1.24996C29.4218 1.25053 28.2338 1.51818 27.1466 2.0336C26.0594 2.54902 25.1002 3.29935 24.3382 4.23045C23.5761 5.16156 23.0303 6.25021 22.7401 7.41785C22.4498 8.5855 22.4224 9.80301 22.6598 10.9825C21.7933 10.7443 20.8986 10.624 20 10.625H19.375C18.7017 10.6248 18.03 10.6922 17.3702 10.8262C17.7457 8.75623 17.3039 6.62127 16.1376 4.87038C14.9713 3.11949 13.1714 1.88914 11.1165 1.43812C9.06169 0.987095 6.91199 1.35055 5.11962 2.45204C3.32724 3.55352 2.03189 5.30719 1.50602 7.34418L2.71648 7.65575C3.15198 5.96079 4.21685 4.49542 5.69445 3.55776C7.17205 2.62009 8.95138 2.28058 10.6704 2.6083C12.3895 2.93601 13.9191 3.90633 14.9481 5.32185C15.9771 6.73737 16.4282 8.49174 16.2095 10.228C15.9909 11.9643 15.119 13.5521 13.7712 14.6683C12.4234 15.7846 10.701 16.3454 8.95433 16.2367C7.2077 16.128 5.56809 15.358 4.36907 14.0833C3.17005 12.8086 2.5017 11.125 2.5 9.37496C2.5 9.18426 2.50781 8.99114 2.52344 8.80114L1.27766 8.69879C1.2593 8.9227 1.25 9.1502 1.25 9.37496C1.25011 10.6856 1.56727 11.9769 2.17442 13.1384C2.78156 14.3 3.66068 15.2975 4.73677 16.0458C5.81286 16.7941 7.05399 17.2709 8.35427 17.4357C9.65455 17.6005 10.9754 17.4483 12.2041 16.9922L14.2604 20.5907C13.959 20.9121 13.7809 21.3296 13.7574 21.7696C13.734 22.2096 13.8667 22.6437 14.1323 22.9953C14.3978 23.3469 14.779 23.5934 15.2086 23.6912C15.6383 23.789 16.0886 23.7319 16.4802 23.53C16.8718 23.328 17.1794 22.9942 17.3488 22.5874C17.5182 22.1807 17.5384 21.7272 17.4059 21.307C17.2734 20.8868 16.9967 20.5269 16.6246 20.2909C16.2525 20.0549 15.809 19.9579 15.3724 20.0172L13.3422 16.4639C15.0499 15.5043 16.3559 13.963 17.0224 12.121L17.0413 12.1894C17.8015 11.9802 18.5865 11.8744 19.375 11.875H20C21.0591 11.8733 22.1096 12.0647 23.1001 12.4398C23.7989 14.1436 25.0525 15.5616 26.6578 16.4639L24.6276 20.0169C24.1886 19.9566 23.7425 20.0534 23.368 20.2902C22.9935 20.5271 22.7148 20.8887 22.5812 21.3111C22.4476 21.7336 22.4676 22.1897 22.6378 22.5988C22.8079 23.0079 23.1172 23.3437 23.511 23.5468C23.9048 23.7499 24.3577 23.8072 24.7897 23.7086C25.2217 23.61 25.6049 23.3619 25.8716 23.0081C26.1383 22.6543 26.2714 22.2176 26.2472 21.7752C26.2231 21.3327 26.0433 20.9131 25.7396 20.5904L27.7959 16.9919C28.9101 17.4056 30.1016 17.5698 31.2863 17.4729C32.4709 17.376 33.6199 17.0204 34.6521 16.4311C35.6843 15.8418 36.5747 15.0332 37.2604 14.0624C37.9461 13.0915 38.4105 11.982 38.6208 10.8122C38.831 9.6423 38.782 8.44056 38.4773 7.2917C38.1725 6.14283 37.6194 5.07482 36.8569 4.16299C36.0945 3.25116 35.1412 2.51772 34.0645 2.0144C32.9877 1.51108 31.8136 1.25013 30.625 1.24996ZM16.25 21.875C16.25 21.9986 16.2133 22.1194 16.1447 22.2222C16.076 22.325 15.9784 22.4051 15.8642 22.4524C15.75 22.4997 15.6243 22.5121 15.5031 22.488C15.3818 22.4638 15.2705 22.4043 15.1831 22.3169C15.0956 22.2295 15.0361 22.1181 15.012 21.9969C14.9879 21.8757 15.0003 21.75 15.0476 21.6358C15.0949 21.5216 15.175 21.424 15.2778 21.3553C15.3805 21.2866 15.5014 21.25 15.625 21.25C15.7907 21.2502 15.9496 21.3161 16.0667 21.4332C16.1839 21.5504 16.2498 21.7093 16.25 21.875ZM24.375 22.5C24.2514 22.5 24.1306 22.4633 24.0278 22.3946C23.925 22.326 23.8449 22.2283 23.7976 22.1141C23.7503 21.9999 23.7379 21.8743 23.762 21.753C23.7861 21.6318 23.8456 21.5204 23.9331 21.433C24.0205 21.3456 24.1318 21.2861 24.2531 21.262C24.3743 21.2379 24.5 21.2502 24.6142 21.2975C24.7284 21.3448 24.826 21.425 24.8947 21.5277C24.9633 21.6305 25 21.7514 25 21.875C24.9998 22.0407 24.9339 22.1995 24.8167 22.3167C24.6996 22.4339 24.5407 22.4998 24.375 22.5ZM30.625 16.25C29.2653 16.25 27.936 15.8468 26.8055 15.0913C25.6749 14.3359 24.7937 13.2622 24.2733 12.0059C23.753 10.7497 23.6168 9.36734 23.8821 8.03372C24.1474 6.7001 24.8022 5.47509 25.7636 4.51361C26.7251 3.55212 27.9501 2.89734 29.2838 2.63207C30.6174 2.36679 31.9997 2.50294 33.256 3.02329C34.5122 3.54365 35.5859 4.42483 36.3414 5.55542C37.0968 6.68601 37.5 8.01522 37.5 9.37496C37.4979 11.1977 36.7729 12.9452 35.4841 14.234C34.1952 15.5229 32.4477 16.2479 30.625 16.25Z" fill="#0056B1"/>
<path d="M30 6.875H28.75C28.75 7.20652 28.6183 7.52446 28.3839 7.75888C28.1495 7.9933 27.8315 8.125 27.5 8.125C27.1685 8.125 26.8505 7.9933 26.6161 7.75888C26.3817 7.52446 26.25 7.20652 26.25 6.875H25C25 7.53804 25.2634 8.17393 25.7322 8.64277C26.2011 9.11161 26.837 9.375 27.5 9.375C28.163 9.375 28.7989 9.11161 29.2678 8.64277C29.7366 8.17393 30 7.53804 30 6.875Z" fill="#0056B1"/>
<path d="M35 6.875C35 7.20652 34.8683 7.52446 34.6339 7.75888C34.3995 7.9933 34.0815 8.125 33.75 8.125C33.4185 8.125 33.1005 7.9933 32.8661 7.75888C32.6317 7.52446 32.5 7.20652 32.5 6.875H31.25C31.25 7.53804 31.5134 8.17393 31.9822 8.64277C32.4511 9.11161 33.087 9.375 33.75 9.375C34.413 9.375 35.0489 9.11161 35.5178 8.64277C35.9866 8.17393 36.25 7.53804 36.25 6.875H35Z" fill="#0056B1"/>
<path d="M30.625 10C29.6308 10.0011 28.6776 10.3966 27.9746 11.0996C27.2716 11.8026 26.8761 12.7558 26.875 13.75H28.125C28.125 13.087 28.3884 12.4511 28.8572 11.9822C29.3261 11.5134 29.962 11.25 30.625 11.25C31.288 11.25 31.9239 11.5134 32.3928 11.9822C32.8616 12.4511 33.125 13.087 33.125 13.75H34.375C34.3739 12.7558 33.9784 11.8026 33.2754 11.0996C32.5724 10.3966 31.6192 10.0011 30.625 10Z" fill="#0056B1"/>
</svg>
