<svg width="44" height="44" viewBox="0 0 44 44" fill="none" xmlns="http://www.w3.org/2000/svg">
<path d="M3.47778 9.198L12.467 0.369263C12.708 0.132599 13.0323 0 13.3703 0H36.0964C38.7484 0 40.9062 2.1575 40.9062 4.80981V39.1902C40.9062 41.8422 38.7487 44 36.0964 44H7.90189C5.24991 44 3.09207 41.8425 3.09207 39.1902V10.1178C3.09207 9.7717 3.23105 9.44037 3.47778 9.198ZM12.0813 4.362L7.53329 8.82874H11.6714C11.8973 8.82874 12.0813 8.64478 12.0813 8.41885V4.362ZM7.90189 41.4219H36.0964C37.3268 41.4219 38.3281 40.4208 38.3281 39.1902V4.80981C38.3281 3.57916 37.3271 2.57812 36.0964 2.57812H14.6591V8.41885C14.6591 10.0664 13.3186 11.4069 11.6711 11.4069H5.6702V39.1902C5.6702 40.4208 6.67123 41.4219 7.90189 41.4219Z" fill="#0056B1"/>
<path d="M13.0499 20.4531H31.2217C31.9337 20.4531 32.5107 21.0302 32.5107 21.7422C32.5107 22.4542 31.9337 23.0312 31.2217 23.0312H13.0499C12.3379 23.0312 11.7609 22.4542 11.7609 21.7422C11.7609 21.0302 12.3379 20.4531 13.0499 20.4531Z" fill="#0056B1"/>
<path d="M31.2217 28.1875H16.4048C15.6928 28.1875 15.1158 27.6104 15.1158 26.8984C15.1158 26.1864 15.6928 25.6094 16.4048 25.6094H31.2217C31.9337 25.6094 32.5107 26.1864 32.5107 26.8984C32.5107 27.6104 31.9337 28.1875 31.2217 28.1875Z" fill="#0056B1"/>
<path d="M14.6173 30.7656H31.2217C31.9337 30.7656 32.5107 31.3427 32.5107 32.0547C32.5107 32.7667 31.9337 33.3438 31.2217 33.3438H14.6173C13.9056 33.3438 13.3282 32.7667 13.3282 32.0547C13.3282 31.3427 13.9056 30.7656 14.6173 30.7656Z" fill="#0056B1"/>
</svg>
