<svg width="60" height="60" viewBox="0 0 60 60" fill="none" xmlns="http://www.w3.org/2000/svg">
<path d="M46.7173 41.3272C51.807 36.2374 54.6101 29.47 54.6101 22.2715C54.6101 15.073 51.807 8.30558 46.7173 3.21577C45.347 1.84548 43.1169 1.84537 41.7462 3.21577C41.3932 3.56868 41.1318 3.97889 40.9607 4.41652C33.8418 -0.896617 24.124 -1.52054 16.3125 3.11419C15.7559 3.44437 15.5724 4.1632 15.9026 4.71975C16.2327 5.27642 16.9517 5.4599 17.5082 5.12961C20.1964 3.53459 23.1371 2.63579 26.1008 2.40414L25.6161 4.12898C25.2183 5.54485 25.0817 5.8373 24.0836 6.73177C23.7179 7.05949 23.3521 7.39459 22.9983 7.71868C22.65 8.03797 22.2897 8.36803 21.9343 8.68638C21.9184 8.70067 21.9029 8.71532 21.8878 8.73044C21.0332 9.58506 20.7712 10.6972 21.1693 11.7817C21.7149 13.2681 23.4862 14.5004 25.2897 14.6483L32.1704 15.2122C33.9959 15.3616 35.0218 15.1568 36.2738 13.5474C36.446 13.3259 36.6849 13.1859 36.9292 13.163C37.1902 13.1387 37.4541 13.2438 37.7163 13.4753L41.1775 16.5329C42.0712 17.3223 42.9815 18.0149 44.1332 18.0148C44.6099 18.0148 45.1282 17.8961 45.7035 17.6165L46.8784 17.0457C48.6788 23.7103 46.9682 31.1343 41.7462 36.3562C41.3097 36.7927 40.8572 37.2031 40.3918 37.5905L39.2541 36.4972C37.9688 35.2618 36.7682 35.0904 35.3598 35.2136L29.2673 35.7466C28.1057 35.8484 28.0412 35.717 27.7302 35.086L27.1917 33.9931C27.1515 33.9116 27.1474 33.8042 27.1811 33.7192C27.2081 33.6515 27.2519 33.6106 27.3276 33.5824L29.4484 32.7934C31.1489 32.1607 31.6433 31.2273 32.0039 29.6172L32.9203 25.528C33.1551 24.4807 32.9233 23.4501 32.2847 22.7005C31.6681 21.9766 30.763 21.6118 29.7373 21.6751L26.3076 21.8845C24.6396 21.9863 23.5914 22.7269 23.0092 24.2156L22.2524 26.1507C21.8818 27.0982 21.7068 27.2416 20.6906 27.429L18.9618 27.748C18.8118 27.7757 18.3561 27.8595 18.0792 27.0943L17.0759 24.3222C16.4955 22.7182 15.3266 21.8609 13.5026 21.7015L7.7623 21.1995C7.9295 18.0712 8.83662 14.9544 10.519 12.1187C10.8492 11.5622 10.6657 10.8433 10.1092 10.5132C9.55264 10.183 8.83381 10.3663 8.50363 10.923C3.86914 18.7344 4.49306 28.4519 9.80631 35.5707C9.36868 35.7419 8.95848 36.0032 8.60556 36.3561C7.23504 37.7267 7.23504 39.9566 8.60556 41.3272C13.4182 46.1397 19.7309 48.9063 26.4894 49.1936V52.3839H18.2877C16.3495 52.3839 14.7726 53.9607 14.7726 55.8989V58.8282C14.7726 59.4753 15.2972 59.9998 15.9443 59.9998H44.0647C44.7117 59.9998 45.2364 59.4753 45.2364 58.8282V55.8989C45.2364 53.9607 43.6596 52.3839 41.7214 52.3839H33.5196V48.5843C38.4816 47.4901 43.0379 45.0066 46.7173 41.3272ZM44.6792 15.5088C44.1678 15.7574 43.956 15.8605 42.7288 14.7766L39.2674 11.7191C38.5228 11.0612 37.6149 10.7455 36.7112 10.83C35.8253 10.9127 34.9916 11.3788 34.4239 12.1088C33.7836 12.9319 33.6492 12.9821 32.3616 12.8768L25.481 12.3129C24.5247 12.2345 23.5773 11.5415 23.3692 10.9746C23.3125 10.82 23.2821 10.66 23.5256 10.4072C23.8814 10.088 24.2372 9.76211 24.5814 9.44669C24.9304 9.12693 25.2913 8.79617 25.6473 8.47723C27.0899 7.18451 27.4031 6.43194 27.872 4.7631L28.5462 2.36395C33.3887 2.58177 38.1239 4.56509 41.746 8.18724C43.6963 10.1375 45.1565 12.3951 46.1273 14.8054L44.6792 15.5088ZM14.8726 25.1195L15.8759 27.8915C16.4545 29.4909 17.8331 30.3393 19.3871 30.0523L21.1159 29.7334C22.9304 29.3986 23.7679 28.7099 24.4349 27.0042L25.1917 25.069C25.4106 24.5094 25.5858 24.2763 26.4505 24.2235L29.8801 24.0142C30.1604 23.9969 30.3698 24.0663 30.5009 24.2203C30.655 24.4012 30.7046 24.6985 30.6336 25.0156L29.7171 29.1048C29.461 30.248 29.3583 30.3266 28.6311 30.597L26.5104 31.3861C25.8114 31.6462 25.2762 32.1672 25.0033 32.8535C24.7236 33.5571 24.7549 34.3498 25.0893 35.0287L25.628 36.1219C26.5309 37.9544 27.7679 38.2304 29.4713 38.0811L35.5636 37.5481C36.5122 37.4654 36.9667 37.5491 37.63 38.1868L38.4759 38.9997C30.7621 43.9889 20.3288 43.1084 13.5766 36.3561C10.0534 32.833 8.08065 28.2567 7.77507 23.553L13.2983 24.036C14.3245 24.1256 14.6433 24.4859 14.8726 25.1195ZM10.2628 38.0132C10.7194 37.5565 11.4625 37.5564 11.9193 38.0128C11.9194 38.0129 11.9196 38.0131 11.9198 38.0132C16.2598 42.3532 21.9606 44.5233 27.6615 44.5233C33.3623 44.5233 39.0632 42.3532 43.4033 38.0132C52.0831 29.3333 52.0831 15.2099 43.4033 6.52989C43.1819 6.30856 43.0601 6.01435 43.0601 5.70139C43.0601 5.38843 43.1819 5.09422 43.4033 4.87289C43.8601 4.41605 44.6035 4.41616 45.0603 4.87289C54.6539 14.4665 54.6539 30.0766 45.0603 39.6702C35.4667 49.2639 19.8567 49.264 10.2629 39.6702C9.80596 39.2134 9.80596 38.4701 10.2628 38.0132ZM42.8932 55.8991V57.6566H17.1162V55.8991C17.1162 55.253 17.6419 54.7274 18.2879 54.7274H41.7217C42.3677 54.7274 42.8932 55.253 42.8932 55.8991ZM31.1765 52.384H28.833V49.1937C29.6208 49.1602 30.4025 49.0931 31.1765 48.9929V52.384Z" fill="#0056B1"/>
<path d="M12.7483 8.5299C13.3955 8.5299 13.92 8.00533 13.92 7.35821C13.92 6.71109 13.3955 6.18652 12.7483 6.18652H12.7474C12.1003 6.18652 11.5762 6.71109 11.5762 7.35821C11.5762 8.00533 12.1012 8.5299 12.7483 8.5299Z" fill="#0056B1"/>
</svg>
