<svg width="52" height="49" viewBox="0 0 52 49" fill="none" xmlns="http://www.w3.org/2000/svg">
<path d="M26.0356 48.4848C24.2709 48.4848 22.5072 48.1292 20.8738 47.4187L13.0635 44.0235C10.2379 42.7945 7.25031 42.016 4.18382 41.7095L1.61897 41.453C1.19669 41.4109 0.875488 41.0557 0.875488 40.6316V32.586C0.875488 32.4075 0.933587 32.2337 1.04081 32.091C1.23258 31.8345 5.82949 25.8291 12.8514 27.3916C16.8007 28.2692 19.9806 29.9116 21.9527 31.135C23.3843 32.023 25.0626 32.492 26.806 32.492H34.6163C35.9625 32.492 37.1458 33.2043 37.8075 34.2728L44.5343 26.523C45.8384 24.7814 47.972 23.7148 50.2058 23.7148H50.7083C50.9875 23.7148 51.2473 23.8556 51.3994 24.0889C51.552 24.3223 51.576 24.6175 51.4641 24.8726L45.3802 38.6992C44.0501 41.7232 41.3417 44.0074 38.1358 44.809L37.0655 45.0764L30.839 47.5671C29.3067 48.1797 27.6709 48.4848 26.0356 48.4848ZM2.52682 39.8843L4.3482 40.0666C7.58521 40.3902 10.7391 41.2126 13.7224 42.5096L21.5323 45.9049C24.2785 47.099 27.4456 47.1457 30.2263 46.0333L36.5038 43.5223C36.5388 43.5086 36.5742 43.4973 36.6106 43.4883L37.7353 43.2068C40.4499 42.528 42.7431 40.5942 43.8687 38.0341L49.4179 25.4229C47.9971 25.6321 46.6896 26.3978 45.8186 27.5588L38.3668 36.1471C38.3677 36.1792 38.3682 36.2108 38.3682 36.2434C38.3682 38.3119 36.6852 39.9948 34.6168 39.9948H23.7197C22.3031 39.9948 20.9031 40.222 19.5593 40.6698L19.256 39.8999L18.9995 39.1153L19.0416 39.1016C20.5498 38.599 22.1251 38.3435 23.7197 38.3435H34.6168C35.7745 38.3435 36.7174 37.4012 36.7174 36.243C36.7174 35.0848 35.775 34.1424 34.6168 34.1424H26.8065C24.7551 34.1424 22.776 33.5874 21.0831 32.5374C19.2201 31.3815 16.2169 29.8308 12.4943 29.0028C7.17663 27.8233 3.35013 31.9044 2.52729 32.8779V39.8843H2.52682Z" fill="#0055B8"/>
<path d="M33.3872 23.529C32.1175 23.529 30.6939 23.1369 29.1266 22.3533C28.9367 22.2579 28.7903 22.0925 28.7185 21.8927C28.6547 21.7137 27.1796 17.4706 29.5239 14.3328C31.2276 12.0518 34.4311 11.0245 39.0507 11.2819C39.472 11.305 39.8078 11.6428 39.8286 12.065C39.8452 12.3928 40.1857 20.1304 36.2402 22.7066C35.4013 23.255 34.4481 23.529 33.3872 23.529ZM30.1795 21.0283C32.348 22.0453 34.0816 22.145 35.338 21.3245C37.6776 19.7964 38.1834 15.2605 38.1957 12.8997C34.5761 12.8113 32.1119 13.6271 30.8464 15.3205C29.3406 17.3369 29.9258 20.1106 30.1795 21.0283Z" fill="#0055B8"/>
<path d="M20.7622 12.7121C19.2984 12.7121 17.6098 12.3985 16.1361 11.3192C13.6364 9.48739 12.4876 6.00004 12.721 0.954403C12.7408 0.532595 13.0752 0.193448 13.497 0.168414C13.8541 0.148102 22.3064 -0.302991 25.1504 3.9661C26.4748 5.95328 26.3662 8.55592 24.8287 11.7032C24.7352 11.8945 24.5717 12.0423 24.3719 12.1155C24.2609 12.1566 22.7112 12.7121 20.7622 12.7121ZM14.3459 1.79282C14.2745 5.83424 15.2036 8.58898 17.1115 9.98714C19.3957 11.6607 22.5147 10.9493 23.4953 10.6635C24.6171 8.22905 24.712 6.28534 23.7768 4.88151C22.0385 2.27226 16.9409 1.76212 14.3459 1.79282Z" fill="#0055B8"/>
<path d="M27.209 33.8521C27.183 33.8521 27.157 33.8507 27.1305 33.8483C26.6908 33.8067 26.3616 33.4265 26.3838 32.9848C26.4324 32.0137 26.5155 31.0926 26.6284 30.2197C26.9718 24.3777 26.7947 10.7731 18.1932 7.0094C17.7757 6.8266 17.5848 6.34008 17.7676 5.92205C17.95 5.50497 18.4379 5.31461 18.855 5.49694C23.9238 7.71462 27.1126 13.2359 28.0748 21.4638C28.1612 22.2011 28.2259 22.928 28.2741 23.6361C30.5395 17.9117 34.0051 15.8891 34.2115 15.7734C34.6083 15.549 35.1118 15.6917 35.3357 16.088C35.5582 16.4847 35.4184 16.9868 35.023 17.2107C34.9356 17.2617 29.6212 20.451 28.2873 30.2863C28.1858 31.9688 28.0393 33.0415 28.0257 33.1398C27.9685 33.5517 27.6166 33.8521 27.209 33.8521Z" fill="#0055B8"/>
</svg>
