<svg width="44" height="44" viewBox="0 0 44 44" fill="none" xmlns="http://www.w3.org/2000/svg">
<g clip-path="url(#clip0_571_3351)">
<path d="M42.1665 27.5002H40.9437C40.4854 27.5002 40.0307 27.535 39.5779 27.6047L26.6602 17.9174L29.7549 14.9547C30.4864 14.2544 30.512 13.092 29.8117 12.3624C29.1095 11.6309 27.9472 11.607 27.2194 12.3055L19.5689 19.6297C19.1875 20.011 18.6687 20.2072 18.1242 20.1614C17.5779 20.1174 17.0975 19.8405 16.7694 19.3822C16.267 18.6855 16.421 17.5947 17.0774 16.9365L25.6995 8.81671C27.333 7.28221 29.8869 6.90637 31.8852 7.90921L36.1312 10.0322C37.3962 10.6647 38.8152 10.9984 40.2287 10.9984H42.1647C43.1786 10.9984 43.9981 10.1789 43.9981 9.16504C43.9981 8.15121 43.1786 7.33171 42.1647 7.33171H40.2287C39.3799 7.33171 38.5274 7.13187 37.7684 6.75237L33.5261 4.62937C30.182 2.95554 25.9122 3.57704 23.1842 6.14737L22.0512 7.21437L20.7679 6.04471C19.083 4.51021 16.9014 3.66504 14.5529 3.66504C13.1394 3.66504 11.7295 3.99871 10.47 4.62754L6.22771 6.75054C5.46688 7.13004 4.61438 7.32987 3.76555 7.32987H1.83321C0.81938 7.32987 -0.000119791 8.14937 -0.000119791 9.16321C-0.000119791 10.177 0.81938 10.9965 1.83321 10.9965H3.76921C5.18271 10.9965 6.60171 10.661 7.86855 10.0304L12.1145 7.90737C13.9882 6.96504 16.6209 7.21987 18.3002 8.75437L19.3764 9.73521L14.5254 14.3039C12.5582 16.2692 12.2447 19.3767 13.7957 21.5235C14.749 22.849 16.6429 23.8317 18.2764 23.8317C19.7302 23.8317 21.1254 23.2597 22.1337 22.2495L23.9781 20.484L35.6124 29.2089C35.5555 29.2492 24.2494 37.7265 24.2494 37.7265C22.9239 38.7569 21.074 38.7569 19.721 37.7064L8.55421 29.3317C6.97938 28.1492 5.02505 27.4984 3.05421 27.4984H1.83138C0.817547 27.4984 -0.00195312 28.3179 -0.00195312 29.3317C-0.00195312 30.3455 0.817547 31.165 1.83138 31.165H3.05421C4.23671 31.165 5.40821 31.5555 6.35421 32.265L17.4954 40.6214C18.8246 41.6554 20.4177 42.1724 22.0072 42.1724C23.5875 42.1724 25.166 41.6609 26.475 40.6415L37.6455 32.2669C38.5897 31.5574 39.7612 31.1669 40.9437 31.1669H42.1665C43.1804 31.1669 43.9999 30.3474 43.9999 29.3335C43.9999 28.3197 43.1804 27.5002 42.1665 27.5002Z" fill="#0056B1"/>
</g>
<defs>
<clipPath id="clip0_571_3351">
<rect width="44" height="44" fill="white"/>
</clipPath>
</defs>
</svg>
