<svg width="44" height="40" viewBox="0 0 44 40" fill="none" xmlns="http://www.w3.org/2000/svg">
<path d="M42.1665 24.5002H40.9437C40.4854 24.5002 40.0307 24.535 39.5779 24.6047L26.6602 14.9174L29.7549 11.9547C30.4864 11.2544 30.512 10.092 29.8117 9.36237C29.1095 8.63087 27.9472 8.60704 27.2194 9.30554L19.5689 16.6297C19.1875 17.011 18.6687 17.2072 18.1242 17.1614C17.5779 17.1174 17.0975 16.8405 16.7694 16.3822C16.267 15.6855 16.421 14.5947 17.0774 13.9365L25.6995 5.81671C27.333 4.28221 29.8869 3.90637 31.8852 4.90921L36.1312 7.03221C37.3962 7.66471 38.8152 7.99837 40.2287 7.99837H42.1647C43.1786 7.99837 43.9981 7.17887 43.9981 6.16504C43.9981 5.15121 43.1786 4.33171 42.1647 4.33171H40.2287C39.3799 4.33171 38.5274 4.13187 37.7684 3.75237L33.5261 1.62937C30.182 -0.0444606 25.9122 0.577039 23.1842 3.14737L22.0512 4.21437L20.7679 3.04471C19.083 1.51021 16.9014 0.665039 14.5529 0.665039C13.1394 0.665039 11.7295 0.998706 10.47 1.62754L6.22771 3.75054C5.46688 4.13004 4.61438 4.32987 3.76555 4.32987H1.83321C0.81938 4.32987 -0.000119791 5.14937 -0.000119791 6.16321C-0.000119791 7.17704 0.81938 7.99654 1.83321 7.99654H3.76921C5.18271 7.99654 6.60171 7.66104 7.86855 7.03037L12.1145 4.90737C13.9882 3.96504 16.6209 4.21987 18.3002 5.75437L19.3764 6.73521L14.5254 11.3039C12.5582 13.2692 12.2447 16.3767 13.7957 18.5235C14.749 19.849 16.6429 20.8317 18.2764 20.8317C19.7302 20.8317 21.1254 20.2597 22.1337 19.2495L23.9781 17.484L35.6124 26.2089C35.5555 26.2492 24.2494 34.7265 24.2494 34.7265C22.9239 35.7569 21.074 35.7569 19.721 34.7064L8.55421 26.3317C6.97938 25.1492 5.02505 24.4984 3.05421 24.4984H1.83138C0.817547 24.4984 -0.00195312 25.3179 -0.00195312 26.3317C-0.00195312 27.3455 0.817547 28.165 1.83138 28.165H3.05421C4.23671 28.165 5.40821 28.5555 6.35421 29.265L17.4954 37.6214C18.8246 38.6554 20.4177 39.1724 22.0072 39.1724C23.5875 39.1724 25.166 38.6609 26.475 37.6415L37.6455 29.2669C38.5897 28.5574 39.7612 28.1669 40.9437 28.1669H42.1665C43.1804 28.1669 43.9999 27.3474 43.9999 26.3335C43.9999 25.3197 43.1804 24.5002 42.1665 24.5002Z" fill="white"/>
</svg>
