<svg width="40" height="40" viewBox="0 0 40 40" fill="none" xmlns="http://www.w3.org/2000/svg">
<path d="M32.2571 11.0595L39.6781 4.95454C40.0545 4.64484 40.1086 4.08862 39.7989 3.71214C39.4892 3.33574 38.9329 3.2816 38.5566 3.5913L30.6234 10.1176C27.3594 8.41221 23.7109 7.51555 20 7.51555C15.8992 7.51555 11.8744 8.61041 8.36069 10.6817C4.95071 12.6919 2.10062 15.5654 0.118593 18.9915C-0.0395311 19.2649 -0.0395311 19.6021 0.118593 19.8755C2.10071 23.3016 4.95071 26.1751 8.36069 28.1853C8.41914 28.2198 8.47821 28.2532 8.53692 28.2872L0.321896 35.0454C-0.0545009 35.3551 -0.108643 35.9113 0.201062 36.2878C0.37559 36.4999 0.628374 36.6096 0.88322 36.6096C1.08052 36.6096 1.27907 36.5437 1.44347 36.4087L10.2364 29.1751C13.2755 30.6033 16.6118 31.3515 20.0001 31.3515C24.1009 31.3515 28.1256 30.2567 31.6393 28.1853C35.0493 26.1751 37.8994 23.3016 39.8814 19.8755C40.0395 19.6021 40.0395 19.2649 39.8814 18.9915C38.0202 15.7745 35.3938 13.0448 32.2571 11.0595ZM10.0015 27.0824C9.75091 26.9481 9.50252 26.8093 9.25718 26.6646C6.25622 24.8955 3.72489 22.4024 1.9095 19.4335C3.72489 16.4646 6.25622 13.9714 9.25718 12.2024C12.4994 10.2911 16.2143 9.28082 20 9.28082C23.1723 9.28082 26.2947 9.99068 29.1312 11.3452L25.5108 14.3236C24.1365 12.8425 22.1751 11.9132 20 11.9132C15.8533 11.9132 12.4797 15.2869 12.4797 19.4335C12.4797 21.0857 13.0166 22.6141 13.9231 23.8562L10.0015 27.0824ZM25.1634 16.8952C25.5416 17.6614 25.7551 18.5229 25.7551 19.4335C25.7551 22.6068 23.1734 25.1885 20 25.1885C18.691 25.1885 17.4833 24.7484 16.5154 24.0095L25.1634 16.8952ZM15.2888 22.7328C14.632 21.7978 14.2449 20.6603 14.2449 19.4335C14.2449 16.2601 16.8266 13.6784 20 13.6784C21.627 13.6784 23.0973 14.3581 24.145 15.4471L15.2888 22.7328ZM30.7428 26.6646C27.5006 28.5759 23.7857 29.5862 20 29.5862C17.1563 29.5862 14.3527 29.0161 11.7592 27.9222L15.1253 25.153C16.4392 26.2744 18.1413 26.9536 20 26.9536C24.1468 26.9536 27.5203 23.5801 27.5203 19.4334C27.5203 18.0963 27.1679 16.8406 26.5535 15.7515L30.8145 12.2461C33.7838 14.0125 36.2896 16.4885 38.0904 19.4334C36.275 22.4024 33.7437 24.8956 30.7428 26.6646Z" fill="#0056B1"/>
</svg>
