<svg width="62" height="62" viewBox="0 0 62 62" fill="none" xmlns="http://www.w3.org/2000/svg">
<g clip-path="url(#clip0_4198_1282)">
<path d="M38.6782 15.333V17.1512H46.2726C49.1133 17.1512 51.4242 19.4622 51.4242 22.3028C51.4242 22.3699 51.4228 22.4373 51.4204 22.5044C51.3188 25.1764 49.1462 27.349 46.4741 27.4505C43.853 27.5525 41.6434 25.6839 41.2015 23.2119H43.8484V21.3937H39.3029V22.3028C39.3029 26.1459 42.4295 29.2725 46.2726 29.2725C46.3625 29.2725 46.4528 29.2708 46.5432 29.2674C50.1594 29.1301 53.0998 26.1899 53.2373 22.573C53.2405 22.4827 53.2423 22.3926 53.2423 22.3029C53.2423 18.4598 50.1158 15.3331 46.2726 15.3331L38.6782 15.333Z" fill="#0056B1"/>
<path d="M15.4562 29.2673C15.5469 29.2707 15.6372 29.2724 15.727 29.2724C19.5702 29.2724 22.6967 26.1459 22.6967 22.3027V21.3936H18.1513V23.2118H20.7982C20.3675 25.6203 18.2574 27.4542 15.727 27.4542C15.6601 27.4542 15.5931 27.453 15.5253 27.4503C12.8534 27.3489 10.6808 25.1763 10.5794 22.5048C10.5768 22.4371 10.5755 22.3697 10.5755 22.3027C10.5755 19.4621 12.8864 17.1512 15.727 17.1512H36.8599V15.333H15.727C11.8839 15.333 8.75732 18.4596 8.75732 22.3027C8.75732 22.3924 8.75914 22.4823 8.76254 22.5732C8.89987 26.1896 11.8402 29.13 15.4562 29.2673Z" fill="#0056B1"/>
<path d="M21.1211 2.89062L22.6956 1.98153L25.7259 7.23002L24.1514 8.13911L21.1211 2.89062Z" fill="#0056B1"/>
<path d="M14.7993 9.87891L15.7084 8.30436L20.9569 11.3347L20.0478 12.9092L14.7993 9.87891Z" fill="#0056B1"/>
<path d="M41.0415 11.334L46.29 8.30368L47.1991 9.87823L41.9506 12.9085L41.0415 11.334Z" fill="#0056B1"/>
<path d="M36.2729 7.23047L39.3033 1.98198L40.8778 2.89107L37.8475 8.13956L36.2729 7.23047Z" fill="#0056B1"/>
<path d="M60.3939 56.5457V50.5937L49.7989 49.2412L49.5686 51.0447L58.5758 52.1947V56.5457H41.4242V58.3639H60.1515V60.1821H15V62.0002H61.9697V56.5457H60.3939Z" fill="#0056B1"/>
<path d="M1.84846 58.364H39.606V56.5458H31.9091V54.6415C31.9091 51.8005 34.2149 49.4891 37.0493 49.4891C37.2691 49.4891 37.4923 49.5034 37.7129 49.5315L47.7652 50.8148L47.9955 49.0113L47.6666 48.9694V31.0307H45.8485V48.7371L43.303 48.4121V33.9398C43.303 32.1017 41.8076 30.6064 39.9697 30.6064C38.1317 30.6064 36.6363 32.1017 36.6363 33.9398V47.6838C35.8237 47.7318 35.048 47.9194 34.3333 48.2241V33.9398C34.3333 32.1017 32.8379 30.6064 31 30.6064C29.162 30.6064 27.6666 32.1017 27.6666 33.9398V48.2241C26.952 47.9194 26.1762 47.7317 25.3636 47.6838V33.9398C25.3636 32.1017 23.8682 30.6064 22.0303 30.6064C20.1923 30.6064 18.6969 32.1017 18.6969 33.9398V48.4121L16.1515 48.7371V31.0307H14.3333V48.9691L1.60603 50.5938V56.5458H0.0302734V62.0004H13.1818V60.1822H1.84846V58.364ZM38.4545 33.9398C38.4545 33.1043 39.1342 32.4246 39.9697 32.4246C40.8052 32.4246 41.4848 33.1043 41.4848 33.9398V48.18L38.4545 47.7931V33.9398ZM29.4848 33.9398C29.4848 33.1043 30.1645 32.4246 31 32.4246C31.8355 32.4246 32.5151 33.1043 32.5151 33.9398V49.3592C31.9115 49.8799 31.3971 50.5018 31 51.1993C30.6029 50.5018 30.0885 49.8799 29.4848 49.3592V33.9398ZM20.5151 33.9398C20.5151 33.1043 21.1948 32.4246 22.0303 32.4246C22.8658 32.4246 23.5454 33.1043 23.5454 33.9398V47.7932L20.5151 48.18V33.9398ZM3.42421 52.1948L24.2869 49.5314C24.5074 49.5033 24.7306 49.489 24.9505 49.489C27.7849 49.489 30.0909 51.8004 30.0909 54.6414V56.5458H3.42421V52.1948Z" fill="#0056B1"/>
<path d="M30.0908 0H31.909V6.06061H30.0908V0Z" fill="#0056B1"/>
<path d="M33.7271 21.3936H35.5452V23.2117H33.7271V21.3936Z" fill="#0056B1"/>
<path d="M26.4546 21.3936H28.2728V23.2117H26.4546V21.3936Z" fill="#0056B1"/>
<path d="M30.0908 21.3936H31.909V23.2117H30.0908V21.3936Z" fill="#0056B1"/>
<path d="M45.9092 21.3936H47.7274V23.2117H45.9092V21.3936Z" fill="#0056B1"/>
<path d="M14.2725 21.3936H16.0906V23.2117H14.2725V21.3936Z" fill="#0056B1"/>
</g>
<defs>
<clipPath id="clip0_4198_1282">
<rect width="62" height="62" fill="white"/>
</clipPath>
</defs>
</svg>
