<svg width="55" height="55" viewBox="0 0 55 55" fill="none" xmlns="http://www.w3.org/2000/svg">
<path fill-rule="evenodd" clip-rule="evenodd" d="M54.7063 25.4893L49.1525 17.6588C49.0084 17.4548 48.771 17.3273 48.5166 17.3273H34.1617L28.218 11.3673V6.30005H34.7892C35.2216 6.30005 35.5693 5.95146 35.5693 5.51785V0.782192C35.5693 0.348586 35.2216 0 34.7892 0H27.4295C26.997 0 26.6494 0.348586 26.6494 0.782192L26.6579 11.3248L20.6717 17.3273H6.32533C6.07096 17.3273 5.83355 17.4463 5.6894 17.6588L0.144165 25.4893C-0.101725 25.8378 -0.0254142 26.3225 0.330702 26.5775C0.457886 26.671 0.618987 26.7221 0.780087 26.7221H2.72177V54.2263C2.72177 54.6599 3.06941 55.0085 3.50183 55.0085H51.3486C51.781 55.0085 52.1287 54.6599 52.1287 54.2263V26.7136H54.0703C54.5028 26.7136 54.8504 26.365 54.8504 25.9314C54.8504 25.7698 54.7995 25.6083 54.7063 25.4808V25.4893ZM39.5374 53.4356H15.313V52.2623H39.5374V53.4356ZM33.1697 50.7064H28.201V37.0606C31.0415 37.4517 33.1612 39.8918 33.1697 42.7655V50.7064ZM26.6494 50.7064H21.6807V42.7655C21.6807 39.8833 23.8005 37.4517 26.6494 37.0606V50.7064ZM34.7214 50.7064V42.7655C34.7214 38.727 31.457 35.4452 27.421 35.4452C23.385 35.4452 20.1206 38.7185 20.1206 42.7655V50.7064H17.3564V26.2544L27.421 16.1625L37.4855 26.2544V50.7064H34.7214ZM38.5878 25.1577L27.9721 14.5131C27.6669 14.207 27.1751 14.207 26.8698 14.5131L16.2542 25.1577H15.0671L27.421 12.7701L39.7748 25.1577H38.5878ZM34.0091 1.55588V4.72716H28.2095V1.55588H34.0091ZM6.73232 18.8831H19.1286L12.8711 25.1577H2.28086L6.72384 18.8831H6.73232ZM4.27342 26.7136H15.7963V50.7064H14.533C14.1005 50.7064 13.7529 51.055 13.7529 51.4886V53.4356H4.27342V26.7136ZM50.5685 53.4356H41.0891V51.4886C41.0891 51.055 40.7414 50.7064 40.309 50.7064H39.0456V26.7136H50.5685V53.4356ZM41.9793 25.1577L35.7219 18.8831H48.1181L52.5696 25.1577H41.9793ZM27.421 21.2552C24.4957 21.2552 22.1301 23.6273 22.1301 26.5605C22.1301 29.4937 24.4957 31.8658 27.421 31.8658C30.3462 31.8658 32.7118 29.4937 32.7118 26.5605C32.7118 23.6358 30.3462 21.2637 27.421 21.2552ZM27.421 30.3099C25.3606 30.3099 23.6902 28.635 23.6818 26.569C23.6818 24.503 25.3521 22.8281 27.4125 22.8196C29.4729 22.8196 31.1432 24.4945 31.1517 26.5605C31.1517 28.6265 29.4814 30.3014 27.421 30.3099ZM28.201 26.0249C28.4978 26.4585 28.3876 27.0451 27.9636 27.3427C27.8025 27.4532 27.616 27.5128 27.4295 27.5128C27.404 27.5128 27.3786 27.5128 27.3531 27.5128L26.5137 27.9974C26.1406 28.2099 25.6658 28.0824 25.4539 27.7083C25.2419 27.3342 25.3691 26.8581 25.7421 26.6455L26.5816 26.1609C26.5985 26.1184 26.624 26.0759 26.6579 26.0334V24.5795C26.6579 24.1459 27.0055 23.7973 27.4379 23.7973C27.8704 23.7973 28.218 24.1459 28.218 24.5795V26.0334L28.201 26.0249ZM42.4881 36.8395H47.1261C47.5585 36.8395 47.9061 36.491 47.9061 36.0574V31.6023C47.9061 31.1686 47.5585 30.8201 47.1261 30.8201H42.4881C42.0557 30.8201 41.708 31.1686 41.708 31.6023V36.0574C41.708 36.491 42.0557 36.8395 42.4881 36.8395ZM43.2681 32.3844H46.346V35.2752H43.2681V32.3844ZM42.4881 48.8105H47.1261C47.5585 48.8105 47.9061 48.4619 47.9061 48.0283V43.5732C47.9061 43.1396 47.5585 42.791 47.1261 42.791H42.4881C42.0557 42.791 41.708 43.1396 41.708 43.5732V48.0283C41.708 48.4619 42.0557 48.8105 42.4881 48.8105ZM43.2681 44.3554H46.346V47.2461H43.2681V44.3554ZM12.3539 30.8286H7.71587C7.28345 30.8286 6.93581 31.1772 6.93581 31.6108V36.0659C6.93581 36.4995 7.28345 36.848 7.71587 36.848H12.3539C12.7863 36.848 13.1339 36.4995 13.1339 36.0659V31.6108C13.1339 31.1772 12.7863 30.8286 12.3539 30.8286ZM11.5823 35.2752H8.50442V32.3844H11.5823V35.2752ZM12.3539 42.7995H7.71587C7.28345 42.7995 6.93581 43.1481 6.93581 43.5817V48.0368C6.93581 48.4704 7.28345 48.819 7.71587 48.819H12.3539C12.7863 48.819 13.1339 48.4704 13.1339 48.0368V43.5817C13.1339 43.1481 12.7863 42.7995 12.3539 42.7995ZM11.5823 47.2461H8.50442V44.3554H11.5823V47.2461Z" fill="#0056B1"/>
</svg>
