<svg width="91" height="91" viewBox="0 0 91 91" fill="none" xmlns="http://www.w3.org/2000/svg">
<g clip-path="url(#clip0_767_75)">
<path fill-rule="evenodd" clip-rule="evenodd" d="M3.99135 3.26104C2.59739 4.08207 1.77932 5.59736 1.90034 7.17313C1.94603 7.90843 3.07801 13.2756 4.42179 19.0062C5.7173 24.7504 7.50446 33.7925 8.36068 39.1238L9.886 48.7712L11.6833 50.7311C13.6371 52.8586 14.9872 53.2315 16.3176 52.0001C17.2014 51.1061 17.2705 50.3901 17.2519 42.8362C17.2341 36.247 18.4603 19.2817 19.5334 11.3686C20.5091 4.07123 20.1927 1.80232 18.0406 0.690498C16.7849 0.0794235 15.7776 0.146535 10.7414 1.29721C7.54608 2.0479 4.49978 2.95783 3.99135 3.26104Z" fill="#F8B21F"/>
<path fill-rule="evenodd" clip-rule="evenodd" d="M50.7583 32.8117C49.2992 34.1527 45.9649 38.5927 38.4639 49.4791C33.2041 57.1175 31.9005 59.3325 32.0058 60.5195C32.2665 62.9977 33.6203 63.3553 35.9669 61.6022C43.6233 55.8759 47.1683 53.0351 50.1366 50.2489C52.0118 48.5454 55.5568 45.3967 58.1089 43.3853C60.8165 41.1156 62.6416 39.2582 62.6416 38.6374C62.6416 37.4007 60.1396 35.3347 56.339 33.4276C52.799 31.6744 52.1723 31.6198 50.7633 32.8068L50.7583 32.8117Z" fill="#F8B21F"/>
<path fill-rule="evenodd" clip-rule="evenodd" d="M80.2516 71.5657C77.0739 71.8987 72.356 72.6691 69.7172 73.2323C67.0783 73.7955 61.4633 74.7327 57.2309 75.2473C46.2762 76.6599 45.3791 76.8266 44.2112 78.2C42.943 79.7645 43.0963 80.9611 44.6687 81.7996C46.1618 82.513 70.8723 86.1516 78.4918 86.7275C81.4774 86.9874 84.6914 87.1926 85.5798 87.2887C87.9482 87.4584 88.6441 86.507 88.9189 82.4941C89.0677 80.6737 89.3088 77.9777 89.4673 76.5874C89.8322 73.125 89.1866 71.4948 87.4012 71.1375C86.6276 71.0115 83.4354 71.1832 80.2516 71.5657Z" fill="#F8B21F"/>
</g>
<defs>
<clipPath id="clip0_767_75">
<rect width="91" height="91" fill="white"/>
</clipPath>
</defs>
</svg>
