<svg width="52" height="52" viewBox="0 0 52 52" fill="none" xmlns="http://www.w3.org/2000/svg">
<g clip-path="url(#clip0_206_186)">
<path d="M29.2502 52H22.7502C21.2335 52 19.5002 50.7 19.5002 48.1V43.55C19.5002 41.3833 18.4168 39.4333 16.6835 37.9166C12.7835 34.8833 10.8335 30.55 10.8335 25.7833C11.0502 17.55 17.7668 11.05 25.7835 10.8333C29.9002 10.8333 33.8002 12.35 36.6168 15.1666C39.4335 17.9833 41.1668 21.8833 41.1668 26C41.1668 30.55 39.2168 34.8833 35.5335 37.7C33.5835 39.2166 32.5002 41.6 32.5002 43.7666V48.75C32.5002 50.4833 30.9835 52 29.2502 52ZM26.0002 13C19.0668 13 13.2168 18.85 13.0002 25.7833C13.0002 29.9 14.7335 33.8 17.9835 36.1833C20.3668 38.1333 21.6668 40.7333 21.6668 43.55V48.1C21.6668 48.5333 21.6668 49.8333 22.7502 49.8333H29.2502C29.9002 49.8333 30.3335 49.4 30.3335 48.75V43.7666C30.3335 40.95 31.8502 37.9166 34.2335 35.9666C37.2668 33.5833 39.0002 29.9 39.0002 26C39.0002 22.5333 37.7002 19.2833 35.1002 16.6833C32.7168 14.3 29.4668 13 26.0002 13Z" fill="#0056B1"/>
<path d="M31.4167 45.5H20.5833C19.9333 45.5 19.5 45.0666 19.5 44.4166C19.5 43.7666 19.9333 43.3333 20.5833 43.3333H31.4167C32.0667 43.3333 32.5 43.7666 32.5 44.4166C32.5 45.0666 32.0667 45.5 31.4167 45.5Z" fill="#0056B1"/>
<path d="M25.9998 6.5C25.3498 6.5 24.9165 6.06667 24.9165 5.41667V1.08333C24.9165 0.433333 25.3498 0 25.9998 0C26.6498 0 27.0832 0.433333 27.0832 1.08333V5.41667C27.0832 6.06667 26.6498 6.5 25.9998 6.5Z" fill="#0056B1"/>
<path d="M40.5169 12.5666C40.3002 12.5666 39.8669 12.5666 39.6502 12.35C39.2169 11.9166 39.2169 11.2666 39.6502 10.8333L42.6835 7.79998C43.1169 7.36664 43.7669 7.36664 44.2002 7.79998C44.6335 8.23331 44.6335 8.88331 44.2002 9.31664L41.1669 12.35C41.1669 12.35 40.7335 12.5666 40.5169 12.5666Z" fill="#0056B1"/>
<path d="M50.9167 27.0834H46.5833C45.9333 27.0834 45.5 26.65 45.5 26C45.5 25.35 45.9333 24.9167 46.5833 24.9167H50.9167C51.5667 24.9167 52 25.35 52 26C52 26.65 51.5667 27.0834 50.9167 27.0834Z" fill="#0056B1"/>
<path d="M43.5502 44.6334C43.3335 44.6334 42.9002 44.6334 42.6835 44.4167L39.6502 41.3834C39.2169 40.95 39.2169 40.3 39.6502 39.8667C40.0835 39.4334 40.7335 39.4334 41.1669 39.8667L44.2002 42.9C44.6335 43.3334 44.6335 43.9834 44.2002 44.4167C44.2002 44.6334 43.9835 44.6334 43.5502 44.6334Z" fill="#0056B1"/>
<path d="M8.44997 44.6334C8.2333 44.6334 7.79997 44.6334 7.5833 44.4167C7.14997 43.9834 7.14997 43.3334 7.5833 42.9L10.6166 39.8667C11.05 39.4334 11.7 39.4334 12.1333 39.8667C12.5666 40.3 12.5666 40.95 12.1333 41.3834L9.09997 44.4167C8.8833 44.6334 8.66663 44.6334 8.44997 44.6334Z" fill="#0056B1"/>
<path d="M5.41667 27.0834H1.08333C0.433333 27.0834 0 26.65 0 26C0 25.35 0.433333 24.9167 1.08333 24.9167H5.41667C6.06667 24.9167 6.5 25.35 6.5 26C6.5 26.65 6.06667 27.0834 5.41667 27.0834Z" fill="#0056B1"/>
<path d="M11.4833 12.5667C11.2666 12.5667 10.8333 12.5667 10.6166 12.35L7.5833 9.10003C7.14997 8.66669 7.14997 8.0167 7.5833 7.58336C8.01663 7.15003 8.66663 7.15003 9.09997 7.58336L12.1333 10.6167C12.5666 11.05 12.5666 11.7 12.1333 12.1334C11.9166 12.35 11.7 12.5667 11.4833 12.5667Z" fill="#0056B1"/>
<path d="M34.6665 27.0833C34.0165 27.0833 33.5832 26.65 33.5832 26C33.5832 21.8833 30.1165 18.4167 25.9998 18.4167C25.3498 18.4167 24.9165 17.9833 24.9165 17.3333C24.9165 16.6833 25.3498 16.25 25.9998 16.25C31.4165 16.25 35.7498 20.5833 35.7498 26C35.7498 26.65 35.3165 27.0833 34.6665 27.0833Z" fill="#0056B1"/>
</g>
<defs>
<clipPath id="clip0_206_186">
<rect width="52" height="52" fill="white"/>
</clipPath>
</defs>
</svg>
