<?xml version="1.0" encoding="UTF-8"?>
<svg xmlns="http://www.w3.org/2000/svg" version="1.1" viewBox="0 0 512 512">
  <defs>
    <style>
      .cls-1 {
        fill: #fff;
      }
    </style>
  </defs>
  <!-- Generator: Adobe Illustrator 28.7.7, SVG Export Plug-In . SVG Version: 1.2.0 Build 194)  -->
  <g>
    <g id="light">
      <path class="cls-1" d="M288,512h-64c-14.9,0-32-12.8-32-38.4v-44.8c0-21.3-10.7-40.5-27.7-55.5-38.4-29.9-57.6-72.5-57.6-119.5,2.1-81.1,68.3-145.1,147.2-147.2,40.5,0,78.9,14.9,106.7,42.7,27.7,27.7,44.8,66.1,44.8,106.7s-19.2,87.5-55.5,115.2c-19.2,14.9-29.9,38.4-29.9,59.7v49.1c0,17.1-14.9,32-32,32h0ZM256,128c-68.3,0-125.9,57.6-128,125.9,0,40.5,17.1,78.9,49.1,102.4,23.5,19.2,36.3,44.8,36.3,72.5v44.8c0,4.3,0,17.1,10.7,17.1h64c6.4,0,10.7-4.3,10.7-10.7v-49.1c0-27.7,14.9-57.6,38.4-76.8,29.9-23.5,46.9-59.7,46.9-98.1s-12.8-66.1-38.4-91.7c-23.5-23.5-55.5-36.3-89.6-36.3h0Z"/>
      <path class="cls-1" d="M309.3,448h-106.7c-6.4,0-10.7-4.3-10.7-10.7s4.3-10.7,10.7-10.7h106.7c6.4,0,10.7,4.3,10.7,10.7s-4.3,10.7-10.7,10.7Z"/>
      <path class="cls-1" d="M256,64c-6.4,0-10.7-4.3-10.7-10.7V10.7c0-6.4,4.3-10.7,10.7-10.7s10.7,4.3,10.7,10.7v42.7c0,6.4-4.3,10.7-10.7,10.7Z"/>
      <path class="cls-1" d="M398.9,123.7c-2.1,0-6.4,0-8.5-2.1-4.3-4.3-4.3-10.7,0-14.9l29.9-29.9c4.3-4.3,10.7-4.3,14.9,0s4.3,10.7,0,14.9l-29.9,29.9s-4.3,2.1-6.4,2.1h0Z"/>
      <path class="cls-1" d="M501.3,266.7h-42.7c-6.4,0-10.7-4.3-10.7-10.7s4.3-10.7,10.7-10.7h42.7c6.4,0,10.7,4.3,10.7,10.7s-4.3,10.7-10.7,10.7Z"/>
      <path class="cls-1" d="M428.8,439.5c-2.1,0-6.4,0-8.5-2.1l-29.9-29.9c-4.3-4.3-4.3-10.7,0-14.9s10.7-4.3,14.9,0l29.9,29.9c4.3,4.3,4.3,10.7,0,14.9,0,2.1-2.1,2.1-6.4,2.1h0Z"/>
      <path class="cls-1" d="M83.2,439.5c-2.1,0-6.4,0-8.5-2.1-4.3-4.3-4.3-10.7,0-14.9l29.9-29.9c4.3-4.3,10.7-4.3,14.9,0s4.3,10.7,0,14.9l-29.9,29.9c-2.1,2.1-4.3,2.1-6.4,2.1Z"/>
      <path class="cls-1" d="M53.3,266.7H10.7c-6.4,0-10.7-4.3-10.7-10.7s4.3-10.7,10.7-10.7h42.7c6.4,0,10.7,4.3,10.7,10.7s-4.3,10.7-10.7,10.7Z"/>
      <path class="cls-1" d="M113.1,123.7c-2.1,0-6.4,0-8.5-2.1l-29.9-32c-4.3-4.3-4.3-10.7,0-14.9s10.7-4.3,14.9,0l29.9,29.9c4.3,4.3,4.3,10.7,0,14.9s-4.3,4.3-6.4,4.3h0Z"/>
      <path class="cls-1" d="M341.3,266.7c-6.4,0-10.7-4.3-10.7-10.7,0-40.5-34.1-74.7-74.7-74.7s-10.7-4.3-10.7-10.7,4.3-10.7,10.7-10.7c53.3,0,96,42.7,96,96s-4.3,10.7-10.7,10.7Z"/>
    </g>
  </g>
</svg>