<svg width="38" height="38" viewBox="0 0 38 38" fill="none" xmlns="http://www.w3.org/2000/svg">
<g clip-path="url(#clip0_649_520)">
<path d="M18.784 6.33471C12.1594 6.44396 6.57812 11.9175 6.3422 18.5343C6.20287 22.3786 7.78937 26.0282 10.6964 28.5505C11.9488 29.6382 12.666 31.3102 12.666 33.2498C12.666 35.8686 14.7972 37.9998 17.416 37.9998H20.5827C23.2015 37.9998 25.3327 35.8686 25.3327 33.2498V32.656C25.3327 31.1265 26.0531 29.6509 27.3625 28.4982C30.0985 26.0947 31.666 22.6335 31.666 18.9998C31.666 15.5782 30.3218 12.3704 27.8819 9.97004C25.442 7.56971 22.2088 6.25712 18.784 6.33471ZM22.166 33.2498C22.166 34.1238 21.4567 34.8331 20.5827 34.8331H17.416C16.542 34.8331 15.8327 34.1238 15.8327 33.1405C15.8327 32.6402 15.7836 32.1494 15.7108 31.6665H22.231C22.1914 31.9926 22.166 32.3235 22.166 32.656V33.2498ZM25.2725 26.12C24.4635 26.831 23.8111 27.6353 23.3092 28.4998H20.5827V21.8751C22.421 21.2196 23.7494 19.478 23.7494 17.4165C23.7494 16.5409 23.0416 15.8331 22.166 15.8331C21.2905 15.8331 20.5827 16.5409 20.5827 17.4165C20.5827 18.292 19.8734 18.9998 18.9994 18.9998C18.1254 18.9998 17.416 18.2905 17.416 17.4165C17.416 16.5425 16.7083 15.8331 15.8327 15.8331C14.9571 15.8331 14.2494 16.5409 14.2494 17.4165C14.2494 19.478 15.5778 21.2196 17.416 21.8751V28.4998H14.6515C14.1607 27.6163 13.5321 26.8215 12.7705 26.1596C10.5919 24.2675 9.4012 21.53 9.5057 18.6483C9.68303 13.6861 13.8694 9.58212 18.8379 9.50137C18.8917 9.50137 18.944 9.50137 18.9994 9.50137C21.5105 9.50137 23.8713 10.4656 25.662 12.2295C27.4924 14.0297 28.501 16.4348 28.501 19.0014C28.501 21.7247 27.3245 24.3182 25.2741 26.1216L25.2725 26.12ZM26.5756 3.91695L28.531 0.734455C28.987 -0.0128779 29.9624 -0.245628 30.7081 0.215122C31.4539 0.672705 31.6866 1.64646 31.2275 2.39221L29.272 5.57471C28.9744 6.06237 28.4535 6.32995 27.9215 6.32995C27.638 6.32995 27.353 6.25395 27.095 6.09562C26.3492 5.63804 26.1165 4.6627 26.5756 3.91695ZM37.07 10.4846L34.0094 11.8653C33.7988 11.9619 33.5771 12.0062 33.3602 12.0062C32.7554 12.0062 32.1806 11.6595 31.9162 11.0736C31.5552 10.2772 31.9099 9.33829 32.7079 8.98046L35.7685 7.59979C36.5696 7.23721 37.5038 7.59504 37.8616 8.39146C38.2226 9.18787 37.868 10.1268 37.07 10.4846ZM6.63987 2.39062C6.18228 1.64487 6.41662 0.669539 7.16237 0.213539C7.91128 -0.242461 8.88345 -0.00812786 9.33945 0.736039L11.2901 3.92012C11.7477 4.66587 11.5134 5.64121 10.7676 6.09721C10.5095 6.25554 10.223 6.32995 9.9427 6.32995C9.40912 6.32995 8.88978 6.06079 8.59053 5.57312L6.63987 2.38904V2.39062ZM5.87512 11.1797C5.60437 11.7481 5.03753 12.079 4.44695 12.079C4.21737 12.079 3.98462 12.03 3.76453 11.9223L0.9177 10.559C0.1292 10.1822 -0.204883 9.23696 0.173534 8.44845C0.548784 7.65837 1.49878 7.32112 2.28412 7.70429L5.13095 9.06754C5.91945 9.44437 6.25353 10.3912 5.87512 11.1797Z" fill="#0056B1"/>
</g>
<defs>
<clipPath id="clip0_649_520">
<rect width="38" height="38" fill="white"/>
</clipPath>
</defs>
</svg>
