<svg width="41" height="36" viewBox="0 0 41 36" fill="none" xmlns="http://www.w3.org/2000/svg">
<g clip-path="url(#clip0_206_159)">
<path fill-rule="evenodd" clip-rule="evenodd" d="M16.4636 30.924C14.2808 30.0164 12.2545 28.7813 10.2236 27.579C8.98942 26.8492 6.78814 25.0714 5.27764 25.2679C3.55069 25.4924 3.77635 27.2936 5.76579 29.2585C6.76051 30.241 8.99402 32.0609 10.7486 33.2959C12.4755 34.5451 14.6031 35.8176 16.7722 35.986C18.5498 36.1217 20.4333 35.0316 19.5307 32.8983C19.0103 31.6632 17.5781 31.3872 16.4682 30.9287L16.4636 30.924Z" fill="#F8B21F"/>
<path fill-rule="evenodd" clip-rule="evenodd" d="M40.9126 32.0515C40.5995 30.9521 39.4942 30.1848 38.412 29.7404C37.187 29.2398 35.8607 29.0854 34.5621 28.8468C31.9509 28.365 29.1694 27.0924 26.9267 25.6702C23.2656 23.3497 20.0143 20.4726 16.8689 17.4831C14.069 14.8211 11.4532 11.9579 9.05394 8.917C7.82435 7.36378 6.65003 5.76378 5.53557 4.12168C4.65138 2.83045 3.6981 0.626942 2.1001 0.0748947C1.34024 -0.187094 0.409996 0.252672 0.115264 1.01992C-0.138021 1.68425 0.0646068 2.43747 0.322497 3.1018C1.84682 7.09244 4.86321 10.7462 7.46515 14.0679C11.398 19.0878 15.8282 23.7474 20.8524 27.6445C25.2918 31.0878 32.4437 36.5614 38.3936 35.5322C39.7199 35.303 40.8988 34.2784 40.9955 32.8562C41.0139 32.5708 40.9863 32.3041 40.9126 32.0562V32.0515Z" fill="#F8B21F"/>
</g>
<defs>
<clipPath id="clip0_206_159">
<rect width="41" height="36" fill="white"/>
</clipPath>
</defs>
</svg>
