<svg width="54" height="54" viewBox="0 0 54 54" fill="none" xmlns="http://www.w3.org/2000/svg">
<g clip-path="url(#clip0_206_155)">
<path fill-rule="evenodd" clip-rule="evenodd" d="M10.2632 14.8403C10.2077 18.4685 9.99759 22.9062 9.84136 24.6637C9.59963 28.3287 10.4363 29.7553 12.4548 28.9751C13.5552 28.6006 13.9269 28.0154 14.7075 25.9182C15.6384 23.1653 16.2656 9.12253 15.4654 7.58841C14.7007 6.08988 12.8736 5.88155 11.6217 7.13343C10.7008 8.05436 10.471 9.52251 10.2597 14.8367L10.2632 14.8403Z" fill="#F8B21F"/>
<path fill-rule="evenodd" clip-rule="evenodd" d="M22.0841 32.0356C21.7812 33.7976 22.6917 34.7801 24.4525 34.699C25.6264 34.621 26.507 33.8828 31.6308 28.5383C36.9022 23.0464 37.457 22.3493 37.3162 21.2516C37.0668 19.7503 36.9209 19.6044 35.4587 19.3941C34.397 19.2174 33.5852 19.8086 28.2803 24.8928C23.1949 29.7577 22.2767 30.8253 22.0841 32.0356Z" fill="#F8B21F"/>
<path fill-rule="evenodd" clip-rule="evenodd" d="M31.4248 46.0243C31.4576 46.5751 31.9689 47.3022 32.6644 47.7027C33.5773 48.2488 34.9743 47.9478 39.599 46.2339C46.0624 43.9269 47.5357 42.7454 46.189 41.0318C43.8578 38.1106 31.119 42.3945 31.4284 46.0207L31.4248 46.0243Z" fill="#F8B21F"/>
</g>
<defs>
<clipPath id="clip0_206_155">
<rect width="24.9284" height="49.8569" fill="white" transform="translate(0.253906 18.5083) rotate(-45)"/>
</clipPath>
</defs>
</svg>
