<svg width="52" height="40" viewBox="0 0 52 40" fill="none" xmlns="http://www.w3.org/2000/svg">
<g clip-path="url(#clip0_206_207)">
<path d="M15.0596 0C9.30644 0 4.64258 4.62549 4.64258 10.3313C4.64258 14.1785 6.76334 17.5351 9.90882 19.3127C11.4283 20.1718 13.1856 20.6625 15.0596 20.6625C16.9312 20.6603 18.6874 20.1696 20.2046 19.3116C23.3501 17.5328 25.472 14.1785 25.4765 10.3313C25.4765 4.62549 20.8127 0 15.0596 0ZM15.0596 18.4166C10.5565 18.4166 6.90714 14.7962 6.90714 10.3313C6.90714 5.86637 10.5565 2.24593 15.0596 2.24593C19.5604 2.25042 23.2063 5.86749 23.212 10.3313C23.212 14.7962 19.5615 18.4166 15.0596 18.4166Z" fill="#0056B1"/>
<path d="M27.4431 24.8501C27.0072 24.2268 26.5248 23.6384 26.0006 23.0893C24.4063 21.4183 22.4271 20.1123 20.2044 19.3116C18.5988 18.7322 16.8665 18.4166 15.0593 18.4166C13.2522 18.4166 11.5153 18.7333 9.90859 19.3128C4.1283 21.3992 0 26.8973 0 33.3521V38.877C0 39.4969 0.507262 40 1.13228 40H28.9864C29.6114 40 30.1187 39.4969 30.1187 38.877V33.3521C30.1187 30.1932 29.1302 27.2633 27.4431 24.8501ZM2.26456 37.7541V33.3521C2.26456 26.3436 7.99277 20.6626 15.0593 20.6626C18.8287 20.6626 22.2165 22.2785 24.5569 24.8501C25.097 25.4419 25.5805 26.0842 26.0006 26.7692C27.177 28.6884 27.8541 30.9422 27.8541 33.3521V37.7541H2.26456Z" fill="#0056B1"/>
<path d="M36.9404 0C31.1873 0 26.5234 4.62549 26.5234 10.3313C26.5234 14.1785 28.6442 17.5351 31.7908 19.3127C33.3092 20.1718 35.0676 20.6625 36.9404 20.6625C38.8121 20.6603 40.5682 20.1696 42.0855 19.3116C45.231 17.5328 47.3529 14.1785 47.3574 10.3313C47.3574 4.62549 42.6935 0 36.9404 0ZM36.9404 18.4166C32.4385 18.4166 28.788 14.7962 28.788 10.3313C28.788 5.86637 32.4385 2.24593 36.9404 2.24593C41.4412 2.25042 45.0883 5.86749 45.0928 10.3313C45.0928 14.7962 41.4424 18.4166 36.9404 18.4166Z" fill="#0056B1"/>
<path d="M42.0858 19.3116C40.4802 18.7322 38.7478 18.4166 36.9407 18.4166C35.1336 18.4166 33.3978 18.7322 31.7911 19.3128C29.5695 20.1145 27.5926 21.4194 26.0006 23.0893C25.4752 23.6384 24.9929 24.2268 24.5569 24.8501C25.097 25.4419 25.5805 26.0842 26.0006 26.7692C26.4195 26.0842 26.903 25.4419 27.4431 24.8501C29.7835 22.2785 33.1713 20.6626 36.9407 20.6626C44.0072 20.6626 49.7355 26.3436 49.7355 33.3521V37.7541H21.8813V38.877C21.8813 39.4969 22.3886 40 23.0136 40H50.8677C51.4928 40 52 39.4969 52 38.877V33.3521C52 26.895 47.8695 21.3959 42.0858 19.3116Z" fill="#0056B1"/>
</g>
<defs>
<clipPath id="clip0_206_207">
<rect width="52" height="40" fill="white"/>
</clipPath>
</defs>
</svg>
