<svg width="48" height="44" viewBox="0 0 48 44" fill="none" xmlns="http://www.w3.org/2000/svg">
<g clip-path="url(#clip0_206_231)">
<path fill-rule="evenodd" clip-rule="evenodd" d="M30.6238 10.2442C32.5598 11.6009 34.2723 13.2436 35.9964 14.8553C37.0443 15.834 38.8108 18.0443 40.3281 18.178C42.0629 18.3308 42.2307 16.5234 40.7114 14.1759C39.9518 13.0022 38.1629 10.7437 36.7157 9.15956C35.2985 7.56764 33.4951 5.86654 31.4133 5.23466C29.7067 4.71911 27.6325 5.37767 28.0542 7.65539C28.2962 8.9736 29.6353 9.55177 30.6203 10.2386L30.6238 10.2442Z" fill="#F8B21F"/>
<path fill-rule="evenodd" clip-rule="evenodd" d="M6.99238 3.87459C7.06126 5.01566 7.9752 6.00305 8.93622 6.67027C10.0245 7.42307 11.2864 7.85963 12.5031 8.37248C14.9491 9.40571 17.3911 11.2477 19.2746 13.1198C22.3497 16.1747 24.9045 19.685 27.3318 23.282C29.4923 26.4848 31.4296 29.8444 33.1172 33.3309C33.9832 35.1126 34.7852 36.9281 35.5196 38.7717C36.1047 40.2232 36.5608 42.5803 38.0023 43.4638C38.6878 43.8834 39.691 43.6544 40.1441 42.9687C40.5346 42.3745 40.4991 41.5953 40.3904 40.8911C39.7618 36.6657 37.6037 32.4477 35.7787 28.6434C33.02 22.894 29.698 17.3891 25.6316 12.5009C22.0385 8.18187 16.2342 1.29561 10.2023 1.0185C8.85777 0.956548 7.48576 1.70298 7.08484 3.07095C7.00536 3.34566 6.97487 3.61202 6.99339 3.87002L6.99238 3.87459Z" fill="#F8B21F"/>
</g>
<defs>
<clipPath id="clip0_206_231">
<rect width="41" height="36" fill="white" transform="translate(40.0366 43.9894) rotate(-167.555)"/>
</clipPath>
</defs>
</svg>
