<svg width="48" height="48" viewBox="0 0 48 48" fill="none" xmlns="http://www.w3.org/2000/svg">
<path d="M24.8115 3.07898C20.141 3.07928 16.3393 6.87518 16.339 11.5411C16.3376 12.4345 16.5504 16.1118 19.9952 18.4884C20.2925 18.6935 20.6456 19.3098 20.6456 19.5828V20.6742C20.6456 22.9366 22.5058 24.7837 24.8115 24.7837C27.1173 24.7837 28.976 22.9366 28.976 20.6742V19.5828C28.976 19.3098 29.3306 18.6935 29.6279 18.4884C31.8918 16.9265 33.2783 14.339 33.2841 11.5426C33.2841 7.89337 30.3855 3.07934 24.8115 3.07898ZM24.8115 4.42976C28.7536 4.43001 31.9332 7.60589 31.9335 11.5411C31.9282 13.8925 30.7641 16.064 28.8618 17.3764C28.1643 17.8576 27.6269 18.6473 27.6269 19.5828V19.785H25.4853V14.1606L27.2475 12.1975C27.4959 11.9202 27.4729 11.4942 27.1963 11.2452C26.9194 10.9955 26.4912 11.0184 26.2427 11.2964L24.8701 12.823L23.354 11.3038C23.0915 11.0395 22.6638 11.0389 22.4004 11.3023C22.1375 11.5658 22.1375 11.9925 22.4004 12.256L24.1362 13.9965V19.7849H21.9947V19.5827C21.9947 18.6473 21.4587 17.8576 20.7613 17.3764C18.8589 16.0639 17.6948 13.8925 17.6896 11.5411C17.6898 7.60586 20.8695 4.43001 24.8115 4.42976ZM12.2712 6.79142C12.0495 7.09049 12.1118 7.51258 12.4103 7.73491L13.859 8.81172C14.1583 9.03441 14.5815 8.97207 14.8039 8.67254C15.0255 8.37347 14.9633 7.95138 14.6647 7.72905L13.216 6.65224C12.9238 6.43574 12.4978 6.48706 12.2712 6.79142ZM36.432 6.65224L34.9832 7.72905C34.6852 7.95183 34.6236 8.37385 34.8456 8.67254C35.0678 8.97114 35.4899 9.03341 35.7889 8.81172L37.2376 7.73491C37.5362 7.51258 37.5984 7.09049 37.3768 6.79142C37.1503 6.48718 36.7243 6.43564 36.432 6.65224ZM12.1218 10.328C11.7487 10.3279 11.4463 10.6304 11.4465 11.0034C11.4471 11.3759 11.7493 11.6775 12.1218 11.6774H13.9001C14.2719 11.6767 14.5732 11.3754 14.5739 11.0034C14.574 10.6309 14.2725 10.3287 13.9001 10.328H12.1218ZM35.7479 10.328C35.3749 10.3279 35.0724 10.6304 35.0726 11.0034C35.0733 11.3759 35.3754 11.6775 35.7479 11.6774H37.5262C37.8986 11.6775 38.2008 11.3759 38.2015 11.0034C38.2016 10.6304 37.8992 10.3279 37.5262 10.328H35.7479ZM18.0089 19.8963L4.54717 23.8021C4.36575 23.8595 4.21478 23.9675 4.07989 24.29C2.92156 27.0636 2.75012 29.5113 3.93341 32.109C3.01548 34.2331 3.01184 36.5069 3.66827 38.7281C3.96119 39.7192 4.70485 40.3558 5.52567 40.5374L24.8613 44.8139C25.605 44.9784 26.3707 44.9667 27.1098 44.7758L43.3928 40.5682C44.2691 40.3418 44.7793 39.247 44.5441 38.2607C44.0357 36.1279 44.078 34.5293 44.8313 32.3888C44.8556 32.3017 44.9109 32.0864 44.8415 31.8555C44.1386 29.5222 43.9999 27.8798 44.528 25.8678C44.7881 24.8771 44.2168 24.3045 43.4074 24.1068L31.2597 21.669C30.8945 21.596 30.5392 21.8327 30.4657 22.1979C30.3928 22.5632 30.6294 22.9185 30.9945 22.9919L40.3548 24.8701L27.9609 28.0727C26.6469 28.4122 25.2885 28.4356 23.9663 28.1431L7.20582 24.435L18.3853 21.1929C18.7433 21.0889 18.9492 20.7144 18.8453 20.3563C18.724 19.9401 18.3002 19.8125 18.0089 19.8963ZM22.0357 21.1343H27.5859C27.3692 22.4439 26.244 23.4344 24.8115 23.4344C23.379 23.4344 22.2527 22.4439 22.0357 21.1343ZM5.06864 25.4503L23.7363 29.5803C24.1685 29.6759 24.6047 29.7382 25.0415 29.7737C24.6425 31.6537 24.5831 32.7958 24.6797 33.763C24.7514 34.4809 24.8956 35.0606 25.0298 35.7701C24.5628 35.7341 24.0973 35.6687 23.6353 35.5665L5.81277 31.6255L5.06864 31.4482C4.10201 29.3768 4.21427 27.7 5.06864 25.4503ZM43.3225 25.6012C42.8317 27.5871 42.9805 29.4619 43.5144 31.5405L38.326 32.881V30.3568L39.1038 30.1429C39.463 30.0433 39.6734 29.6714 39.574 29.3122C39.4685 28.929 39.0768 28.7488 38.7435 28.8404L32.0287 30.6908C31.6697 30.7897 31.4586 31.1608 31.557 31.52C31.6553 31.8804 32.0275 32.0925 32.3876 31.9932L33.1625 31.7793V34.2245L28.2905 35.4844C27.6687 35.6451 27.0377 35.7426 26.4052 35.7818C26.2547 34.9139 26.0882 34.2959 26.0215 33.6282C25.9364 32.7766 25.9861 31.7455 26.4214 29.7854C27.028 29.7468 27.6325 29.6538 28.229 29.4997L43.3225 25.6012ZM36.9769 30.7289V37.4945L36.2664 36.9568C35.977 36.7364 35.565 36.785 35.3348 37.0667L34.513 38.0702V31.4072L36.9769 30.7289ZM5.05693 32.947L23.4038 37.0051C23.9485 37.1256 24.4979 37.1995 25.0488 37.2366C24.643 39.1379 24.5825 40.2878 24.6797 41.2611C24.7546 42.0112 24.9082 42.6132 25.0474 43.3679L5.75711 39.0987C5.4711 39.0354 4.92066 38.5051 4.84453 38.2475C4.28891 36.3675 4.36169 34.652 5.05693 32.947ZM43.428 33.073C42.97 34.949 42.8849 36.7257 43.3445 38.6533C43.4128 38.9402 43.3484 39.0834 43.1247 39.1412L26.8403 43.3474C26.7047 43.3824 26.5689 43.4083 26.4316 43.4279C26.2748 42.4786 26.092 41.8321 26.0215 41.1263C25.9358 40.2688 25.9864 39.2308 26.4302 37.244C27.1445 37.202 27.8566 37.0942 28.5585 36.9129L33.1625 35.7232V39.9616C33.1631 40.5952 33.9572 40.8791 34.3592 40.3894L35.9676 38.4248L37.242 39.3917C37.6871 39.7306 38.3276 39.4121 38.326 38.8526V34.3915L43.428 33.073Z" fill="#0056B1"/>
</svg>
