<svg width="405" height="17" viewBox="0 0 405 17" fill="none" xmlns="http://www.w3.org/2000/svg">
<g clip-path="url(#clip0_698_3072)">
<path d="M166.991 17C162.937 17 158.883 16.954 154.837 16.8672C140.854 16.5557 120.106 15.6467 101.414 11.347C58.8917 1.56774 7.16386 12.1232 6.6479 12.2304C3.92073 12.7972 1.03877 11.7299 0.220619 9.83539C-0.597533 7.94593 0.942952 5.95434 3.67013 5.3824C5.91083 4.91259 58.9949 -5.94413 104.664 4.55512C122.074 8.55873 141.827 9.41664 155.168 9.71283C182.868 10.3307 210.699 8.77831 237.905 5.09643L240.566 4.73386C251.032 3.3091 260.916 1.96095 272.135 1.91499C288.616 1.86392 304.205 3.71253 321.401 5.96966C348.798 9.56474 375.472 9.27366 398.535 5.12707C401.292 4.63172 404.108 5.78072 404.823 7.6906C405.538 9.60048 403.879 11.5512 401.123 12.0466C376.593 16.4587 348.355 16.7855 319.477 12.9964C302.819 10.8108 287.753 9.01322 272.186 9.06428C261.948 9.10514 252.528 10.3869 242.548 11.7453L239.873 12.1078C215.888 15.3506 191.425 16.9898 166.984 16.9898L166.991 17Z" fill="#FFAB00"/>
</g>
<defs>
<clipPath id="clip0_698_3072">
<rect width="405" height="17" fill="white"/>
</clipPath>
</defs>
</svg>
