<svg width="120" height="11" viewBox="0 0 120 11" fill="none" xmlns="http://www.w3.org/2000/svg">
<g clip-path="url(#clip0_3_31)">
<path d="M49.4792 11C48.2781 11 47.0769 10.9702 45.8779 10.9141C41.735 10.7125 35.5873 10.1243 30.0489 7.34212C17.4498 1.01439 2.12305 7.84437 1.97018 7.91376C1.16212 8.28054 0.308211 7.58994 0.0657955 6.36405C-0.17662 5.14146 0.27982 3.85278 1.08787 3.4827C1.75178 3.17871 17.4804 -3.84622 31.012 2.94741C36.1704 5.53797 42.0233 6.0931 45.9762 6.28475C54.1834 6.68457 62.4299 5.68006 70.4908 3.29766L71.2792 3.06306C74.3803 2.14116 77.309 1.26882 80.6329 1.23909C85.5161 1.20604 90.1351 2.4022 95.2302 3.8627C103.348 6.18892 111.252 6.00058 118.085 3.31749C118.902 2.99697 119.736 3.74044 119.948 4.97624C120.16 6.21205 119.668 7.47429 118.852 7.79481C111.583 10.6497 103.217 10.8612 94.6602 8.40941C89.7246 6.99517 85.2606 5.83206 80.6482 5.8651C77.6147 5.89153 74.8237 6.72091 71.8666 7.59986L71.0739 7.83446C63.9674 9.93269 56.7189 10.9934 49.4771 10.9934L49.4792 11Z" fill="#FFAB00"/>
</g>
<defs>
<clipPath id="clip0_3_31">
<rect width="120" height="11" fill="white"/>
</clipPath>
</defs>
</svg>
