<svg width="743" height="95" viewBox="0 0 743 95" fill="none" xmlns="http://www.w3.org/2000/svg">
<g clip-path="url(#clip0_261_147)">
<path fill-rule="evenodd" clip-rule="evenodd" d="M713.796 35.0272C713.385 35.1837 692.941 34.8041 668.62 34.1433C644.275 33.5697 609.837 32.8482 592.284 32.7009C574.732 32.5536 532.441 31.6273 498.414 30.7493C464.391 29.783 416.525 28.668 392.176 28.1827C367.826 27.6974 316.26 26.3984 277.712 25.2071C168.629 21.8709 116.826 21.2856 56.8704 22.4714C23.3901 23.1599 15.4974 23.7672 17.4881 25.4941C19.4766 26.8581 42.1544 27.7203 80.9867 27.6518C133.018 27.6999 192.656 28.8517 263.982 31.3101C298.619 32.4928 356.154 34.1682 391.839 34.9517C427.525 35.7265 476.814 37.0007 501.154 37.6713C525.495 38.342 567.786 39.2594 595.025 39.6229C622.259 40.0747 662.282 40.7909 683.747 41.3185C705.413 41.8562 725.016 42.1055 727.503 41.9549C733.93 41.6375 736.143 38.4917 731.273 36.7013C728.028 35.4518 715.908 34.3094 713.797 35.0184L713.796 35.0272Z" fill="#F8B21F"/>
<path fill-rule="evenodd" clip-rule="evenodd" d="M633.289 48.8143C613.494 48.6985 566.668 47.9464 529.352 47.0415C492.235 46.2175 434.081 45.0693 400.479 44.625C366.859 44.098 297.799 42.5607 246.658 41.2364C99.6768 37.3373 0.206522 38.0776 0.0780697 43.0265C0.0519114 44.0343 1.27272 44.3321 4.80267 44.1218C31.6761 42.3086 150.464 43.7748 277.453 47.3788C334.146 48.9833 402.799 50.6782 430.014 51.2227C457.231 51.6935 509.606 52.7995 546.522 53.6163C583.437 54.4331 625.088 55.1564 639.327 55.1642C653.563 55.2539 681.187 55.567 700.573 55.9224C737.895 56.5815 743.484 56.1904 739.234 53.1027C737.215 51.7677 732.671 51.4416 703.196 50.3079C684.646 49.5641 653.105 48.857 633.288 48.8225L633.289 48.8143Z" fill="#F8B21F"/>
</g>
<defs>
<clipPath id="clip0_261_147">
<rect width="740.502" height="57.8422" fill="white" transform="translate(3.30762 0.192871) rotate(2.84667)"/>
</clipPath>
</defs>
</svg>
