<svg width="401" height="14" viewBox="0 0 401 14" fill="none" xmlns="http://www.w3.org/2000/svg">
<g clip-path="url(#clip0_698_3871)">
<path d="M383.475 13.6815C319.572 9.18174 256.068 9.24677 192.19 10.6383C131.468 12.7061 70.7258 14.6049 10.1572 8.44695C6.91293 7.66665 1.05395 10.5538 0.000358234 6.2751C-0.0574607 4.94858 0.976856 3.82364 2.27457 3.75211C6.19983 3.53752 10.1572 3.44649 14.0825 3.61555C82.4116 9.51337 150.709 3.01082 219.057 1.39818C277.923 -1.89211 336.706 1.47621 395.514 3.03032C400.024 2.63367 402.851 8.73957 399.593 11.9843C395.218 15.4307 388.666 13.3499 383.475 13.688V13.6815Z" fill="#F8B21F"/>
</g>
<defs>
<clipPath id="clip0_698_3871">
<rect width="401" height="14" fill="white"/>
</clipPath>
</defs>
</svg>
