<svg width="443" height="17" viewBox="0 0 443 17" fill="none" xmlns="http://www.w3.org/2000/svg">
<path d="M182.664 17C178.229 17 173.795 16.9541 169.368 16.8673C154.074 16.5558 131.378 15.6471 110.931 11.3484C64.418 1.57156 7.83492 12.1244 7.27054 12.2316C4.28739 12.7983 1.13493 11.7313 0.239987 9.83716C-0.654957 7.94817 1.03012 5.95707 4.01327 5.38527C6.46429 4.91558 64.5309 -5.93845 114.486 4.5582C133.53 8.56082 155.138 9.41852 169.731 9.71463C200.03 10.3324 230.475 8.78035 260.233 5.09937L263.144 4.73689C274.593 3.31249 285.405 1.96467 297.676 1.91872C315.704 1.86767 332.756 3.71581 351.566 5.97239C381.535 9.56657 410.713 9.27557 435.941 5.13C438.956 4.63478 442.036 5.78349 442.818 7.6929C443.6 9.60231 441.786 11.5526 438.771 12.0478C411.939 16.4588 381.051 16.7856 349.462 12.9974C331.24 10.8123 314.761 9.01519 297.732 9.06625C286.534 9.10709 276.23 10.3885 265.313 11.7466L262.386 12.1091C236.151 15.351 209.391 16.9898 182.655 16.9898L182.664 17Z" fill="#FFAB00"/>
</svg>
