<svg width="201" height="212" viewBox="0 0 201 212" fill="none" xmlns="http://www.w3.org/2000/svg">
<g clip-path="url(#clip0_279_81)">
<path fill-rule="evenodd" clip-rule="evenodd" d="M18.2758 59.3948C35.1379 77.2376 39.0916 81.1058 56.9892 97.6742C97.2325 134.958 131.052 159.25 156.821 169.39C168.186 173.878 180.867 176.275 189.477 175.622C195.226 175.185 197.574 174.485 199.252 172.621C200.581 171.156 200.592 170.909 199.505 169.725C198.539 168.674 198.044 168.562 197.111 169.262C195.25 170.491 190.833 170.83 183.46 170.261C152.463 167.902 114.638 143.099 48.708 81.8827C24.025 58.9581 5.14419 41.9221 3.02448 40.5605C1.14422 39.4595 -0.42607 39.3737 0.408825 40.4582C0.528068 40.6717 8.57434 49.1785 18.2758 59.3948Z" fill="#F8B21F"/>
</g>
<defs>
<clipPath id="clip0_279_81">
<rect width="232.473" height="59.1666" fill="white" transform="translate(157.282 211.22) rotate(-132.575)"/>
</clipPath>
</defs>
</svg>
