<svg width="33" height="67" viewBox="0 0 33 67" fill="none" xmlns="http://www.w3.org/2000/svg">
<g clip-path="url(#clip0_571_3427)">
<path fill-rule="evenodd" clip-rule="evenodd" d="M20.1968 60.9743C23.6449 57.5794 27.9955 53.5622 29.787 52.0405C33.4439 48.7876 33.9962 46.637 31.3764 45.4603C29.9958 44.7704 29.1 44.9733 26.4062 46.2245C22.958 47.9558 9.22595 60.7038 8.53901 62.922C7.85208 65.0726 9.36738 67.0068 11.7111 67.0068C13.4351 67.0068 15.0245 65.8301 20.1968 60.9811L20.1968 60.9743Z" fill="#F8B21F"/>
<path fill-rule="evenodd" clip-rule="evenodd" d="M25.2278 33.4019C27.1607 32.0155 27.228 30.2165 25.5039 28.6205C24.3321 27.579 22.8168 27.4437 13.0178 27.6534C2.94269 27.863 1.77086 27.9983 0.875144 29.175C-0.296693 30.8387 -0.296694 31.116 0.875143 32.7053C1.70351 33.882 3.01678 34.0917 12.7417 34.3013C22.0558 34.511 23.9145 34.369 25.2278 33.4019Z" fill="#F8B21F"/>
<path fill-rule="evenodd" clip-rule="evenodd" d="M29.5797 11.2333C30.0646 10.6787 30.2666 9.502 29.9905 8.46051C29.647 7.07412 28.0576 6.03263 22.1244 3.26661C13.9148 -0.682926 11.4297 -0.960208 11.0862 1.94784C10.5339 6.93885 26.4682 14.9732 29.5729 11.2333L29.5797 11.2333Z" fill="#F8B21F"/>
</g>
<defs>
<clipPath id="clip0_571_3427">
<rect width="33" height="67" fill="white" transform="translate(33 67) rotate(-180)"/>
</clipPath>
</defs>
</svg>
