<svg width="398" height="12" viewBox="0 0 398 12" fill="none" xmlns="http://www.w3.org/2000/svg">
<path fill-rule="evenodd" clip-rule="evenodd" d="M340.378 4.67755C329.738 4.78912 304.571 4.57499 284.518 4.09901C264.572 3.7016 233.318 3.22178 215.258 3.16345C197.189 3.02271 160.076 2.27922 132.594 1.54274C53.6117 -0.666655 0.132636 1.21517 0.0238705 6.16273C0.00172126 7.17027 0.655611 7.45387 2.55492 7.20316C17.0161 5.08248 80.862 5.18405 149.1 7.32813C179.564 8.28079 216.457 9.18657 231.083 9.41835C245.71 9.5764 273.857 10.0804 293.695 10.473C313.534 10.8655 335.919 11.1102 343.573 10.9545C351.226 10.8807 366.073 10.8765 376.492 11.0091C396.55 11.2393 399.558 10.7843 397.298 7.74723C396.223 6.43614 393.783 6.16237 377.947 5.36776C367.981 4.83731 351.031 4.49276 340.378 4.68575L340.378 4.67755Z" fill="#F8B21F"/>
</svg>
