<svg width="629" height="17" viewBox="0 0 629 17" fill="none" xmlns="http://www.w3.org/2000/svg">
<path d="M259.351 17.0001C253.055 17.0001 246.759 16.9541 240.475 16.8673C218.759 16.5558 186.535 15.6468 157.504 11.347C91.464 1.56779 11.1261 12.1232 10.3248 12.2305C6.08928 12.7973 1.61335 11.73 0.342692 9.83544C-0.927969 7.94599 1.46454 5.9544 5.70007 5.38245C9.18008 4.91264 91.6242 -5.94407 162.552 4.55518C189.591 8.55878 220.27 9.4167 240.99 9.71288C284.009 10.3308 327.235 8.77837 369.487 5.09648L373.619 4.73391C389.875 3.30916 405.226 1.96101 422.649 1.91505C448.245 1.86398 472.456 3.71258 499.163 5.96972C541.713 9.56479 583.141 9.27371 618.96 5.12712C623.241 4.63178 627.614 5.78077 628.725 7.69065C629.835 9.60054 627.259 11.5513 622.978 12.0466C584.881 16.4588 541.026 16.7856 496.175 12.9965C470.304 10.8108 446.906 9.01327 422.729 9.06434C406.828 9.10519 392.199 10.387 376.699 11.7453L372.543 12.1079C335.293 15.3506 297.3 16.9898 259.34 16.9898L259.351 17.0001Z" fill="#FFAB00"/>
</svg>
