<svg width="386" height="14" viewBox="0 0 386 14" fill="none" xmlns="http://www.w3.org/2000/svg">
<path fill-rule="evenodd" clip-rule="evenodd" d="M374.767 6.97455C374.545 7.13569 363.558 6.99105 350.489 6.60982C337.406 6.31608 318.898 5.99031 309.464 6.04459C300.029 6.09887 277.302 5.65871 259.017 5.17181C240.734 4.59665 215.012 4.03185 201.926 3.82636C188.84 3.62088 161.129 2.91467 140.416 2.16659C81.8024 0.084649 53.9588 0.0944348 21.7186 1.96784C3.71479 3.04038 -0.53305 3.73791 0.523223 5.44094C1.58127 6.78136 13.7655 7.38275 34.6414 6.86843C62.6121 6.31915 94.6627 6.78561 132.986 8.4238C151.597 9.20811 182.513 10.222 201.69 10.5954C220.868 10.96 247.355 11.6676 260.434 12.0584C273.514 12.4493 296.241 12.8806 310.881 12.9312C325.518 13.0701 347.028 13.3264 358.563 13.6073C370.206 13.8959 380.742 13.92 382.08 13.7409C385.538 13.3499 386.753 10.1806 384.149 8.44706C382.415 7.2355 375.908 6.23295 374.768 6.96573L374.767 6.97455Z" fill="#F8B21F"/>
</svg>
