<svg width="393" height="17" viewBox="0 0 393 17" fill="none" xmlns="http://www.w3.org/2000/svg">
<g clip-path="url(#clip0_439_776)">
<path d="M162.043 17C158.109 17 154.175 16.954 150.249 16.8672C136.681 16.5557 116.547 15.6467 98.4084 11.347C57.1466 1.56774 6.95138 12.1232 6.45072 12.2304C3.80435 12.7972 1.00778 11.7299 0.213871 9.83539C-0.58004 7.94593 0.914801 5.95434 3.56117 5.3824C5.73548 4.91259 57.2467 -5.94413 101.563 4.55512C118.456 8.55873 137.625 9.41664 150.571 9.71283C177.449 10.3307 204.456 8.77831 230.856 5.09643L233.438 4.73386C243.594 3.3091 253.185 1.96095 264.071 1.91499C280.064 1.86392 295.191 3.71253 311.877 5.96966C338.463 9.56474 364.347 9.27366 386.727 5.12707C389.402 4.63172 392.134 5.78072 392.828 7.6906C393.521 9.60048 391.912 11.5512 389.237 12.0466C365.434 16.4587 338.034 16.7855 310.011 12.9964C293.846 10.8108 279.227 9.01322 264.121 9.06428C254.187 9.10514 245.046 10.3869 235.362 11.7453L232.765 12.1078C209.492 15.3506 185.753 16.9898 162.036 16.9898L162.043 17Z" fill="#FFAB00"/>
</g>
<defs>
<clipPath id="clip0_439_776">
<rect width="393" height="17" fill="white"/>
</clipPath>
</defs>
</svg>
