<svg width="388" height="17" viewBox="0 0 388 17" fill="none" xmlns="http://www.w3.org/2000/svg">
<g clip-path="url(#clip0_3326_4)">
<path d="M159.982 17.0001C156.098 17.0001 152.214 16.9541 148.338 16.8673C134.942 16.5558 115.065 15.6468 97.1569 11.347C56.42 1.56779 6.86344 12.1232 6.36915 12.2305C3.75645 12.7973 0.99546 11.73 0.21165 9.83544C-0.57216 7.94599 0.903663 5.9544 3.51636 5.38245C5.66301 4.91264 56.5189 -5.94407 100.271 4.55518C116.95 8.55878 135.874 9.4167 148.655 9.71288C175.192 10.3308 201.856 8.77837 227.919 5.09648L230.468 4.73391C240.495 3.30916 249.965 1.96101 260.712 1.91505C276.501 1.86398 291.436 3.71258 307.91 5.96972C334.157 9.56479 359.712 9.27371 381.807 5.12712C384.448 4.63178 387.145 5.78077 387.83 7.69065C388.515 9.60054 386.927 11.5513 384.286 12.0466C360.785 16.4588 333.733 16.7856 306.067 12.9965C290.108 10.8108 275.675 9.01327 260.761 9.06434C250.953 9.10519 241.929 10.387 232.368 11.7453L229.804 12.1079C206.827 15.3506 183.39 16.9898 159.975 16.9898L159.982 17.0001Z" fill="#FFAB00"/>
</g>
<defs>
<clipPath id="clip0_3326_4">
<rect width="388" height="17" fill="white"/>
</clipPath>
</defs>
</svg>
