<svg width="33" height="67" viewBox="0 0 33 67" fill="none" xmlns="http://www.w3.org/2000/svg">
<g clip-path="url(#clip0_571_3422)">
<path fill-rule="evenodd" clip-rule="evenodd" d="M12.8032 6.02567C9.35507 9.42064 5.00446 13.4378 3.21303 14.9595C-0.443912 18.2124 -0.996156 20.363 1.62364 21.5397C3.00425 22.2296 3.89997 22.0267 6.59384 20.7755C10.042 19.0442 23.774 6.29618 24.461 4.07795C25.1479 1.92735 23.6326 -0.00683594 21.2889 -0.00683594C19.5649 -0.00683594 17.9755 1.16991 12.8032 6.0189V6.02567Z" fill="#F8B21F"/>
<path fill-rule="evenodd" clip-rule="evenodd" d="M7.7722 33.5981C5.83935 34.9845 5.772 36.7835 7.49608 38.3795C8.66792 39.421 10.1832 39.5563 19.9822 39.3466C30.0573 39.137 31.2291 39.0017 32.1249 37.825C33.2967 36.1613 33.2967 35.884 32.1249 34.2947C31.2965 33.118 29.9832 32.9083 20.2583 32.6987C10.9442 32.489 9.08547 32.631 7.7722 33.5981Z" fill="#F8B21F"/>
<path fill-rule="evenodd" clip-rule="evenodd" d="M3.42034 55.7667C2.93545 56.3213 2.73341 57.498 3.00953 58.5395C3.353 59.9259 4.94238 60.9674 10.8757 63.7334C19.0852 67.6829 21.5703 67.9602 21.9138 65.0522C22.4661 60.0611 6.53177 52.0268 3.42708 55.7667H3.42034Z" fill="#F8B21F"/>
</g>
<defs>
<clipPath id="clip0_571_3422">
<rect width="33" height="67" fill="white"/>
</clipPath>
</defs>
</svg>
