<svg width="300" height="17" viewBox="0 0 300 17" fill="none" xmlns="http://www.w3.org/2000/svg">
<g clip-path="url(#clip0_279_53)">
<path d="M123.698 17.0001C120.695 17.0001 117.692 16.9541 114.694 16.8673C104.337 16.5558 88.9677 15.6468 75.1217 11.347C43.624 1.56779 5.30712 12.1232 4.92493 12.2305C2.9048 12.7973 0.770018 11.73 0.163979 9.83544C-0.442059 7.94599 0.699041 5.9544 2.71917 5.38245C4.37895 4.91264 43.7005 -5.94407 77.5294 4.55518C90.4255 8.55878 105.058 9.4167 114.94 9.71288C135.458 10.3308 156.074 8.77837 176.226 5.09648L178.197 4.73391C185.95 3.30916 193.272 1.96101 201.582 1.91505C213.79 1.86398 225.337 3.71258 238.075 5.96972C258.369 9.56479 278.128 9.27371 295.212 5.12712C297.254 4.63178 299.34 5.78077 299.869 7.69065C300.399 9.60054 299.17 11.5513 297.128 12.0466C278.958 16.4588 258.042 16.7856 236.65 12.9965C224.311 10.8108 213.151 9.01327 201.62 9.06434C194.036 9.10519 187.059 10.387 179.666 11.7453L177.684 12.1079C159.918 15.3506 141.797 16.9898 123.692 16.9898L123.698 17.0001Z" fill="#FFAB00"/>
</g>
<defs>
<clipPath id="clip0_279_53">
<rect width="300" height="17" fill="white"/>
</clipPath>
</defs>
</svg>
