<svg width="278" height="302" viewBox="0 0 278 302" fill="none" xmlns="http://www.w3.org/2000/svg">
<path d="M29.8439 282.296C52.329 287.819 75.1917 273.741 89.7956 255.378C104.535 235.814 110.894 210.614 114.783 185.648C119.347 156.032 120.709 124.935 130.092 96.2859C142.454 58.9547 168.831 28.3074 201.025 11.4431C215.718 4.93139 231.313 1.17837 246.849 1.00623C231.503 3.66725 216.812 9.1557 203.392 17.0791C169.067 34.991 141.646 69.4634 131.88 110.492C119.203 161.687 125.545 223.213 89.9543 264.323C87.1797 267.388 83.9678 270.457 80.7946 273.032C76.4919 276.879 71.2952 279.415 66.1836 281.608C54.6291 286.305 41.318 287.131 29.8382 282.249L29.8439 282.296Z" fill="#F8B21F"/>
<path d="M49.0415 294.507C49.0348 294.82 49.0124 295.12 49.0057 295.433C49.8846 295.026 50.7634 294.619 51.6545 294.194C48.8237 291.749 45.5146 289.974 42.1935 288.466C38.5402 286.793 33.834 286.366 30.5942 283.955L31.0686 288.076C35.15 282.581 38.9269 276.791 42.5831 270.944C44.6041 267.715 40.2548 264.08 38.2374 267.338C34.5986 273.215 30.7219 278.88 26.8488 284.575C26.0319 285.768 26.0882 287.865 27.3232 288.696C30.5505 290.874 34.269 291.257 37.8903 292.405C42.0608 293.745 45.94 295.772 50.0233 297.344C52.2581 298.2 53.275 294.292 50.9042 293.863C50.614 293.816 50.322 293.754 50.0318 293.707C49.6105 293.635 49.0865 294.031 49.0712 294.518L49.0415 294.507Z" fill="#F8B21F"/>
<path d="M49.333 295.45C49.333 295.45 49.3909 295.582 49.4278 295.654C49.5725 295.052 49.7191 294.466 49.8638 293.865C49.7991 293.922 49.7203 293.982 49.6556 294.039C50.3212 294.119 50.9869 294.199 51.6385 294.282C49.7348 291.011 48.9988 285.364 47.7918 281.699C46.4495 277.604 45.1091 273.523 43.7265 269.449C42.8183 266.768 39.3553 268.17 39.4858 270.789C39.7843 276.725 42.7038 281.754 43.4733 287.567C44.8776 287.122 46.2696 286.695 47.6738 286.25C45.5556 282.107 43.7122 277.873 42.1174 273.443C41.241 271.037 37.3258 272.106 37.945 274.756C39.3505 280.764 41.6119 286.274 44.0906 291.811C45.3368 290.985 46.5848 290.175 47.8451 289.347C45.6333 286.25 43.4356 283.152 41.2221 280.04C39.7382 277.936 36.2146 280.051 37.4029 282.562C38.9334 285.815 40.8524 288.599 42.9868 291.396C43.8805 290.111 44.7864 288.809 45.6801 287.524C43.1636 286.117 39.172 284.417 37.1607 282.07L37.454 284.616C38.1715 282.297 40.4863 279.846 41.8136 277.867C40.4764 277.035 39.1234 276.191 37.7862 275.36C36.6286 278.937 35.157 282.143 33.1495 285.279C34.5636 285.91 35.9619 286.528 37.376 287.16C37.9933 284.467 38.9945 282.133 40.4267 279.825C39.0737 278.98 37.7365 278.149 36.3835 277.305C35.66 278.953 34.9366 280.6 34.2271 282.246C32.9358 285.282 37.185 287.112 38.5289 284.162C39.2822 282.525 40.0056 280.877 40.7291 279.229C41.8929 276.573 38.23 274.257 36.6859 276.709C34.7711 279.783 33.5044 282.909 32.6621 286.498C32.0464 289.081 35.5665 290.405 36.8885 288.379C39.1287 284.909 40.8538 281.303 42.1038 277.289C42.9366 274.608 39.7395 272.248 38.0764 274.782C36.4727 277.212 34.0093 279.859 33.1662 282.698C32.9183 283.519 32.8686 284.574 33.4595 285.244C36.0915 288.273 40.4898 290.283 43.886 292.141C45.9119 293.252 48.0017 290.087 46.5794 288.27C44.6853 285.825 42.8684 283.431 41.4976 280.574C40.2251 281.419 38.9509 282.25 37.6784 283.096C39.9164 286.172 42.1404 289.251 44.3644 292.33C45.8429 294.388 49.2318 292.342 48.1188 289.865C45.8157 284.737 43.5704 279.615 42.2582 274.045C40.8679 274.488 39.4759 274.916 38.0857 275.358C39.6928 279.771 41.5238 284.022 43.614 288.17C44.725 290.381 48.173 289.716 47.8145 286.852C47.0888 281.047 44.2463 275.943 43.883 270.065C42.4648 270.512 41.0465 270.959 39.6423 271.405C41.4005 276.386 43.171 281.351 45.0238 286.286C46.1741 289.335 47.1759 294.439 49.637 296.479C50.2207 296.963 51.1945 296.869 51.6264 296.159C51.6736 296.073 51.7226 296.002 51.7698 295.917C52.2279 295.187 52.0922 294.38 51.5277 293.815L51.3822 293.667C50.4266 292.68 48.759 294.184 49.3312 295.435L49.333 295.45Z" fill="#F8B21F"/>
</svg>
