<svg width="253" height="60" viewBox="0 0 253 60" fill="none" xmlns="http://www.w3.org/2000/svg">
<path d="M8.88986 21.4084C8.00847 21.4084 7.22206 21.2792 6.53063 21.0169C5.83919 20.7585 5.25793 20.3396 4.79064 19.7641C4.64248 20.0068 4.46772 20.1869 4.26637 20.3083C4.06502 20.4296 3.87127 20.5588 3.68511 20.6998C3.50276 20.8368 3.34319 21.0208 3.21403 21.244C3.08486 21.4671 3.02027 21.7921 3.02027 22.2188V26.8386H0V21.6355C0 21.0404 0.0759817 20.551 0.227945 20.1595C0.379908 19.768 0.577461 19.447 0.824401 19.1846C1.06754 18.9263 1.32968 18.707 1.60701 18.5308C1.88814 18.3547 2.14648 18.1785 2.38962 18.0023C2.63277 17.8261 2.84931 17.6304 3.03927 17.419C3.22922 17.2075 3.33939 16.9217 3.37739 16.5694C3.35839 16.3854 3.34699 16.1935 3.3356 15.9978C3.328 15.802 3.3242 15.5945 3.3242 15.3714C3.3242 14.2399 3.46476 13.2768 3.7421 12.4781C4.01943 11.6795 4.40694 11.0413 4.90462 10.5598C5.3985 10.0782 5.98736 9.72586 6.67119 9.5027C7.35503 9.27954 8.09205 9.16992 8.88606 9.16992C9.68007 9.16992 10.4171 9.28346 11.1009 9.5027C11.7848 9.72586 12.3736 10.0782 12.8675 10.5598C13.3614 11.0413 13.7489 11.6834 14.0262 12.4781C14.3073 13.2768 14.4441 14.2399 14.4441 15.3714C14.4441 15.5397 14.4403 15.7002 14.4289 15.8568C14.4213 16.0134 14.4061 16.1701 14.3909 16.3149C14.4251 17.094 14.6113 17.646 14.9418 17.971C15.2761 18.2959 15.6484 18.4564 16.0625 18.4564H16.8451C17.2061 18.4564 17.4758 18.5582 17.6543 18.7618C17.8329 18.9654 17.9241 19.3099 17.9241 19.7915C17.9241 20.3278 17.8405 20.6998 17.6695 20.9034C17.4986 21.1069 17.225 21.2087 16.8451 21.2087C16.5374 21.2087 16.2183 21.2009 15.8878 21.1813C15.5534 21.1618 15.2267 21.1069 14.9038 21.013C14.5809 20.919 14.2694 20.7781 13.973 20.5823C13.6767 20.3866 13.4108 20.1047 13.1752 19.7328C12.6889 20.3278 12.0811 20.7546 11.3441 21.013C10.607 21.2714 9.79024 21.4045 8.88986 21.4045V21.4084ZM8.89745 11.9496C8.03886 11.9496 7.39682 12.2393 6.97892 12.8109C6.55722 13.3864 6.34827 14.2204 6.34827 15.3166C6.34827 16.5028 6.55722 17.3563 6.97892 17.877C7.40062 18.3977 8.03886 18.6561 8.89745 18.6561C9.75605 18.6561 10.3943 18.3938 10.8046 17.8653C11.2149 17.3367 11.42 16.4872 11.42 15.3205C11.42 13.0772 10.5766 11.9535 8.89745 11.9535V11.9496Z" fill="white"/>
<path d="M17.2478 21.2123C16.8109 21.2123 16.507 21.1184 16.3436 20.9304C16.1803 20.7425 16.0967 20.398 16.0967 19.889C16.0967 19.3253 16.1727 18.9416 16.3284 18.738C16.4842 18.5305 16.7881 18.4287 17.2516 18.4287H21.2026C21.6395 18.4287 21.9701 18.5305 22.1904 18.738C22.407 18.9455 22.5171 19.2979 22.5171 19.8068C22.5171 20.3862 22.4146 20.766 22.2056 20.9461C21.9967 21.1223 21.6623 21.2123 21.2026 21.2123H17.2516H17.2478Z" fill="white"/>
<path d="M21.4344 21.2123C21.0734 21.2123 20.8265 21.1184 20.6935 20.9304C20.5606 20.7425 20.4922 20.398 20.4922 19.889C20.4922 19.3253 20.5568 18.9416 20.6821 18.738C20.8075 18.5305 21.0621 18.4287 21.4382 18.4287H24.6788C25.0397 18.4287 25.3094 18.5305 25.488 18.738C25.6665 18.9455 25.7577 19.2979 25.7577 19.8068C25.7577 20.3862 25.6741 20.766 25.5032 20.9461C25.3322 21.1223 25.0587 21.2123 24.6788 21.2123H21.4382H21.4344Z" fill="white"/>
<path d="M24.6746 21.2123C24.3137 21.2123 24.0667 21.1184 23.9338 20.9304C23.8008 20.7425 23.7324 20.398 23.7324 19.889C23.7324 19.3253 23.797 18.9416 23.9224 18.738C24.0477 18.5305 24.3023 18.4287 24.6784 18.4287H27.919C28.2799 18.4287 28.5497 18.5305 28.7282 18.738C28.9068 18.9455 28.998 19.2979 28.998 19.8068C28.998 20.3862 28.9144 20.766 28.7434 20.9461C28.5725 21.1223 28.2989 21.2123 27.919 21.2123H24.6784H24.6746Z" fill="white"/>
<path d="M27.9158 21.2123C27.5549 21.2123 27.308 21.1184 27.175 20.9304C27.042 20.7425 26.9736 20.398 26.9736 19.889C26.9736 19.3253 27.0382 18.9416 27.1636 18.738C27.289 18.5305 27.5435 18.4287 27.9196 18.4287H31.1602C31.5211 18.4287 31.7909 18.5305 31.9694 18.738C32.148 18.9455 32.2392 19.2979 32.2392 19.8068C32.2392 20.3862 32.1556 20.766 31.9846 20.9461C31.8137 21.1223 31.5401 21.2123 31.1602 21.2123H27.9196H27.9158Z" fill="white"/>
<path d="M31.156 21.2123C30.7951 21.2123 30.5482 21.1184 30.4152 20.9304C30.2823 20.7425 30.2139 20.398 30.2139 19.889C30.2139 19.3253 30.2785 18.9416 30.4038 18.738C30.5292 18.5305 30.7837 18.4287 31.1598 18.4287H34.4005C34.7614 18.4287 35.0311 18.5305 35.2097 18.738C35.3882 18.9455 35.4794 19.2979 35.4794 19.8068C35.4794 20.3862 35.3958 20.766 35.2249 20.9461C35.0539 21.1223 34.7804 21.2123 34.4005 21.2123H31.1598H31.156Z" fill="white"/>
<path d="M34.3933 21.2123C34.0324 21.2123 33.7855 21.1184 33.6525 20.9304C33.5196 20.7425 33.4512 20.398 33.4512 19.889C33.4512 19.3253 33.5158 18.9416 33.6411 18.738C33.7665 18.5305 34.021 18.4287 34.3971 18.4287H37.6378C37.9987 18.4287 38.2684 18.5305 38.447 18.738C38.6255 18.9455 38.7167 19.2979 38.7167 19.8068C38.7167 20.3862 38.6331 20.766 38.4622 20.9461C38.2912 21.1262 38.0177 21.2123 37.6378 21.2123H34.3971H34.3933Z" fill="white"/>
<path d="M37.6336 21.2123C37.2727 21.2123 37.0257 21.1184 36.8928 20.9304C36.7598 20.7425 36.6914 20.398 36.6914 19.889C36.6914 19.3253 36.756 18.9416 36.8814 18.738C37.0067 18.5305 37.2613 18.4287 37.6374 18.4287H40.878C41.2389 18.4287 41.5086 18.5305 41.6872 18.738C41.8658 18.9455 41.9569 19.2979 41.9569 19.8068C41.9569 20.3862 41.8734 20.766 41.7024 20.9461C41.5314 21.1223 41.2579 21.2123 40.878 21.2123H37.6374H37.6336Z" fill="white"/>
<path d="M40.8748 21.2123C40.5139 21.2123 40.2669 21.1184 40.134 20.9304C40.001 20.7425 39.9326 20.398 39.9326 19.889C39.9326 19.3253 39.9972 18.9416 40.1226 18.738C40.2479 18.5305 40.5025 18.4287 40.8786 18.4287H44.1192C44.4801 18.4287 44.7499 18.5305 44.9284 18.738C45.107 18.9455 45.1981 19.2979 45.1981 19.8068C45.1981 20.3862 45.1146 20.766 44.9436 20.9461C44.7727 21.1262 44.4991 21.2123 44.1192 21.2123H40.8786H40.8748Z" fill="white"/>
<path d="M44.115 21.2123C43.7541 21.2123 43.5072 21.1184 43.3742 20.9304C43.2412 20.7425 43.1729 20.398 43.1729 19.889C43.1729 19.3253 43.2374 18.9416 43.3628 18.738C43.4882 18.5305 43.7427 18.4287 44.1188 18.4287H47.3594C47.7204 18.4287 47.9901 18.5305 48.1686 18.738C48.3472 18.9455 48.4384 19.2979 48.4384 19.8068C48.4384 20.3862 48.3548 20.766 48.1838 20.9461C48.0129 21.1223 47.7394 21.2123 47.3594 21.2123H44.1188H44.115Z" fill="white"/>
<path d="M47.3553 21.2123C46.9943 21.2123 46.7474 21.1184 46.6144 20.9304C46.4815 20.7425 46.4131 20.398 46.4131 19.889C46.4131 19.3253 46.4777 18.9416 46.603 18.738C46.7284 18.5305 46.983 18.4287 47.3591 18.4287H50.5997C50.9606 18.4287 51.2303 18.5305 51.4089 18.738C51.5874 18.9455 51.6786 19.2979 51.6786 19.8068C51.6786 20.3862 51.595 20.766 51.4241 20.9461C51.2531 21.1223 50.9796 21.2123 50.5997 21.2123H47.3591H47.3553Z" fill="white"/>
<path d="M50.5965 21.2123C50.2356 21.2123 49.9886 21.1184 49.8556 20.9304C49.7227 20.7425 49.6543 20.398 49.6543 19.889C49.6543 19.3253 49.7189 18.9416 49.8443 18.738C49.9696 18.5305 50.2242 18.4287 50.6003 18.4287H53.8409C54.2018 18.4287 54.4715 18.5305 54.6501 18.738C54.8287 18.9455 54.9198 19.2979 54.9198 19.8068C54.9198 20.3862 54.8362 20.766 54.6653 20.9461C54.4943 21.1223 54.2208 21.2123 53.8409 21.2123H50.6003H50.5965Z" fill="white"/>
<path d="M53.8328 21.2123C53.4719 21.2123 53.2249 21.1184 53.092 20.9304C52.959 20.7425 52.8906 20.398 52.8906 19.889C52.8906 19.3253 52.9552 18.9416 53.0806 18.738C53.2059 18.5305 53.4605 18.4287 53.8366 18.4287H57.0772C57.4381 18.4287 57.7079 18.5305 57.8864 18.738C58.065 18.9455 58.1562 19.2979 58.1562 19.8068C58.1562 20.3862 58.0726 20.766 57.9016 20.9461C57.7307 21.1223 57.4571 21.2123 57.0772 21.2123H53.8366H53.8328Z" fill="white"/>
<path d="M57.074 21.2123C56.7131 21.2123 56.4662 21.1184 56.3332 20.9304C56.2002 20.7425 56.1318 20.398 56.1318 19.889C56.1318 19.3253 56.1964 18.9416 56.3218 18.738C56.4472 18.5305 56.7017 18.4287 57.0778 18.4287H60.3184C60.6793 18.4287 60.9491 18.5305 61.1276 18.738C61.3062 18.9455 61.3974 19.2979 61.3974 19.8068C61.3974 20.3862 61.3138 20.766 61.1428 20.9461C60.9719 21.1262 60.6983 21.2123 60.3184 21.2123H57.0778H57.074Z" fill="white"/>
<path d="M60.3142 21.2123C59.9533 21.2123 59.7064 21.1184 59.5734 20.9304C59.4405 20.7425 59.3721 20.398 59.3721 19.889C59.3721 19.3253 59.4367 18.9416 59.562 18.738C59.6874 18.5305 59.9419 18.4287 60.318 18.4287H63.5587C63.9196 18.4287 64.1893 18.5305 64.3679 18.738C64.5464 18.9455 64.6376 19.2979 64.6376 19.8068C64.6376 20.3862 64.554 20.766 64.3831 20.9461C64.2121 21.1223 63.9386 21.2123 63.5587 21.2123H60.318H60.3142Z" fill="white"/>
<path d="M63.5545 21.2123C63.1936 21.2123 62.9466 21.1184 62.8137 20.9304C62.6807 20.7425 62.6123 20.398 62.6123 19.889C62.6123 19.3253 62.6769 18.9416 62.8023 18.738C62.9276 18.5305 63.1822 18.4287 63.5583 18.4287H66.7989C67.1598 18.4287 67.4295 18.5305 67.6081 18.738C67.7867 18.9455 67.8778 19.2979 67.8778 19.8068C67.8778 20.3862 67.7943 20.766 67.6233 20.9461C67.4523 21.1262 67.1788 21.2123 66.7989 21.2123H63.5583H63.5545Z" fill="white"/>
<path d="M66.7957 21.2123C66.4348 21.2123 66.1878 21.1184 66.0549 20.9304C65.9219 20.7425 65.8535 20.398 65.8535 19.889C65.8535 19.3253 65.9181 18.9416 66.0435 18.738C66.1688 18.5305 66.4234 18.4287 66.7995 18.4287H70.0401C70.401 18.4287 70.6708 18.5305 70.8493 18.738C71.0279 18.9455 71.119 19.2979 71.119 19.8068C71.119 20.3862 71.0355 20.766 70.8645 20.9461C70.6935 21.1223 70.42 21.2123 70.0401 21.2123H66.7995H66.7957Z" fill="white"/>
<path d="M70.032 21.2123C69.6711 21.2123 69.4242 21.1184 69.2912 20.9304C69.1582 20.7425 69.0898 20.398 69.0898 19.889C69.0898 19.3253 69.1544 18.9416 69.2798 18.738C69.4052 18.5305 69.6597 18.4287 70.0358 18.4287H73.2764C73.6373 18.4287 73.9071 18.5305 74.0856 18.738C74.2642 18.9455 74.3554 19.2979 74.3554 19.8068C74.3554 20.3862 74.2718 20.766 74.1008 20.9461C73.9299 21.1262 73.6563 21.2123 73.2764 21.2123H70.0358H70.032Z" fill="white"/>
<path d="M73.2732 21.2123C72.9123 21.2123 72.6654 21.1184 72.5324 20.9304C72.3994 20.7425 72.3311 20.398 72.3311 19.889C72.3311 19.3253 72.3956 18.9416 72.521 18.738C72.6464 18.5305 72.9009 18.4287 73.277 18.4287H76.5176C76.8786 18.4287 77.1483 18.5305 77.3268 18.738C77.5054 18.9455 77.5966 19.2979 77.5966 19.8068C77.5966 20.3862 77.513 20.766 77.342 20.9461C77.1711 21.1223 76.8976 21.2123 76.5176 21.2123H73.277H73.2732Z" fill="white"/>
<path d="M76.5135 21.2123C76.1525 21.2123 75.9056 21.1184 75.7726 20.9304C75.6397 20.7425 75.5713 20.398 75.5713 19.889C75.5713 19.3253 75.6359 18.9416 75.7612 18.738C75.8866 18.5305 76.1412 18.4287 76.5173 18.4287H79.7579C80.1188 18.4287 80.3885 18.5305 80.5671 18.738C80.7456 18.9455 80.8368 19.2979 80.8368 19.8068C80.8368 20.3862 80.7532 20.766 80.5823 20.9461C80.4113 21.1262 80.1378 21.2123 79.7579 21.2123H76.5173H76.5135Z" fill="white"/>
<path d="M85.59 19.7786C85.3392 20.3228 84.9593 20.6987 84.4502 20.9022C83.9412 21.1097 83.2573 21.2115 82.3987 21.2115H79.8875C79.5266 21.2115 79.2569 21.1215 79.0783 20.9453C78.8998 20.7691 78.8086 20.4168 78.8086 19.8922C78.8086 19.3675 78.8922 18.9682 79.0631 18.7529C79.2341 18.5376 79.5076 18.4279 79.8875 18.4279H81.6427C81.9656 18.4279 82.2126 18.377 82.3835 18.2752C82.5545 18.1735 82.6799 18.0168 82.7634 17.8054C82.8432 17.594 82.8926 17.3161 82.9116 16.9715C82.9306 16.6309 82.9382 16.2081 82.9382 15.7109V9.94008C82.9382 9.83046 82.9876 9.75607 83.0864 9.71692C83.1851 9.67777 83.2877 9.66211 83.3941 9.66211H85.6963C85.8749 9.66211 85.9623 9.75607 85.9623 9.94008V16.7092C85.9623 17.2652 86.1636 17.688 86.5701 17.9855C86.9766 18.2831 87.5199 18.4279 88.2037 18.4279H88.6634C89.0243 18.4279 89.2941 18.5297 89.4726 18.7372C89.6512 18.9447 89.7424 19.2892 89.7424 19.7786C89.7424 20.3228 89.6588 20.6987 89.4878 20.9022C89.3169 21.1097 89.0433 21.2115 88.6634 21.2115C87.9606 21.2115 87.3489 21.1215 86.8285 20.9453C86.308 20.7691 85.8939 20.3776 85.59 19.7786ZM81.3996 26.5556C81.221 26.5556 81.1298 26.4616 81.1298 26.2737V23.8581C81.1298 23.6702 81.221 23.5762 81.3996 23.5762H83.6676C83.8462 23.5762 83.9374 23.6702 83.9374 23.8581V26.2737C83.9374 26.4616 83.8462 26.5556 83.6676 26.5556H81.3996ZM84.9099 26.5556C84.7314 26.5556 84.6402 26.4616 84.6402 26.2737V23.8581C84.6402 23.6702 84.7276 23.5762 84.9099 23.5762H87.178C87.3565 23.5762 87.4477 23.6702 87.4477 23.8581V26.2737C87.4477 26.4616 87.3565 26.5556 87.178 26.5556H84.9099Z" fill="white"/>
<path d="M90.0153 18.4289C90.4636 18.4289 90.7941 18.3232 91.003 18.1079C91.2082 17.8964 91.3146 17.5088 91.3146 16.9568V2.57289C91.3146 2.38888 91.4019 2.29492 91.5805 2.29492H94.0689C94.2475 2.29492 94.3348 2.38888 94.3348 2.57289V16.7102C94.3348 17.2661 94.5362 17.6929 94.9427 17.9865C95.3492 18.2801 95.8925 18.4289 96.5763 18.4289H97.036C97.3969 18.4289 97.6666 18.5307 97.8452 18.7382C98.0237 18.9457 98.1149 19.2902 98.1149 19.7796C98.1149 20.3238 98.0313 20.6996 97.8604 20.9032C97.6894 21.1107 97.4159 21.2125 97.036 21.2125C96.3332 21.2125 95.7215 21.1224 95.201 20.9463C94.6806 20.7701 94.2665 20.3786 93.9625 19.7796C93.7118 20.3042 93.3509 20.6761 92.8798 20.8915C92.4049 21.1068 91.7667 21.2125 90.9612 21.2125H88.6932C88.3323 21.2125 88.0626 21.1224 87.884 20.9463C87.7054 20.7701 87.6143 20.3786 87.6143 19.7796C87.6143 19.2745 87.6978 18.9222 87.8688 18.7264C88.0398 18.5307 88.3133 18.4289 88.6932 18.4289H90.0153Z" fill="white"/>
<path d="M104.62 9.16505C106.69 9.16505 108.202 9.56438 109.156 10.3591C110.109 11.1539 110.588 12.1992 110.588 13.4951C110.588 14.051 110.504 14.5717 110.333 15.0611C110.162 15.5505 109.942 16.0047 109.672 16.4197C109.403 16.8347 109.095 17.2105 108.753 17.5433C108.411 17.8761 108.077 18.154 107.754 18.3733C107.898 18.4124 108.054 18.4281 108.229 18.4281H112.157C112.571 18.4281 112.848 18.5416 112.993 18.7648C113.137 18.9918 113.209 19.3638 113.209 19.8884C113.209 20.413 113.126 20.7654 112.955 20.9416C112.784 21.1177 112.518 21.2078 112.157 21.2078H108.134C107.488 21.2078 106.869 21.149 106.284 21.0277C105.699 20.9063 105.144 20.6792 104.623 20.3465C104.031 20.6792 103.4 20.9063 102.735 21.0277C102.07 21.149 101.474 21.2078 100.953 21.2078H97.067C96.7251 21.2078 96.4629 21.1138 96.2844 20.9259C96.1058 20.738 96.0146 20.3934 96.0146 19.8845C96.0146 19.3755 96.0716 19.031 96.1894 18.7883C96.3072 18.5455 96.5997 18.4242 97.067 18.4242H100.228C100.517 18.4242 100.839 18.4124 101.2 18.385C101.561 18.3576 101.983 18.2871 102.469 18.1775C102.325 17.5668 102.131 17.0422 101.888 16.5958C101.645 16.1534 101.371 15.758 101.064 15.4174C100.756 15.0768 100.429 14.7714 100.076 14.5013C99.7264 14.2351 99.3692 13.9688 99.0083 13.7104C98.8108 13.5617 98.6968 13.4285 98.6702 13.3072C98.6436 13.1858 98.6284 13.0527 98.6284 12.9039V11.1578C98.6284 10.9542 98.7994 10.7311 99.1413 10.4923C99.4832 10.2534 99.9315 10.0342 100.49 9.84235C101.048 9.6466 101.687 9.48608 102.409 9.35689C103.127 9.22769 103.867 9.16113 104.623 9.16113L104.62 9.16505ZM105.026 17.5668C105.315 17.3828 105.607 17.1596 105.904 16.8973C106.2 16.6389 106.462 16.3531 106.686 16.0477C106.91 15.7424 107.097 15.4135 107.241 15.0611C107.385 14.7088 107.457 14.3486 107.457 13.9767C107.457 13.2171 107.192 12.6886 106.66 12.3911C106.128 12.0935 105.448 11.9447 104.62 11.9447C103.898 11.9447 103.275 12.0191 102.743 12.1679C102.211 12.3167 101.846 12.4459 101.649 12.5594C102.477 13.0958 103.184 13.7966 103.769 14.6579C104.354 15.5192 104.772 16.4901 105.022 17.5668H105.026Z" fill="white"/>
<path d="M117.988 19.7789C117.738 20.3231 117.358 20.6989 116.849 20.9025C116.34 21.11 115.656 21.2118 114.797 21.2118H112.286C111.925 21.2118 111.655 21.1218 111.477 20.9456C111.298 20.7694 111.207 20.417 111.207 19.8924C111.207 19.3678 111.291 18.9685 111.462 18.7531C111.633 18.5378 111.906 18.4282 112.286 18.4282H114.041C114.364 18.4282 114.611 18.3773 114.782 18.2755C114.953 18.1737 115.078 18.0171 115.162 17.8057C115.242 17.5943 115.291 17.3163 115.31 16.9718C115.329 16.6312 115.337 16.2084 115.337 15.7111V9.94034C115.337 9.83072 115.386 9.75634 115.485 9.71719C115.584 9.67803 115.686 9.66237 115.793 9.66237H118.095C118.273 9.66237 118.361 9.75634 118.361 9.94034V16.7095C118.361 17.2654 118.562 17.6882 118.969 17.9858C119.375 18.2833 119.918 18.4282 120.602 18.4282H121.062C121.423 18.4282 121.693 18.53 121.871 18.7375C122.05 18.945 122.141 19.2895 122.141 19.7789C122.141 20.3231 122.057 20.6989 121.886 20.9025C121.715 21.11 121.442 21.2118 121.062 21.2118C120.359 21.2118 119.747 21.1218 119.227 20.9456C118.706 20.7694 118.292 20.3779 117.988 19.7789ZM113.988 6.88268C113.809 6.88268 113.718 6.78872 113.718 6.6008V4.1852C113.718 3.99728 113.809 3.90332 113.988 3.90332H116.256C116.435 3.90332 116.526 3.99728 116.526 4.1852V6.6008C116.526 6.78872 116.435 6.88268 116.256 6.88268H113.988ZM117.498 6.88268C117.32 6.88268 117.229 6.78872 117.229 6.6008V4.1852C117.229 3.99728 117.32 3.90332 117.498 3.90332H119.766C119.945 3.90332 120.036 3.99728 120.036 4.1852V6.6008C120.036 6.78872 119.945 6.88268 119.766 6.88268H117.498Z" fill="white"/>
<path d="M122.414 18.4289C122.862 18.4289 123.193 18.3232 123.401 18.1079C123.607 17.8964 123.713 17.5088 123.713 16.9568V2.57289C123.713 2.38888 123.8 2.29492 123.979 2.29492H126.467C126.646 2.29492 126.733 2.38888 126.733 2.57289V16.7102C126.733 17.2661 126.935 17.6929 127.341 17.9865C127.748 18.284 128.291 18.4289 128.975 18.4289H129.434C129.795 18.4289 130.065 18.5307 130.244 18.7382C130.422 18.9457 130.513 19.2902 130.513 19.7796C130.513 20.3238 130.43 20.6996 130.259 20.9032C130.088 21.1107 129.814 21.2125 129.434 21.2125C128.732 21.2125 128.12 21.1224 127.599 20.9463C127.079 20.7701 126.665 20.3786 126.361 19.7796C126.11 20.3042 125.749 20.6761 125.278 20.8915C124.803 21.1068 124.165 21.2125 123.36 21.2125H121.092C120.731 21.2125 120.461 21.1224 120.282 20.9463C120.104 20.7701 120.013 20.3786 120.013 19.7796C120.013 19.2745 120.096 18.9222 120.267 18.7264C120.438 18.5307 120.712 18.4289 121.092 18.4289H122.414Z" fill="white"/>
<path d="M129.458 21.2125C129.097 21.2125 128.827 21.1224 128.649 20.9463C128.47 20.7701 128.379 20.406 128.379 19.8657C128.379 19.3254 128.462 18.9731 128.633 18.7538C128.804 18.5385 129.078 18.4289 129.458 18.4289H130.78C131.228 18.4289 131.559 18.3232 131.768 18.1079C131.973 17.8964 132.079 17.5088 132.079 16.9568V2.57289C132.079 2.38888 132.167 2.29492 132.345 2.29492H134.834C135.012 2.29492 135.099 2.38888 135.099 2.57289V17.7085C135.099 18.9144 134.86 19.7992 134.378 20.3668C133.895 20.9345 133.094 21.2164 131.969 21.2164H129.458V21.2125Z" fill="white"/>
<path d="M152.328 9.16571V7.9677C152.328 7.78369 152.416 7.68973 152.598 7.68973H155.083C155.261 7.68973 155.352 7.78369 155.352 7.9677V16.9606C155.352 17.5165 155.455 17.9002 155.664 18.1116C155.873 18.323 156.199 18.4327 156.652 18.4327H157.677C158.399 18.4327 158.756 18.9025 158.756 19.8382C158.756 20.4019 158.669 20.77 158.502 20.95C158.331 21.1262 158.057 21.2163 157.677 21.2163H155.493C154.611 21.2163 153.92 21.0557 153.426 20.7386C152.932 20.4215 152.602 19.8577 152.438 19.0512C152.058 19.3919 151.61 19.6502 151.09 19.8186C150.569 19.9909 150.018 20.0731 149.441 20.0731C148.738 20.0731 148.077 19.9713 147.458 19.7677C146.835 19.5641 146.295 19.247 145.836 18.8203C145.376 18.3935 145.011 17.8532 144.741 17.1916C144.472 16.5339 144.335 15.7391 144.335 14.8112C144.335 13.7346 144.483 12.8341 144.779 12.1138C145.076 11.3895 145.471 10.81 145.969 10.3755C146.462 9.94089 147.025 9.62769 147.655 9.44368C148.286 9.25967 148.939 9.16571 149.627 9.16571H152.328ZM147.169 5.77135C146.991 5.77135 146.899 5.67739 146.899 5.48947V3.07388C146.899 2.88595 146.991 2.79199 147.169 2.79199H149.437C149.616 2.79199 149.707 2.88595 149.707 3.07388V5.48947C149.707 5.67739 149.616 5.77135 149.437 5.77135H147.169ZM149.79 17.2895C150.653 17.2895 151.295 17.035 151.709 16.5299C152.123 16.021 152.332 15.281 152.332 14.3023V11.9493H149.927C149.152 11.9493 148.533 12.1529 148.066 12.5601C147.598 12.9672 147.363 13.7111 147.363 14.8034C147.363 15.653 147.579 16.2794 148.009 16.6865C148.442 17.0937 149.034 17.2934 149.79 17.2934V17.2895ZM150.679 5.77135C150.501 5.77135 150.41 5.67739 150.41 5.48947V3.07388C150.41 2.88595 150.497 2.79199 150.679 2.79199H152.947C153.126 2.79199 153.217 2.88595 153.217 3.07388V5.48947C153.217 5.67739 153.126 5.77135 152.947 5.77135H150.679Z" fill="white"/>
<path d="M157.996 21.2123C157.635 21.2123 157.388 21.1184 157.255 20.9304C157.122 20.7425 157.054 20.398 157.054 19.889C157.054 19.3253 157.118 18.9416 157.244 18.738C157.369 18.5305 157.624 18.4287 158 18.4287H161.24C161.601 18.4287 161.871 18.5305 162.05 18.738C162.228 18.9455 162.319 19.2979 162.319 19.8068C162.319 20.3862 162.236 20.766 162.065 20.9461C161.894 21.1223 161.62 21.2123 161.24 21.2123H158H157.996Z" fill="white"/>
<path d="M161.237 21.2123C160.876 21.2123 160.629 21.1184 160.496 20.9304C160.363 20.7425 160.295 20.398 160.295 19.889C160.295 19.3253 160.36 18.9416 160.485 18.738C160.61 18.5305 160.865 18.4287 161.241 18.4287H164.482C164.842 18.4287 165.112 18.5305 165.291 18.738C165.469 18.9455 165.56 19.2979 165.56 19.8068C165.56 20.3862 165.477 20.766 165.306 20.9461C165.135 21.1223 164.861 21.2123 164.482 21.2123H161.241H161.237Z" fill="white"/>
<path d="M171.741 9.16516C173.576 9.16516 174.982 9.61539 175.955 10.5119C176.927 11.4085 177.413 12.6065 177.413 14.106C177.413 15.0103 177.212 15.8403 176.806 16.5881C176.399 17.3359 175.856 17.9506 175.172 18.4321H179.005C179.366 18.4321 179.636 18.5222 179.814 18.6983C179.993 18.8745 180.084 19.2269 180.084 19.7515C180.084 20.2761 180.001 20.6754 179.83 20.8908C179.659 21.1061 179.385 21.2118 179.005 21.2118H175.252C174.606 21.2118 173.991 21.1844 173.417 21.1296C172.839 21.0748 172.292 20.879 171.772 20.5462C171.179 20.879 170.545 21.0748 169.868 21.1296C169.192 21.1844 168.596 21.2118 168.075 21.2118H164.485C164.124 21.2118 163.855 21.0983 163.676 20.8751C163.497 20.652 163.406 20.2839 163.406 19.7789C163.406 19.2347 163.49 18.8745 163.661 18.6983C163.832 18.5222 164.105 18.4321 164.485 18.4321H168.292C167.627 17.9506 167.091 17.3359 166.685 16.5881C166.278 15.8403 166.077 15.0103 166.077 14.106C166.077 12.6065 166.563 11.4085 167.536 10.5119C168.508 9.61539 169.91 9.16516 171.749 9.16516H171.741ZM168.961 6.88268C168.782 6.88268 168.691 6.78872 168.691 6.6008V4.1852C168.691 3.99728 168.782 3.90332 168.961 3.90332H171.229C171.407 3.90332 171.498 3.99728 171.498 4.1852V6.6008C171.498 6.78872 171.407 6.88268 171.229 6.88268H168.961ZM171.741 11.6395C171.039 11.6395 170.431 11.8666 169.918 12.3207C169.405 12.7748 169.15 13.4482 169.15 14.337C169.15 15.2844 169.401 16.0478 169.906 16.6312C170.412 17.2145 171.023 17.6648 171.741 17.9819C172.444 17.6687 173.045 17.2184 173.55 16.6312C174.055 16.0478 174.306 15.2805 174.306 14.337C174.306 13.4482 174.055 12.7748 173.55 12.3207C173.045 11.8666 172.44 11.6395 171.741 11.6395ZM172.467 6.88268C172.289 6.88268 172.197 6.78872 172.197 6.6008V4.1852C172.197 3.99728 172.285 3.90332 172.467 3.90332H174.735C174.914 3.90332 175.005 3.99728 175.005 4.1852V6.6008C175.005 6.78872 174.914 6.88268 174.735 6.88268H172.467Z" fill="white"/>
<path d="M179.002 21.2121C178.641 21.2121 178.371 21.122 178.193 20.9458C178.014 20.7697 177.923 20.4251 177.923 19.9201C177.923 19.3759 178.006 18.9922 178.177 18.7691C178.348 18.5459 178.622 18.4324 179.002 18.4324H180.757C181.205 18.4324 181.536 18.3267 181.741 18.1152C181.95 17.9038 182.052 17.5202 182.052 16.9642V9.94843C182.052 9.76442 182.14 9.67046 182.318 9.67046H184.807C184.985 9.67046 185.073 9.76442 185.073 9.94843V17.712C185.073 18.9178 184.833 19.8026 184.351 20.3703C183.868 20.938 183.067 21.2199 181.942 21.2199H178.998L179.002 21.2121ZM180.651 6.88294C180.472 6.88294 180.381 6.78898 180.381 6.60106V4.18546C180.381 3.99754 180.472 3.90358 180.651 3.90358H182.919C183.097 3.90358 183.188 3.99754 183.188 4.18546V6.60106C183.188 6.78898 183.097 6.88294 182.919 6.88294H180.651ZM182.375 3.29283C182.197 3.29283 182.106 3.19887 182.106 3.01094V0.599267C182.106 0.411344 182.193 0.317383 182.375 0.317383H184.643C184.822 0.317383 184.913 0.411344 184.913 0.599267V3.01486C184.913 3.20278 184.822 3.29674 184.643 3.29674H182.375V3.29283ZM184.157 6.88294C183.979 6.88294 183.887 6.78898 183.887 6.60106V4.18546C183.887 3.99754 183.975 3.90358 184.157 3.90358H186.425C186.604 3.90358 186.695 3.99754 186.695 4.18546V6.60106C186.695 6.78898 186.604 6.88294 186.425 6.88294H184.157Z" fill="white"/>
<path d="M5.50867 54.5993C5.33011 54.5993 5.23894 54.5053 5.23894 54.3213V38.7942C5.23894 38.6846 5.18575 38.6258 5.07558 38.6258H0.269735C0.091178 38.6258 0 38.5319 0 38.344V35.9284C0 35.7404 0.091178 35.6465 0.269735 35.6465H13.3918C13.5703 35.6465 13.6615 35.7404 13.6615 35.9284V38.344C13.6615 38.5319 13.5703 38.6258 13.3918 38.6258H8.58593C8.47956 38.6258 8.42257 38.6807 8.42257 38.7942V54.3213C8.42257 54.5053 8.33139 54.5993 8.15283 54.5993H5.50487H5.50867Z" fill="white"/>
<path d="M24.4621 54.5992C24.2835 54.5992 24.1924 54.5053 24.1924 54.3212V46.5851C24.1924 45.712 23.9834 45.0073 23.5693 44.471C23.1552 43.9346 22.5436 43.6644 21.7344 43.6644C20.9252 43.6644 20.3287 43.9346 19.8994 44.471C19.4663 45.0073 19.2536 45.7159 19.2536 46.5851V54.3212C19.2536 54.5053 19.1624 54.5992 18.9838 54.5992H16.4992C16.3207 54.5992 16.2295 54.5053 16.2295 54.3212V35.9596C16.2295 35.7756 16.3207 35.6816 16.4992 35.6816H18.9838C19.1624 35.6816 19.2536 35.7756 19.2536 35.9596V42.443H19.2802C19.5689 42.0162 19.9944 41.6482 20.5604 41.3428C21.1265 41.0374 21.8407 40.8848 22.7069 40.8848C23.4098 40.8848 24.0366 41.01 24.5837 41.2606C25.1345 41.5112 25.6056 41.8596 26.0007 42.302C26.3958 42.7483 26.6998 43.2729 26.9049 43.8759C27.1101 44.4788 27.2164 45.1404 27.2164 45.8647V54.3252C27.2164 54.5092 27.1253 54.6031 26.9467 54.6031H24.4621V54.5992Z" fill="white"/>
<path d="M31.2932 38.6571C31.1146 38.6571 31.0234 38.5631 31.0234 38.3791V35.9596C31.0234 35.7756 31.1146 35.6816 31.2932 35.6816H33.7778C33.9563 35.6816 34.0475 35.7756 34.0475 35.9596V38.3791C34.0475 38.5631 33.9563 38.6571 33.7778 38.6571H31.2932ZM31.2932 54.5992C31.1146 54.5992 31.0234 54.5053 31.0234 54.3212V41.4681C31.0234 41.2841 31.1146 41.1901 31.2932 41.1901H33.7778C33.9563 41.1901 34.0475 41.2841 34.0475 41.4681V54.3212C34.0475 54.5053 33.9563 54.5992 33.7778 54.5992H31.2932Z" fill="white"/>
<path d="M46.0072 59.6066C45.8286 59.6066 45.7375 59.5126 45.7375 59.3286V53.319H45.7109C45.4031 53.781 44.9738 54.1647 44.4154 54.4583C43.8569 54.7558 43.1389 54.9046 42.2575 54.9046C41.1406 54.9046 40.1946 54.6345 39.4234 54.0981C38.6484 53.5617 38.0937 52.7552 37.7518 51.6786C37.5884 51.1579 37.4707 50.6254 37.4023 50.0773C37.3301 49.5292 37.2959 48.801 37.2959 47.8927C37.2959 46.9844 37.3301 46.2562 37.4023 45.7081C37.4745 45.16 37.5922 44.6276 37.7518 44.1069C38.0937 43.0302 38.6522 42.2237 39.4234 41.6874C40.1984 41.151 41.1406 40.8809 42.2575 40.8809C43.1389 40.8809 43.8607 41.0296 44.4154 41.3272C44.9738 41.6247 45.4031 42.0045 45.7109 42.4665H45.7375V41.4642C45.7375 41.2802 45.8286 41.1862 46.0072 41.1862H48.4918C48.6704 41.1862 48.7615 41.2802 48.7615 41.4642V59.3286C48.7615 59.5126 48.6704 59.6066 48.4918 59.6066H46.0072ZM43.0363 52.1249C44.2976 52.1249 45.1068 51.5494 45.4677 50.3984C45.5589 50.0852 45.6273 49.7406 45.6691 49.3687C45.7147 48.9968 45.7375 48.5074 45.7375 47.8927C45.7375 47.2781 45.7147 46.7887 45.6691 46.4168C45.6235 46.0448 45.5551 45.7042 45.4677 45.3871C45.1068 44.2361 44.2976 43.6606 43.0363 43.6606C41.775 43.6606 40.9924 44.2361 40.6353 45.3871C40.5441 45.7042 40.4757 46.0448 40.4339 46.4168C40.3922 46.7887 40.3656 47.2781 40.3656 47.8927C40.3656 48.5074 40.3884 48.9968 40.4339 49.3687C40.4795 49.7406 40.5479 50.0813 40.6353 50.3984C40.9962 51.5494 41.7978 52.1249 43.0363 52.1249Z" fill="white"/>
<path d="M60.4513 54.5992C60.2727 54.5992 60.1816 54.5053 60.1816 54.3212V53.3464H60.155C59.851 53.8123 59.3914 54.1842 58.7797 54.4739C58.168 54.7636 57.4044 54.9046 56.485 54.9046C55.8924 54.9046 55.3301 54.8224 54.7983 54.654C54.2664 54.4857 53.8029 54.239 53.4078 53.9062C53.0127 53.5735 52.6974 53.1546 52.4618 52.6456C52.2263 52.1366 52.1123 51.5298 52.1123 50.829C52.1123 49.3687 52.5758 48.296 53.5028 47.6108C54.4297 46.9257 55.7024 46.5851 57.3209 46.5851H59.9688C60.0752 46.5851 60.1322 46.5303 60.1322 46.4167V45.7708C60.1322 44.9838 59.9232 44.4122 59.5129 44.0599C59.0988 43.7036 58.3428 43.5274 57.2449 43.5274C56.5078 43.5274 55.9038 43.6175 55.4365 43.7936C54.9692 43.9698 54.5817 44.1891 54.2778 44.4475C54.1144 44.5767 53.9891 44.561 53.8979 44.3927L52.8987 42.5565C52.8075 42.4077 52.8265 42.2863 52.9519 42.1963C53.4724 41.8048 54.103 41.4916 54.8401 41.2489C55.5771 41.01 56.4851 40.8887 57.5678 40.8887C59.5471 40.8887 60.9452 41.2606 61.7658 42.0005C62.5864 42.7444 62.9967 43.9307 62.9967 45.5633V54.3291C62.9967 54.5131 62.9055 54.607 62.7269 54.607H60.4589L60.4513 54.5992ZM57.2373 52.3755C58.1718 52.3755 58.8899 52.1915 59.3838 51.8195C59.8776 51.4476 60.1246 50.8721 60.1246 50.093V49.0633C60.1246 48.9498 60.0714 48.895 59.9612 48.895H57.7995C56.827 48.895 56.1165 49.0398 55.6682 49.3256C55.2162 49.6153 54.992 50.0734 54.992 50.7037C54.992 51.8156 55.7404 52.3715 57.2335 52.3715L57.2373 52.3755Z" fill="white"/>
<path d="M73.25 35.9323C73.25 35.7483 73.3412 35.6543 73.5197 35.6543H85.0196C85.1981 35.6543 85.2893 35.7483 85.2893 35.9362V38.3518C85.2893 38.5397 85.1981 38.6337 85.0196 38.6337H76.597C76.4868 38.6337 76.4336 38.6885 76.4336 38.7981V43.3905C76.4336 43.5001 76.4868 43.5588 76.597 43.5588H83.6975C83.876 43.5588 83.9672 43.6528 83.9672 43.8407V46.2563C83.9672 46.4442 83.876 46.5382 83.6975 46.5382H76.597C76.4868 46.5382 76.4336 46.593 76.4336 46.7026V51.4633C76.4336 51.5729 76.4868 51.6277 76.597 51.6277H85.0196C85.1981 51.6277 85.2893 51.7217 85.2893 51.9096V54.3252C85.2893 54.5131 85.1981 54.6071 85.0196 54.6071H73.5197C73.3412 54.6071 73.25 54.5131 73.25 54.3291V35.9401V35.9323Z" fill="white"/>
<path d="M96.6029 54.5992C96.4243 54.5992 96.3332 54.5053 96.3332 54.3213V53.319H96.3066C95.9988 53.781 95.5695 54.1646 95.0111 54.4583C94.4526 54.7558 93.7346 54.9046 92.8532 54.9046C91.7363 54.9046 90.7903 54.6345 90.0191 54.0981C89.2441 53.5617 88.6894 52.7552 88.3475 51.6786C88.1841 51.1579 88.0664 50.6254 87.998 50.0773C87.9258 49.5292 87.8916 48.801 87.8916 47.8927C87.8916 46.9844 87.9258 46.2562 87.998 45.7081C88.0702 45.16 88.1879 44.6276 88.3475 44.1069C88.6894 43.0302 89.2479 42.2237 90.0191 41.6874C90.7941 41.151 91.7363 40.8809 92.8532 40.8809C93.7346 40.8809 94.4564 41.0296 95.0111 41.3272C95.5695 41.6247 95.9988 42.0045 96.3066 42.4664H96.3332V35.9557C96.3332 35.7717 96.4243 35.6777 96.6029 35.6777H99.0875C99.2661 35.6777 99.3572 35.7717 99.3572 35.9557V54.3173C99.3572 54.5013 99.2661 54.5953 99.0875 54.5953H96.6029V54.5992ZM93.632 52.1249C94.8933 52.1249 95.7025 51.5494 96.0634 50.3984C96.1546 50.0852 96.223 49.7406 96.2648 49.3687C96.3104 48.9968 96.3332 48.5074 96.3332 47.8927C96.3332 47.2781 96.3104 46.7887 96.2648 46.4167C96.2192 46.0448 96.1508 45.7042 96.0634 45.3871C95.7025 44.2361 94.8933 43.6605 93.632 43.6605C92.3707 43.6605 91.5881 44.2361 91.231 45.3871C91.1398 45.7042 91.0714 46.0448 91.0296 46.4167C90.9841 46.7887 90.9613 47.2781 90.9613 47.8927C90.9613 48.5074 90.9841 48.9968 91.0296 49.3687C91.0752 49.7406 91.1436 50.0812 91.231 50.3984C91.5919 51.5494 92.3935 52.1249 93.632 52.1249Z" fill="white"/>
<path d="M111.29 54.5995C111.112 54.5995 111.021 54.5056 111.021 54.3215V53.3467H110.994C110.633 53.8126 110.189 54.1845 109.657 54.4742C109.125 54.7639 108.445 54.9049 107.617 54.9049C106.914 54.9049 106.287 54.7796 105.74 54.529C105.189 54.2785 104.722 53.93 104.334 53.4837C103.947 53.0374 103.65 52.5167 103.441 51.9138C103.232 51.3109 103.13 50.6492 103.13 49.9249V41.4684C103.13 41.2844 103.221 41.1904 103.4 41.1904H105.884C106.063 41.1904 106.154 41.2844 106.154 41.4684V49.2046C106.154 50.0776 106.352 50.7823 106.75 51.3187C107.146 51.8551 107.757 52.1252 108.585 52.1252C109.36 52.1252 109.957 51.8551 110.379 51.3187C110.8 50.7823 111.013 50.0854 111.013 49.232V41.4684C111.013 41.2844 111.104 41.1904 111.283 41.1904H113.767C113.946 41.1904 114.037 41.2844 114.037 41.4684V54.3215C114.037 54.5056 113.946 54.5995 113.767 54.5995H111.283H111.29Z" fill="white"/>
<path d="M123.064 54.9046C121.749 54.9046 120.621 54.5914 119.675 53.9572C118.729 53.3268 118.068 52.4107 117.692 51.2049C117.422 50.371 117.285 49.2669 117.285 47.8927C117.285 46.5186 117.418 45.4145 117.692 44.5806C118.068 43.3748 118.729 42.4586 119.675 41.8244C120.621 41.1941 121.749 40.877 123.064 40.877C124.036 40.877 124.899 41.061 125.655 41.4329C126.411 41.8048 127.049 42.3138 127.573 42.9637C127.679 43.1125 127.672 43.2417 127.546 43.3552L125.844 44.886C125.7 44.9995 125.575 44.9799 125.465 44.8312C125.142 44.4592 124.796 44.1734 124.427 43.9699C124.059 43.7663 123.603 43.6645 123.064 43.6645C122.486 43.6645 121.988 43.8093 121.567 44.0951C121.141 44.3848 120.834 44.8233 120.636 45.4145C120.53 45.7473 120.457 46.1153 120.419 46.5146C120.381 46.914 120.366 47.372 120.366 47.8927C120.366 48.4134 120.385 48.8754 120.419 49.2826C120.454 49.6898 120.526 50.0617 120.636 50.3945C120.834 50.97 121.145 51.4006 121.567 51.6904C121.988 51.9801 122.49 52.121 123.064 52.121C123.603 52.121 124.059 52.0192 124.427 51.8156C124.796 51.612 125.142 51.3263 125.465 50.9543C125.575 50.8251 125.7 50.8134 125.844 50.9269L127.546 52.4577C127.653 52.5517 127.664 52.6809 127.573 52.8492C127.053 53.4795 126.414 53.9807 125.655 54.3526C124.899 54.7245 124.032 54.9085 123.064 54.9085V54.9046Z" fill="white"/>
<path d="M138.074 54.5992C137.896 54.5992 137.805 54.5053 137.805 54.3212V53.3464H137.778C137.474 53.8123 137.014 54.1842 136.403 54.4739C135.791 54.7636 135.027 54.9046 134.108 54.9046C133.515 54.9046 132.953 54.8224 132.421 54.654C131.889 54.4857 131.426 54.239 131.031 53.9062C130.636 53.5735 130.32 53.1546 130.085 52.6456C129.849 52.1366 129.735 51.5298 129.735 50.829C129.735 49.3687 130.199 48.296 131.126 47.6108C132.053 46.9257 133.325 46.5851 134.944 46.5851H137.592C137.698 46.5851 137.755 46.5303 137.755 46.4167V45.7708C137.755 44.9838 137.546 44.4122 137.136 44.0599C136.722 43.7036 135.966 43.5274 134.868 43.5274C134.131 43.5274 133.527 43.6175 133.06 43.7936C132.592 43.9698 132.205 44.1891 131.901 44.4475C131.737 44.5767 131.612 44.561 131.521 44.3927L130.522 42.5565C130.431 42.4077 130.45 42.2863 130.575 42.1963C131.095 41.8048 131.726 41.4916 132.463 41.2489C133.2 41.01 134.108 40.8887 135.191 40.8887C137.17 40.8887 138.568 41.2606 139.389 42.0005C140.209 42.7444 140.62 43.9307 140.62 45.5633V54.3291C140.62 54.5131 140.529 54.607 140.35 54.607H138.082L138.074 54.5992ZM134.86 52.3755C135.795 52.3755 136.513 52.1915 137.007 51.8195C137.501 51.4476 137.748 50.8721 137.748 50.093V49.0633C137.748 48.9498 137.694 48.895 137.584 48.895H135.423C134.45 48.895 133.74 49.0398 133.291 49.3256C132.839 49.6153 132.615 50.0734 132.615 50.7037C132.615 51.8156 133.363 52.3715 134.857 52.3715L134.86 52.3755Z" fill="white"/>
<path d="M148.252 54.7683C146.937 54.7683 146.007 54.4434 145.456 53.7935C144.905 53.1436 144.631 52.1609 144.631 50.8455V43.7788C144.631 43.6691 144.578 43.6104 144.468 43.6104H143.606C143.427 43.6104 143.336 43.5165 143.336 43.3324V41.4689C143.336 41.2849 143.427 41.1909 143.606 41.1909H144.468C144.578 41.1909 144.631 41.1361 144.631 41.0226V37.3502C144.631 37.1662 144.719 37.0723 144.901 37.0723H147.386C147.564 37.0723 147.655 37.1662 147.655 37.3502V41.0226C147.655 41.1322 147.709 41.1909 147.819 41.1909H149.547C149.726 41.1909 149.817 41.2849 149.817 41.4689V43.3324C149.817 43.5165 149.726 43.6104 149.547 43.6104H147.819C147.709 43.6104 147.655 43.6652 147.655 43.7788V50.7358C147.655 51.2174 147.754 51.5462 147.952 51.7224C148.149 51.8986 148.457 51.9847 148.871 51.9847H149.547C149.726 51.9847 149.817 52.0787 149.817 52.2627V54.4904C149.817 54.6744 149.726 54.7683 149.547 54.7683H148.252Z" fill="white"/>
<path d="M153.384 38.6571C153.205 38.6571 153.114 38.5631 153.114 38.3791V35.9596C153.114 35.7756 153.205 35.6816 153.384 35.6816H155.869C156.047 35.6816 156.138 35.7756 156.138 35.9596V38.3791C156.138 38.5631 156.047 38.6571 155.869 38.6571H153.384ZM153.384 54.5992C153.205 54.5992 153.114 54.5053 153.114 54.3212V41.4681C153.114 41.2841 153.205 41.1901 153.384 41.1901H155.869C156.047 41.1901 156.138 41.2841 156.138 41.4681V54.3212C156.138 54.5053 156.047 54.5992 155.869 54.5992H153.384Z" fill="white"/>
<path d="M165.18 54.9046C163.85 54.9046 162.711 54.5797 161.765 53.9298C160.819 53.2799 160.169 52.3716 159.808 51.2049C159.664 50.7233 159.554 50.2379 159.485 49.7446C159.413 49.2513 159.379 48.6366 159.379 47.8927C159.379 47.1489 159.413 46.5342 159.485 46.0409C159.557 45.5515 159.664 45.0622 159.808 44.5806C160.169 43.4139 160.819 42.5017 161.765 41.8518C162.711 41.2019 163.85 40.877 165.18 40.877C166.51 40.877 167.623 41.2019 168.569 41.8518C169.515 42.5017 170.165 43.41 170.525 44.5806C170.67 45.0622 170.776 45.5515 170.848 46.0409C170.921 46.5342 170.955 47.1489 170.955 47.8927C170.955 48.6366 170.917 49.2513 170.848 49.7446C170.776 50.2379 170.67 50.7233 170.525 51.2049C170.165 52.3716 169.511 53.2838 168.569 53.9298C167.623 54.5797 166.495 54.9046 165.18 54.9046ZM165.18 52.1249C165.792 52.1249 166.301 51.9722 166.707 51.6669C167.114 51.3615 167.414 50.9308 167.612 50.371C167.718 50.0186 167.79 49.6624 167.828 49.2982C167.866 48.9381 167.881 48.4683 167.881 47.8927C167.881 47.3172 167.862 46.8552 167.828 46.5029C167.79 46.1505 167.722 45.7904 167.612 45.4184C167.414 44.8625 167.11 44.4318 166.707 44.1265C166.305 43.8211 165.796 43.6684 165.18 43.6684C164.565 43.6684 164.056 43.8211 163.641 44.1265C163.227 44.4318 162.92 44.8625 162.722 45.4184C162.616 45.7904 162.544 46.1505 162.506 46.5029C162.468 46.8552 162.452 47.3211 162.452 47.8927C162.452 48.4643 162.471 48.9341 162.506 49.2982C162.54 49.6584 162.612 50.0186 162.722 50.371C162.92 50.9269 163.227 51.3576 163.641 51.6669C164.056 51.9722 164.568 52.1249 165.18 52.1249Z" fill="white"/>
<path d="M182.432 54.5992C182.253 54.5992 182.162 54.5053 182.162 54.3213V46.5851C182.162 45.712 181.953 45.0073 181.539 44.471C181.125 43.9346 180.513 43.6645 179.704 43.6645C178.895 43.6645 178.298 43.9346 177.869 44.471C177.436 45.0073 177.223 45.716 177.223 46.5851V54.3213C177.223 54.5053 177.132 54.5992 176.954 54.5992H174.469C174.29 54.5992 174.199 54.5053 174.199 54.3213V41.4681C174.199 41.2841 174.29 41.1901 174.469 41.1901H176.954C177.132 41.1901 177.223 41.2841 177.223 41.4681V42.443H177.25C177.539 42.0162 177.964 41.6482 178.53 41.3428C179.096 41.0375 179.81 40.8848 180.677 40.8848C181.379 40.8848 182.006 41.01 182.553 41.2606C183.1 41.5112 183.575 41.8596 183.97 42.302C184.366 42.7483 184.669 43.273 184.875 43.8759C185.08 44.4788 185.186 45.1404 185.186 45.8647V54.3252C185.186 54.5092 185.095 54.6031 184.916 54.6031H182.432V54.5992Z" fill="white"/>
<path d="M243.712 0.00391506C243.681 0.00391506 243.651 0.00391506 243.621 0.00783012C243.56 0.00783012 243.499 0.00391506 243.438 0.00391506H230.077C221.556 0.00391506 214.497 6.55381 213.38 15.026H204.494C201.88 15.026 199.76 12.8414 199.76 10.1478V9.58015C199.76 6.90225 201.869 4.71765 204.464 4.70199C204.475 4.70199 204.486 4.70199 204.498 4.70199H210.922C212.179 4.70199 213.201 3.64884 213.201 2.35295C213.201 1.05707 212.179 0.00391506 210.922 0.00391506H204.498C199.377 0.00391506 195.209 4.29874 195.209 9.57624V10.1439C195.209 15.4332 199.369 19.7162 204.498 19.7162H213.224V42.3492C213.224 42.682 213.319 43.003 213.494 43.281L224.105 60.0022L234.716 43.281C234.89 43.003 234.985 42.6781 234.985 42.3492V26.8926C234.985 25.6202 234.062 24.4809 232.827 24.4143C231.513 24.3438 230.426 25.4205 230.426 26.7594V40.9476C230.426 41.2804 230.332 41.6014 230.157 41.8794L224.101 51.4204L218.045 41.8794C217.871 41.6014 217.776 41.2765 217.776 40.9476V19.7123H243.708C248.841 19.7123 252.997 15.4253 252.997 10.14V9.57232C252.997 4.29482 248.829 0 243.708 0L243.712 0.00391506ZM243.435 15.026H217.988C219.06 9.15733 224.071 4.70199 230.073 4.70199H243.435C246.196 4.70199 248.446 7.01579 248.446 9.86595C248.446 12.7161 246.2 15.0299 243.435 15.0299V15.026Z" fill="white"/>
<path d="M221.825 26.7514V40.9983H226.384V26.7514C226.384 25.4555 225.362 24.4023 224.105 24.4023C222.847 24.4023 221.825 25.4555 221.825 26.7514Z" fill="white"/>
</svg>
