<svg width="111" height="100" viewBox="0 0 111 100" fill="none" xmlns="http://www.w3.org/2000/svg">
<g clip-path="url(#clip0_528_191)">
<mask id="path-1-inside-1_528_191" fill="white">
<path d="M63.9703 35.508C65.2586 34.4005 66.1708 33.6089 67.0921 32.8283C68.9284 31.2685 70.9108 29.9446 73.2261 29.1976C78.8179 27.3952 83.5337 30.6522 83.7371 36.5414C83.8931 40.9591 82.383 44.9588 80.2181 48.705C77.416 53.5546 73.6961 57.6497 69.2268 60.9953C63.2869 65.44 57.2215 69.7097 51.1954 74.0361C49.3559 75.3544 47.5087 76.668 45.5945 77.8754C44.2583 78.7187 43.1155 78.168 42.7665 76.6393C41.0294 69.0005 39.7359 61.2959 39.2011 53.4848C38.5804 44.4332 39.6522 35.6303 43.1033 27.2112C44.2572 24.3965 45.7217 21.7776 48.0973 19.7708C52.4772 16.0656 57.0781 16.5052 60.5851 21.0581C62.8301 23.9744 63.6438 27.3921 63.8263 30.9862C63.8953 32.3383 63.9179 33.6877 63.9727 35.5042L63.9703 35.508ZM45.6942 73.2306C46.288 73.0201 46.8017 72.9452 47.1869 72.6829C54.1935 67.975 61.1282 63.1685 67.7257 57.894C72.1175 54.3824 75.625 50.148 78.2162 45.1654C79.5694 42.5615 80.4183 39.7883 80.3595 36.8309C80.2812 33.0632 77.7802 31.3259 74.2121 32.4527C72.1203 33.1173 70.4002 34.3993 68.7961 35.8289C66.7136 37.6855 64.9862 39.8459 63.531 42.2206C62.8742 43.2956 62.2505 44.3863 61.6244 45.4807C61.3113 46.0279 61.0467 46.6004 60.7183 47.1379C59.9957 48.3258 59.1107 48.7515 58.3058 48.3449C57.5124 47.9454 57.2191 47.0423 57.5788 45.6734C57.9635 44.2139 58.4532 42.7833 58.8973 41.34C59.7851 38.4372 60.3891 35.4829 60.4531 32.4328C60.5064 29.7482 60.115 27.1395 58.893 24.7089C56.4422 19.8329 52.5051 19.3864 49.1232 23.6256C47.4601 25.7095 46.3075 28.0889 45.4247 30.6013C43.0082 37.4655 42.1178 44.5531 42.4962 51.8134C42.8358 58.379 43.7634 64.8793 45.0822 71.3285C45.2074 71.9288 45.455 72.5052 45.6956 73.2369L45.6942 73.2306Z"/>
</mask>
<path d="M63.9703 35.508C65.2586 34.4005 66.1708 33.6089 67.0921 32.8283C68.9284 31.2685 70.9108 29.9446 73.2261 29.1976C78.8179 27.3952 83.5337 30.6522 83.7371 36.5414C83.8931 40.9591 82.383 44.9588 80.2181 48.705C77.416 53.5546 73.6961 57.6497 69.2268 60.9953C63.2869 65.44 57.2215 69.7097 51.1954 74.0361C49.3559 75.3544 47.5087 76.668 45.5945 77.8754C44.2583 78.7187 43.1155 78.168 42.7665 76.6393C41.0294 69.0005 39.7359 61.2959 39.2011 53.4848C38.5804 44.4332 39.6522 35.6303 43.1033 27.2112C44.2572 24.3965 45.7217 21.7776 48.0973 19.7708C52.4772 16.0656 57.0781 16.5052 60.5851 21.0581C62.8301 23.9744 63.6438 27.3921 63.8263 30.9862C63.8953 32.3383 63.9179 33.6877 63.9727 35.5042L63.9703 35.508ZM45.6942 73.2306C46.288 73.0201 46.8017 72.9452 47.1869 72.6829C54.1935 67.975 61.1282 63.1685 67.7257 57.894C72.1175 54.3824 75.625 50.148 78.2162 45.1654C79.5694 42.5615 80.4183 39.7883 80.3595 36.8309C80.2812 33.0632 77.7802 31.3259 74.2121 32.4527C72.1203 33.1173 70.4002 34.3993 68.7961 35.8289C66.7136 37.6855 64.9862 39.8459 63.531 42.2206C62.8742 43.2956 62.2505 44.3863 61.6244 45.4807C61.3113 46.0279 61.0467 46.6004 60.7183 47.1379C59.9957 48.3258 59.1107 48.7515 58.3058 48.3449C57.5124 47.9454 57.2191 47.0423 57.5788 45.6734C57.9635 44.2139 58.4532 42.7833 58.8973 41.34C59.7851 38.4372 60.3891 35.4829 60.4531 32.4328C60.5064 29.7482 60.115 27.1395 58.893 24.7089C56.4422 19.8329 52.5051 19.3864 49.1232 23.6256C47.4601 25.7095 46.3075 28.0889 45.4247 30.6013C43.0082 37.4655 42.1178 44.5531 42.4962 51.8134C42.8358 58.379 43.7634 64.8793 45.0822 71.3285C45.2074 71.9288 45.455 72.5052 45.6956 73.2369L45.6942 73.2306Z" fill="#F8B21F"/>
<path d="M63.9703 35.508L52.9753 28.5718L72.4447 45.3662L63.9703 35.508ZM67.0921 32.8283L75.4958 42.7469L75.5019 42.7417L75.508 42.7365L67.0921 32.8283ZM73.2261 29.1976L69.2378 16.8245L69.2347 16.8255L73.2261 29.1976ZM83.7371 36.5414L70.7448 36.9901L70.7452 37.0002L83.7371 36.5414ZM80.2181 48.705L68.9625 42.2003L68.9619 42.2012L80.2181 48.705ZM69.2268 60.9953L77.0153 71.404L77.0174 71.4024L69.2268 60.9953ZM51.1954 74.0361L58.7683 84.6025L58.777 84.5963L51.1954 74.0361ZM45.5945 77.8754L38.6591 66.8799L38.6556 66.8821L45.5945 77.8754ZM42.7665 76.6393L30.0902 79.522L30.0926 79.5324L42.7665 76.6393ZM39.2011 53.4848L52.1707 52.5968L52.1706 52.5954L39.2011 53.4848ZM43.1033 27.2112L31.0748 22.2803L31.0747 22.2805L43.1033 27.2112ZM48.0973 19.7708L56.4864 29.7018L56.4935 29.6957L48.0973 19.7708ZM60.5851 21.0581L70.8863 13.1281L70.884 13.1251L60.5851 21.0581ZM63.8263 30.9862L50.843 31.6455L50.8432 31.6491L63.8263 30.9862ZM63.9727 35.5042L74.9676 42.4404L77.0865 39.0817L76.9667 35.1122L63.9727 35.5042ZM45.6942 73.2306L41.3504 60.9778L30.4229 64.8517L33.0261 76.1496L45.6942 73.2306ZM47.1869 72.6829L39.9366 61.8925L39.9036 61.9147L39.8707 61.937L47.1869 72.6829ZM67.7257 57.894L75.8435 68.0479L75.8442 68.0473L67.7257 57.894ZM78.2162 45.1654L89.7498 51.1633L89.7515 51.1601L78.2162 45.1654ZM80.3595 36.8309L93.3569 36.5726L93.3567 36.5607L80.3595 36.8309ZM74.2121 32.4527L70.2971 20.0562L70.2865 20.0596L70.2759 20.063L74.2121 32.4527ZM68.7961 35.8289L60.1468 26.1238L60.1453 26.1252L68.7961 35.8289ZM63.531 42.2206L52.4466 35.4281L52.442 35.4357L52.4373 35.4433L63.531 42.2206ZM60.7183 47.1379L49.6246 40.3607L49.6181 40.3713L49.6117 40.3819L60.7183 47.1379ZM58.3058 48.3449L64.1686 36.7419L64.1601 36.7377L64.1517 36.7334L58.3058 48.3449ZM57.5788 45.6734L45.0081 42.3601L45.0056 42.3698L57.5788 45.6734ZM58.8973 41.34L71.3223 45.1635L71.3256 45.1528L71.3289 45.1421L58.8973 41.34ZM60.4531 32.4328L73.4503 32.7058L73.4504 32.6982L73.4506 32.6906L60.4531 32.4328ZM58.893 24.7089L47.2776 30.547L47.2784 30.5485L58.893 24.7089ZM49.1232 23.6256L59.2841 31.7346L59.2855 31.7328L49.1232 23.6256ZM45.4247 30.6013L57.687 34.9183L57.6897 34.9106L45.4247 30.6013ZM42.4962 51.8134L55.4789 51.1419L55.4786 51.1368L42.4962 51.8134ZM45.0822 71.3285L32.3458 73.9331L32.3509 73.9581L32.3561 73.9829L45.0822 71.3285ZM45.6956 73.2369L33.3466 77.2992L58.3637 70.3179L45.6956 73.2369ZM63.9703 35.508L72.4447 45.3662C73.794 44.2063 74.6213 43.4877 75.4958 42.7469L67.0921 32.8283L58.6884 22.9097C57.7203 23.73 56.7232 24.5947 55.4958 25.6499L63.9703 35.508ZM67.0921 32.8283L75.508 42.7365C76.6374 41.7771 77.1286 41.5984 77.2175 41.5697L73.2261 29.1976L69.2347 16.8255C64.6931 18.2907 61.2193 20.7599 58.6762 22.9201L67.0921 32.8283ZM73.2261 29.1976L77.2144 41.5707C76.753 41.7194 74.9915 41.9888 73.0746 40.6542C71.1385 39.3064 70.7631 37.5191 70.7448 36.9901L83.7371 36.5414L96.7293 36.0926C96.5077 29.6744 93.6726 23.314 87.9299 19.316C82.2062 15.3313 75.2909 14.8734 69.2378 16.8245L73.2261 29.1976ZM83.7371 36.5414L70.7452 37.0002C70.7823 38.0509 70.4749 39.5832 68.9625 42.2003L80.2181 48.705L91.4737 55.2097C94.2911 50.3345 97.0039 43.8674 96.729 36.0825L83.7371 36.5414ZM80.2181 48.705L68.9619 42.2012C67.0877 45.4451 64.5779 48.2365 61.4362 50.5883L69.2268 60.9953L77.0174 71.4024C82.8144 67.0629 87.7444 61.6641 91.4742 55.2088L80.2181 48.705ZM69.2268 60.9953L61.4384 50.5867C55.6353 54.9289 49.7709 59.0554 43.6138 63.4758L51.1954 74.0361L58.777 84.5963C64.6722 80.364 70.9385 75.951 77.0153 71.404L69.2268 60.9953ZM51.1954 74.0361L43.6224 63.4696C41.7688 64.7981 40.2083 65.9027 38.6591 66.8799L45.5945 77.8754L52.5298 88.8709C54.8091 87.4332 56.9429 85.9108 58.7683 84.6025L51.1954 74.0361ZM45.5945 77.8754L38.6556 66.8821C40.3925 65.7858 44.4558 64.1817 49.1451 66.2919C53.6067 68.2996 55.0618 72.0869 55.4405 73.7461L42.7665 76.6393L30.0926 79.5324C30.8203 82.7203 33.0212 87.5473 38.4755 90.0018C44.1575 92.5587 49.4603 90.8083 52.5333 88.8687L45.5945 77.8754ZM42.7665 76.6393L55.4429 73.7565C53.8132 66.59 52.6482 59.5712 52.1707 52.5968L39.2011 53.4848L26.2314 54.3728C26.8235 63.0206 28.2457 71.411 30.0902 79.522L42.7665 76.6393ZM39.2011 53.4848L52.1706 52.5954C51.6615 45.1714 52.5616 38.4124 55.132 32.1419L43.1033 27.2112L31.0747 22.2805C26.7429 32.8482 25.4992 43.6951 26.2315 54.3742L39.2011 53.4848ZM43.1033 27.2112L55.1319 32.1422C55.935 30.183 56.4096 29.7666 56.4864 29.7018L48.0973 19.7708L39.7083 9.83985C35.0337 13.7886 32.5794 18.6099 31.0748 22.2803L43.1033 27.2112ZM48.0973 19.7708L56.4935 29.6957C56.8231 29.4169 55.6877 30.4868 53.3615 30.2518C51.0035 30.0135 50.0646 28.7034 50.2861 28.991L60.5851 21.0581L70.884 13.1251C67.5986 8.8598 62.6058 5.0535 55.9756 4.3835C49.3772 3.71672 43.7515 6.41945 39.7011 9.84593L48.0973 19.7708ZM60.5851 21.0581L50.2838 28.988C50.3302 29.0483 50.7358 29.5333 50.843 31.6455L63.8263 30.9862L76.8096 30.3268C76.5518 25.251 75.33 18.9005 70.8863 13.1281L60.5851 21.0581ZM63.8263 30.9862L50.8432 31.6491C50.9031 32.8222 50.9168 33.8495 50.9786 35.8962L63.9727 35.5042L76.9667 35.1122C76.9189 33.5258 76.8876 31.8543 76.8094 30.3232L63.8263 30.9862ZM63.9727 35.5042L52.9777 28.568L52.9753 28.5718L63.9703 35.508L74.9652 42.4442L74.9676 42.4404L63.9727 35.5042ZM45.6942 73.2306L50.038 85.4835C49.8686 85.5435 49.7595 85.5745 49.8113 85.5592C49.8603 85.5447 49.8582 85.5455 49.978 85.5104C50.0623 85.4857 50.207 85.4432 50.3719 85.392C50.8937 85.2301 52.6496 84.6907 54.5031 83.4288L47.1869 72.6829L39.8707 61.937C40.6468 61.4086 41.3395 61.0756 41.8112 60.8762C42.2632 60.685 42.6019 60.5801 42.6656 60.5603C42.7051 60.5481 42.7211 60.5436 42.6738 60.5575C42.6619 60.561 42.5249 60.6008 42.4363 60.6271C42.2127 60.6932 41.8167 60.8125 41.3504 60.9778L45.6942 73.2306ZM47.1869 72.6829L54.4373 83.4733C61.5162 78.7168 68.813 73.6686 75.8435 68.0479L67.7257 57.894L59.6079 47.7401C53.4435 52.6684 46.8708 57.2332 39.9366 61.8925L47.1869 72.6829ZM67.7257 57.894L75.8442 68.0473C81.6238 63.426 86.3061 57.7853 89.7498 51.1633L78.2162 45.1654L66.6825 39.1674C64.9439 42.5108 62.6111 45.3388 59.6072 47.7407L67.7257 57.894ZM78.2162 45.1654L89.7515 51.1601C91.8135 47.1923 93.47 42.2624 93.3569 36.5726L80.3595 36.8309L67.3621 37.0892C67.3665 37.3142 67.3253 37.9306 66.6809 39.1706L78.2162 45.1654ZM80.3595 36.8309L93.3567 36.5607C93.2612 31.9683 91.5584 26.0517 86.1001 22.192C80.684 18.3621 74.5926 18.6997 70.2971 20.0562L74.2121 32.4527L78.127 44.8492C77.3997 45.0789 74.3428 45.7218 71.0888 43.4207C67.7926 41.09 67.3794 37.9258 67.3623 37.1011L80.3595 36.8309ZM74.2121 32.4527L70.2759 20.063C65.5648 21.5596 62.2015 24.2926 60.1468 26.1238L68.7961 35.8289L77.4454 45.534C77.9893 45.0493 78.2837 44.8336 78.4273 44.7399C78.544 44.6637 78.437 44.7508 78.1482 44.8425L74.2121 32.4527ZM68.7961 35.8289L60.1453 26.1252C56.9771 28.9495 54.4635 32.1369 52.4466 35.4281L63.531 42.2206L74.6153 49.013C75.5088 47.5549 76.45 46.4214 77.447 45.5327L68.7961 35.8289ZM63.531 42.2206L52.4373 35.4433C51.6665 36.7051 50.9501 37.9596 50.3404 39.0254L61.6244 45.4807L72.9084 51.9361C73.5508 50.813 74.0819 49.8862 74.6246 48.9978L63.531 42.2206ZM61.6244 45.4807L50.3404 39.0254C50.1718 39.3201 50.0283 39.5855 49.9202 39.7888C49.8243 39.969 49.7112 40.1857 49.6672 40.2695C49.53 40.5308 49.5502 40.4825 49.6246 40.3607L60.7183 47.1379L71.8119 53.9152C72.2147 53.2559 72.5314 52.6526 72.6869 52.3564C72.7893 52.1615 72.8216 52.0989 72.8736 52.0011C72.9134 51.9263 72.9204 51.9149 72.9084 51.9361L61.6244 45.4807ZM60.7183 47.1379L49.6117 40.3819C49.9988 39.7456 51.214 37.9569 53.7747 36.6891C56.8507 35.1661 60.742 35.0106 64.1686 36.7419L58.3058 48.3449L52.443 59.9478C56.6744 62.0858 61.4107 61.9207 65.3111 59.9896C68.6961 58.3136 70.7152 55.7182 71.8248 53.894L60.7183 47.1379ZM58.3058 48.3449L64.1517 36.7334C67.0479 38.1916 69.1561 40.8105 70.0107 43.8047C70.7401 46.3603 70.3253 48.3177 70.1521 48.977L57.5788 45.6734L45.0056 42.3698C44.4727 44.3979 44.0246 47.4914 45.0092 50.9407C46.1188 54.8285 48.7703 58.0987 52.4599 59.9563L58.3058 48.3449ZM57.5788 45.6734L70.1495 48.9866C70.4473 47.857 70.7148 47.138 71.3223 45.1635L58.8973 41.34L46.4723 37.5166C46.1916 38.4287 45.4798 40.5707 45.0081 42.3601L57.5788 45.6734ZM58.8973 41.34L71.3289 45.1421C72.45 41.4765 73.3539 37.2954 73.4503 32.7058L60.4531 32.4328L47.456 32.1598C47.4243 33.6705 47.1203 35.3979 46.4657 37.538L58.8973 41.34ZM60.4531 32.4328L73.4506 32.6906C73.532 28.5877 72.9499 23.7269 70.5076 18.8694L58.893 24.7089L47.2784 30.5485C47.2802 30.5521 47.4808 30.9086 47.4557 32.175L60.4531 32.4328ZM58.893 24.7089L70.5084 18.8708C68.3123 14.5016 63.7177 8.71305 55.7992 7.82928C47.812 6.93785 42.0469 11.65 38.9609 15.5183L49.1232 23.6256L59.2855 31.7328C59.5813 31.362 57.4758 34.1778 52.9153 33.6689C48.4236 33.1675 47.0229 30.0402 47.2776 30.547L58.893 24.7089ZM49.1232 23.6256L38.9623 15.5166C36.1141 19.0855 34.3536 22.8941 33.1597 26.2921L45.4247 30.6013L57.6897 34.9106C58.2613 33.2837 58.8061 32.3336 59.2841 31.7346L49.1232 23.6256ZM45.4247 30.6013L33.1624 26.2843C30.13 34.898 29.0556 43.6981 29.5139 52.49L42.4962 51.8134L55.4786 51.1368C55.18 45.4081 55.8864 40.033 57.687 34.9183L45.4247 30.6013ZM42.4962 51.8134L29.5136 52.4849C29.8932 59.8245 30.9242 66.9815 32.3458 73.9331L45.0822 71.3285L57.8186 68.724C56.6025 62.777 55.7784 56.9334 55.4789 51.1419L42.4962 51.8134ZM45.0822 71.3285L32.3561 73.9829C32.5905 75.1065 32.9004 76.023 33.0621 76.4895C33.1366 76.7047 33.2338 76.9757 33.2642 77.0615C33.3116 77.1952 33.3332 77.2583 33.3466 77.2992L45.6956 73.2369L58.0446 69.1746C57.9377 68.8496 57.8381 68.5663 57.7675 68.3674C57.7497 68.3172 57.7326 68.2692 57.7179 68.2278C57.7023 68.1842 57.6901 68.1499 57.6779 68.1156C57.6536 68.0472 57.6393 68.0064 57.6292 67.9774C57.6076 67.9151 57.6258 67.9642 57.6578 68.0716C57.6917 68.1857 57.7501 68.395 57.8084 68.6742L45.0822 71.3285ZM45.6956 73.2369L58.3637 70.3179L58.3623 70.3117L45.6942 73.2306L33.0261 76.1496L33.0276 76.1558L45.6956 73.2369Z" fill="#F8B21F" mask="url(#path-1-inside-1_528_191)"/>
<mask id="path-3-inside-2_528_191" fill="white">
<path d="M88.2915 83.2301C87.6028 83.3276 86.9993 83.5533 86.458 83.4512C86.0227 83.368 85.5837 82.9422 85.2804 82.5647C82.4997 79.1295 79.7371 75.6739 76.9919 72.2079C76.5257 71.6212 76.1118 70.9771 75.7714 70.3102C75.4151 69.6173 75.7069 68.5939 76.3923 68.3827C76.9223 68.2223 77.5706 68.376 78.1507 68.476C78.3588 68.5115 78.562 68.7673 78.7143 68.9592C81.417 72.2972 84.1307 75.6263 86.7931 79.0028C87.413 79.7875 87.9159 80.6899 88.3286 81.5992C88.5081 81.9944 88.3222 82.5526 88.2929 83.2363L88.2915 83.2301Z"/>
</mask>
<path d="M88.2915 83.2301C87.6028 83.3276 86.9993 83.5533 86.458 83.4512C86.0227 83.368 85.5837 82.9422 85.2804 82.5647C82.4997 79.1295 79.7371 75.6739 76.9919 72.2079C76.5257 71.6212 76.1118 70.9771 75.7714 70.3102C75.4151 69.6173 75.7069 68.5939 76.3923 68.3827C76.9223 68.2223 77.5706 68.376 78.1507 68.476C78.3588 68.5115 78.562 68.7673 78.7143 68.9592C81.417 72.2972 84.1307 75.6263 86.7931 79.0028C87.413 79.7875 87.9159 80.6899 88.3286 81.5992C88.5081 81.9944 88.3222 82.5526 88.2929 83.2363L88.2915 83.2301Z" fill="#F8B21F"/>
<path d="M88.2915 83.2301L100.961 80.316L98.2856 68.686L86.4696 70.3584L88.2915 83.2301ZM86.458 83.4512L84.0191 96.2203L84.0335 96.2231L84.048 96.2258L86.458 83.4512ZM85.2804 82.5647L95.415 74.4228L95.3999 74.404L95.3848 74.3853L85.2804 82.5647ZM76.9919 72.2079L87.1825 64.1363L87.1762 64.1283L87.1698 64.1202L76.9919 72.2079ZM75.7714 70.3102L87.3499 64.3994L87.3412 64.3824L87.3325 64.3654L75.7714 70.3102ZM76.3923 68.3827L72.6279 55.9397L72.5956 55.9494L72.5634 55.9594L76.3923 68.3827ZM78.1507 68.476L75.9418 81.287L75.9523 81.2888L75.9628 81.2906L78.1507 68.476ZM78.7143 68.9592L68.5337 77.0435L68.572 77.0917L68.6108 77.1396L78.7143 68.9592ZM86.7931 79.0028L76.5848 87.0521L76.5923 87.0616L86.7931 79.0028ZM88.3286 81.5992L76.4908 86.9719L76.4928 86.9764L88.3286 81.5992ZM88.2929 83.2363L75.6237 86.1504L101.281 83.7923L88.2929 83.2363ZM86.4696 70.3584C85.891 70.4403 85.4094 70.5378 85.1731 70.5863C85.1109 70.5991 85.053 70.6112 85.0139 70.6194C84.9689 70.6288 84.9463 70.6335 84.9254 70.6378C84.8828 70.6466 84.9129 70.64 84.9749 70.6287C85.0774 70.6099 85.514 70.5306 86.1229 70.4952C86.7545 70.4586 87.7148 70.4589 88.8681 70.6765L84.048 96.2258C86.7667 96.7387 89.0069 96.3228 89.6641 96.2023C89.8783 96.163 90.0631 96.1254 90.1775 96.1018C90.4833 96.0387 90.1916 96.0984 90.4081 96.0539C90.4955 96.0359 90.3476 96.0686 90.1133 96.1018L86.4696 70.3584ZM88.8969 70.682C91.6823 71.214 93.4357 72.5565 94.0134 73.0256C94.7427 73.6176 95.1971 74.1515 95.415 74.4228L75.1459 90.7065C75.667 91.3553 76.4926 92.2909 77.626 93.211C78.6079 94.0081 80.7984 95.6052 84.0191 96.2203L88.8969 70.682ZM95.3848 74.3853C92.6371 70.991 89.9036 67.5718 87.1825 64.1363L66.8012 80.2795C69.5706 83.7759 72.3622 87.2679 75.1761 90.7441L95.3848 74.3853ZM87.1698 64.1202C87.2112 64.1724 87.2432 64.2179 87.2691 64.2582C87.295 64.2984 87.3218 64.3443 87.3499 64.3994L64.1929 76.2211C64.9243 77.6538 65.8065 79.0277 66.8139 80.2955L87.1698 64.1202ZM87.3325 64.3654C88.9279 67.4681 88.8509 70.6143 88.1106 73.0074C87.4019 75.2986 85.2438 79.258 80.2213 80.806L72.5634 55.9594C66.8554 57.7186 64.2087 62.2953 63.2718 65.3243C62.3034 68.4551 62.2585 72.4595 64.2103 76.255L87.3325 64.3654ZM80.1568 80.8257C78.0311 81.4688 76.3451 81.3068 75.926 81.2638C75.6485 81.2354 75.4688 81.2028 75.4978 81.2078C75.5094 81.2098 75.5305 81.2135 75.6124 81.2284C75.6756 81.2398 75.805 81.2634 75.9418 81.287L80.3596 55.665C80.6524 55.7155 79.4712 55.4911 78.5794 55.3996C77.5586 55.2949 75.2836 55.1362 72.6279 55.9397L80.1568 80.8257ZM75.9628 81.2906C73.8452 80.929 72.2846 80.1121 71.3689 79.5344C70.4375 78.9468 69.7865 78.3609 69.4316 78.0189C68.7985 77.4086 68.3579 76.8221 68.5337 77.0435L88.8949 60.8749C88.8744 60.8492 88.7052 60.6343 88.5031 60.3962C88.2974 60.1538 87.9443 59.7513 87.4752 59.2991C86.9254 58.7692 84.4471 56.3629 80.3386 55.6614L75.9628 81.2906ZM68.6108 77.1396C71.3516 80.5248 73.9896 83.7608 76.5848 87.0521L97.0013 70.9534C94.2718 67.4918 91.4823 64.0697 88.8178 60.7788L68.6108 77.1396ZM76.5923 87.0616C76.5266 86.9784 76.4804 86.913 76.4517 86.8703C76.4229 86.8276 76.4082 86.8025 76.4058 86.7984C76.4034 86.7943 76.4106 86.8063 76.4262 86.8369C76.4417 86.8673 76.4635 86.9118 76.4908 86.9719L100.166 76.2265C99.4734 74.6995 98.4632 72.8039 96.9938 70.944L76.5923 87.0616ZM76.4928 86.9764C75.7036 85.2391 75.4876 83.6938 75.4278 82.7303C75.3711 81.8158 75.4414 81.1368 75.4548 81.0034C75.4642 80.9108 75.4716 80.8555 75.4657 80.9026C75.4621 80.9308 75.4608 80.9409 75.4534 80.9994C75.4476 81.0448 75.4394 81.11 75.4305 81.1833C75.3961 81.467 75.3333 82.0145 75.3048 82.6804L101.281 83.7923C101.267 84.1163 101.238 84.3376 101.242 84.312C101.247 84.2665 101.244 84.2945 101.263 84.1416C101.276 84.0425 101.3 83.8456 101.323 83.6157C101.364 83.2079 101.449 82.2726 101.378 81.1209C101.303 79.9202 101.043 78.1568 100.164 76.222L76.4928 86.9764ZM100.962 80.3222L100.961 80.316L75.6223 86.1442L75.6237 86.1504L100.962 80.3222Z" fill="#F8B21F" mask="url(#path-3-inside-2_528_191)"/>
<mask id="path-5-inside-3_528_191" fill="white">
<path d="M89.8801 52.279C89.7548 51.8488 89.3601 51.2169 89.4837 50.715C89.6001 50.2246 90.1822 49.6928 90.6849 49.4993C91.2298 49.2898 91.9265 49.3836 92.5451 49.4653C96.6826 50.0275 100.816 50.6136 104.954 51.2083C105.446 51.279 106 51.3521 106.383 51.6203C106.751 51.8788 107.192 52.4447 107.134 52.8013C107.047 53.3373 106.649 53.9264 106.206 54.2638C105.859 54.524 105.231 54.5264 104.748 54.4667C100.104 53.8829 95.4642 53.259 90.8217 52.6389C90.581 52.6041 90.3562 52.4676 89.8878 52.2838L89.8801 52.279Z"/>
</mask>
<path d="M89.8801 52.279C89.7548 51.8488 89.3601 51.2169 89.4837 50.715C89.6001 50.2246 90.1822 49.6928 90.6849 49.4993C91.2298 49.2898 91.9265 49.3836 92.5451 49.4653C96.6826 50.0275 100.816 50.6136 104.954 51.2083C105.446 51.279 106 51.3521 106.383 51.6203C106.751 51.8788 107.192 52.4447 107.134 52.8013C107.047 53.3373 106.649 53.9264 106.206 54.2638C105.859 54.524 105.231 54.5264 104.748 54.4667C100.104 53.8829 95.4642 53.259 90.8217 52.6389C90.581 52.6041 90.3562 52.4676 89.8878 52.2838L89.8801 52.279Z" fill="#F8B21F"/>
<path d="M89.8801 52.279L77.3991 55.9155L78.7772 60.6454L82.9439 63.2739L89.8801 52.279ZM89.4837 50.715L102.106 53.824L102.12 53.7707L102.132 53.7172L89.4837 50.715ZM90.6849 49.4993L86.0205 37.3649L86.0142 37.3673L90.6849 49.4993ZM92.5451 49.4653L94.2955 36.5837L94.2713 36.5804L94.2471 36.5772L92.5451 49.4653ZM104.954 51.2083L106.805 38.3407L106.803 38.3405L104.954 51.2083ZM106.383 51.6203L113.861 40.9863L113.851 40.979L113.84 40.9718L106.383 51.6203ZM107.134 52.8013L94.3066 50.6874L94.3025 50.7121L94.2986 50.7368L107.134 52.8013ZM106.206 54.2638L114.013 64.6581L114.046 64.6337L114.078 64.6091L106.206 54.2638ZM104.748 54.4667L103.127 67.3652L103.14 67.3669L103.154 67.3686L104.748 54.4667ZM90.8217 52.6389L88.9604 65.505L89.0304 65.5151L89.1005 65.5245L90.8217 52.6389ZM89.8878 52.2838L82.9516 63.2788L83.9932 63.9358L85.1396 64.3857L89.8878 52.2838ZM102.361 48.6424C102.105 47.7644 101.791 47.0283 101.763 46.9609C101.644 46.6707 101.74 46.8977 101.819 47.1178C101.91 47.369 102.159 48.0865 102.317 49.0814C102.475 50.0841 102.609 51.7858 102.106 53.824L76.861 47.606C76.2971 49.8952 76.4336 51.864 76.6353 53.1399C76.8356 54.4078 77.1687 55.4043 77.358 55.9299C77.4612 56.2165 77.556 56.4549 77.6175 56.6069C77.649 56.6845 77.6768 56.752 77.6954 56.7969C77.7268 56.8728 77.7155 56.8452 77.7325 56.8865C77.8101 57.0743 77.5923 56.5785 77.3991 55.9155L102.361 48.6424ZM102.132 53.7172C101.401 56.7991 99.7188 58.614 99.0384 59.2807C98.2142 60.0884 97.0235 60.9891 95.3556 61.6313L86.0142 37.3673C83.8436 38.203 82.1105 39.4664 80.8405 40.7109C79.7143 41.8146 77.683 44.1406 76.8351 47.7129L102.132 53.7172ZM95.3493 61.6337C93.3853 62.3886 91.7838 62.3813 91.2837 62.3696C90.7755 62.3577 90.3905 62.2936 90.843 62.3534L94.2471 36.5772C94.0811 36.5553 93.0385 36.4035 91.8911 36.3767C90.7517 36.35 88.5294 36.4005 86.0205 37.3649L95.3493 61.6337ZM90.7946 62.3469C94.8845 62.9027 98.9804 63.4834 103.105 64.0761L106.803 38.3405C102.651 37.7438 98.4807 37.1524 94.2955 36.5837L90.7946 62.3469ZM103.104 64.076C103.545 64.1394 103.115 64.089 102.621 63.968C102.12 63.8455 100.603 63.4436 98.9258 62.2688L113.84 40.9718C111.78 39.5288 109.795 38.9562 108.798 38.7125C107.808 38.4703 106.855 38.348 106.805 38.3407L103.104 64.076ZM98.9051 62.2543C97.7014 61.4078 96.8309 60.455 96.1808 59.5026C95.8278 58.9855 95.3021 58.1217 94.8718 56.935C94.4849 55.8683 93.8277 53.5937 94.3066 50.6874L119.961 54.9151C120.469 51.8306 119.779 49.3515 119.314 48.0703C118.806 46.6692 118.158 45.5809 117.656 44.8454C116.707 43.4563 115.432 42.0913 113.861 40.9863L98.9051 62.2543ZM94.2986 50.7368C94.6122 48.7872 95.3473 47.3828 95.8865 46.5488C96.451 45.6756 97.2367 44.7529 98.3332 43.9185L114.078 64.6091C116.65 62.6518 119.256 59.2972 119.969 54.8658L94.2986 50.7368ZM98.398 43.8695C99.7885 42.8251 101.12 42.2864 102.033 42.0019C102.961 41.713 103.739 41.5984 104.255 41.5477C105.243 41.4504 105.98 41.5201 106.343 41.5649L103.154 67.3686C103.999 67.473 105.291 67.5713 106.801 67.4227C108.04 67.3008 111.064 66.8736 114.013 64.6581L98.398 43.8695ZM106.37 41.5683C101.787 40.9922 97.2053 40.3761 92.5429 39.7534L89.1005 65.5245C93.723 66.1419 98.4212 66.7737 103.127 67.3652L106.37 41.5683ZM92.6831 39.7729C93.5449 39.8976 94.2412 40.0932 94.7185 40.2509C95.1583 40.3962 95.4736 40.5311 95.5176 40.5498C95.5494 40.5633 95.566 40.5707 95.5273 40.5538C95.5046 40.5439 95.4284 40.5105 95.3531 40.478C95.1828 40.4044 94.9363 40.2998 94.6361 40.182L85.1396 64.3857C85.0735 64.3597 85.0307 64.3411 85.0419 64.3459C85.0573 64.3526 85.0662 64.3565 85.124 64.3817C85.1659 64.4 85.2584 64.4404 85.3627 64.4847C85.651 64.607 87.0725 65.2319 88.9604 65.505L92.6831 39.7729ZM96.824 41.2889L96.8164 41.284L82.9439 63.2739L82.9516 63.2788L96.824 41.2889Z" fill="#F8B21F" mask="url(#path-5-inside-3_528_191)"/>
<mask id="path-7-inside-4_528_191" fill="white">
<path d="M29.4186 43.9572C28.8179 44.3655 28.4551 44.7537 28.023 44.8694C27.3031 45.0589 26.5343 45.0792 25.7872 45.1505C23.9073 45.3263 22.0235 45.4571 20.1508 45.664C17.904 45.9116 15.6595 46.1553 13.5848 47.1923C12.8005 47.5858 12.0038 47.1577 11.6964 46.4638C11.3392 45.6534 11.5996 44.9772 12.1812 44.4291C12.5392 44.0911 12.9868 43.815 13.4421 43.6287C14.1328 43.341 14.8518 43.034 15.5861 42.9493C19.2016 42.512 22.8272 42.1182 26.4543 41.7733C27.0537 41.7152 27.8257 41.7661 28.2657 42.0968C28.7699 42.4788 28.9962 43.2332 29.4186 43.9572Z"/>
</mask>
<path d="M29.4186 43.9572C28.8179 44.3655 28.4551 44.7537 28.023 44.8694C27.3031 45.0589 26.5343 45.0792 25.7872 45.1505C23.9073 45.3263 22.0235 45.4571 20.1508 45.664C17.904 45.9116 15.6595 46.1553 13.5848 47.1923C12.8005 47.5858 12.0038 47.1577 11.6964 46.4638C11.3392 45.6534 11.5996 44.9772 12.1812 44.4291C12.5392 44.0911 12.9868 43.815 13.4421 43.6287C14.1328 43.341 14.8518 43.034 15.5861 42.9493C19.2016 42.512 22.8272 42.1182 26.4543 41.7733C27.0537 41.7152 27.8257 41.7661 28.2657 42.0968C28.7699 42.4788 28.9962 43.2332 29.4186 43.9572Z" fill="#F8B21F"/>
<path d="M29.4186 43.9572L36.727 54.7083L46.7626 47.8864L40.6469 37.4055L29.4186 43.9572ZM28.023 44.8694L31.3318 57.4413L31.3583 57.4343L31.3849 57.4272L28.023 44.8694ZM25.7872 45.1505L26.9976 58.094L27.0092 58.0929L27.0207 58.0918L25.7872 45.1505ZM20.1508 45.664L21.5745 58.5859L21.5785 58.5854L20.1508 45.664ZM13.5848 47.1923L7.7728 35.5639L7.76377 35.5684L7.75475 35.5729L13.5848 47.1923ZM11.6964 46.4638L-0.199678 51.7062L-0.194747 51.7174L-0.189794 51.7286L11.6964 46.4638ZM12.1812 44.4291L21.0966 53.8905L21.1064 53.8812L12.1812 44.4291ZM13.4421 43.6287L18.3648 55.6606L18.4025 55.6452L18.4401 55.6295L13.4421 43.6287ZM15.5861 42.9493L17.0758 55.8636L17.1115 55.8595L17.1471 55.8552L15.5861 42.9493ZM26.4543 41.7733L27.6852 54.7149L27.6958 54.7138L27.7065 54.7128L26.4543 41.7733ZM28.2657 42.0968L36.1151 31.7341L36.0963 31.7198L36.0774 31.7056L28.2657 42.0968ZM22.1102 33.206C21.6759 33.5013 21.3264 33.7647 21.1189 33.9231C21.0377 33.9851 20.9153 34.0795 20.9054 34.0871C20.863 34.1196 20.8836 34.1034 20.9281 34.0705C20.994 34.0218 21.3706 33.7421 21.9289 33.4256C22.5192 33.0911 23.4459 32.6369 24.6611 32.3116L31.3849 57.4272C34.1096 56.6977 35.9635 55.2888 36.3871 54.9755C36.5415 54.8614 36.6746 54.7593 36.7486 54.7025C36.8551 54.6206 36.8529 54.622 36.897 54.5883C36.9399 54.5555 36.861 54.6173 36.727 54.7083L22.1102 33.206ZM24.7142 32.2975C25.0255 32.2156 25.2699 32.1707 25.4162 32.1473C25.4908 32.1353 25.5467 32.1278 25.5793 32.1237C25.6117 32.1197 25.6264 32.1183 25.6174 32.1192C25.6078 32.1202 25.5826 32.1226 25.5324 32.1269C25.4799 32.1313 25.419 32.1362 25.3264 32.1436C25.2446 32.15 25.122 32.1596 25.0002 32.1697C24.8734 32.1801 24.7207 32.1932 24.5536 32.2091L27.0207 58.0918C27.0803 58.0861 27.1514 58.0804 27.3746 58.0627C27.556 58.0484 27.8716 58.0236 28.2132 57.9893C28.8855 57.9219 30.023 57.7857 31.3318 57.4413L24.7142 32.2975ZM24.5767 32.2069C23.1715 32.3384 20.6788 32.5266 18.7231 32.7427L21.5785 58.5854C23.3683 58.3877 24.643 58.3142 26.9976 58.094L24.5767 32.2069ZM18.7271 32.7422C16.8732 32.9465 12.2667 33.3178 7.7728 35.5639L19.3968 58.8208C19.1128 58.9627 19.0193 58.9468 19.3666 58.8769C19.5435 58.8413 19.7951 58.7992 20.1723 58.7493C20.5663 58.6973 20.9841 58.6509 21.5745 58.5859L18.7271 32.7422ZM7.75475 35.5729C10.8984 33.9956 14.524 33.9694 17.6048 35.2965C20.4541 36.5239 22.4897 38.7316 23.5826 41.199L-0.189794 51.7286C2.47175 57.7375 10.6363 63.2163 19.4148 58.8117L7.75475 35.5729ZM23.5925 41.2213C24.496 43.2717 24.899 45.9668 24.1218 48.794C23.407 51.394 21.9848 53.0535 21.0965 53.8905L3.26594 34.9678C1.79606 36.3528 -0.0471101 38.6244 -0.948167 41.9021C-1.91173 45.4071 -1.46038 48.8455 -0.199678 51.7062L23.5925 41.2213ZM21.1064 53.8812C20.1728 54.7628 19.2195 55.3109 18.3648 55.6606L8.51929 31.5968C6.75419 32.319 4.90568 33.4194 3.25613 34.977L21.1064 53.8812ZM18.4401 55.6295C18.6551 55.54 18.7281 55.5094 18.8025 55.4796C18.8604 55.4564 18.8246 55.4721 18.7326 55.5038C18.5755 55.5579 17.9689 55.7606 17.0758 55.8636L14.0963 30.0349C11.1834 30.3709 8.67083 31.5334 8.44403 31.6279L18.4401 55.6295ZM17.1471 55.8552C20.6578 55.4306 24.1732 55.0489 27.6852 54.7149L25.2233 28.8317C21.4812 29.1876 17.7455 29.5933 14.0251 30.0433L17.1471 55.8552ZM27.7065 54.7128C27.2035 54.7615 26.4749 54.7881 25.5551 54.6548C24.8393 54.5511 22.7006 54.177 20.454 52.4881L36.0774 31.7056C33.3908 29.686 30.6461 29.121 29.2844 28.9237C27.7188 28.6968 26.3044 28.727 25.202 28.8337L27.7065 54.7128ZM20.4163 52.4596C19.2717 51.5926 18.5228 50.6943 18.0852 50.0925C17.6645 49.5141 17.4231 49.0562 17.3743 48.9636C17.3424 48.9033 17.3291 48.8752 17.3527 48.923C17.3642 48.9461 17.3769 48.972 17.4005 49.0199C17.4211 49.0618 17.4515 49.1236 17.4839 49.189C17.6073 49.4379 17.8572 49.938 18.1903 50.5089L40.6469 37.4055C40.7689 37.6144 40.8321 37.7488 40.7784 37.6406C40.7666 37.6167 40.7533 37.5898 40.7307 37.5438C40.711 37.5037 40.6809 37.4425 40.6495 37.3792C40.5877 37.2545 40.4895 37.0577 40.3714 36.8339C40.0395 36.2045 38.7667 33.7425 36.1151 31.7341L20.4163 52.4596Z" fill="#F8B21F" mask="url(#path-7-inside-4_528_191)"/>
<mask id="path-9-inside-5_528_191" fill="white">
<path d="M30.5254 35.1173C29.9743 35.3281 29.517 35.6621 29.0917 35.6225C28.499 35.5677 27.8878 35.3045 27.3533 35.0046C24.612 33.4613 21.91 31.8472 19.1518 30.3306C18.2846 29.8527 17.2288 29.7079 16.3871 29.1982C15.9605 28.9397 15.5458 28.178 15.6113 27.7087C15.6778 27.2294 16.2508 26.644 16.7396 26.4471C17.2644 26.2355 18.0288 26.239 18.5647 26.4601C22.5375 28.0993 26.2735 30.1902 29.7728 32.6903C30.0599 32.898 30.321 33.2489 30.4172 33.5809C30.543 34.0273 30.4956 34.5187 30.5278 35.1135L30.5254 35.1173Z"/>
</mask>
<path d="M30.5254 35.1173C29.9743 35.3281 29.517 35.6621 29.0917 35.6225C28.499 35.5677 27.8878 35.3045 27.3533 35.0046C24.612 33.4613 21.91 31.8472 19.1518 30.3306C18.2846 29.8527 17.2288 29.7079 16.3871 29.1982C15.9605 28.9397 15.5458 28.178 15.6113 27.7087C15.6778 27.2294 16.2508 26.644 16.7396 26.4471C17.2644 26.2355 18.0288 26.239 18.5647 26.4601C22.5375 28.0993 26.2735 30.1902 29.7728 32.6903C30.0599 32.898 30.321 33.2489 30.4172 33.5809C30.543 34.0273 30.4956 34.5187 30.5278 35.1135L30.5254 35.1173Z" fill="#F8B21F"/>
<path d="M30.5254 35.1173L35.1704 47.2591L39.2117 45.7131L41.5203 42.0535L30.5254 35.1173ZM29.0917 35.6225L30.2964 22.6784L30.287 22.6775L29.0917 35.6225ZM27.3533 35.0046L20.9761 46.3329L20.9837 46.3372L20.9912 46.3414L27.3533 35.0046ZM19.1518 30.3306L12.8771 41.7161L12.8881 41.7221L19.1518 30.3306ZM16.3871 29.1982L9.65034 40.3165L9.65311 40.3182L16.3871 29.1982ZM15.6113 27.7087L28.4863 29.5072L28.4879 29.4958L15.6113 27.7087ZM16.7396 26.4471L21.5989 38.5047L21.5997 38.5044L16.7396 26.4471ZM18.5647 26.4601L23.5231 14.4428L23.5221 14.4424L18.5647 26.4601ZM29.7728 32.6903L37.393 22.1579L37.3617 22.1352L37.3302 22.1127L29.7728 32.6903ZM30.4172 33.5809L42.9298 30.0547L42.917 30.0094L42.9039 29.9641L30.4172 33.5809ZM30.5278 35.1135L41.5228 42.0497L43.7326 38.5468L43.5088 34.4112L30.5278 35.1135ZM30.5254 35.1173L25.8805 22.9755C25.2613 23.2123 24.7652 23.4464 24.5507 23.5482C24.1773 23.7256 24.4033 23.619 24.4886 23.5811C24.6497 23.5097 25.2659 23.2379 26.1361 23.0109C27.0431 22.7743 28.4995 22.5112 30.2964 22.6784L29.0917 35.6225L27.887 48.5665C29.8966 48.7536 31.5696 48.4636 32.6992 48.1689C33.792 47.8838 34.6367 47.5228 35.0342 47.3465C35.2532 47.2493 35.4367 47.1623 35.5358 47.1151C35.7713 47.0028 35.5734 47.0965 35.7066 47.0333C35.7462 47.0144 35.514 47.1277 35.1704 47.2591L30.5254 35.1173ZM29.0917 35.6225L30.287 22.6775C31.4411 22.7841 32.2967 23.0574 32.7656 23.2333C33.2523 23.4158 33.578 23.5906 33.7154 23.6677L27.3533 35.0046L20.9912 46.3414C22.1166 46.9729 24.6163 48.2645 27.8964 48.5674L29.0917 35.6225ZM27.3533 35.0046L33.7305 23.6762C31.5416 22.444 28.0855 20.4072 25.4155 18.9391L19.1518 30.3306L12.8881 41.7221C15.7344 43.2872 17.6823 44.4787 20.9761 46.3329L27.3533 35.0046ZM19.1518 30.3306L25.4264 18.9451C24.4933 18.4308 23.6568 18.0864 23.0807 17.8679C22.5474 17.6658 22.0171 17.4923 21.8815 17.447C21.6361 17.365 21.73 17.3924 21.8965 17.4593C22.0899 17.5369 22.5478 17.7311 23.1211 18.0782L16.3871 29.1982L9.65311 40.3182C10.6472 40.9202 11.5528 41.3236 12.208 41.5867C12.8362 41.839 13.4061 42.028 13.6383 42.1057C13.9803 42.22 13.9291 42.2042 13.864 42.1795C13.756 42.1386 13.3767 41.9914 12.8771 41.7161L19.1518 30.3306ZM16.3871 29.1982L23.1239 18.0799C24.5392 18.9375 25.4621 19.8916 25.9809 20.5018C26.543 21.1629 26.9738 21.8259 27.3065 22.455C27.6349 23.0759 27.9823 23.8806 28.2362 24.8691C28.4672 25.7685 28.7775 27.4226 28.4863 29.5072L15.6113 27.7087L2.73632 25.9103C2.15378 30.0806 3.63603 33.3116 4.32276 34.6101C5.09683 36.0737 6.70534 38.532 9.65034 40.3165L16.3871 29.1982ZM15.6113 27.7087L28.4879 29.4958C28.2173 31.4456 27.5412 32.8882 27.07 33.7237C26.5691 34.6117 26.0315 35.2882 25.5791 35.7793C24.8074 36.6172 23.5384 37.7231 21.5989 38.5047L16.7396 26.4471L11.8804 14.3894C9.45204 15.368 7.65218 16.8651 6.45517 18.1647C5.44206 19.2646 3.29179 21.9077 2.73473 25.9217L15.6113 27.7087ZM16.7396 26.4471L21.5997 38.5044C19.9632 39.164 18.5406 39.2973 17.5651 39.2911C16.5805 39.2848 15.1906 39.1308 13.6073 38.4778L18.5647 26.4601L23.5221 14.4424C19.8851 12.9421 15.5966 12.8914 11.8795 14.3897L16.7396 26.4471ZM18.5647 26.4601L13.6064 38.4773C16.6252 39.7229 19.4929 41.3228 22.2155 43.268L29.7728 32.6903L37.3302 22.1127C33.0542 19.0576 28.4498 16.4756 23.5231 14.4428L18.5647 26.4601ZM29.7728 32.6903L22.1526 43.2228C21.0668 42.4372 20.2594 41.5666 19.6634 40.7494C19.0805 39.9502 18.3865 38.7722 17.9304 37.1977L30.4172 33.5809L42.9039 29.9641C41.9174 26.5581 39.7699 23.8775 37.393 22.1579L29.7728 32.6903ZM30.4172 33.5809L17.9045 37.107C17.7095 36.4148 17.6171 35.831 17.5702 35.4284C17.5251 35.0404 17.5159 34.7605 17.5139 34.6978C17.5128 34.6612 17.5128 34.6475 17.5134 34.6844C17.5136 34.7023 17.5139 34.7229 17.5144 34.7578C17.5148 34.7887 17.5154 34.8339 17.5161 34.881C17.5189 35.0662 17.5248 35.4099 17.5468 35.8158L30.5278 35.1135L43.5088 34.4112C43.5147 34.5197 43.5145 34.5789 43.5132 34.4907C43.5131 34.4832 43.5096 34.1524 43.5013 33.8853C43.4836 33.3215 43.4281 31.823 42.9298 30.0547L30.4172 33.5809ZM30.5278 35.1135L19.5329 28.1773L19.5305 28.1811L30.5254 35.1173L41.5203 42.0535L41.5228 42.0497L30.5278 35.1135Z" fill="#F8B21F" mask="url(#path-9-inside-5_528_191)"/>
<mask id="path-11-inside-6_528_191" fill="white">
<path d="M27.6979 11.0723C28.0372 11.3927 28.2486 11.542 28.3985 11.7377C30.9554 15.0264 33.521 18.3098 36.0496 21.6179C36.9834 22.8399 37.0355 23.6495 36.3565 24.3009C35.559 25.0638 34.378 24.888 33.427 23.7188C31.1138 20.8765 28.8054 18.0266 26.6127 15.0953C26.045 14.3382 25.8088 13.285 25.6244 12.3282C25.5638 12.008 26.0519 11.4382 26.4323 11.226C26.8127 11.0139 27.3675 11.1032 27.7017 11.0747L27.6979 11.0723Z"/>
</mask>
<path d="M27.6979 11.0723C28.0372 11.3927 28.2486 11.542 28.3985 11.7377C30.9554 15.0264 33.521 18.3098 36.0496 21.6179C36.9834 22.8399 37.0355 23.6495 36.3565 24.3009C35.559 25.0638 34.378 24.888 33.427 23.7188C31.1138 20.8765 28.8054 18.0266 26.6127 15.0953C26.045 14.3382 25.8088 13.285 25.6244 12.3282C25.5638 12.008 26.0519 11.4382 26.4323 11.226C26.8127 11.0139 27.3675 11.1032 27.7017 11.0747L27.6979 11.0723Z" fill="#F8B21F"/>
<path d="M27.6979 11.0723L34.6341 0.0773483L18.7719 20.5236L27.6979 11.0723ZM28.3985 11.7377L18.0802 19.6454L18.1077 19.6814L18.1355 19.7171L28.3985 11.7377ZM36.0496 21.6179L46.3795 13.7252L46.3779 13.7231L36.0496 21.6179ZM36.3565 24.3009L45.3425 33.6952L45.3496 33.6884L45.3567 33.6816L36.3565 24.3009ZM33.427 23.7188L43.5117 15.5153L43.5099 15.513L33.427 23.7188ZM26.6127 15.0953L37.0224 7.30827L37.0179 7.3023L37.0134 7.29633L26.6127 15.0953ZM25.6244 12.3282L12.8517 14.7483L12.8555 14.7684L12.8594 14.7885L25.6244 12.3282ZM27.7017 11.0747L28.8063 24.0277L67.3845 20.7381L34.638 0.0797673L27.7017 11.0747ZM18.7719 20.5236C18.9821 20.7221 19.1621 20.8841 19.2921 20.9998C19.3526 21.0535 19.4085 21.1027 19.4346 21.1257C19.4699 21.1569 19.4679 21.1551 19.4584 21.1467C19.4489 21.1381 19.2754 20.9844 19.0499 20.7573C18.8062 20.5119 18.4579 20.1383 18.0802 19.6454L38.7169 3.82999C37.8501 2.69901 36.9764 1.93237 36.78 1.75687C36.4216 1.43674 36.6216 1.61888 36.6239 1.62102L18.7719 20.5236ZM18.1355 19.7171C20.719 23.0399 23.2351 26.26 25.7214 29.5126L46.3779 13.7231C43.8069 10.3596 41.1919 7.0128 38.6615 3.75824L18.1355 19.7171ZM25.7198 29.5106C25.6682 29.443 24.197 27.625 23.876 24.5028C23.6938 22.7303 23.9116 20.7779 24.6868 18.8748C25.4344 17.0392 26.4974 15.7444 27.3564 14.9202L45.3567 33.6816C48.0829 31.066 50.2608 26.9125 49.7397 21.8439C49.329 17.8486 47.3648 15.0148 46.3795 13.7252L25.7198 29.5106ZM27.3706 14.9066C29.9086 12.4789 33.6061 11.2675 37.3067 11.9499C40.6245 12.5617 42.6156 14.4137 43.5117 15.5153L23.3422 31.9223C25.1894 34.1931 28.2464 36.7176 32.5919 37.5188C37.3201 38.3907 42.0069 36.8858 45.3425 33.6952L27.3706 14.9066ZM43.5099 15.513C41.1873 12.6591 39.0358 9.9998 37.0224 7.30827L16.203 22.8824C18.5751 26.0533 21.0403 29.0939 23.3441 31.9246L43.5099 15.513ZM37.0134 7.29633C37.9058 8.48637 38.2557 9.51068 38.3546 9.8191C38.4552 10.1331 38.4691 10.2811 38.3895 9.86785L12.8594 14.7885C12.975 15.3884 13.588 19.3951 16.2119 22.8943L37.0134 7.29633ZM38.3972 9.90804C39.0656 13.4359 38.0578 16.141 37.6391 17.128C37.1219 18.3471 36.519 19.2089 36.1377 19.7009C35.4722 20.5594 34.4176 21.6577 32.764 22.5799L20.1006 -0.127804C18.0666 1.0065 16.5777 2.49578 15.5882 3.77226C15.0449 4.47326 14.3076 5.55085 13.7041 6.97345C13.199 8.16392 12.1529 11.0603 12.8517 14.7483L38.3972 9.90804ZM32.764 22.5799C31.3628 23.3613 30.095 23.706 29.267 23.8698C28.4431 24.0327 27.8016 24.0646 27.5259 24.074C27.2839 24.0822 27.051 24.0775 27.2857 24.0799C27.3092 24.0801 28.0113 24.0955 28.8063 24.0277L26.5972 -1.87828C27.2251 -1.93182 27.7324 -1.91693 27.5461 -1.9188C27.5392 -1.91887 27.5319 -1.91895 27.5164 -1.91912C27.5031 -1.91926 27.4831 -1.91947 27.4615 -1.91968C27.4184 -1.9201 27.3543 -1.92064 27.2799 -1.92079C27.1337 -1.92109 26.9096 -1.92006 26.6427 -1.91099C26.139 -1.89387 25.2666 -1.84274 24.2213 -1.63595C23.1718 -1.42834 21.692 -1.01528 20.1006 -0.127804L32.764 22.5799ZM34.638 0.0797673L34.6341 0.0773483L20.7617 22.0672L20.7655 22.0697L34.638 0.0797673Z" fill="#F8B21F" mask="url(#path-11-inside-6_528_191)"/>
<mask id="path-13-inside-7_528_191" fill="white">
<path d="M88.2543 63.9825C87.0886 63.2471 85.9013 62.5459 84.7682 61.7673C84.0986 61.3076 83.7965 60.6224 84.1563 59.8227C84.5088 59.0344 85.1938 58.7644 86.0022 58.9445C86.6034 59.0791 87.218 59.286 87.7515 59.596C90.026 60.9191 92.274 62.2841 94.5259 63.6516C94.8389 63.8437 95.2488 64.0863 95.3478 64.3882C95.5253 64.931 95.7257 65.6585 95.4943 66.0764C95.2686 66.4766 94.5079 66.7733 93.989 66.7545C93.4112 66.7357 92.8192 66.357 92.2761 66.0622C90.9565 65.3414 89.6594 64.5763 88.3541 63.8327C88.3205 63.886 88.2893 63.9354 88.2557 63.9887L88.2543 63.9825Z"/>
</mask>
<path d="M88.2543 63.9825C87.0886 63.2471 85.9013 62.5459 84.7682 61.7673C84.0986 61.3076 83.7965 60.6224 84.1563 59.8227C84.5088 59.0344 85.1938 58.7644 86.0022 58.9445C86.6034 59.0791 87.218 59.286 87.7515 59.596C90.026 60.9191 92.274 62.2841 94.5259 63.6516C94.8389 63.8437 95.2488 64.0863 95.3478 64.3882C95.5253 64.931 95.7257 65.6585 95.4943 66.0764C95.2686 66.4766 94.5079 66.7733 93.989 66.7545C93.4112 66.7357 92.8192 66.357 92.2761 66.0622C90.9565 65.3414 89.6594 64.5763 88.3541 63.8327C88.3205 63.886 88.2893 63.9354 88.2557 63.9887L88.2543 63.9825Z" fill="#F8B21F"/>
<path d="M88.2543 63.9825L100.923 61.066L99.7211 55.8457L95.1905 52.9875L88.2543 63.9825ZM84.7682 61.7673L92.1308 51.0532L92.1255 51.0496L84.7682 61.7673ZM84.1563 59.8227L96.0118 65.1561L96.0177 65.1431L96.0235 65.1302L84.1563 59.8227ZM86.0022 58.9445L88.8423 46.2586L88.8301 46.2559L86.0022 58.9445ZM87.7515 59.596L94.2885 48.3591L94.2823 48.3555L87.7515 59.596ZM94.5259 63.6516L101.327 52.5725L101.3 52.5561L101.273 52.5398L94.5259 63.6516ZM95.3478 64.3882L107.704 60.3476L107.7 60.3351L95.3478 64.3882ZM95.4943 66.0764L106.818 72.4617L106.842 72.4185L106.866 72.3752L95.4943 66.0764ZM93.989 66.7545L94.4596 53.763L94.4353 53.7621L94.411 53.7613L93.989 66.7545ZM92.2761 66.0622L86.0444 77.4712L86.0598 77.4797L86.0753 77.488L92.2761 66.0622ZM88.3541 63.8327L94.7894 52.5373L83.9905 46.3848L77.3592 56.8965L88.3541 63.8327ZM88.2557 63.9887L75.5871 66.9052L82.5917 97.3318L99.2507 70.9249L88.2557 63.9887ZM95.1905 52.9875C93.5842 51.9742 92.992 51.645 92.1308 51.0532L77.4056 72.4814C78.8105 73.4468 80.5929 74.52 81.3181 74.9774L95.1905 52.9875ZM92.1255 51.0496C93.4581 51.9644 95.3403 53.7331 96.3557 56.6548C97.4511 59.8065 97.0376 62.8758 96.0118 65.1561L72.3007 54.4893C70.9151 57.5692 70.4728 61.381 71.7967 65.1902C73.0406 68.7694 75.4087 71.1106 77.4108 72.485L92.1255 51.0496ZM96.0235 65.1302C95.0913 67.2143 93.2449 69.5136 90.2792 70.8591C87.4551 72.1403 84.8391 72.0043 83.1742 71.6332L88.8301 46.2559C86.3568 45.7046 82.9942 45.6135 79.5374 47.1818C75.9389 48.8143 73.5737 51.6427 72.2891 54.5152L96.0235 65.1302ZM83.162 71.6305C83.0082 71.5961 82.7694 71.5343 82.4655 71.424C82.1654 71.315 81.7314 71.1332 81.2208 70.8365L94.2823 48.3555C92.2513 47.1754 90.2778 46.5799 88.8423 46.2586L83.162 71.6305ZM81.2145 70.8329C83.3657 72.0843 85.5095 73.3855 87.7785 74.7634L101.273 52.5398C99.0386 51.1828 96.6863 49.754 94.2885 48.3591L81.2145 70.8329ZM87.7249 74.7307C88.117 74.9713 87.5265 74.6312 86.9274 74.155C86.5736 73.8738 85.9414 73.3371 85.2645 72.5307C84.5943 71.7322 83.6295 70.3726 82.9958 68.4412L107.7 60.3351C106.427 56.4551 103.781 54.3384 103.107 53.8025C102.582 53.3853 102.121 53.0765 101.847 52.8989C101.591 52.7329 101.329 52.5735 101.327 52.5725L87.7249 74.7307ZM82.9917 68.4287C83.0394 68.5745 82.8318 68.0005 82.7064 67.1269C82.639 66.6576 82.5456 65.7835 82.6366 64.6618C82.7262 63.5559 83.0325 61.745 84.1222 59.7776L106.866 72.3752C109.113 68.3197 108.588 64.4474 108.442 63.4314C108.23 61.9539 107.834 60.7447 107.704 60.3476L82.9917 68.4287ZM84.1705 59.6911C85.259 57.7608 86.6015 56.5835 87.4112 55.9731C88.2826 55.3162 89.093 54.8979 89.7144 54.6307C90.7786 54.1728 92.3844 53.6878 94.4596 53.763L93.5184 79.746C96.1125 79.8399 98.3581 79.216 99.9888 78.5145C101.263 77.9664 104.635 76.3337 106.818 72.4617L84.1705 59.6911ZM94.411 53.7613C95.6032 53.8001 96.567 54.0153 97.225 54.2089C97.8774 54.401 98.3553 54.6098 98.5979 54.7225C98.8391 54.8346 98.9875 54.9182 98.9414 54.893C98.919 54.8807 98.8956 54.8676 98.8086 54.8192C98.7397 54.7808 98.6147 54.7111 98.477 54.6364L86.0753 77.488C86.0733 77.487 86.0856 77.4936 86.1553 77.5325C86.2069 77.5612 86.3233 77.6263 86.4418 77.6912C86.6776 77.8205 87.1118 78.0552 87.6412 78.3011C88.5654 78.7306 90.7198 79.6552 93.567 79.7476L94.411 53.7613ZM98.5078 54.6532C97.3167 54.0026 96.3296 53.4147 94.7894 52.5373L81.9188 75.1281C82.9891 75.7379 84.5963 76.6803 86.0444 77.4712L98.5078 54.6532ZM77.3592 56.8965C77.3591 56.8966 77.3591 56.8967 77.359 56.8968C77.3589 56.8969 77.3589 56.897 77.3588 56.8971C77.3587 56.8972 77.3587 56.8973 77.3586 56.8974C77.3585 56.8975 77.3585 56.8976 77.3584 56.8977C77.3583 56.8978 77.3583 56.8979 77.3582 56.898C77.3581 56.8981 77.3581 56.8982 77.358 56.8983C77.3579 56.8984 77.3579 56.8985 77.3578 56.8987C77.3577 56.8988 77.3577 56.8989 77.3576 56.899C77.3575 56.8991 77.3575 56.8992 77.3574 56.8993C77.3574 56.8994 77.3573 56.8995 77.3572 56.8996C77.3572 56.8997 77.3571 56.8998 77.357 56.8999C77.357 56.9 77.3569 56.9001 77.3568 56.9002C77.3568 56.9003 77.3567 56.9004 77.3566 56.9005C77.3566 56.9006 77.3565 56.9007 77.3564 56.9008C77.3564 56.9009 77.3563 56.901 77.3562 56.9011C77.3562 56.9012 77.3561 56.9013 77.356 56.9015C77.356 56.9016 77.3559 56.9017 77.3558 56.9018C77.3558 56.9019 77.3557 56.902 77.3557 56.9021C77.3556 56.9022 77.3555 56.9023 77.3555 56.9024C77.3554 56.9025 77.3553 56.9026 77.3553 56.9027C77.3552 56.9028 77.3551 56.9029 77.3551 56.903C77.355 56.9031 77.3549 56.9032 77.3549 56.9033C77.3548 56.9034 77.3547 56.9035 77.3547 56.9036C77.3546 56.9037 77.3545 56.9038 77.3545 56.9039C77.3544 56.904 77.3543 56.9041 77.3543 56.9042C77.3542 56.9044 77.3542 56.9045 77.3541 56.9046C77.354 56.9047 77.354 56.9048 77.3539 56.9049C77.3538 56.905 77.3538 56.9051 77.3537 56.9052C77.3536 56.9053 77.3536 56.9054 77.3535 56.9055C77.3534 56.9056 77.3534 56.9057 77.3533 56.9058C77.3532 56.9059 77.3532 56.906 77.3531 56.9061C77.353 56.9062 77.353 56.9063 77.3529 56.9064C77.3528 56.9065 77.3528 56.9066 77.3527 56.9067C77.3527 56.9068 77.3526 56.9069 77.3525 56.907C77.3525 56.9071 77.3524 56.9072 77.3523 56.9073C77.3523 56.9074 77.3522 56.9075 77.3521 56.9077C77.3521 56.9078 77.352 56.9079 77.3519 56.908C77.3519 56.9081 77.3518 56.9082 77.3517 56.9083C77.3517 56.9084 77.3516 56.9085 77.3515 56.9086C77.3515 56.9087 77.3514 56.9088 77.3514 56.9089C77.3513 56.909 77.3512 56.9091 77.3512 56.9092C77.3511 56.9093 77.351 56.9094 77.351 56.9095C77.3509 56.9096 77.3508 56.9097 77.3508 56.9098C77.3507 56.9099 77.3506 56.91 77.3506 56.9101C77.3505 56.9102 77.3504 56.9103 77.3504 56.9104C77.3503 56.9105 77.3502 56.9106 77.3502 56.9107C77.3501 56.9108 77.3501 56.9109 77.35 56.911C77.3499 56.9112 77.3499 56.9113 77.3498 56.9114C77.3497 56.9115 77.3497 56.9116 77.3496 56.9117C77.3495 56.9118 77.3495 56.9119 77.3494 56.912C77.3493 56.9121 77.3493 56.9122 77.3492 56.9123C77.3491 56.9124 77.3491 56.9125 77.349 56.9126C77.349 56.9127 77.3489 56.9128 77.3488 56.9129C77.3488 56.913 77.3487 56.9131 77.3486 56.9132C77.3486 56.9133 77.3485 56.9134 77.3484 56.9135C77.3484 56.9136 77.3483 56.9137 77.3482 56.9138C77.3482 56.9139 77.3481 56.914 77.348 56.9141C77.348 56.9142 77.3479 56.9143 77.3479 56.9144C77.3478 56.9145 77.3477 56.9146 77.3477 56.9147C77.3476 56.9148 77.3475 56.915 77.3475 56.9151C77.3474 56.9152 77.3473 56.9153 77.3473 56.9154C77.3472 56.9155 77.3471 56.9156 77.3471 56.9157C77.347 56.9158 77.3469 56.9159 77.3469 56.916C77.3468 56.9161 77.3468 56.9162 77.3467 56.9163C77.3466 56.9164 77.3466 56.9165 77.3465 56.9166C77.3464 56.9167 77.3464 56.9168 77.3463 56.9169C77.3462 56.917 77.3462 56.9171 77.3461 56.9172C77.346 56.9173 77.346 56.9174 77.3459 56.9175C77.3458 56.9176 77.3458 56.9177 77.3457 56.9178C77.3457 56.9179 77.3456 56.918 77.3455 56.9181C77.3455 56.9182 77.3454 56.9183 77.3453 56.9184C77.3453 56.9185 77.3452 56.9186 77.3451 56.9187C77.3451 56.9188 77.345 56.9189 77.3449 56.919C77.3449 56.9191 77.3448 56.9193 77.3448 56.9194C77.3447 56.9195 77.3446 56.9196 77.3446 56.9197C77.3445 56.9198 77.3444 56.9199 77.3444 56.92C77.3443 56.9201 77.3442 56.9202 77.3442 56.9203C77.3441 56.9204 77.344 56.9205 77.344 56.9206C77.3439 56.9207 77.3438 56.9208 77.3438 56.9209C77.3437 56.921 77.3437 56.9211 77.3436 56.9212C77.3435 56.9213 77.3435 56.9214 77.3434 56.9215C77.3433 56.9216 77.3433 56.9217 77.3432 56.9218C77.3431 56.9219 77.3431 56.922 77.343 56.9221C77.3429 56.9222 77.3429 56.9223 77.3428 56.9224C77.3428 56.9225 77.3427 56.9226 77.3426 56.9227C77.3426 56.9228 77.3425 56.9229 77.3424 56.923C77.3424 56.9231 77.3423 56.9232 77.3422 56.9233C77.3422 56.9234 77.3421 56.9235 77.342 56.9236C77.342 56.9237 77.3419 56.9238 77.3419 56.9239C77.3418 56.924 77.3417 56.9241 77.3417 56.9243C77.3416 56.9244 77.3415 56.9245 77.3415 56.9246C77.3414 56.9247 77.3413 56.9248 77.3413 56.9249C77.3412 56.925 77.3411 56.9251 77.3411 56.9252C77.341 56.9253 77.341 56.9254 77.3409 56.9255C77.3408 56.9256 77.3408 56.9257 77.3407 56.9258C77.3406 56.9259 77.3406 56.926 77.3405 56.9261C77.3404 56.9262 77.3404 56.9263 77.3403 56.9264C77.3402 56.9265 77.3402 56.9266 77.3401 56.9267C77.3401 56.9268 77.34 56.9269 77.3399 56.927C77.3399 56.9271 77.3398 56.9272 77.3397 56.9273C77.3397 56.9274 77.3396 56.9275 77.3395 56.9276C77.3395 56.9277 77.3394 56.9278 77.3393 56.9279C77.3393 56.928 77.3392 56.9281 77.3392 56.9282C77.3391 56.9283 77.339 56.9284 77.339 56.9285C77.3389 56.9286 77.3388 56.9287 77.3388 56.9288C77.3387 56.9289 77.3386 56.929 77.3386 56.9291C77.3385 56.9292 77.3385 56.9293 77.3384 56.9294C77.3383 56.9295 77.3383 56.9296 77.3382 56.9297C77.3381 56.9298 77.3381 56.9299 77.338 56.93C77.3379 56.9301 77.3379 56.9303 77.3378 56.9304C77.3377 56.9305 77.3377 56.9306 77.3376 56.9307C77.3376 56.9308 77.3375 56.9309 77.3374 56.931C77.3374 56.9311 77.3373 56.9312 77.3372 56.9313C77.3372 56.9314 77.3371 56.9315 77.337 56.9316C77.337 56.9317 77.3369 56.9318 77.3369 56.9319C77.3368 56.932 77.3367 56.9321 77.3367 56.9322C77.3366 56.9323 77.3365 56.9324 77.3365 56.9325C77.3364 56.9326 77.3363 56.9327 77.3363 56.9328C77.3362 56.9329 77.3361 56.933 77.3361 56.9331C77.336 56.9332 77.336 56.9333 77.3359 56.9334C77.3358 56.9335 77.3358 56.9336 77.3357 56.9337C77.3356 56.9338 77.3356 56.9339 77.3355 56.934C77.3354 56.9341 77.3354 56.9342 77.3353 56.9343C77.3353 56.9344 77.3352 56.9345 77.3351 56.9346C77.3351 56.9347 77.335 56.9348 77.3349 56.9349C77.3349 56.935 77.3348 56.9351 77.3347 56.9352C77.3347 56.9353 77.3346 56.9354 77.3345 56.9355C77.3345 56.9356 77.3344 56.9357 77.3344 56.9358C77.3343 56.9359 77.3342 56.936 77.3342 56.9361C77.3341 56.9362 77.334 56.9363 77.334 56.9364C77.3339 56.9365 77.3338 56.9366 77.3338 56.9367C77.3337 56.9368 77.3337 56.9369 77.3336 56.937C77.3335 56.9371 77.3335 56.9372 77.3334 56.9373C77.3333 56.9374 77.3333 56.9375 77.3332 56.9377C77.3331 56.9378 77.3331 56.9379 77.333 56.938C77.333 56.9381 77.3329 56.9382 77.3328 56.9383C77.3328 56.9384 77.3327 56.9385 77.3326 56.9386C77.3326 56.9387 77.3325 56.9388 77.3324 56.9389C77.3324 56.939 77.3323 56.9391 77.3323 56.9392C77.3322 56.9393 77.3321 56.9394 77.3321 56.9395C77.332 56.9396 77.3319 56.9397 77.3319 56.9398C77.3318 56.9399 77.3317 56.94 77.3317 56.9401C77.3316 56.9402 77.3315 56.9403 77.3315 56.9404C77.3314 56.9405 77.3314 56.9406 77.3313 56.9407C77.3312 56.9408 77.3312 56.9409 77.3311 56.941C77.331 56.9411 77.331 56.9412 77.3309 56.9413C77.3308 56.9414 77.3308 56.9415 77.3307 56.9416C77.3307 56.9417 77.3306 56.9418 77.3305 56.9419C77.3305 56.942 77.3304 56.9421 77.3303 56.9422C77.3303 56.9423 77.3302 56.9424 77.3301 56.9425C77.3301 56.9426 77.33 56.9427 77.33 56.9428C77.3299 56.9429 77.3298 56.943 77.3298 56.9431C77.3297 56.9432 77.3296 56.9433 77.3296 56.9434C77.3295 56.9435 77.3294 56.9436 77.3294 56.9437C77.3293 56.9438 77.3293 56.9439 77.3292 56.944C77.3291 56.9441 77.3291 56.9442 77.329 56.9443C77.3289 56.9444 77.3289 56.9445 77.3288 56.9446C77.3287 56.9447 77.3287 56.9448 77.3286 56.9449C77.3286 56.945 77.3285 56.9451 77.3284 56.9452C77.3284 56.9453 77.3283 56.9454 77.3282 56.9455C77.3282 56.9456 77.3281 56.9457 77.328 56.9458C77.328 56.9459 77.3279 56.946 77.3279 56.9461C77.3278 56.9462 77.3277 56.9463 77.3277 56.9464C77.3276 56.9465 77.3275 56.9466 77.3275 56.9467C77.3274 56.9468 77.3273 56.9469 77.3273 56.947C77.3272 56.9471 77.3272 56.9472 77.3271 56.9473C77.327 56.9474 77.327 56.9475 77.3269 56.9476C77.3268 56.9477 77.3268 56.9478 77.3267 56.9479C77.3266 56.948 77.3266 56.9481 77.3265 56.9483C77.3265 56.9484 77.3264 56.9485 77.3263 56.9486C77.3263 56.9487 77.3262 56.9488 77.3261 56.9489C77.3261 56.949 77.326 56.9491 77.3259 56.9492C77.3259 56.9493 77.3258 56.9494 77.3258 56.9495C77.3257 56.9496 77.3256 56.9497 77.3256 56.9498C77.3255 56.9499 77.3254 56.95 77.3254 56.9501C77.3253 56.9502 77.3252 56.9503 77.3252 56.9504C77.3251 56.9505 77.3251 56.9506 77.325 56.9507C77.3249 56.9508 77.3249 56.9509 77.3248 56.951C77.3247 56.9511 77.3247 56.9512 77.3246 56.9513C77.3246 56.9514 77.3245 56.9515 77.3244 56.9516C77.3244 56.9517 77.3243 56.9518 77.3242 56.9519C77.3242 56.952 77.3241 56.9521 77.324 56.9522C77.324 56.9523 77.3239 56.9524 77.3239 56.9525C77.3238 56.9526 77.3237 56.9527 77.3237 56.9528C77.3236 56.9529 77.3235 56.953 77.3235 56.9531C77.3234 56.9532 77.3233 56.9533 77.3233 56.9534C77.3232 56.9535 77.3232 56.9536 77.3231 56.9537C77.323 56.9538 77.323 56.9539 77.3229 56.954C77.3228 56.9541 77.3228 56.9542 77.3227 56.9543C77.3226 56.9544 77.3226 56.9545 77.3225 56.9546C77.3225 56.9547 77.3224 56.9548 77.3223 56.9549C77.3223 56.955 77.3222 56.9551 77.3221 56.9552C77.3221 56.9553 77.322 56.9554 77.3219 56.9555C77.3219 56.9556 77.3218 56.9557 77.3218 56.9558C77.3217 56.9559 77.3216 56.956 77.3216 56.9561C77.3215 56.9562 77.3214 56.9563 77.3214 56.9564C77.3213 56.9565 77.3213 56.9566 77.3212 56.9567C77.3211 56.9568 77.3211 56.9569 77.321 56.957C77.3209 56.9571 77.3209 56.9572 77.3208 56.9573C77.3207 56.9574 77.3207 56.9575 77.3206 56.9576C77.3206 56.9577 77.3205 56.9578 77.3204 56.9579C77.3204 56.958 77.3203 56.9581 77.3202 56.9582C77.3202 56.9583 77.3201 56.9584 77.32 56.9585C77.32 56.9586 77.3199 56.9587 77.3199 56.9588C77.3198 56.9589 77.3197 56.959 77.3197 56.9591C77.3196 56.9592 77.3195 56.9593 77.3195 56.9594C77.3194 56.9595 77.3193 56.9596 77.3193 56.9597C77.3192 56.9598 77.3192 56.9599 77.3191 56.96C77.319 56.9601 77.319 56.9602 77.3189 56.9603C77.3188 56.9604 77.3188 56.9605 77.3187 56.9606C77.3187 56.9607 77.3186 56.9608 77.3185 56.9609C77.3185 56.961 77.3184 56.9611 77.3183 56.9612C77.3183 56.9613 77.3182 56.9614 77.3181 56.9615C77.3181 56.9616 77.318 56.9617 77.318 56.9618C77.3179 56.9619 77.3178 56.962 77.3178 56.9621C77.3177 56.9622 77.3176 56.9623 77.3176 56.9624C77.3175 56.9625 77.3174 56.9626 77.3174 56.9627C77.3173 56.9628 77.3173 56.9629 77.3172 56.963C77.3171 56.9631 77.3171 56.9632 77.317 56.9633C77.3169 56.9634 77.3169 56.9635 77.3168 56.9636C77.3168 56.9637 77.3167 56.9638 77.3166 56.9639C77.3166 56.964 77.3165 56.9641 77.3164 56.9642C77.3164 56.9643 77.3163 56.9644 77.3162 56.9645C77.3162 56.9646 77.3161 56.9647 77.3161 56.9648C77.316 56.9649 77.3159 56.965 77.3159 56.9651C77.3158 56.9652 77.3157 56.9653 77.3157 56.9654C77.3156 56.9655 77.3155 56.9656 77.3155 56.9657C77.3154 56.9658 77.3154 56.9659 77.3153 56.966C77.3152 56.9661 77.3152 56.9662 77.3151 56.9663C77.315 56.9664 77.315 56.9665 77.3149 56.9666C77.3149 56.9667 77.3148 56.9668 77.3147 56.9669C77.3147 56.967 77.3146 56.9671 77.3145 56.9672C77.3145 56.9673 77.3144 56.9674 77.3143 56.9676C77.3143 56.9677 77.3142 56.9678 77.3142 56.9679C77.3141 56.968 77.314 56.9681 77.314 56.9682C77.3139 56.9683 77.3138 56.9684 77.3138 56.9685C77.3137 56.9686 77.3136 56.9687 77.3136 56.9688C77.3135 56.9689 77.3135 56.969 77.3134 56.9691C77.3133 56.9692 77.3133 56.9693 77.3132 56.9694C77.3131 56.9695 77.3131 56.9696 77.313 56.9697C77.313 56.9698 77.3129 56.9699 77.3128 56.97C77.3128 56.9701 77.3127 56.9702 77.3126 56.9703C77.3126 56.9704 77.3125 56.9705 77.3124 56.9706C77.3124 56.9707 77.3123 56.9708 77.3123 56.9709C77.3122 56.971 77.3121 56.9711 77.3121 56.9712C77.312 56.9713 77.3119 56.9714 77.3119 56.9715C77.3118 56.9716 77.3117 56.9717 77.3117 56.9718C77.3116 56.9719 77.3116 56.972 77.3115 56.9721C77.3114 56.9722 77.3114 56.9723 77.3113 56.9724C77.3112 56.9725 77.3112 56.9726 77.3111 56.9727C77.3111 56.9728 77.311 56.9729 77.3109 56.973C77.3109 56.9731 77.3108 56.9732 77.3107 56.9733C77.3107 56.9734 77.3106 56.9735 77.3105 56.9736C77.3105 56.9737 77.3104 56.9738 77.3104 56.9739C77.3103 56.974 77.3102 56.9741 77.3102 56.9742C77.3101 56.9743 77.31 56.9744 77.31 56.9745C77.3099 56.9746 77.3099 56.9747 77.3098 56.9748C77.3097 56.9749 77.3097 56.975 77.3096 56.9751C77.3095 56.9752 77.3095 56.9753 77.3094 56.9754C77.3093 56.9755 77.3093 56.9756 77.3092 56.9757C77.3092 56.9758 77.3091 56.9759 77.309 56.976C77.309 56.9761 77.3089 56.9762 77.3088 56.9763C77.3088 56.9764 77.3087 56.9765 77.3086 56.9766C77.3086 56.9767 77.3085 56.9768 77.3085 56.9769C77.3084 56.977 77.3083 56.9771 77.3083 56.9772C77.3082 56.9773 77.3081 56.9774 77.3081 56.9775C77.308 56.9776 77.308 56.9777 77.3079 56.9778C77.3078 56.9779 77.3078 56.978 77.3077 56.9781C77.3076 56.9782 77.3076 56.9783 77.3075 56.9784C77.3074 56.9785 77.3074 56.9786 77.3073 56.9787C77.3073 56.9788 77.3072 56.9789 77.3071 56.979C77.3071 56.9791 77.307 56.9792 77.3069 56.9793C77.3069 56.9794 77.3068 56.9795 77.3067 56.9796C77.3067 56.9797 77.3066 56.9798 77.3066 56.9799C77.3065 56.98 77.3064 56.9801 77.3064 56.9802C77.3063 56.9803 77.3062 56.9804 77.3062 56.9805C77.3061 56.9806 77.3061 56.9807 77.306 56.9808C77.3059 56.9809 77.3059 56.981 77.3058 56.9811C77.3057 56.9812 77.3057 56.9813 77.3056 56.9814C77.3055 56.9815 77.3055 56.9816 77.3054 56.9817C77.3054 56.9818 77.3053 56.9819 77.3052 56.982C77.3052 56.9821 77.3051 56.9822 77.305 56.9823C77.305 56.9824 77.3049 56.9825 77.3049 56.9826C77.3048 56.9827 77.3047 56.9828 77.3047 56.9829C77.3046 56.983 77.3045 56.9831 77.3045 56.9832C77.3044 56.9833 77.3043 56.9834 77.3043 56.9835C77.3042 56.9836 77.3042 56.9837 77.3041 56.9838C77.304 56.9839 77.304 56.984 77.3039 56.9841C77.3038 56.9842 77.3038 56.9843 77.3037 56.9844C77.3036 56.9845 77.3036 56.9846 77.3035 56.9847C77.3035 56.9848 77.3034 56.9849 77.3033 56.985C77.3033 56.9851 77.3032 56.9852 77.3031 56.9853C77.3031 56.9854 77.303 56.9855 77.303 56.9856C77.3029 56.9857 77.3028 56.9858 77.3028 56.9859C77.3027 56.986 77.3026 56.9861 77.3026 56.9862C77.3025 56.9863 77.3024 56.9864 77.3024 56.9865C77.3023 56.9866 77.3023 56.9867 77.3022 56.9868C77.3021 56.9869 77.3021 56.987 77.302 56.9871C77.3019 56.9872 77.3019 56.9873 77.3018 56.9874C77.3017 56.9875 77.3017 56.9876 77.3016 56.9877C77.3016 56.9878 77.3015 56.9879 77.3014 56.988C77.3014 56.9881 77.3013 56.9882 77.3012 56.9883C77.3012 56.9884 77.3011 56.9885 77.301 56.9886C77.301 56.9887 77.3009 56.9888 77.3009 56.9889C77.3008 56.989 77.3007 56.9891 77.3007 56.9892C77.3006 56.9893 77.3005 56.9894 77.3005 56.9895C77.3004 56.9896 77.3004 56.9897 77.3003 56.9898C77.3002 56.9899 77.3002 56.99 77.3001 56.9901C77.3 56.9902 77.3 56.9903 77.2999 56.9904C77.2998 56.9905 77.2998 56.9906 77.2997 56.9907C77.2997 56.9908 77.2996 56.9909 77.2995 56.991C77.2995 56.9911 77.2994 56.9912 77.2993 56.9913C77.2993 56.9914 77.2992 56.9915 77.2991 56.9916C77.2991 56.9917 77.299 56.9918 77.299 56.9919C77.2989 56.992 77.2988 56.9921 77.2988 56.9922C77.2987 56.9923 77.2986 56.9924 77.2986 56.9925C77.2985 56.9926 77.2985 56.9927 77.2984 56.9928C77.2983 56.9929 77.2983 56.993 77.2982 56.9931C77.2981 56.9932 77.2981 56.9933 77.298 56.9934C77.2979 56.9936 77.2979 56.9937 77.2978 56.9938C77.2978 56.9939 77.2977 56.994 77.2976 56.9941C77.2976 56.9942 77.2975 56.9943 77.2974 56.9944C77.2974 56.9945 77.2973 56.9946 77.2972 56.9947C77.2972 56.9948 77.2971 56.9949 77.2971 56.995C77.297 56.9951 77.2969 56.9952 77.2969 56.9953C77.2968 56.9954 77.2967 56.9955 77.2967 56.9956C77.2966 56.9957 77.2965 56.9958 77.2965 56.9959C77.2964 56.996 77.2964 56.9961 77.2963 56.9962C77.2962 56.9963 77.2962 56.9964 77.2961 56.9965C77.296 56.9966 77.296 56.9967 77.2959 56.9968C77.2958 56.9969 77.2958 56.997 77.2957 56.9971C77.2957 56.9972 77.2956 56.9973 77.2955 56.9974C77.2955 56.9975 77.2954 56.9976 77.2953 56.9977C77.2953 56.9978 77.2952 56.9979 77.2952 56.998C77.2951 56.9981 77.295 56.9982 77.295 56.9983C77.2949 56.9984 77.2948 56.9985 77.2948 56.9986C77.2947 56.9987 77.2946 56.9988 77.2946 56.9989C77.2945 56.999 77.2945 56.9991 77.2944 56.9992C77.2943 56.9993 77.2943 56.9994 77.2942 56.9995C77.2941 56.9996 77.2941 56.9997 77.294 56.9998C77.2939 56.9999 77.2939 57 77.2938 57.0001C77.2938 57.0002 77.2937 57.0003 77.2936 57.0004C77.2936 57.0005 77.2935 57.0006 77.2934 57.0007C77.2934 57.0008 77.2933 57.0009 77.2932 57.001C77.2932 57.0011 77.2931 57.0012 77.2931 57.0013C77.293 57.0014 77.2929 57.0015 77.2929 57.0016C77.2928 57.0017 77.2927 57.0018 77.2927 57.0019C77.2926 57.002 77.2925 57.0021 77.2925 57.0022C77.2924 57.0023 77.2924 57.0024 77.2923 57.0025C77.2922 57.0026 77.2922 57.0027 77.2921 57.0028C77.292 57.0029 77.292 57.003 77.2919 57.0031C77.2918 57.0032 77.2918 57.0033 77.2917 57.0034C77.2917 57.0035 77.2916 57.0036 77.2915 57.0037C77.2915 57.0038 77.2914 57.0039 77.2913 57.004C77.2913 57.0041 77.2912 57.0042 77.2911 57.0043C77.2911 57.0044 77.291 57.0045 77.291 57.0046C77.2909 57.0047 77.2908 57.0048 77.2908 57.0049C77.2907 57.005 77.2906 57.0051 77.2906 57.0052C77.2905 57.0053 77.2904 57.0054 77.2904 57.0055C77.2903 57.0056 77.2903 57.0057 77.2902 57.0058C77.2901 57.0059 77.2901 57.006 77.29 57.0061C77.2899 57.0062 77.2899 57.0063 77.2898 57.0064C77.2897 57.0065 77.2897 57.0066 77.2896 57.0067C77.2896 57.0068 77.2895 57.007 77.2894 57.0071C77.2894 57.0072 77.2893 57.0073 77.2892 57.0074C77.2892 57.0075 77.2891 57.0076 77.289 57.0077C77.289 57.0078 77.2889 57.0079 77.2889 57.008C77.2888 57.0081 77.2887 57.0082 77.2887 57.0083C77.2886 57.0084 77.2885 57.0085 77.2885 57.0086C77.2884 57.0087 77.2883 57.0088 77.2883 57.0089C77.2882 57.009 77.2882 57.0091 77.2881 57.0092C77.288 57.0093 77.288 57.0094 77.2879 57.0095C77.2878 57.0096 77.2878 57.0097 77.2877 57.0098C77.2876 57.0099 77.2876 57.01 77.2875 57.0101C77.2874 57.0102 77.2874 57.0103 77.2873 57.0104C77.2873 57.0105 77.2872 57.0106 77.2871 57.0107C77.2871 57.0108 77.287 57.0109 77.2869 57.011C77.2869 57.0111 77.2868 57.0112 77.2867 57.0113C77.2867 57.0114 77.2866 57.0115 77.2866 57.0116C77.2865 57.0117 77.2864 57.0118 77.2864 57.0119C77.2863 57.012 77.2862 57.0121 77.2862 57.0122C77.2861 57.0123 77.286 57.0124 77.286 57.0125C77.2859 57.0126 77.2859 57.0127 77.2858 57.0128C77.2857 57.0129 77.2857 57.013 77.2856 57.0131C77.2855 57.0132 77.2855 57.0133 77.2854 57.0134C77.2853 57.0135 77.2853 57.0136 77.2852 57.0137C77.2852 57.0138 77.2851 57.0139 77.285 57.014C77.285 57.0141 77.2849 57.0142 77.2848 57.0143C77.2848 57.0144 77.2847 57.0145 77.2846 57.0146C77.2846 57.0147 77.2845 57.0148 77.2844 57.0149C77.2844 57.015 77.2843 57.0151 77.2843 57.0152C77.2842 57.0153 77.2841 57.0154 77.2841 57.0156C77.284 57.0157 77.2839 57.0158 77.2839 57.0159C77.2838 57.016 77.2837 57.0161 77.2837 57.0162C77.2836 57.0163 77.2836 57.0164 77.2835 57.0165C77.2834 57.0166 77.2834 57.0167 77.2833 57.0168C77.2832 57.0169 77.2832 57.017 77.2831 57.0171C77.283 57.0172 77.283 57.0173 77.2829 57.0174C77.2828 57.0175 77.2828 57.0176 77.2827 57.0177C77.2827 57.0178 77.2826 57.0179 77.2825 57.018C77.2825 57.0181 77.2824 57.0182 77.2823 57.0183C77.2823 57.0184 77.2822 57.0185 77.2821 57.0186C77.2821 57.0187 77.282 57.0188 77.282 57.0189C77.2819 57.019 77.2818 57.0191 77.2818 57.0192C77.2817 57.0193 77.2816 57.0194 77.2816 57.0195C77.2815 57.0196 77.2814 57.0197 77.2814 57.0198C77.2813 57.0199 77.2812 57.02 77.2812 57.0201C77.2811 57.0202 77.2811 57.0203 77.281 57.0204C77.2809 57.0205 77.2809 57.0206 77.2808 57.0207C77.2807 57.0208 77.2807 57.0209 77.2806 57.021C77.2805 57.0211 77.2805 57.0212 77.2804 57.0213C77.2803 57.0214 77.2803 57.0215 77.2802 57.0216C77.2802 57.0217 77.2801 57.0218 77.28 57.0219C77.28 57.022 77.2799 57.0222 77.2798 57.0223C77.2798 57.0224 77.2797 57.0225 77.2796 57.0226C77.2796 57.0227 77.2795 57.0228 77.2795 57.0229C77.2794 57.023 77.2793 57.0231 77.2793 57.0232C77.2792 57.0233 77.2791 57.0234 77.2791 57.0235C77.279 57.0236 77.2789 57.0237 77.2789 57.0238C77.2788 57.0239 77.2787 57.024 77.2787 57.0241C77.2786 57.0242 77.2786 57.0243 77.2785 57.0244C77.2784 57.0245 77.2784 57.0246 77.2783 57.0247C77.2782 57.0248 77.2782 57.0249 77.2781 57.025C77.278 57.0251 77.278 57.0252 77.2779 57.0253C77.2778 57.0254 77.2778 57.0255 77.2777 57.0256C77.2777 57.0257 77.2776 57.0258 77.2775 57.0259C77.2775 57.026 77.2774 57.0261 77.2773 57.0262C77.2773 57.0263 77.2772 57.0264 77.2771 57.0265C77.2771 57.0266 77.277 57.0267 77.2769 57.0268C77.2769 57.0269 77.2768 57.027 77.2768 57.0271C77.2767 57.0272 77.2766 57.0273 77.2766 57.0274C77.2765 57.0276 77.2764 57.0277 77.2764 57.0278C77.2763 57.0279 77.2762 57.028 77.2762 57.0281C77.2761 57.0282 77.276 57.0283 77.276 57.0284C77.2759 57.0285 77.2758 57.0286 77.2758 57.0287C77.2757 57.0288 77.2757 57.0289 77.2756 57.029C77.2755 57.0291 77.2755 57.0292 77.2754 57.0293C77.2753 57.0294 77.2753 57.0295 77.2752 57.0296C77.2751 57.0297 77.2751 57.0298 77.275 57.0299C77.2749 57.03 77.2749 57.0301 77.2748 57.0302C77.2748 57.0303 77.2747 57.0304 77.2746 57.0305C77.2746 57.0306 77.2745 57.0307 77.2744 57.0308C77.2744 57.0309 77.2743 57.031 77.2742 57.0311C77.2742 57.0312 77.2741 57.0313 77.274 57.0314C77.274 57.0315 77.2739 57.0316 77.2738 57.0317C77.2738 57.0318 77.2737 57.0319 77.2737 57.032C77.2736 57.0322 77.2735 57.0323 77.2735 57.0324C77.2734 57.0325 77.2733 57.0326 77.2733 57.0327C77.2732 57.0328 77.2731 57.0329 77.2731 57.033C77.273 57.0331 77.2729 57.0332 77.2729 57.0333C77.2728 57.0334 77.2728 57.0335 77.2727 57.0336C77.2726 57.0337 77.2726 57.0338 77.2725 57.0339C77.2724 57.034 77.2724 57.0341 77.2723 57.0342C77.2722 57.0343 77.2722 57.0344 77.2721 57.0345C77.272 57.0346 77.272 57.0347 77.2719 57.0348C77.2718 57.0349 77.2718 57.035 77.2717 57.0351C77.2717 57.0352 77.2716 57.0353 77.2715 57.0354C77.2715 57.0355 77.2714 57.0356 77.2713 57.0357C77.2713 57.0358 77.2712 57.0359 77.2711 57.036C77.2711 57.0362 77.271 57.0363 77.2709 57.0364C77.2709 57.0365 77.2708 57.0366 77.2707 57.0367C77.2707 57.0368 77.2706 57.0369 77.2705 57.037C77.2705 57.0371 77.2704 57.0372 77.2704 57.0373C77.2703 57.0374 77.2702 57.0375 77.2702 57.0376C77.2701 57.0377 77.27 57.0378 77.27 57.0379C77.2699 57.038 77.2698 57.0381 77.2698 57.0382C77.2697 57.0383 77.2696 57.0384 77.2696 57.0385C77.2695 57.0386 77.2694 57.0387 77.2694 57.0388C77.2693 57.0389 77.2693 57.039 77.2692 57.0391C77.2691 57.0392 77.2691 57.0393 77.269 57.0394C77.2689 57.0395 77.2689 57.0396 77.2688 57.0397C77.2687 57.0399 77.2687 57.04 77.2686 57.0401C77.2685 57.0402 77.2685 57.0403 77.2684 57.0404C77.2683 57.0405 77.2683 57.0406 77.2682 57.0407C77.2681 57.0408 77.2681 57.0409 77.268 57.041C77.268 57.0411 77.2679 57.0412 77.2678 57.0413C77.2678 57.0414 77.2677 57.0415 77.2676 57.0416C77.2676 57.0417 77.2675 57.0418 77.2674 57.0419C77.2674 57.042 77.2673 57.0421 77.2672 57.0422C77.2672 57.0423 77.2671 57.0424 77.267 57.0425C77.267 57.0426 77.2669 57.0427 77.2668 57.0428C77.2668 57.0429 77.2667 57.043 77.2667 57.0432C77.2666 57.0433 77.2665 57.0434 77.2665 57.0435C77.2664 57.0436 77.2663 57.0437 77.2663 57.0438C77.2662 57.0439 77.2661 57.044 77.2661 57.0441C77.266 57.0442 77.2659 57.0443 77.2659 57.0444C77.2658 57.0445 77.2657 57.0446 77.2657 57.0447C77.2656 57.0448 77.2655 57.0449 77.2655 57.045C77.2654 57.0451 77.2653 57.0452 77.2653 57.0453C77.2652 57.0454 77.2652 57.0455 77.2651 57.0456C77.265 57.0457 77.265 57.0458 77.2649 57.0459C77.2648 57.046 77.2648 57.0461 77.2647 57.0463C77.2646 57.0464 77.2646 57.0465 77.2645 57.0466C77.2644 57.0467 77.2644 57.0468 77.2643 57.0469C77.2642 57.047 77.2642 57.0471 77.2641 57.0472C77.264 57.0473 77.264 57.0474 77.2639 57.0475C77.2638 57.0476 77.2638 57.0477 77.2637 57.0478C77.2637 57.0479 77.2636 57.048 77.2635 57.0481C77.2635 57.0482 77.2634 57.0483 77.2633 57.0484C77.2633 57.0485 77.2632 57.0486 77.2631 57.0487C77.2631 57.0488 77.263 57.0489 77.2629 57.049C77.2629 57.0492 77.2628 57.0493 77.2627 57.0494C77.2627 57.0495 77.2626 57.0496 77.2625 57.0497C77.2625 57.0498 77.2624 57.0499 77.2623 57.05C77.2623 57.0501 77.2622 57.0502 77.2621 57.0503C77.2621 57.0504 77.262 57.0505 77.2619 57.0506C77.2619 57.0507 77.2618 57.0508 77.2618 57.0509C77.2617 57.051 77.2616 57.0511 77.2616 57.0512C77.2615 57.0513 77.2614 57.0514 77.2614 57.0515C77.2613 57.0516 77.2612 57.0517 77.2612 57.0519C77.2611 57.052 77.261 57.0521 77.261 57.0522C77.2609 57.0523 77.2608 57.0524 77.2608 57.0525L99.2507 70.9249C99.2507 70.9248 99.2508 70.9247 99.2509 70.9246C99.2509 70.9245 99.251 70.9244 99.2511 70.9243C99.2511 70.9242 99.2512 70.9241 99.2512 70.924C99.2513 70.9239 99.2514 70.9238 99.2514 70.9237C99.2515 70.9236 99.2516 70.9235 99.2516 70.9234C99.2517 70.9233 99.2518 70.9232 99.2518 70.9231C99.2519 70.923 99.252 70.9228 99.252 70.9227C99.2521 70.9226 99.2522 70.9225 99.2522 70.9224C99.2523 70.9223 99.2524 70.9222 99.2524 70.9221C99.2525 70.922 99.2526 70.9219 99.2526 70.9218C99.2527 70.9217 99.2528 70.9216 99.2528 70.9215C99.2529 70.9214 99.253 70.9213 99.253 70.9212C99.2531 70.9211 99.2531 70.921 99.2532 70.9209C99.2533 70.9208 99.2533 70.9207 99.2534 70.9206C99.2535 70.9205 99.2535 70.9204 99.2536 70.9203C99.2537 70.9202 99.2537 70.92 99.2538 70.9199C99.2539 70.9198 99.2539 70.9197 99.254 70.9196C99.2541 70.9195 99.2541 70.9194 99.2542 70.9193C99.2543 70.9192 99.2543 70.9191 99.2544 70.919C99.2545 70.9189 99.2545 70.9188 99.2546 70.9187C99.2546 70.9186 99.2547 70.9185 99.2548 70.9184C99.2548 70.9183 99.2549 70.9182 99.255 70.9181C99.255 70.918 99.2551 70.9179 99.2552 70.9178C99.2552 70.9177 99.2553 70.9176 99.2554 70.9175C99.2554 70.9174 99.2555 70.9173 99.2556 70.9171C99.2556 70.917 99.2557 70.9169 99.2558 70.9168C99.2558 70.9167 99.2559 70.9166 99.256 70.9165C99.256 70.9164 99.2561 70.9163 99.2561 70.9162C99.2562 70.9161 99.2563 70.916 99.2563 70.9159C99.2564 70.9158 99.2565 70.9157 99.2565 70.9156C99.2566 70.9155 99.2567 70.9154 99.2567 70.9153C99.2568 70.9152 99.2569 70.9151 99.2569 70.915C99.257 70.9149 99.2571 70.9148 99.2571 70.9147C99.2572 70.9146 99.2573 70.9145 99.2573 70.9144C99.2574 70.9143 99.2575 70.9142 99.2575 70.9141C99.2576 70.9139 99.2576 70.9138 99.2577 70.9137C99.2578 70.9136 99.2578 70.9135 99.2579 70.9134C99.258 70.9133 99.258 70.9132 99.2581 70.9131C99.2582 70.913 99.2582 70.9129 99.2583 70.9128C99.2584 70.9127 99.2584 70.9126 99.2585 70.9125C99.2586 70.9124 99.2586 70.9123 99.2587 70.9122C99.2588 70.9121 99.2588 70.912 99.2589 70.9119C99.2589 70.9118 99.259 70.9117 99.2591 70.9116C99.2591 70.9115 99.2592 70.9114 99.2593 70.9113C99.2593 70.9112 99.2594 70.9111 99.2595 70.911C99.2595 70.9109 99.2596 70.9108 99.2597 70.9107C99.2597 70.9106 99.2598 70.9104 99.2599 70.9103C99.2599 70.9102 99.26 70.9101 99.26 70.91C99.2601 70.9099 99.2602 70.9098 99.2602 70.9097C99.2603 70.9096 99.2604 70.9095 99.2604 70.9094C99.2605 70.9093 99.2606 70.9092 99.2606 70.9091C99.2607 70.909 99.2608 70.9089 99.2608 70.9088C99.2609 70.9087 99.261 70.9086 99.261 70.9085C99.2611 70.9084 99.2612 70.9083 99.2612 70.9082C99.2613 70.9081 99.2613 70.908 99.2614 70.9079C99.2615 70.9078 99.2615 70.9077 99.2616 70.9076C99.2617 70.9075 99.2617 70.9074 99.2618 70.9073C99.2619 70.9072 99.2619 70.9071 99.262 70.907C99.2621 70.9069 99.2621 70.9068 99.2622 70.9067C99.2623 70.9065 99.2623 70.9064 99.2624 70.9063C99.2624 70.9062 99.2625 70.9061 99.2626 70.906C99.2626 70.9059 99.2627 70.9058 99.2628 70.9057C99.2628 70.9056 99.2629 70.9055 99.263 70.9054C99.263 70.9053 99.2631 70.9052 99.2632 70.9051C99.2632 70.905 99.2633 70.9049 99.2633 70.9048C99.2634 70.9047 99.2635 70.9046 99.2635 70.9045C99.2636 70.9044 99.2637 70.9043 99.2637 70.9042C99.2638 70.9041 99.2639 70.904 99.2639 70.9039C99.264 70.9038 99.2641 70.9037 99.2641 70.9036C99.2642 70.9035 99.2643 70.9034 99.2643 70.9033C99.2644 70.9032 99.2644 70.9031 99.2645 70.903C99.2646 70.9029 99.2646 70.9028 99.2647 70.9027C99.2648 70.9026 99.2648 70.9025 99.2649 70.9024C99.265 70.9022 99.265 70.9021 99.2651 70.902C99.2652 70.9019 99.2652 70.9018 99.2653 70.9017C99.2654 70.9016 99.2654 70.9015 99.2655 70.9014C99.2655 70.9013 99.2656 70.9012 99.2657 70.9011C99.2657 70.901 99.2658 70.9009 99.2659 70.9008C99.2659 70.9007 99.266 70.9006 99.2661 70.9005C99.2661 70.9004 99.2662 70.9003 99.2663 70.9002C99.2663 70.9001 99.2664 70.9 99.2664 70.8999C99.2665 70.8998 99.2666 70.8997 99.2666 70.8996C99.2667 70.8995 99.2668 70.8994 99.2668 70.8993C99.2669 70.8992 99.267 70.8991 99.267 70.899C99.2671 70.8989 99.2672 70.8988 99.2672 70.8987C99.2673 70.8986 99.2673 70.8985 99.2674 70.8984C99.2675 70.8983 99.2675 70.8982 99.2676 70.8981C99.2677 70.898 99.2677 70.8979 99.2678 70.8978C99.2679 70.8977 99.2679 70.8976 99.268 70.8975C99.2681 70.8973 99.2681 70.8972 99.2682 70.8971C99.2682 70.897 99.2683 70.8969 99.2684 70.8968C99.2684 70.8967 99.2685 70.8966 99.2686 70.8965C99.2686 70.8964 99.2687 70.8963 99.2688 70.8962C99.2688 70.8961 99.2689 70.896 99.269 70.8959C99.269 70.8958 99.2691 70.8957 99.2691 70.8956C99.2692 70.8955 99.2693 70.8954 99.2693 70.8953C99.2694 70.8952 99.2695 70.8951 99.2695 70.895C99.2696 70.8949 99.2697 70.8948 99.2697 70.8947C99.2698 70.8946 99.2699 70.8945 99.2699 70.8944C99.27 70.8943 99.27 70.8942 99.2701 70.8941C99.2702 70.894 99.2702 70.8939 99.2703 70.8938C99.2704 70.8937 99.2704 70.8936 99.2705 70.8935C99.2706 70.8934 99.2706 70.8933 99.2707 70.8932C99.2708 70.8931 99.2708 70.893 99.2709 70.8929C99.2709 70.8928 99.271 70.8927 99.2711 70.8926C99.2711 70.8925 99.2712 70.8924 99.2713 70.8923C99.2713 70.8922 99.2714 70.8921 99.2715 70.892C99.2715 70.8919 99.2716 70.8918 99.2716 70.8917C99.2717 70.8916 99.2718 70.8914 99.2718 70.8913C99.2719 70.8912 99.272 70.8911 99.272 70.891C99.2721 70.8909 99.2722 70.8908 99.2722 70.8907C99.2723 70.8906 99.2724 70.8905 99.2724 70.8904C99.2725 70.8903 99.2725 70.8902 99.2726 70.8901C99.2727 70.89 99.2727 70.8899 99.2728 70.8898C99.2729 70.8897 99.2729 70.8896 99.273 70.8895C99.2731 70.8894 99.2731 70.8893 99.2732 70.8892C99.2732 70.8891 99.2733 70.889 99.2734 70.8889C99.2734 70.8888 99.2735 70.8887 99.2736 70.8886C99.2736 70.8885 99.2737 70.8884 99.2738 70.8883C99.2738 70.8882 99.2739 70.8881 99.274 70.888C99.274 70.8879 99.2741 70.8878 99.2741 70.8877C99.2742 70.8876 99.2743 70.8875 99.2743 70.8874C99.2744 70.8873 99.2745 70.8872 99.2745 70.8871C99.2746 70.887 99.2747 70.8869 99.2747 70.8868C99.2748 70.8867 99.2748 70.8866 99.2749 70.8865C99.275 70.8864 99.275 70.8863 99.2751 70.8862C99.2752 70.8861 99.2752 70.886 99.2753 70.8859C99.2754 70.8858 99.2754 70.8857 99.2755 70.8856C99.2756 70.8855 99.2756 70.8854 99.2757 70.8853C99.2757 70.8852 99.2758 70.8851 99.2759 70.885C99.2759 70.8849 99.276 70.8848 99.2761 70.8847C99.2761 70.8846 99.2762 70.8845 99.2763 70.8844C99.2763 70.8843 99.2764 70.8842 99.2764 70.884C99.2765 70.8839 99.2766 70.8838 99.2766 70.8837C99.2767 70.8836 99.2768 70.8835 99.2768 70.8834C99.2769 70.8833 99.277 70.8832 99.277 70.8831C99.2771 70.883 99.2771 70.8829 99.2772 70.8828C99.2773 70.8827 99.2773 70.8826 99.2774 70.8825C99.2775 70.8824 99.2775 70.8823 99.2776 70.8822C99.2777 70.8821 99.2777 70.882 99.2778 70.8819C99.2778 70.8818 99.2779 70.8817 99.278 70.8816C99.278 70.8815 99.2781 70.8814 99.2782 70.8813C99.2782 70.8812 99.2783 70.8811 99.2784 70.881C99.2784 70.8809 99.2785 70.8808 99.2785 70.8807C99.2786 70.8806 99.2787 70.8805 99.2787 70.8804C99.2788 70.8803 99.2789 70.8802 99.2789 70.8801C99.279 70.88 99.2791 70.8799 99.2791 70.8798C99.2792 70.8797 99.2793 70.8796 99.2793 70.8795C99.2794 70.8794 99.2794 70.8793 99.2795 70.8792C99.2796 70.8791 99.2796 70.879 99.2797 70.8789C99.2798 70.8788 99.2798 70.8787 99.2799 70.8786C99.28 70.8785 99.28 70.8784 99.2801 70.8783C99.2801 70.8782 99.2802 70.8781 99.2803 70.878C99.2803 70.8779 99.2804 70.8778 99.2805 70.8777C99.2805 70.8776 99.2806 70.8775 99.2807 70.8774C99.2807 70.8773 99.2808 70.8772 99.2808 70.8771C99.2809 70.877 99.281 70.8769 99.281 70.8768C99.2811 70.8767 99.2812 70.8766 99.2812 70.8765C99.2813 70.8764 99.2814 70.8763 99.2814 70.8762C99.2815 70.8761 99.2815 70.876 99.2816 70.8759C99.2817 70.8758 99.2817 70.8757 99.2818 70.8756C99.2819 70.8755 99.2819 70.8754 99.282 70.8753C99.2821 70.8752 99.2821 70.8751 99.2822 70.875C99.2822 70.8749 99.2823 70.8748 99.2824 70.8747C99.2824 70.8746 99.2825 70.8745 99.2826 70.8744C99.2826 70.8743 99.2827 70.8742 99.2828 70.8741C99.2828 70.874 99.2829 70.8739 99.2829 70.8738C99.283 70.8736 99.2831 70.8735 99.2831 70.8734C99.2832 70.8733 99.2833 70.8732 99.2833 70.8731C99.2834 70.873 99.2835 70.8729 99.2835 70.8728C99.2836 70.8727 99.2836 70.8726 99.2837 70.8725C99.2838 70.8724 99.2838 70.8723 99.2839 70.8722C99.284 70.8721 99.284 70.872 99.2841 70.8719C99.2841 70.8718 99.2842 70.8717 99.2843 70.8716C99.2843 70.8715 99.2844 70.8714 99.2845 70.8713C99.2845 70.8712 99.2846 70.8711 99.2847 70.871C99.2847 70.8709 99.2848 70.8708 99.2848 70.8707C99.2849 70.8706 99.285 70.8705 99.285 70.8704C99.2851 70.8703 99.2852 70.8702 99.2852 70.8701C99.2853 70.87 99.2854 70.8699 99.2854 70.8698C99.2855 70.8697 99.2855 70.8696 99.2856 70.8695C99.2857 70.8694 99.2857 70.8693 99.2858 70.8692C99.2859 70.8691 99.2859 70.869 99.286 70.8689C99.2861 70.8688 99.2861 70.8687 99.2862 70.8686C99.2862 70.8685 99.2863 70.8684 99.2864 70.8683C99.2864 70.8682 99.2865 70.8681 99.2866 70.868C99.2866 70.8679 99.2867 70.8678 99.2868 70.8677C99.2868 70.8676 99.2869 70.8675 99.2869 70.8674C99.287 70.8673 99.2871 70.8672 99.2871 70.8671C99.2872 70.867 99.2873 70.8669 99.2873 70.8668C99.2874 70.8667 99.2875 70.8666 99.2875 70.8665C99.2876 70.8664 99.2876 70.8663 99.2877 70.8662C99.2878 70.8661 99.2878 70.866 99.2879 70.8659C99.288 70.8658 99.288 70.8657 99.2881 70.8656C99.2881 70.8655 99.2882 70.8654 99.2883 70.8653C99.2883 70.8652 99.2884 70.8651 99.2885 70.865C99.2885 70.8649 99.2886 70.8648 99.2887 70.8647C99.2887 70.8646 99.2888 70.8645 99.2888 70.8644C99.2889 70.8643 99.289 70.8642 99.289 70.8641C99.2891 70.864 99.2892 70.8639 99.2892 70.8638C99.2893 70.8637 99.2894 70.8636 99.2894 70.8635C99.2895 70.8634 99.2895 70.8633 99.2896 70.8632C99.2897 70.8631 99.2897 70.863 99.2898 70.8629C99.2899 70.8628 99.2899 70.8627 99.29 70.8626C99.2901 70.8625 99.2901 70.8624 99.2902 70.8623C99.2902 70.8622 99.2903 70.8621 99.2904 70.862C99.2904 70.8619 99.2905 70.8618 99.2906 70.8617C99.2906 70.8616 99.2907 70.8615 99.2907 70.8614C99.2908 70.8613 99.2909 70.8612 99.2909 70.8611C99.291 70.861 99.2911 70.8609 99.2911 70.8608C99.2912 70.8607 99.2913 70.8606 99.2913 70.8605C99.2914 70.8604 99.2914 70.8603 99.2915 70.8602C99.2916 70.8601 99.2916 70.86 99.2917 70.8599C99.2918 70.8598 99.2918 70.8597 99.2919 70.8596C99.292 70.8595 99.292 70.8594 99.2921 70.8593C99.2921 70.8592 99.2922 70.8591 99.2923 70.859C99.2923 70.8589 99.2924 70.8588 99.2925 70.8587C99.2925 70.8586 99.2926 70.8585 99.2926 70.8584C99.2927 70.8583 99.2928 70.8582 99.2928 70.8581C99.2929 70.858 99.293 70.8579 99.293 70.8578C99.2931 70.8577 99.2932 70.8576 99.2932 70.8575C99.2933 70.8574 99.2933 70.8573 99.2934 70.8572C99.2935 70.8571 99.2935 70.857 99.2936 70.8569C99.2937 70.8568 99.2937 70.8567 99.2938 70.8566C99.2939 70.8565 99.2939 70.8564 99.294 70.8563C99.294 70.8562 99.2941 70.8561 99.2942 70.856C99.2942 70.8559 99.2943 70.8558 99.2944 70.8557C99.2944 70.8556 99.2945 70.8555 99.2945 70.8554C99.2946 70.8553 99.2947 70.8552 99.2947 70.8551C99.2948 70.855 99.2949 70.8548 99.2949 70.8547C99.295 70.8546 99.2951 70.8545 99.2951 70.8544C99.2952 70.8543 99.2952 70.8542 99.2953 70.8541C99.2954 70.854 99.2954 70.8539 99.2955 70.8538C99.2956 70.8537 99.2956 70.8536 99.2957 70.8535C99.2958 70.8534 99.2958 70.8533 99.2959 70.8532C99.2959 70.8531 99.296 70.853 99.2961 70.8529C99.2961 70.8528 99.2962 70.8527 99.2963 70.8526C99.2963 70.8525 99.2964 70.8524 99.2964 70.8523C99.2965 70.8522 99.2966 70.8521 99.2966 70.852C99.2967 70.8519 99.2968 70.8518 99.2968 70.8517C99.2969 70.8516 99.297 70.8515 99.297 70.8514C99.2971 70.8513 99.2971 70.8512 99.2972 70.8511C99.2973 70.851 99.2973 70.8509 99.2974 70.8508C99.2975 70.8507 99.2975 70.8506 99.2976 70.8505C99.2977 70.8504 99.2977 70.8503 99.2978 70.8502C99.2978 70.8501 99.2979 70.85 99.298 70.8499C99.298 70.8498 99.2981 70.8497 99.2982 70.8496C99.2982 70.8495 99.2983 70.8494 99.2983 70.8493C99.2984 70.8492 99.2985 70.8491 99.2985 70.849C99.2986 70.8489 99.2987 70.8488 99.2987 70.8487C99.2988 70.8486 99.2989 70.8485 99.2989 70.8484C99.299 70.8483 99.299 70.8482 99.2991 70.8481C99.2992 70.848 99.2992 70.8479 99.2993 70.8478C99.2994 70.8477 99.2994 70.8476 99.2995 70.8475C99.2995 70.8474 99.2996 70.8473 99.2997 70.8472C99.2997 70.8471 99.2998 70.847 99.2999 70.8469C99.2999 70.8468 99.3 70.8467 99.3001 70.8466C99.3001 70.8465 99.3002 70.8464 99.3002 70.8463C99.3003 70.8462 99.3004 70.8461 99.3004 70.846C99.3005 70.8459 99.3006 70.8458 99.3006 70.8457C99.3007 70.8456 99.3008 70.8455 99.3008 70.8454C99.3009 70.8453 99.3009 70.8452 99.301 70.8451C99.3011 70.845 99.3011 70.8449 99.3012 70.8448C99.3013 70.8447 99.3013 70.8446 99.3014 70.8445C99.3014 70.8444 99.3015 70.8443 99.3016 70.8442C99.3016 70.8441 99.3017 70.844 99.3018 70.8439C99.3018 70.8438 99.3019 70.8437 99.302 70.8436C99.302 70.8435 99.3021 70.8434 99.3021 70.8433C99.3022 70.8432 99.3023 70.8431 99.3023 70.843C99.3024 70.8429 99.3025 70.8428 99.3025 70.8427C99.3026 70.8426 99.3027 70.8425 99.3027 70.8424C99.3028 70.8423 99.3028 70.8422 99.3029 70.8421C99.303 70.842 99.303 70.8419 99.3031 70.8418C99.3032 70.8417 99.3032 70.8416 99.3033 70.8415C99.3033 70.8414 99.3034 70.8413 99.3035 70.8412C99.3035 70.8411 99.3036 70.841 99.3037 70.8409C99.3037 70.8408 99.3038 70.8407 99.3039 70.8406C99.3039 70.8405 99.304 70.8404 99.304 70.8403C99.3041 70.8402 99.3042 70.8401 99.3042 70.84C99.3043 70.8399 99.3044 70.8398 99.3044 70.8397C99.3045 70.8396 99.3046 70.8395 99.3046 70.8394C99.3047 70.8393 99.3047 70.8392 99.3048 70.8391C99.3049 70.839 99.3049 70.8389 99.305 70.8388C99.3051 70.8387 99.3051 70.8386 99.3052 70.8385C99.3052 70.8384 99.3053 70.8383 99.3054 70.8382C99.3054 70.8381 99.3055 70.838 99.3056 70.8379C99.3056 70.8378 99.3057 70.8377 99.3058 70.8376C99.3058 70.8375 99.3059 70.8374 99.3059 70.8373C99.306 70.8372 99.3061 70.8371 99.3061 70.837C99.3062 70.8369 99.3063 70.8368 99.3063 70.8367C99.3064 70.8366 99.3064 70.8365 99.3065 70.8364C99.3066 70.8363 99.3066 70.8362 99.3067 70.8361C99.3068 70.836 99.3068 70.8359 99.3069 70.8358C99.307 70.8357 99.307 70.8356 99.3071 70.8355C99.3071 70.8354 99.3072 70.8353 99.3073 70.8352C99.3073 70.8351 99.3074 70.835 99.3075 70.8349C99.3075 70.8348 99.3076 70.8347 99.3077 70.8346C99.3077 70.8345 99.3078 70.8344 99.3078 70.8343C99.3079 70.8342 99.308 70.8341 99.308 70.834C99.3081 70.8339 99.3082 70.8338 99.3082 70.8337C99.3083 70.8336 99.3084 70.8335 99.3084 70.8334C99.3085 70.8333 99.3085 70.8332 99.3086 70.8331C99.3087 70.833 99.3087 70.8329 99.3088 70.8328C99.3089 70.8327 99.3089 70.8326 99.309 70.8325C99.309 70.8324 99.3091 70.8323 99.3092 70.8322C99.3092 70.8321 99.3093 70.832 99.3094 70.8319C99.3094 70.8318 99.3095 70.8317 99.3096 70.8316C99.3096 70.8315 99.3097 70.8314 99.3097 70.8313C99.3098 70.8312 99.3099 70.8311 99.3099 70.831C99.31 70.8309 99.3101 70.8308 99.3101 70.8307C99.3102 70.8306 99.3103 70.8305 99.3103 70.8304C99.3104 70.8303 99.3104 70.8302 99.3105 70.8301C99.3106 70.83 99.3106 70.8299 99.3107 70.8298C99.3108 70.8297 99.3108 70.8296 99.3109 70.8295C99.3109 70.8294 99.311 70.8293 99.3111 70.8292C99.3111 70.8291 99.3112 70.829 99.3113 70.8289C99.3113 70.8288 99.3114 70.8287 99.3115 70.8285C99.3115 70.8284 99.3116 70.8283 99.3116 70.8282C99.3117 70.8281 99.3118 70.828 99.3118 70.8279C99.3119 70.8278 99.312 70.8277 99.312 70.8276C99.3121 70.8275 99.3122 70.8274 99.3122 70.8273C99.3123 70.8272 99.3123 70.8271 99.3124 70.827C99.3125 70.8269 99.3125 70.8268 99.3126 70.8267C99.3127 70.8266 99.3127 70.8265 99.3128 70.8264C99.3129 70.8263 99.3129 70.8262 99.313 70.8261C99.313 70.826 99.3131 70.8259 99.3132 70.8258C99.3132 70.8257 99.3133 70.8256 99.3134 70.8255C99.3134 70.8254 99.3135 70.8253 99.3136 70.8252C99.3136 70.8251 99.3137 70.825 99.3137 70.8249C99.3138 70.8248 99.3139 70.8247 99.3139 70.8246C99.314 70.8245 99.3141 70.8244 99.3141 70.8243C99.3142 70.8242 99.3142 70.8241 99.3143 70.824C99.3144 70.8239 99.3144 70.8238 99.3145 70.8237C99.3146 70.8236 99.3146 70.8235 99.3147 70.8234C99.3148 70.8233 99.3148 70.8232 99.3149 70.8231C99.3149 70.823 99.315 70.8229 99.3151 70.8228C99.3151 70.8227 99.3152 70.8226 99.3153 70.8225C99.3153 70.8224 99.3154 70.8223 99.3155 70.8222C99.3155 70.8221 99.3156 70.822 99.3156 70.8219C99.3157 70.8218 99.3158 70.8217 99.3158 70.8216C99.3159 70.8215 99.316 70.8214 99.316 70.8213C99.3161 70.8212 99.3162 70.8211 99.3162 70.821C99.3163 70.8209 99.3163 70.8208 99.3164 70.8207C99.3165 70.8206 99.3165 70.8205 99.3166 70.8204C99.3167 70.8203 99.3167 70.8202 99.3168 70.8201C99.3169 70.82 99.3169 70.8199 99.317 70.8198C99.317 70.8197 99.3171 70.8196 99.3172 70.8195C99.3172 70.8194 99.3173 70.8193 99.3174 70.8192C99.3174 70.8191 99.3175 70.819 99.3176 70.8189C99.3176 70.8188 99.3177 70.8187 99.3177 70.8186C99.3178 70.8185 99.3179 70.8184 99.3179 70.8183C99.318 70.8182 99.3181 70.8181 99.3181 70.818C99.3182 70.8179 99.3183 70.8178 99.3183 70.8177C99.3184 70.8176 99.3184 70.8175 99.3185 70.8174C99.3186 70.8173 99.3186 70.8172 99.3187 70.8171C99.3188 70.817 99.3188 70.8169 99.3189 70.8168C99.319 70.8167 99.319 70.8166 99.3191 70.8165C99.3191 70.8164 99.3192 70.8163 99.3193 70.8162C99.3193 70.8161 99.3194 70.816 99.3195 70.8159C99.3195 70.8158 99.3196 70.8157 99.3197 70.8156C99.3197 70.8155 99.3198 70.8154 99.3198 70.8153C99.3199 70.8152 99.32 70.8151 99.32 70.815C99.3201 70.8148 99.3202 70.8147 99.3202 70.8146C99.3203 70.8145 99.3204 70.8144 99.3204 70.8143C99.3205 70.8142 99.3205 70.8141 99.3206 70.814C99.3207 70.8139 99.3207 70.8138 99.3208 70.8137C99.3209 70.8136 99.3209 70.8135 99.321 70.8134C99.3211 70.8133 99.3211 70.8132 99.3212 70.8131C99.3212 70.813 99.3213 70.8129 99.3214 70.8128C99.3214 70.8127 99.3215 70.8126 99.3216 70.8125C99.3216 70.8124 99.3217 70.8123 99.3218 70.8122C99.3218 70.8121 99.3219 70.812 99.3219 70.8119C99.322 70.8118 99.3221 70.8117 99.3221 70.8116C99.3222 70.8115 99.3223 70.8114 99.3223 70.8113C99.3224 70.8112 99.3225 70.8111 99.3225 70.811C99.3226 70.8109 99.3226 70.8108 99.3227 70.8107C99.3228 70.8106 99.3228 70.8105 99.3229 70.8104C99.323 70.8103 99.323 70.8102 99.3231 70.8101C99.3232 70.81 99.3232 70.8099 99.3233 70.8098C99.3234 70.8097 99.3234 70.8096 99.3235 70.8095C99.3235 70.8094 99.3236 70.8093 99.3237 70.8092C99.3237 70.8091 99.3238 70.809 99.3239 70.8089C99.3239 70.8088 99.324 70.8087 99.3241 70.8086C99.3241 70.8085 99.3242 70.8084 99.3242 70.8083C99.3243 70.8082 99.3244 70.8081 99.3244 70.808C99.3245 70.8079 99.3246 70.8078 99.3246 70.8077C99.3247 70.8076 99.3248 70.8075 99.3248 70.8074C99.3249 70.8073 99.3249 70.8072 99.325 70.8071C99.3251 70.807 99.3251 70.8069 99.3252 70.8068C99.3253 70.8067 99.3253 70.8066 99.3254 70.8065C99.3255 70.8064 99.3255 70.8063 99.3256 70.8062C99.3257 70.806 99.3257 70.8059 99.3258 70.8058C99.3258 70.8057 99.3259 70.8056 99.326 70.8055C99.326 70.8054 99.3261 70.8053 99.3262 70.8052C99.3262 70.8051 99.3263 70.805 99.3264 70.8049C99.3264 70.8048 99.3265 70.8047 99.3265 70.8046C99.3266 70.8045 99.3267 70.8044 99.3267 70.8043C99.3268 70.8042 99.3269 70.8041 99.3269 70.804C99.327 70.8039 99.3271 70.8038 99.3271 70.8037C99.3272 70.8036 99.3273 70.8035 99.3273 70.8034C99.3274 70.8033 99.3274 70.8032 99.3275 70.8031C99.3276 70.803 99.3276 70.8029 99.3277 70.8028C99.3278 70.8027 99.3278 70.8026 99.3279 70.8025C99.328 70.8024 99.328 70.8023 99.3281 70.8022C99.3281 70.8021 99.3282 70.802 99.3283 70.8019C99.3283 70.8018 99.3284 70.8017 99.3285 70.8016C99.3285 70.8015 99.3286 70.8014 99.3287 70.8013C99.3287 70.8012 99.3288 70.8011 99.3289 70.801C99.3289 70.8009 99.329 70.8008 99.329 70.8007C99.3291 70.8006 99.3292 70.8005 99.3292 70.8004C99.3293 70.8003 99.3294 70.8002 99.3294 70.8001C99.3295 70.8 99.3296 70.7999 99.3296 70.7998C99.3297 70.7997 99.3298 70.7996 99.3298 70.7994C99.3299 70.7993 99.3299 70.7992 99.33 70.7991C99.3301 70.799 99.3301 70.7989 99.3302 70.7988C99.3303 70.7987 99.3303 70.7986 99.3304 70.7985C99.3305 70.7984 99.3305 70.7983 99.3306 70.7982C99.3306 70.7981 99.3307 70.798 99.3308 70.7979C99.3308 70.7978 99.3309 70.7977 99.331 70.7976C99.331 70.7975 99.3311 70.7974 99.3312 70.7973C99.3312 70.7972 99.3313 70.7971 99.3314 70.797C99.3314 70.7969 99.3315 70.7968 99.3315 70.7967C99.3316 70.7966 99.3317 70.7965 99.3317 70.7964C99.3318 70.7963 99.3319 70.7962 99.3319 70.7961C99.332 70.796 99.3321 70.7959 99.3321 70.7958C99.3322 70.7957 99.3323 70.7956 99.3323 70.7955C99.3324 70.7954 99.3324 70.7953 99.3325 70.7952C99.3326 70.7951 99.3326 70.795 99.3327 70.7949C99.3328 70.7948 99.3328 70.7947 99.3329 70.7946C99.333 70.7945 99.333 70.7944 99.3331 70.7943C99.3332 70.7942 99.3332 70.794 99.3333 70.7939C99.3334 70.7938 99.3334 70.7937 99.3335 70.7936C99.3335 70.7935 99.3336 70.7934 99.3337 70.7933C99.3337 70.7932 99.3338 70.7931 99.3339 70.793C99.3339 70.7929 99.334 70.7928 99.3341 70.7927C99.3341 70.7926 99.3342 70.7925 99.3343 70.7924C99.3343 70.7923 99.3344 70.7922 99.3344 70.7921C99.3345 70.792 99.3346 70.7919 99.3346 70.7918C99.3347 70.7917 99.3348 70.7916 99.3348 70.7915C99.3349 70.7914 99.335 70.7913 99.335 70.7912C99.3351 70.7911 99.3352 70.791 99.3352 70.7909C99.3353 70.7908 99.3353 70.7907 99.3354 70.7906C99.3355 70.7905 99.3355 70.7904 99.3356 70.7903C99.3357 70.7902 99.3357 70.7901 99.3358 70.79C99.3359 70.7899 99.3359 70.7898 99.336 70.7897C99.3361 70.7896 99.3361 70.7894 99.3362 70.7893C99.3363 70.7892 99.3363 70.7891 99.3364 70.789C99.3364 70.7889 99.3365 70.7888 99.3366 70.7887C99.3366 70.7886 99.3367 70.7885 99.3368 70.7884C99.3368 70.7883 99.3369 70.7882 99.337 70.7881C99.337 70.788 99.3371 70.7879 99.3372 70.7878C99.3372 70.7877 99.3373 70.7876 99.3374 70.7875C99.3374 70.7874 99.3375 70.7873 99.3375 70.7872C99.3376 70.7871 99.3377 70.787 99.3377 70.7869C99.3378 70.7868 99.3379 70.7867 99.3379 70.7866C99.338 70.7865 99.3381 70.7864 99.3381 70.7863C99.3382 70.7862 99.3383 70.7861 99.3383 70.786C99.3384 70.7859 99.3385 70.7858 99.3385 70.7857C99.3386 70.7856 99.3386 70.7855 99.3387 70.7853C99.3388 70.7852 99.3388 70.7851 99.3389 70.785C99.339 70.7849 99.339 70.7848 99.3391 70.7847C99.3392 70.7846 99.3392 70.7845 99.3393 70.7844C99.3394 70.7843 99.3394 70.7842 99.3395 70.7841C99.3396 70.784 99.3396 70.7839 99.3397 70.7838C99.3397 70.7837 99.3398 70.7836 99.3399 70.7835C99.3399 70.7834 99.34 70.7833 99.3401 70.7832C99.3401 70.7831 99.3402 70.783 99.3403 70.7829C99.3403 70.7828 99.3404 70.7827 99.3405 70.7826C99.3405 70.7825 99.3406 70.7824 99.3407 70.7823C99.3407 70.7822 99.3408 70.7821 99.3409 70.782C99.3409 70.7819 99.341 70.7818 99.341 70.7816C99.3411 70.7815 99.3412 70.7814 99.3412 70.7813C99.3413 70.7812 99.3414 70.7811 99.3414 70.781C99.3415 70.7809 99.3416 70.7808 99.3416 70.7807C99.3417 70.7806 99.3418 70.7805 99.3418 70.7804C99.3419 70.7803 99.342 70.7802 99.342 70.7801C99.3421 70.78 99.3422 70.7799 99.3422 70.7798C99.3423 70.7797 99.3423 70.7796 99.3424 70.7795C99.3425 70.7794 99.3425 70.7793 99.3426 70.7792C99.3427 70.7791 99.3427 70.779 99.3428 70.7789C99.3429 70.7788 99.3429 70.7787 99.343 70.7786C99.3431 70.7785 99.3431 70.7783 99.3432 70.7782C99.3433 70.7781 99.3433 70.778 99.3434 70.7779C99.3435 70.7778 99.3435 70.7777 99.3436 70.7776C99.3436 70.7775 99.3437 70.7774 99.3438 70.7773C99.3438 70.7772 99.3439 70.7771 99.344 70.777C99.344 70.7769 99.3441 70.7768 99.3442 70.7767C99.3442 70.7766 99.3443 70.7765 99.3444 70.7764C99.3444 70.7763 99.3445 70.7762 99.3446 70.7761C99.3446 70.776 99.3447 70.7759 99.3448 70.7758C99.3448 70.7757 99.3449 70.7756 99.345 70.7755C99.345 70.7754 99.3451 70.7752 99.3451 70.7751C99.3452 70.775 99.3453 70.7749 99.3453 70.7748C99.3454 70.7747 99.3455 70.7746 99.3455 70.7745C99.3456 70.7744 99.3457 70.7743 99.3457 70.7742C99.3458 70.7741 99.3459 70.774 99.3459 70.7739C99.346 70.7738 99.3461 70.7737 99.3461 70.7736C99.3462 70.7735 99.3463 70.7734 99.3463 70.7733C99.3464 70.7732 99.3465 70.7731 99.3465 70.773C99.3466 70.7729 99.3467 70.7728 99.3467 70.7727C99.3468 70.7726 99.3468 70.7725 99.3469 70.7723C99.347 70.7722 99.347 70.7721 99.3471 70.772C99.3472 70.7719 99.3472 70.7718 99.3473 70.7717C99.3474 70.7716 99.3474 70.7715 99.3475 70.7714C99.3476 70.7713 99.3476 70.7712 99.3477 70.7711C99.3478 70.771 99.3478 70.7709 99.3479 70.7708C99.348 70.7707 99.348 70.7706 99.3481 70.7705C99.3482 70.7704 99.3482 70.7703 99.3483 70.7702C99.3484 70.7701 99.3484 70.77 99.3485 70.7699C99.3486 70.7698 99.3486 70.7696 99.3487 70.7695C99.3487 70.7694 99.3488 70.7693 99.3489 70.7692C99.3489 70.7691 99.349 70.769 99.3491 70.7689L77.3592 56.8965ZM100.924 61.0722L100.923 61.066L75.5857 66.899L75.5871 66.9052L100.924 61.0722Z" fill="#F8B21F" mask="url(#path-13-inside-7_528_191)"/>
</g>
<defs>
<clipPath id="clip0_528_191">
<rect width="91.1803" height="60.3399" fill="white" transform="translate(32.9893) rotate(32.246)"/>
</clipPath>
</defs>
</svg>
