<svg width="41" height="46" viewBox="0 0 41 46" fill="none" xmlns="http://www.w3.org/2000/svg">
<path d="M40.9323 38.8074C40.8306 38.5779 40.6356 38.4163 40.3982 38.3568C42.06 36.1123 40.0505 33.1621 37.2016 33.2216H32.5551C32.1736 31.5212 30.9017 30.1183 29.2059 29.6167L24.2966 28.1458L22.8976 26.0373C22.6602 25.6802 22.1854 25.5782 21.8208 25.8077V24.1754C23.2791 22.951 24.2966 21.2251 24.6358 19.2696C26.569 19.4142 28.2563 17.8923 28.2563 15.9028C28.2563 15.1291 27.985 14.4235 27.5356 13.8623V10.351C26.9505 -2.60622 6.16014 -2.61473 5.56661 10.351V13.8708C3.76907 16.1154 5.58355 19.5162 8.4664 19.2781C8.80556 21.2336 9.83153 22.9596 11.2899 24.1924L11.2645 25.7992C10.9084 25.5867 10.442 25.6972 10.2131 26.0458L8.81404 28.1543L3.9132 29.6252C1.86977 30.2373 0.445312 32.1588 0.445312 34.2928V44.0532C0.445312 44.4868 0.801423 44.8439 1.23385 44.8439C10.6116 44.7334 31.0628 45.0565 40.2116 45.031C40.8815 45.048 41.263 44.1723 40.7882 43.6961C39.4824 42.3018 39.4824 41.0605 40.7882 39.6747C41.0002 39.4451 41.0595 39.105 40.9408 38.8159L40.9323 38.8074ZM39.4231 36.5714C39.4231 37.5406 38.431 38.3398 37.2016 38.3398H25.1106C25.2717 38.0168 25.3904 37.6937 25.4667 37.3621H31.8938C32.9282 37.3621 32.9282 35.7892 31.8938 35.7807H25.4667C25.3904 35.4576 25.2802 35.126 25.1106 34.8115H37.2016C38.4226 34.8115 39.4231 35.6022 39.4231 36.5714ZM21.9988 27.5337L22.8891 28.877L21.0746 32.4564L17.9798 29.8632L21.9988 27.5337ZM24.9325 17.6968H24.7714V14.1514C27.1625 14.0239 27.3575 17.6032 24.9325 17.6968ZM16.5553 2.16345C21.7445 2.16345 25.9585 5.83635 25.9585 10.3595V12.757C25.5854 12.6295 25.1699 12.5615 24.763 12.5785V9.38172C24.763 8.96512 24.4408 8.61653 24.0168 8.59102C21.9819 8.472 20.5489 8.16592 19.6332 7.64729C19.3534 7.48575 19.0058 7.51126 18.7599 7.71531C16.4197 9.56876 13.3418 9.86634 9.3567 8.62503C9.11929 8.54851 8.85643 8.59103 8.65294 8.74406C8.44944 8.8971 8.33073 9.12666 8.33073 9.38172V12.5785C7.92374 12.5615 7.50827 12.6295 7.1352 12.757V10.351C7.1352 5.82785 11.3577 2.15494 16.5468 2.15494L16.5553 2.16345ZM6.43145 15.9113C6.43145 14.8741 7.32174 14.0834 8.33922 14.1599V17.7053C7.31327 17.7818 6.42298 16.9911 6.43145 15.9198V15.9113ZM9.91632 17.8753C9.93328 16.0984 9.90784 12.1789 9.91632 10.436C13.6979 11.4052 16.8606 11.0141 19.3279 9.27119C20.2945 9.7133 21.5494 9.98537 23.1859 10.1299V17.8838C22.8552 26.7005 10.247 26.7005 9.91632 17.8838V17.8753ZM12.8755 25.2211C15.063 26.3944 18.0646 26.3859 20.2521 25.2211V26.726L16.5638 28.8685L12.8755 26.726V25.2211ZM11.1203 27.5337L15.1393 29.8718L12.0445 32.4649L10.2215 28.8855L11.1118 27.5422L11.1203 27.5337ZM2.02239 34.2928C2.02239 32.8475 2.989 31.5467 4.37107 31.1386L8.91578 29.7782L11.0949 34.0718C11.3069 34.5139 11.9343 34.6414 12.2989 34.3183L15.8092 31.3766L15.7668 43.271H2.01392V34.3013L2.02239 34.2928ZM17.3863 31.4361L20.8202 34.3098C21.1933 34.6329 21.8123 34.5054 22.0243 34.0633L24.2033 29.7782L28.7481 31.1386C29.774 31.4446 30.5711 32.2438 30.9017 33.2301H23.559C22.8891 33.2046 22.5075 34.0888 22.9824 34.5649C24.2881 35.9592 24.2881 37.2006 22.9824 38.5864C22.7704 38.8159 22.7111 39.156 22.8298 39.4451C22.9315 39.6747 23.1265 39.8362 23.3639 39.8957C22.6263 40.8479 22.5669 42.2593 23.2368 43.271H17.3269L17.3693 31.4446L17.3863 31.4361ZM26.5775 43.4411C23.6522 43.3731 23.6437 39.9807 26.5775 39.9127H37.2016H38.6769C38.5158 40.2358 38.3971 40.5589 38.3208 40.882H31.8938C30.8593 40.882 30.8593 42.4548 31.8938 42.4633H38.3208C38.3971 42.7864 38.5074 43.118 38.6769 43.4411H26.5859H26.5775Z" fill="#0056B1"/>
</svg>
