<svg width="68" height="68" viewBox="0 0 68 68" fill="none" xmlns="http://www.w3.org/2000/svg">
<path d="M49.7034 54.5488C48.6367 54.55 47.614 54.9742 46.8596 55.7284C46.1053 56.4826 45.681 57.5053 45.6797 58.572C45.8688 63.8962 53.5379 63.8951 53.726 58.572C53.7249 57.5054 53.3007 56.4828 52.5466 55.7286C51.7925 54.9744 50.7699 54.5501 49.7034 54.5488ZM49.7034 60.4701C49.2 60.4701 48.7171 60.2702 48.3612 59.9142C48.0052 59.5582 47.8052 59.0754 47.8052 58.572C47.8052 58.0686 48.0052 57.5858 48.3612 57.2298C48.7171 56.8738 49.2 56.6738 49.7034 56.6738C50.2068 56.6738 50.6896 56.8738 51.0456 57.2298C51.4015 57.5858 51.6015 58.0686 51.6015 58.572C51.6015 59.0754 51.4015 59.5582 51.0456 59.9142C50.6896 60.2702 50.2068 60.4701 49.7034 60.4701Z" fill="#0056B1"/>
<path d="M53.7259 38.4474C53.7247 37.381 53.3004 36.3585 52.5463 35.6044C51.7922 34.8503 50.7698 34.4261 49.7033 34.4248C44.3781 34.6139 44.3796 42.2825 49.7033 42.4706C50.7699 42.4693 51.7924 42.045 52.5465 41.2908C53.3006 40.5366 53.7248 39.514 53.7259 38.4474ZM47.8046 38.4474C47.8046 37.944 48.0046 37.4612 48.3606 37.1052C48.7165 36.7493 49.1993 36.5493 49.7028 36.5493C50.2062 36.5493 50.689 36.7493 51.045 37.1052C51.4009 37.4612 51.6009 37.944 51.6009 38.4474C51.6009 38.9509 51.4009 39.4337 51.045 39.7896C50.689 40.1456 50.2062 40.3456 49.7028 40.3456C49.1993 40.3456 48.7165 40.1456 48.3606 39.7896C48.0046 39.4337 47.8046 38.9509 47.8046 38.4474Z" fill="#0056B1"/>
<path d="M59.9782 13.959H39.3657C38.6615 13.9598 37.9864 14.24 37.4884 14.7379C36.9904 15.2359 36.7103 15.911 36.7095 16.6152V20.4981C36.7103 21.2024 36.9904 21.8775 37.4884 22.3755C37.9864 22.8734 38.6615 23.1535 39.3657 23.1544H59.9782C60.6824 23.1535 61.3576 22.8734 61.8555 22.3755C62.3535 21.8775 62.6336 21.2024 62.6345 20.4981V16.6152C62.6336 15.911 62.3535 15.2359 61.8555 14.7379C61.3576 14.24 60.6824 13.9598 59.9782 13.959ZM60.5095 20.4981C60.5095 20.639 60.4535 20.7742 60.3539 20.8738C60.2542 20.9734 60.1191 21.0294 59.9782 21.0294H39.3657C39.2248 21.0294 39.0897 20.9734 38.9901 20.8738C38.8904 20.7742 38.8345 20.639 38.8345 20.4981V16.6152C38.8345 16.4743 38.8904 16.3392 38.9901 16.2396C39.0897 16.14 39.2248 16.084 39.3657 16.084H59.9782C60.1191 16.084 60.2542 16.14 60.3539 16.2396C60.4535 16.3392 60.5095 16.4743 60.5095 16.6152V20.4981Z" fill="#0056B1"/>
<path d="M59.9782 43.958H39.3657C38.6615 43.9589 37.9864 44.239 37.4884 44.7369C36.9904 45.2349 36.7103 45.91 36.7095 46.6143V50.4966C36.7103 51.2009 36.9904 51.876 37.4884 52.374C37.9864 52.8719 38.6615 53.152 39.3657 53.1529H59.9782C60.6824 53.152 61.3576 52.8719 61.8555 52.374C62.3535 51.876 62.6336 51.2009 62.6345 50.4966V46.6143C62.6336 45.91 62.3535 45.2349 61.8555 44.7369C61.3576 44.239 60.6824 43.9589 59.9782 43.958ZM60.5095 50.4966C60.5095 50.6375 60.4535 50.7727 60.3539 50.8723C60.2542 50.9719 60.1191 51.0279 59.9782 51.0279H39.3657C39.2248 51.0279 39.0897 50.9719 38.9901 50.8723C38.8904 50.7727 38.8345 50.6375 38.8345 50.4966V46.6143C38.8345 46.4734 38.8904 46.3382 38.9901 46.2386C39.0897 46.139 39.2248 46.083 39.3657 46.083H59.9782C60.1191 46.083 60.2542 46.139 60.3539 46.2386C60.4535 46.3382 60.5095 46.4734 60.5095 46.6143V50.4966Z" fill="#0056B1"/>
<path d="M28.3814 13.9594H23.2017C23.0608 13.9594 22.9257 13.9035 22.8261 13.8038C22.7264 13.7042 22.6705 13.5691 22.6705 13.4282V8.24902C22.6696 7.5448 22.3895 6.86966 21.8915 6.3717C21.3936 5.87374 20.7184 5.59362 20.0142 5.59277H16.1313C15.4271 5.59362 14.7519 5.87374 14.254 6.3717C13.756 6.86966 13.4759 7.5448 13.4751 8.24902V13.4282C13.4751 13.5691 13.4191 13.7042 13.3195 13.8038C13.2198 13.9035 13.0847 13.9594 12.9438 13.9594H7.76465C7.06043 13.9603 6.38529 14.2404 5.88733 14.7384C5.38937 15.2363 5.10924 15.9115 5.1084 16.6157V20.4986C5.10924 21.2028 5.38937 21.8779 5.88733 22.3759C6.38529 22.8739 7.06043 23.154 7.76465 23.1548H12.9438C13.0847 23.1548 13.2198 23.2108 13.3195 23.3104C13.4191 23.4101 13.4751 23.5452 13.4751 23.6861V28.8658C13.4759 29.57 13.756 30.2451 14.254 30.7431C14.7519 31.2411 15.4271 31.5212 16.1313 31.522H20.0142C20.7184 31.5212 21.3936 31.2411 21.8915 30.7431C22.3895 30.2451 22.6696 29.57 22.6705 28.8658V23.6861C22.6705 23.5452 22.7264 23.4101 22.8261 23.3104C22.9257 23.2108 23.0608 23.1548 23.2017 23.1548H28.3814C29.0856 23.154 29.7608 22.8739 30.2587 22.3759C30.7567 21.8779 31.0368 21.2028 31.0376 20.4986V16.6157C31.0368 15.9115 30.7567 15.2363 30.2587 14.7384C29.7608 14.2404 29.0856 13.9603 28.3814 13.9594ZM28.9126 20.4986C28.9126 20.6395 28.8567 20.7746 28.757 20.8742C28.6574 20.9739 28.5223 21.0298 28.3814 21.0298H23.2017C22.4975 21.0307 21.8224 21.3108 21.3244 21.8088C20.8264 22.3067 20.5463 22.9819 20.5455 23.6861V28.8658C20.5455 29.0067 20.4895 29.1418 20.3899 29.2414C20.2902 29.3411 20.1551 29.397 20.0142 29.397H16.1313C15.9904 29.397 15.8553 29.3411 15.7557 29.2414C15.656 29.1418 15.6001 29.0067 15.6001 28.8658V23.6861C15.5992 22.9819 15.3191 22.3067 14.8211 21.8088C14.3232 21.3108 13.648 21.0307 12.9438 21.0298H7.76465C7.62375 21.0298 7.48863 20.9739 7.389 20.8742C7.28937 20.7746 7.2334 20.6395 7.2334 20.4986V16.6157C7.2334 16.4748 7.28937 16.3397 7.389 16.24C7.48863 16.1404 7.62375 16.0844 7.76465 16.0844H12.9438C13.648 16.0836 14.3232 15.8035 14.8211 15.3055C15.3191 14.8075 15.5992 14.1324 15.6001 13.4282V8.24902C15.6001 8.10813 15.656 7.973 15.7557 7.87337C15.8553 7.77374 15.9904 7.71777 16.1313 7.71777H20.0142C20.1551 7.71777 20.2902 7.77374 20.3899 7.87337C20.4895 7.973 20.5455 8.10813 20.5455 8.24902V13.4282C20.5463 14.1324 20.8264 14.8075 21.3244 15.3055C21.8224 15.8035 22.4975 16.0836 23.2017 16.0844H28.3814C28.5223 16.0844 28.6574 16.1404 28.757 16.24C28.8567 16.3397 28.9126 16.4748 28.9126 16.6157V20.4986Z" fill="#0056B1"/>
<path d="M28.6132 44.8378C29.1104 44.3392 29.3896 43.6639 29.3896 42.9598C29.3896 42.2557 29.1104 41.5804 28.6132 41.0818L25.8677 38.3358C25.3692 37.8384 24.6937 37.5591 23.9895 37.5591C23.2853 37.5591 22.6098 37.8384 22.1112 38.3358L18.4493 41.9982C18.4 42.0477 18.3414 42.0869 18.2768 42.1137C18.2123 42.1405 18.1431 42.1543 18.0732 42.1543C18.0033 42.1543 17.9341 42.1405 17.8696 42.1137C17.8051 42.0869 17.7464 42.0477 17.6971 41.9982L14.0352 38.3353C13.5366 37.8379 12.8612 37.5586 12.1569 37.5586C11.4527 37.5586 10.7773 37.8379 10.2787 38.3353L7.53321 41.0808C7.03809 41.5804 6.7603 42.2553 6.7603 42.9587C6.7603 43.6621 7.03809 44.3371 7.53321 44.8367L11.1956 48.5023C11.2952 48.6019 11.3512 48.737 11.3512 48.8779C11.3512 49.0188 11.2952 49.1539 11.1956 49.2535L7.53321 52.9128C7.03805 53.4125 6.76025 54.0875 6.76025 54.791C6.76025 55.4945 7.03805 56.1695 7.53321 56.6692L10.2787 59.4153C10.7773 59.9126 11.4527 60.1919 12.1569 60.1919C12.8612 60.1919 13.5366 59.9126 14.0352 59.4153L17.6971 55.7528C17.7464 55.7033 17.8051 55.6641 17.8696 55.6373C17.9341 55.6105 18.0033 55.5967 18.0732 55.5967C18.1431 55.5967 18.2123 55.6105 18.2768 55.6373C18.3414 55.6641 18.4 55.7033 18.4493 55.7528L22.1112 59.4158C22.6099 59.913 23.2853 60.1922 23.9895 60.1922C24.6936 60.1922 25.3691 59.913 25.8677 59.4158L28.6137 56.6703C29.1109 56.1717 29.3901 55.4964 29.3901 54.7923C29.3901 54.0882 29.1109 53.4129 28.6137 52.9143L24.9513 49.2487C24.8517 49.1491 24.7958 49.014 24.7958 48.8731C24.7958 48.7323 24.8517 48.5972 24.9513 48.4975L28.6132 44.8378ZM23.4484 50.7532L27.1108 54.4188C27.2104 54.5185 27.2664 54.6536 27.2664 54.7944C27.2664 54.9353 27.2104 55.0704 27.1108 55.17L24.3653 57.9155C24.316 57.9649 24.2574 58.0041 24.1929 58.0308C24.1284 58.0576 24.0593 58.0713 23.9895 58.0713C23.9197 58.0713 23.8505 58.0576 23.786 58.0308C23.7215 58.0041 23.663 57.9649 23.6136 57.9155L19.9517 54.2526C19.453 53.7553 18.7775 53.4761 18.0732 53.4761C17.369 53.4761 16.6934 53.7553 16.1947 54.2526L12.5328 57.915C12.4835 57.9644 12.4249 58.0036 12.3604 58.0303C12.2959 58.0571 12.2268 58.0708 12.1569 58.0708C12.0871 58.0708 12.018 58.0571 11.9535 58.0303C11.889 58.0036 11.8304 57.9644 11.7811 57.915L9.03559 55.1695C8.93599 55.0699 8.88004 54.9348 8.88004 54.7939C8.88004 54.653 8.93599 54.5179 9.03559 54.4183L12.698 50.7527C13.196 50.2546 13.4757 49.5791 13.4757 48.8747C13.4757 48.1704 13.196 47.4949 12.698 46.9968L9.03559 43.3311C8.93599 43.2315 8.88004 43.0964 8.88004 42.9555C8.88004 42.8147 8.93599 42.6796 9.03559 42.5799L11.7811 39.8344C11.8304 39.785 11.889 39.7459 11.9535 39.7191C12.018 39.6924 12.0871 39.6786 12.1569 39.6786C12.2268 39.6786 12.2959 39.6924 12.3604 39.7191C12.4249 39.7459 12.4835 39.785 12.5328 39.8344L16.1947 43.4974C16.6934 43.9947 17.369 44.2739 18.0732 44.2739C18.7775 44.2739 19.453 43.9947 19.9517 43.4974L23.6136 39.835C23.663 39.7856 23.7215 39.7464 23.786 39.7197C23.8505 39.6929 23.9197 39.6792 23.9895 39.6792C24.0593 39.6792 24.1284 39.6929 24.1929 39.7197C24.2574 39.7464 24.316 39.7856 24.3653 39.835L27.1103 42.5799C27.1597 42.6293 27.1989 42.6879 27.2256 42.7524C27.2524 42.8169 27.2661 42.886 27.2661 42.9558C27.2661 43.0256 27.2524 43.0947 27.2256 43.1592C27.1989 43.2237 27.1597 43.2823 27.1103 43.3317L23.4479 46.9941C22.9518 47.4939 22.6735 48.1696 22.6736 48.8738C22.6737 49.578 22.9522 50.2535 23.4484 50.7532Z" fill="#0056B1"/>
</svg>
