<svg width="60" height="92" viewBox="0 0 60 92" fill="none" xmlns="http://www.w3.org/2000/svg">
<g clip-path="url(#clip0_688_13)">
<path d="M34.6635 73.2601C34.8958 78.3055 39.769 86.4527 34.3685 88.159C28.9126 89.5116 23.161 89.3444 17.5703 89.4562C16.7321 89.4572 15.8744 89.3079 15.1431 88.8849C13.3417 87.9796 13.7226 85.1457 15.626 84.6077C37.2586 83.5065 20.2189 84.9791 11.8342 63.5261C1.6394 39.255 18.047 8.18613 42.4678 0.347444C45.4325 0.321065 45.7369 4.22892 42.7915 4.99947C38.7275 6.40032 35.2496 8.78783 32.024 11.5361C22.1979 19.926 15.1184 31.8493 14.0446 44.8662C13.1088 57.5165 19.3667 71.8964 30.0166 78.6483C30.8086 78.4249 30.2999 77.3617 30.3419 76.7674C29.7558 72.6088 28.9792 68.3999 28.8973 64.2083C28.9749 62.944 30.2973 61.9634 31.6118 62.2068C34.491 63.0829 33.899 71.4595 34.6567 73.2613L34.6635 73.2601Z" fill="#F8B21F"/>
</g>
<defs>
<clipPath id="clip0_688_13">
<rect width="85.1492" height="45.1239" fill="white" transform="translate(44.4395) rotate(80.006)"/>
</clipPath>
</defs>
</svg>
