<svg width="41" height="45" viewBox="0 0 41 45" fill="none" xmlns="http://www.w3.org/2000/svg">
<g clip-path="url(#clip0_486_1130)">
<path fill-rule="evenodd" clip-rule="evenodd" d="M7.68453 16.9139C8.82154 14.8412 10.2673 12.9595 11.681 11.0696C12.5393 9.92102 14.5434 7.92362 14.5105 6.40075C14.4728 4.65967 12.6579 4.69038 10.4905 6.45705C9.40675 7.34039 7.3573 9.36531 5.94075 10.9769C4.5132 12.5596 3.01934 14.5381 2.61871 16.6764C2.29272 18.4291 3.17397 20.4189 5.39197 19.7509C6.67585 19.3663 7.10424 17.9721 7.67938 16.9179L7.68453 16.9139Z" fill="#F8B21F"/>
<path fill-rule="evenodd" clip-rule="evenodd" d="M3.9349 41.0999C5.06161 40.9068 5.94323 39.8904 6.50145 38.8622C7.13082 37.6982 7.4269 36.3962 7.80373 35.1307C8.56352 32.5865 10.1277 29.9579 11.7828 27.881C14.4834 24.4906 17.6934 21.5675 21.0037 18.7618C23.9513 16.2642 27.0791 13.9714 30.3603 11.9129C32.0367 10.8575 33.7537 9.86196 35.5061 8.9305C36.8849 8.19024 39.1781 7.47938 39.8988 5.94999C40.2409 5.22271 39.9037 4.25057 39.1726 3.87506C38.5393 3.55183 37.7687 3.67231 37.0805 3.85728C32.9491 4.94375 28.9922 7.54986 25.4101 9.77962C19.9965 13.15 14.8876 17.0536 10.473 21.6297C6.57239 25.6732 0.361559 32.1952 0.745184 38.2213C0.830511 39.5645 1.72239 40.8468 3.12597 41.0958C3.40772 41.1448 3.67582 41.146 3.93025 41.0994L3.9349 41.0999Z" fill="#F8B21F"/>
</g>
<defs>
<clipPath id="clip0_486_1130">
<rect width="41" height="36" fill="white" transform="translate(40.1992 3.87024) rotate(96.1716)"/>
</clipPath>
</defs>
</svg>
