<svg width="36" height="41" viewBox="0 0 36 41" fill="none" xmlns="http://www.w3.org/2000/svg">
<g clip-path="url(#clip0_486_1134)">
<path fill-rule="evenodd" clip-rule="evenodd" d="M30.9241 24.5365C30.0165 26.7193 28.7814 28.7456 27.5791 30.7765C26.8493 32.0107 25.0715 34.212 25.268 35.7225C25.4926 37.4494 27.2937 37.2238 29.2586 35.2343C30.2411 34.2396 32.061 32.0061 33.2961 30.2515C34.5452 28.5246 35.8177 26.397 35.9861 24.2279C36.1218 22.4503 35.0317 20.5668 32.8984 21.4694C31.6633 21.9898 31.3873 23.422 30.9288 24.5319L30.9241 24.5365Z" fill="#F8B21F"/>
<path fill-rule="evenodd" clip-rule="evenodd" d="M32.0516 0.0874905C30.9522 0.400643 30.185 1.50588 29.7405 2.5881C29.2399 3.81308 29.0855 5.13938 28.8469 6.43804C28.3651 9.04919 27.0926 11.8307 25.6703 14.0734C23.3499 17.7346 20.4727 20.9858 17.4832 24.1312C14.8212 26.9311 11.9581 29.5469 8.91712 31.9462C7.36391 33.1758 5.76391 34.3501 4.1218 35.4646C2.83057 36.3487 0.627064 37.302 0.0750168 38.9C-0.186971 39.6599 0.252795 40.5901 1.02005 40.8849C1.68437 41.1381 2.43759 40.9355 3.10192 40.6776C7.09256 39.1533 10.7464 36.1369 14.068 33.535C19.0879 29.6021 23.7475 25.172 27.6446 20.1477C31.0879 15.7083 36.5616 8.55643 35.5323 2.60653C35.3031 1.28023 34.2785 0.101304 32.8563 0.0045971C32.5709 -0.0138241 32.3043 0.0138058 32.0563 0.0874905L32.0516 0.0874905Z" fill="#F8B21F"/>
</g>
<defs>
<clipPath id="clip0_486_1134">
<rect width="41" height="36" fill="white" transform="translate(0 41) rotate(-90)"/>
</clipPath>
</defs>
</svg>
