<svg width="72" height="72" viewBox="0 0 72 72" fill="none" xmlns="http://www.w3.org/2000/svg">
<path d="M21.5044 40.4111C17.7221 40.4111 14.6416 37.3306 14.6416 33.5483C14.6416 29.7661 17.7221 26.6855 21.5044 26.6855C25.2867 26.6855 28.3672 29.7661 28.3672 33.5483C28.3672 37.3306 25.2912 40.4111 21.5044 40.4111ZM21.5044 28.8683C18.9251 28.8683 16.8289 30.9645 16.8289 33.5438C16.8289 36.123 18.9251 38.2192 21.5044 38.2192C24.0836 38.2192 26.1798 36.123 26.1798 33.5438C26.1798 30.9645 24.0836 28.8683 21.5044 28.8683Z" fill="#0056B1"/>
<path d="M51.8536 33.3474C48.3766 33.3474 45.5513 30.5175 45.5513 27.0406C45.5513 23.5636 48.3811 20.7383 51.8536 20.7383C55.326 20.7383 58.1558 23.5682 58.1558 27.0406C58.1558 30.513 55.3305 33.3474 51.8536 33.3474ZM51.8536 22.9256C49.5842 22.9256 47.7386 24.7712 47.7386 27.0406C47.7386 29.3099 49.5842 31.1555 51.8536 31.1555C54.1229 31.1555 55.9685 29.3099 55.9685 27.0406C55.9685 24.7712 54.1275 22.9256 51.8536 22.9256Z" fill="#0056B1"/>
<path d="M35.4029 54.8888C32.2951 54.8888 29.7705 52.3643 29.7705 49.2564C29.7705 46.1486 32.2951 43.624 35.4029 43.624C38.5108 43.624 41.0353 46.1486 41.0353 49.2564C41.0353 52.3643 38.5108 54.8888 35.4029 54.8888ZM35.4029 45.8114C33.5027 45.8114 31.9578 47.3562 31.9578 49.2564C31.9578 51.1567 33.5027 52.7015 35.4029 52.7015C37.3032 52.7015 38.848 51.1567 38.848 49.2564C38.848 47.3562 37.3032 45.8114 35.4029 45.8114Z" fill="#0056B1"/>
<path d="M35.4849 24.753C33.2474 24.753 31.4292 22.9348 31.4292 20.6973C31.4292 18.4598 33.2474 16.6416 35.4849 16.6416C37.7224 16.6416 39.5406 18.4598 39.5406 20.6973C39.5406 22.9348 37.7224 24.753 35.4849 24.753ZM35.4849 18.8289C34.455 18.8289 33.6165 19.6674 33.6165 20.6973C33.6165 21.7272 34.455 22.5657 35.4849 22.5657C36.5148 22.5657 37.3532 21.7272 37.3532 20.6973C37.3532 19.6674 36.5148 18.8289 35.4849 18.8289Z" fill="#0056B1"/>
<path d="M66.9414 18.8292C64.704 18.8292 62.8857 17.0109 62.8857 14.7735C62.8857 12.536 64.704 10.7178 66.9414 10.7178C69.1789 10.7178 70.9971 12.536 70.9971 14.7735C70.9971 17.0109 69.1789 18.8292 66.9414 18.8292ZM66.9414 12.9051C65.9116 12.9051 65.0731 13.7436 65.0731 14.7735C65.0731 15.8033 65.9116 16.6418 66.9414 16.6418C67.9713 16.6418 68.8098 15.8033 68.8098 14.7735C68.8098 13.7436 67.9713 12.9051 66.9414 12.9051Z" fill="#0056B1"/>
<path d="M5.38168 57.2536C2.96649 57.2536 1.00244 55.2896 1.00244 52.8744C1.00244 50.4592 2.96649 48.4951 5.38168 48.4951C7.79687 48.4951 9.76092 50.4592 9.76092 52.8744C9.76092 55.285 7.79687 57.2536 5.38168 57.2536ZM5.38168 50.6779C4.17409 50.6779 3.18978 51.6622 3.18978 52.8698C3.18978 54.0774 4.17409 55.0617 5.38168 55.0617C6.58928 55.0617 7.57358 54.0774 7.57358 52.8698C7.57358 51.6622 6.58928 50.6779 5.38168 50.6779Z" fill="#0056B1"/>
<path d="M5.38187 27.2823C3.1444 27.2823 1.32617 25.4641 1.32617 23.2266C1.32617 20.9891 3.1444 19.1709 5.38187 19.1709C7.61934 19.1709 9.43756 20.9891 9.43756 23.2266C9.43756 25.4641 7.61934 27.2823 5.38187 27.2823ZM5.38187 21.3582C4.35199 21.3582 3.51351 22.1967 3.51351 23.2266C3.51351 24.2565 4.35199 25.0949 5.38187 25.0949C6.41174 25.0949 7.25022 24.2565 7.25022 23.2266C7.25022 22.1967 6.41174 21.3582 5.38187 21.3582Z" fill="#0056B1"/>
<path d="M56.7203 44.3341C54.8246 44.3341 53.2798 42.7893 53.2798 40.8936C53.2798 38.9979 54.8246 37.4531 56.7203 37.4531C58.616 37.4531 60.1608 38.9979 60.1608 40.8936C60.1608 42.7893 58.616 44.3341 56.7203 44.3341ZM56.7203 39.6405C56.0276 39.6405 55.4671 40.201 55.4671 40.8936C55.4671 41.5863 56.0276 42.1468 56.7203 42.1468C57.4129 42.1468 57.9735 41.5863 57.9735 40.8936C57.9735 40.201 57.4084 39.6405 56.7203 39.6405Z" fill="#0056B1"/>
<path d="M16.6467 31.5297C16.4462 31.5297 16.2411 31.475 16.0589 31.3565L7.28671 25.7469C6.77633 25.4233 6.63051 24.7444 6.95406 24.234C7.2776 23.7236 7.95659 23.5778 8.46697 23.9013L17.2346 29.5155C17.7449 29.839 17.8908 30.518 17.5672 31.0284C17.3576 31.352 17.0067 31.5297 16.6467 31.5297Z" fill="#0056B1"/>
<path d="M7.48678 51.4433C7.24071 51.4433 6.99007 51.3613 6.78501 51.1881C6.3202 50.8008 6.26096 50.1127 6.64374 49.6479L16.9698 37.2757C17.3572 36.8109 18.0453 36.7517 18.5101 37.1345C18.9749 37.5218 19.0341 38.2099 18.6513 38.6747L8.32982 51.0469C8.11109 51.3112 7.80121 51.4433 7.48678 51.4433Z" fill="#0056B1"/>
<path d="M32.6781 46.7228C32.3455 46.7228 32.0174 46.5724 31.8032 46.2853L25.2822 37.618C24.9176 37.135 25.0179 36.4514 25.5009 36.0869C25.9839 35.7223 26.6675 35.8226 27.032 36.3056L33.5531 44.9729C33.9176 45.456 33.8174 46.1395 33.3343 46.5041C33.1384 46.6499 32.906 46.7228 32.6781 46.7228Z" fill="#0056B1"/>
<path d="M51.4117 61.2823C49.1742 61.2823 47.356 59.4641 47.356 57.2266C47.356 54.9891 49.1742 53.1709 51.4117 53.1709C53.6491 53.1709 55.4673 54.9891 55.4673 57.2266C55.4673 59.4641 53.6446 61.2823 51.4117 61.2823ZM51.4117 55.3582C50.3818 55.3582 49.5433 56.1967 49.5433 57.2266C49.5433 58.2565 50.3818 59.0949 51.4117 59.0949C52.4415 59.0949 53.28 58.2565 53.28 57.2266C53.28 56.1967 52.4415 55.3582 51.4117 55.3582Z" fill="#0056B1"/>
<path d="M55.9413 39.7734C55.4902 39.7734 55.0664 39.4909 54.9114 39.0398L52.5509 32.3228C52.3504 31.7532 52.6512 31.1289 53.2208 30.9284C53.7904 30.7279 54.4147 31.0286 54.6152 31.5982L56.9757 38.3152C57.1762 38.8848 56.8755 39.5091 56.3059 39.7096C56.1828 39.7506 56.0598 39.7734 55.9413 39.7734Z" fill="#0056B1"/>
<path d="M46.9957 26.2523C46.8635 26.2523 46.7314 26.2295 46.5992 26.1794L37.8498 22.789C37.2848 22.5703 37.0068 21.9369 37.2255 21.3718C37.4443 20.8067 38.0777 20.5288 38.6427 20.7475L47.3921 24.1379C47.9572 24.3566 48.2351 24.99 48.0164 25.5551C47.8478 25.988 47.4331 26.2523 46.9957 26.2523Z" fill="#0056B1"/>
<path d="M37.9459 46.5902C37.7363 46.5902 37.5221 46.531 37.3352 46.4034C36.834 46.0662 36.7018 45.3872 37.0436 44.8859L47.1282 29.971C47.4654 29.4697 48.1444 29.3376 48.6456 29.6793C49.1469 30.0166 49.279 30.6955 48.9373 31.1968L38.8527 46.1117C38.6431 46.4216 38.2968 46.5902 37.9459 46.5902Z" fill="#0056B1"/>
<path d="M48.7593 56.9982C48.5953 56.9982 48.4312 56.9617 48.2717 56.8843L38.9801 52.259C38.4378 51.9901 38.2191 51.3339 38.4879 50.7916C38.7568 50.2493 39.413 50.0306 39.9553 50.2995L49.2469 54.9248C49.7892 55.1936 50.0079 55.8498 49.7391 56.3921C49.5477 56.7749 49.1603 56.9982 48.7593 56.9982Z" fill="#0056B1"/>
<path d="M55.9 24.8489C55.581 24.8489 55.2666 24.7122 55.0524 24.4434C54.6696 23.974 54.7425 23.2859 55.2119 22.9031L63.9567 15.7897C64.426 15.4069 65.1142 15.4798 65.4969 15.9492C65.8797 16.4185 65.8068 17.1066 65.3374 17.4894L56.5926 24.6028C56.3876 24.7715 56.1415 24.8489 55.9 24.8489Z" fill="#0056B1"/>
</svg>
