<svg width="44" height="44" viewBox="0 0 44 44" fill="none" xmlns="http://www.w3.org/2000/svg">
<path d="M26.8322 18.6398V21.8461C26.8322 22.1783 27.1015 22.4476 27.4337 22.4476H29.5862V24.6001C29.5862 24.9323 29.8555 25.2017 30.1878 25.2017H33.394C33.7262 25.2017 33.9956 24.9323 33.9956 24.6001V22.4476H36.148C36.4803 22.4476 36.7496 22.1783 36.7496 21.8461V18.6398C36.7496 18.3076 36.4803 18.0383 36.148 18.0383H33.9956V15.8858C33.9956 15.5535 33.7262 15.2842 33.394 15.2842H30.1878C29.8555 15.2842 29.5862 15.5535 29.5862 15.8858V18.0383H27.4337C27.1015 18.0383 26.8322 18.3076 26.8322 18.6398ZM28.0353 19.2414H30.1878C30.52 19.2414 30.7893 18.972 30.7893 18.6398V16.4873H32.7924V18.6398C32.7924 18.972 33.0618 19.2414 33.394 19.2414H35.5465V21.2445H33.394C33.0618 21.2445 32.7924 21.5138 32.7924 21.8461V23.9985H30.7893V21.8461C30.7893 21.5138 30.52 21.2445 30.1878 21.2445H28.0353V19.2414ZM42.9106 31.41C41.6642 33.0484 30.0272 39.2244 29.9098 39.2866C29.9055 39.2889 29.9011 39.2912 29.8968 39.2933C27.316 40.581 24.8617 41.0521 21.9381 40.8194C21.0652 40.7501 20.1784 40.6464 19.2395 40.5368C15.2614 40.072 10.7526 39.5451 5.04246 41.4008C4.98067 41.4208 4.91802 41.4304 4.8564 41.4304C4.6028 41.4304 4.36708 41.2688 4.2844 41.0146C4.18171 40.6986 4.35461 40.3593 4.67061 40.2566C10.631 38.3198 15.2786 38.8628 19.3791 39.3418C20.3065 39.4503 21.1826 39.5525 22.0333 39.6202C24.7237 39.8339 26.9814 39.4021 29.353 38.2201C34.1766 35.6645 41.2352 31.6251 41.953 30.6815C42.6604 29.7516 42.515 28.969 42.1431 28.5467C41.7667 28.1193 40.9463 27.8404 39.8729 28.4602C37.8103 29.651 32.9047 32.027 29.3754 33.3172C29.2969 33.5953 29.1823 33.8672 29.0302 34.1231C28.2155 35.494 26.0854 35.8294 24.1973 35.8294C23.9405 35.8294 23.6882 35.8232 23.4442 35.8126C21.266 35.7176 18.8439 35.2107 17.6849 34.6075C17.3902 34.4542 17.2757 34.0909 17.4291 33.7963C17.5825 33.5014 17.9456 33.3871 18.2404 33.5403C19.0953 33.9853 21.228 34.5117 23.4966 34.6106C25.8429 34.7128 27.5249 34.301 27.9959 33.5085C28.3504 32.9121 28.3934 32.1361 28.1005 31.6214C27.849 31.1794 27.3853 30.9553 26.7223 30.9553C22.2479 30.9553 19.1536 29.7128 16.6672 28.7144C14.0357 27.6578 12.1345 26.8945 9.78526 27.9539C6.59939 29.3906 5.33568 29.8278 3.42279 30.4894C2.77955 30.7119 2.05054 30.964 1.14691 31.2893C0.834271 31.402 0.489748 31.2396 0.377169 30.9271C0.264591 30.6145 0.426841 30.2699 0.739396 30.1573C1.65008 29.8296 2.38295 29.576 3.02946 29.3524C4.91123 28.7015 6.15449 28.2714 9.29061 26.8572C12.1071 25.587 14.428 26.5189 17.1154 27.5979C19.6301 28.6077 22.4804 29.752 26.7222 29.752C27.8177 29.752 28.6785 30.2047 29.1461 31.0264C29.3146 31.3225 29.4215 31.6529 29.47 31.9975C32.8841 30.6992 37.3434 28.5312 39.2713 27.4183C40.8652 26.4979 42.3155 26.9224 43.0457 27.7515C43.9087 28.7313 43.8556 30.1673 42.9104 31.41H42.9106ZM18.1326 23.7735C18.226 23.8276 18.3302 23.8547 18.4344 23.8547C18.5387 23.8547 18.6429 23.8276 18.7363 23.7735C20.3426 22.8417 21.7907 21.8921 23.0772 20.9286C23.4281 25.4288 27.2021 28.9833 31.7908 28.9833C36.6103 28.9833 40.5313 25.0624 40.5313 20.2429C40.5313 15.4233 36.6104 11.5024 31.7908 11.5024C31.2643 11.5024 30.7421 11.5503 30.2288 11.643C30.435 10.7233 30.4904 9.80879 30.393 8.90318C30.072 5.91677 28.1932 3.51722 25.6065 2.79011C23.1182 2.09049 20.5368 3.07189 18.4344 5.4882C16.332 3.07198 13.7504 2.09083 11.2622 2.79011C8.67547 3.51722 6.7967 5.91677 6.47572 8.90318C6.21868 11.2953 7.02461 13.7497 8.87123 16.1979C10.8319 18.7974 13.9478 21.3462 18.1325 23.7734L18.1326 23.7735ZM31.7909 12.7056C35.947 12.7056 39.3283 16.0868 39.3283 20.2429C39.3283 24.399 35.947 27.7802 31.7909 27.7802C27.6348 27.7802 24.2536 24.399 24.2536 20.2429C24.2536 20.1635 24.255 20.0835 24.2575 20.0035C25.7788 18.753 27.0293 17.4817 27.9976 16.198C28.8114 15.119 29.4228 14.0387 29.8305 12.9631C30.4669 12.7923 31.1248 12.7056 31.7909 12.7056ZM7.67215 9.03183C7.94027 6.53707 9.47726 4.54168 11.5879 3.94837C11.9986 3.83296 12.4141 3.77615 12.8307 3.77615C14.6275 3.77615 16.4427 4.83344 17.9574 6.80502C18.0713 6.95326 18.2475 7.04006 18.4344 7.04006C18.6214 7.04006 18.7976 6.95318 18.9115 6.80502C20.7775 4.37625 23.0992 3.33529 25.281 3.94837C27.3916 4.54168 28.9287 6.53707 29.1967 9.03183C29.4201 11.1101 28.6935 13.2773 27.037 15.4735C25.2201 17.8824 22.327 20.2642 18.4344 22.5563C14.5418 20.2642 11.6486 17.8823 9.83176 15.4735C8.17531 13.2773 7.44862 11.1101 7.67197 9.03183H7.67215ZM12.1928 8.90078C12.1928 8.56854 12.4621 8.29921 12.7944 8.29921C14.3729 8.29921 15.657 9.58338 15.657 11.162V12.9658C15.657 14.2908 16.5896 15.402 17.8329 15.6776V9.10402C17.8329 8.77179 18.1022 8.50246 18.4344 8.50246C18.7667 8.50246 19.036 8.77179 19.036 9.10402V15.6776C20.2793 15.402 21.2119 14.2908 21.2119 12.9658V11.162C21.2119 9.58346 22.496 8.29921 24.0745 8.29921C24.4068 8.29921 24.6761 8.56854 24.6761 8.90078C24.6761 9.23301 24.4068 9.50234 24.0745 9.50234C23.1595 9.50234 22.415 10.2468 22.415 11.162V12.9658C22.415 14.9563 20.9465 16.6101 19.036 16.901V20.308C19.036 20.6403 18.7667 20.9096 18.4344 20.9096C18.1022 20.9096 17.8329 20.6403 17.8329 20.308V16.901C15.9224 16.6101 14.4539 14.9563 14.4539 12.9658V11.162C14.4539 10.2469 13.7094 9.50234 12.7944 9.50234C12.4621 9.50234 12.1928 9.23301 12.1928 8.90078Z" fill="#0056B1"/>
</svg>
