<svg width="34" height="17" viewBox="0 0 34 17" fill="none" xmlns="http://www.w3.org/2000/svg">
<g clip-path="url(#clip0_3157_49)">
<path d="M11.1605 7.61258C11.1029 8.61838 10.9492 9.60446 10.6995 10.5905C10.4498 11.5766 10.0656 12.5233 9.56614 13.4304C9.33564 13.884 9.0475 14.3179 8.74016 14.7321C8.4136 15.1659 8.06784 15.5407 7.68366 15.8759C7.29948 16.2112 6.87688 16.4676 6.43507 16.6845C5.97405 16.8817 5.49383 16.9803 4.99439 16.9803C4.49496 16.9803 4.03394 16.9212 3.63055 16.7437C3.22716 16.5662 2.82377 16.3295 2.49722 16.0337C2.15146 15.7379 1.86332 15.3829 1.59439 15.0082C1.32547 14.6335 1.11417 14.2193 0.941286 13.8052C0.557106 12.9571 0.307388 12.0697 0.172925 11.123C0.0384614 10.1764 4.33661e-05 9.22975 0.0576705 8.26339C0.134507 7.37592 0.288179 6.48845 0.557105 5.60098C0.826032 4.73323 1.21021 3.90492 1.72886 3.11606C1.97857 2.72163 2.26671 2.36664 2.59326 2.03137C2.91982 1.6961 3.26558 1.42 3.64976 1.16362C4.03394 0.907241 4.43733 0.729747 4.87914 0.591696C5.30174 0.453645 5.74355 0.39448 6.18535 0.39448C6.60795 0.374758 7.03055 0.39448 7.41473 0.512809C7.81812 0.611417 8.18309 0.76919 8.52886 0.986127C8.87462 1.20306 9.18196 1.43972 9.4701 1.73555C9.75823 2.03137 9.98874 2.36664 10.1808 2.74135C10.3921 3.09634 10.565 3.45132 10.6995 3.84576C10.8339 4.24019 10.9492 4.63462 11.026 5.04877C11.1029 5.46293 11.1605 5.87708 11.1797 6.29123C11.1989 6.70538 11.1989 7.13926 11.1797 7.55341L11.1605 7.61258ZM7.7797 6.6265C7.7797 6.33067 7.7797 5.99541 7.7797 5.64042C7.7797 5.28543 7.70287 4.95016 7.62603 4.63462C7.52999 4.31907 7.37631 4.06269 7.18422 3.84576C6.97292 3.62882 6.704 3.51049 6.31982 3.51049C5.89722 3.53021 5.53225 3.62882 5.2249 3.80631C4.91756 3.98381 4.64863 4.22047 4.43733 4.49657C4.20682 4.77267 4.03394 5.08822 3.88027 5.4432C3.7266 5.79819 3.61134 6.1729 3.5153 6.54761C3.41925 6.92232 3.36163 7.29703 3.304 7.67174C3.26558 8.04645 3.22716 8.40144 3.18874 8.71699C3.16953 9.17058 3.15033 9.60446 3.15033 10.0581C3.15033 10.5116 3.18874 10.9455 3.24637 11.3794C3.28479 11.5963 3.32321 11.833 3.38083 12.0697C3.43846 12.3063 3.5153 12.5035 3.61134 12.7007C3.70739 12.8782 3.82264 13.036 3.97631 13.1741C4.11078 13.2924 4.30287 13.3713 4.53338 13.391C4.87914 13.391 5.18648 13.2727 5.4362 13.0952C5.70513 12.9177 5.93564 12.7007 6.12773 12.4246C6.31982 12.1485 6.4927 11.8724 6.64637 11.5372C6.80004 11.2216 6.9153 10.9258 7.01134 10.63C7.24185 9.95944 7.39552 9.30863 7.52999 8.61838C7.64524 7.94784 7.72208 7.27731 7.7605 6.60678L7.7797 6.6265Z" fill="#F8B21F"/>
<path d="M22.9934 7.43499C22.9934 7.61248 22.9166 7.78998 22.8205 7.92803C22.7245 8.06608 22.6092 8.20413 22.4748 8.32246C22.3403 8.44079 22.1866 8.5394 22.033 8.61828C21.8793 8.69717 21.7064 8.75633 21.5527 8.8155C21.0725 8.99299 20.6115 9.11132 20.1313 9.19021C19.6511 9.26909 19.1708 9.34798 18.6906 9.40714C18.2872 9.48603 17.8838 9.5452 17.4804 9.60436C17.077 9.66353 16.6929 9.78185 16.3087 9.93963C16.3087 10.1763 16.3087 10.3932 16.3087 10.6299C16.3087 10.8665 16.3087 11.0835 16.2895 11.3201C16.2895 11.6357 16.2895 11.9512 16.2895 12.2668C16.2895 12.5823 16.2895 12.8979 16.2895 13.2134C16.2511 13.5881 16.2126 13.9628 16.155 14.3375C16.0974 14.7122 16.0013 15.087 15.8669 15.4419C15.8285 15.5997 15.7516 15.7378 15.6748 15.8955C15.5979 16.0533 15.5019 16.1914 15.3866 16.3097C15.2714 16.428 15.1561 16.5266 15.0025 16.5858C14.8488 16.645 14.6951 16.6647 14.5415 16.645C14.3302 16.6252 14.1381 16.5464 13.9652 16.4477C13.7923 16.3491 13.6578 16.1914 13.5618 15.9942C13.3697 15.4419 13.2544 14.8897 13.216 14.2981C13.1776 13.7064 13.12 13.1148 13.0431 12.5429C13.0047 11.9118 12.9855 11.2807 12.9663 10.6693C12.9663 10.0382 12.9663 9.42687 12.9663 8.77605C13.0431 7.75053 13.1776 6.74473 13.3697 5.73893C13.581 4.73313 13.8499 3.74705 14.1957 2.76097C14.3109 2.42571 14.4838 2.12988 14.6951 1.83406C14.9064 1.53824 15.1753 1.30158 15.4827 1.12408C15.8477 1.00575 16.2318 0.907145 16.5968 0.808537C16.9618 0.709929 17.346 0.631043 17.7301 0.5916C18.1335 0.492992 18.5561 0.414106 18.9595 0.394384C19.3629 0.354941 19.7855 0.33522 20.1889 0.295776C20.477 0.295776 20.7844 0.354941 21.0725 0.453549C21.3607 0.552157 21.6296 0.690208 21.8601 0.867702C22.0906 1.0452 22.2635 1.26213 22.3979 1.51851C22.5324 1.77489 22.59 2.07072 22.5516 2.40599C22.5516 2.58348 22.5324 2.72153 22.4556 2.85958C22.3787 2.99763 22.2827 3.11596 22.1674 3.21457C22.0522 3.31318 21.9177 3.41179 21.764 3.47095C21.6104 3.54984 21.4759 3.609 21.3222 3.62872C20.9765 3.72733 20.6307 3.7865 20.285 3.82594C19.9392 3.86538 19.5934 3.8851 19.2477 3.86538C18.9979 3.86538 18.7482 3.86538 18.4793 3.86538C18.2104 3.86538 17.9607 3.86538 17.7109 3.86538C17.6725 3.86538 17.6149 3.86538 17.5573 3.86538C17.4996 3.86538 17.4612 3.86538 17.4036 3.8851C17.2307 4.16121 17.1155 4.45703 17.077 4.7923C17.0194 5.12756 16.981 5.44311 16.9426 5.77837V6.03476C17.2691 6.01503 17.5957 5.97559 17.9222 5.95587C18.2488 5.91643 18.5753 5.87698 18.9211 5.85726C19.2477 5.81782 19.5742 5.7981 19.8816 5.75865C20.2081 5.71921 20.5155 5.69949 20.842 5.71921C21.0725 5.71921 21.2838 5.71921 21.5143 5.77837C21.7256 5.83754 21.9369 5.93615 22.1098 6.03476C22.2827 6.13336 22.4556 6.29114 22.59 6.46863C22.7245 6.64612 22.8205 6.84334 22.8974 7.06028C22.9166 7.13916 22.9358 7.19833 22.9742 7.25749C22.9934 7.31666 22.9934 7.39554 22.9742 7.49415L22.9934 7.43499Z" fill="#F8B21F"/>
<path d="M33.9809 7.21807C33.9809 7.39556 33.9041 7.57306 33.808 7.71111C33.712 7.84916 33.5967 7.98721 33.4623 8.10554C33.3278 8.22387 33.1741 8.32248 33.0204 8.40136C32.8668 8.48025 32.6939 8.53941 32.5402 8.59858C32.0792 8.77607 31.599 8.8944 31.1188 8.97329C30.6385 9.05218 30.1583 9.13106 29.6781 9.19023C29.2747 9.26911 28.8713 9.32828 28.4679 9.38744C28.0645 9.44661 27.6803 9.56494 27.2962 9.72271C27.2962 9.95937 27.2962 10.1763 27.2962 10.413C27.2962 10.6496 27.2962 10.8666 27.2769 11.1032C27.2769 11.4188 27.2769 11.7343 27.2769 12.0499C27.2769 12.3654 27.2769 12.6809 27.2769 12.9965C27.2385 13.3712 27.2001 13.7459 27.1425 14.1206C27.0849 14.4953 26.9888 14.87 26.8351 15.225C26.7967 15.3828 26.7199 15.5209 26.643 15.6786C26.5662 15.8364 26.4702 15.9744 26.3549 16.0928C26.2397 16.2111 26.1244 16.3097 25.9707 16.3689C25.8171 16.428 25.6634 16.4478 25.5097 16.428C25.2984 16.4083 25.1063 16.3294 24.9334 16.2308C24.7606 16.1322 24.6261 15.9744 24.5301 15.7772C24.338 15.225 24.2227 14.6728 24.1843 14.0812C24.1459 13.4895 24.0882 12.8979 24.0114 12.326C23.973 11.6949 23.9538 11.0638 23.9346 10.4524C23.9346 9.82132 23.9346 9.19023 23.9346 8.55914C24.0114 7.53361 24.1459 6.52781 24.338 5.52201C24.5493 4.51621 24.8182 3.53013 25.1639 2.54405C25.2792 2.20879 25.4521 1.91296 25.6634 1.61714C25.8747 1.32132 26.1436 1.08466 26.451 0.907164C26.8159 0.788834 27.2001 0.690226 27.5651 0.591618C27.9301 0.493011 28.3142 0.414124 28.6984 0.374681C29.1018 0.276073 29.5244 0.197187 29.9278 0.177465C30.3312 0.138022 30.7538 0.118301 31.1572 0.0788574C31.4645 0.0788574 31.7526 0.138022 32.0408 0.23663C32.3289 0.335238 32.5978 0.473289 32.8284 0.650783C33.0589 0.828277 33.2317 1.04521 33.3662 1.3016C33.5007 1.55798 33.5583 1.8538 33.5199 2.18907C33.5199 2.36656 33.5007 2.52433 33.4238 2.64266C33.347 2.78071 33.251 2.89904 33.1357 2.99765C33.0204 3.09626 32.886 3.19487 32.7323 3.25403C32.5786 3.33292 32.4442 3.39208 32.2905 3.4118C31.9447 3.51041 31.599 3.56958 31.2532 3.60902C30.9075 3.64846 30.5617 3.66818 30.2159 3.64846C29.9662 3.64846 29.7165 3.64846 29.4476 3.64846C29.1978 3.64846 28.9481 3.64846 28.6792 3.64846C28.6408 3.64846 28.5832 3.64846 28.5255 3.64846C28.4679 3.64846 28.4295 3.64846 28.3719 3.66818C28.199 3.94429 28.0837 4.24011 28.0453 4.57538C28.0069 4.91064 27.9493 5.22619 27.9301 5.56146V5.81784C28.2566 5.79811 28.5832 5.75867 28.9097 5.73895C29.2363 5.69951 29.5628 5.66006 29.9086 5.64034C30.2351 5.6009 30.5617 5.58118 30.869 5.54173C31.1956 5.50229 31.5029 5.48257 31.8295 5.50229C32.06 5.50229 32.2905 5.50229 32.5018 5.56146C32.7131 5.62062 32.9244 5.69951 33.0973 5.81784C33.2894 5.93617 33.443 6.07422 33.5775 6.25171C33.712 6.42921 33.808 6.62642 33.8849 6.84336C33.9041 6.92225 33.9233 6.98141 33.9617 7.04057C33.9809 7.09974 34.0001 7.17863 33.9617 7.27723L33.9809 7.21807Z" fill="#F8B21F"/>
</g>
<defs>
<clipPath id="clip0_3157_49">
<rect width="34" height="17" fill="white"/>
</clipPath>
</defs>
</svg>
