<svg width="120" height="40" viewBox="0 0 120 40" fill="none" xmlns="http://www.w3.org/2000/svg">
<g clip-path="url(#clip0_535_1692)">
<path d="M119.66 8.45V7.53C119.63 6.86 119.59 6.19 119.47 5.52C119.36 4.85 119.16 4.23 118.85 3.62C118.54 3.02 118.15 2.47 117.67 2C117.2 1.53 116.65 1.13 116.05 0.82C115.44 0.51 114.81 0.31 114.14 0.19C113.49 0.07 112.81 0.03 112.14 0.02C111.84 0.01 111.53 0.01 111.22 0H8.44C8.14 0.01 7.83 0.01 7.53 0.02C6.86 0.03 6.19 0.07 5.52 0.19C4.85 0.31 4.23 0.51 3.62 0.82C3.02 1.13 2.47 1.53 2 2C1.52 2.47 1.13 3.02 0.82 3.62C0.51 4.23 0.32 4.85 0.2 5.52C0.08 6.19 0.04 6.86 0.02 7.53C0.01 7.83 0.01 8.14 0 8.45V31.56C0.01 31.87 0.01 32.17 0.02 32.48C0.04 33.15 0.08 33.82 0.2 34.48C0.32 35.15 0.51 35.78 0.82 36.39C1.13 36.98 1.52 37.53 2 38C2.47 38.48 3.02 38.88 3.62 39.18C4.23 39.49 4.85 39.69 5.52 39.81C6.19 39.93 6.86 39.97 7.53 39.99C7.83 40 8.14 40 8.44 40H111.22C111.53 40 111.84 40 112.14 39.99C112.81 39.97 113.49 39.93 114.14 39.81C114.81 39.69 115.44 39.49 116.05 39.18C116.65 38.88 117.2 38.48 117.67 38C118.15 37.53 118.54 36.98 118.85 36.39C119.16 35.78 119.36 35.15 119.47 34.48C119.59 33.82 119.63 33.15 119.66 32.48V31.56C119.67 31.2 119.67 30.84 119.67 30.47V9.54C119.67 9.17 119.67 8.81 119.66 8.45ZM118.8 30.47C118.8 30.83 118.8 31.18 118.79 31.54C118.79 31.87 118.79 32.17 118.78 32.47C118.76 33.06 118.73 33.71 118.61 34.33C118.51 34.94 118.33 35.48 118.07 36C117.8 36.51 117.46 36.98 117.06 37.38C116.64 37.8 116.17 38.14 115.66 38.4C115.14 38.67 114.61 38.84 113.99 38.95C113.35 39.07 112.69 39.1 112.12 39.12C111.83 39.12 111.52 39.13 111.22 39.13H8.45C8.14 39.13 7.85 39.12 7.54 39.12C6.99 39.1 6.32 39.07 5.68 38.95C5.07 38.84 4.52 38.66 4.02 38.41C3.5 38.14 3.03 37.8 2.62 37.39C2.21 36.98 1.87 36.52 1.6 35.99C1.34 35.49 1.16 34.95 1.06 34.34C0.94 33.66 0.9 32.98 0.89 32.46C0.89 32.25 0.88 31.55 0.88 31.55V8.45C0.88 8.45 0.89 7.76 0.89 7.55C0.9 7.03 0.94 6.35 1.06 5.68C1.16 5.07 1.34 4.52 1.6 4.02C1.87 3.49 2.21 3.02 2.62 2.62C3.03 2.21 3.5 1.86 4.02 1.6C4.53 1.34 5.07 1.16 5.67 1.05C6.34 0.93 7.03 0.9 7.55 0.89H8.45L111.22 0.88H112.13C112.64 0.9 113.33 0.93 113.99 1.05C114.59 1.16 115.14 1.34 115.66 1.6C116.17 1.86 116.64 2.21 117.05 2.62C117.46 3.02 117.8 3.49 118.08 4.02C118.33 4.53 118.51 5.07 118.61 5.67C118.73 6.3 118.76 6.95 118.78 7.56C118.79 7.84 118.79 8.14 118.79 8.45C118.8 8.82 118.8 9.18 118.8 9.54V30.47Z" fill="white"/>
<path d="M107.4 19.8896C107.37 17.0296 109.74 15.6396 109.85 15.5696C108.51 13.6096 106.43 13.3496 105.7 13.3296C103.95 13.1496 102.26 14.3696 101.37 14.3696C100.48 14.3696 99.0897 13.3396 97.6197 13.3696C95.7197 13.3996 93.9397 14.4996 92.9697 16.2096C90.9597 19.6896 92.4597 24.8096 94.3897 27.6196C95.3497 28.9996 96.4797 30.5396 97.9497 30.4796C99.3897 30.4196 99.9297 29.5596 101.67 29.5596C103.41 29.5596 103.9 30.4797 105.4 30.4496C106.95 30.4196 107.92 29.0696 108.85 27.6696C109.96 26.0896 110.41 24.5296 110.43 24.4496C110.39 24.4396 107.42 23.2996 107.39 19.8796L107.4 19.8896Z" fill="white"/>
<path d="M104.56 11.4796C105.34 10.5096 105.87 9.18961 105.72 7.84961C104.6 7.89961 103.19 8.62961 102.38 9.57961C101.66 10.4196 101.03 11.7896 101.19 13.0796C102.45 13.1696 103.75 12.4396 104.56 11.4896V11.4796Z" fill="white"/>
<path d="M17.2001 27.1401H12.4701L11.3301 30.5001H9.33008L13.8101 18.0801H15.8901L20.3701 30.5001H18.3301L17.1901 27.1401H17.2001ZM12.9601 25.5901H16.7101L14.8601 20.1401H14.8101L12.9601 25.5901Z" fill="white"/>
<path d="M30.0603 25.9706C30.0603 28.7806 28.5503 30.5906 26.2803 30.5906C24.9903 30.5906 23.9703 30.0106 23.4303 29.0106H23.3903V33.4906H21.5303V21.4406H23.3303V22.9506H23.3603C23.8803 21.9806 24.9803 21.3506 26.2403 21.3506C28.5403 21.3506 30.0503 23.1706 30.0503 25.9706H30.0603ZM28.1503 25.9706C28.1503 24.1406 27.2003 22.9306 25.7603 22.9306C24.3203 22.9306 23.3803 24.1606 23.3803 25.9706C23.3803 27.7806 24.3403 29.0206 25.7603 29.0206C27.1803 29.0206 28.1503 27.8206 28.1503 25.9706Z" fill="white"/>
<path d="M40.0202 25.9706C40.0202 28.7806 38.5102 30.5906 36.2402 30.5906C34.9502 30.5906 33.9302 30.0106 33.3902 29.0106H33.3502V33.4906H31.4902V21.4406H33.2902V22.9506H33.3202C33.8402 21.9806 34.9402 21.3506 36.2002 21.3506C38.5002 21.3506 40.0102 23.1706 40.0102 25.9706H40.0202ZM38.1102 25.9706C38.1102 24.1406 37.1602 22.9306 35.7202 22.9306C34.2802 22.9306 33.3402 24.1606 33.3402 25.9706C33.3402 27.7806 34.3002 29.0206 35.7202 29.0206C37.1402 29.0206 38.1102 27.8206 38.1102 25.9706Z" fill="white"/>
<path d="M46.61 27.0401C46.75 28.2701 47.94 29.0801 49.58 29.0801C51.22 29.0801 52.27 28.2701 52.27 27.1601C52.27 26.2001 51.59 25.6201 49.98 25.2201L48.37 24.8301C46.09 24.2801 45.03 23.2101 45.03 21.4801C45.03 19.3401 46.9 17.8701 49.55 17.8701C52.2 17.8701 53.97 19.3401 54.03 21.4801H52.15C52.04 20.2401 51.01 19.4901 49.52 19.4901C48.03 19.4901 47 20.2501 47 21.3501C47 22.2301 47.65 22.7401 49.25 23.1401L50.62 23.4801C53.17 24.0801 54.23 25.1101 54.23 26.9201C54.23 29.2401 52.38 30.7001 49.44 30.7001C46.69 30.7001 44.83 29.2801 44.71 27.0301H46.61V27.0401Z" fill="white"/>
<path d="M58.2505 19.2998V21.4398H59.9705V22.9098H58.2505V27.8998C58.2505 28.6798 58.5905 29.0398 59.3505 29.0398C59.5405 29.0398 59.8405 29.0098 59.9605 28.9998V30.4598C59.7505 30.5098 59.3405 30.5498 58.9305 30.5498C57.1005 30.5498 56.3805 29.8598 56.3805 28.1098V22.9198H55.0605V21.4498H56.3805V19.3098H58.2505V19.2998Z" fill="white"/>
<path d="M60.96 25.9701C60.96 23.1201 62.64 21.3301 65.25 21.3301C67.86 21.3301 69.54 23.1201 69.54 25.9701C69.54 28.8201 67.88 30.6101 65.25 30.6101C62.62 30.6101 60.96 28.8301 60.96 25.9701ZM67.66 25.9701C67.66 24.0201 66.76 22.8601 65.26 22.8601C63.76 22.8601 62.86 24.0201 62.86 25.9701C62.86 27.9201 63.76 29.0801 65.26 29.0801C66.76 29.0801 67.66 27.9401 67.66 25.9701Z" fill="white"/>
<path d="M71.0898 21.4398H72.8598V22.9798H72.8998C73.1798 21.9598 74.0098 21.3398 75.0798 21.3398C75.3498 21.3398 75.5698 21.3798 75.7198 21.4098V23.1498C75.5698 23.0898 75.2498 23.0398 74.8898 23.0398C73.6898 23.0398 72.9498 23.8498 72.9498 25.1198V30.4898H71.0898V21.4398Z" fill="white"/>
<path d="M84.2803 27.8401C84.0303 29.4801 82.4303 30.6101 80.3803 30.6101C77.7503 30.6101 76.1104 28.8501 76.1104 26.0101C76.1104 23.1701 77.7504 21.3301 80.3004 21.3301C82.8504 21.3301 84.3803 23.0501 84.3803 25.8001V26.4401H77.9903V26.5501C77.9903 28.1001 78.9604 29.1101 80.4304 29.1101C81.4604 29.1101 82.2703 28.6201 82.5203 27.8401H84.2803ZM78.0004 25.1401H82.5303C82.4903 23.7501 81.6003 22.8401 80.3103 22.8401C79.0203 22.8401 78.1004 23.7701 78.0004 25.1401Z" fill="white"/>
<path d="M53.8 16.0904H53.15C51.88 16.0904 50.54 15.8304 50.54 14.0704C50.54 13.4604 50.91 12.2204 51.08 11.7504L51.93 11.9804L51.81 12.3704C51.72 12.6704 51.45 13.5604 51.45 14.0704C51.45 15.2804 52.61 15.2804 53.39 15.2804H53.94C54.33 15.2804 54.87 15.1204 54.87 14.6304V11.1904H55.8V13.7704C55.96 13.8504 56.2 13.8904 56.44 13.8904H56.76V14.6904H56.44C56.27 14.6904 56.03 14.6604 55.8 14.5904V14.7104C55.8 15.1604 55.45 16.0904 53.8 16.0904ZM53.27 10.2404C52.96 10.2404 52.71 10.0004 52.71 9.67035C52.71 9.34035 52.96 9.11035 53.29 9.11035C53.62 9.11035 53.86 9.35035 53.86 9.67035C53.86 10.0104 53.62 10.2404 53.27 10.2404Z" fill="white"/>
<path d="M57.7998 13.8806C57.6998 13.5206 57.6498 13.1706 57.6498 12.7006C57.6498 11.6206 58.2498 10.6406 59.5398 10.6406C60.8298 10.6406 61.2598 11.6506 61.2598 12.8506C61.2598 13.7406 60.9498 14.9406 59.7398 14.9406C59.4298 14.9406 59.0598 14.8206 58.5698 14.6706H56.5898V13.8706H57.7998V13.8806ZM58.7398 13.9206C58.9898 14.0206 59.3498 14.1406 59.6698 14.1406C60.2098 14.1406 60.3598 13.4506 60.3598 12.8406C60.3598 12.2306 60.1898 11.4206 59.4898 11.4206C58.8498 11.4206 58.5798 12.0106 58.5798 12.7606C58.5798 13.1506 58.6098 13.5006 58.7498 13.9206H58.7398Z" fill="white"/>
<path d="M67.4104 16.0903H66.7604C65.4904 16.0903 64.1504 15.8303 64.1504 14.0703C64.1504 13.4603 64.5304 12.2203 64.6904 11.7503L65.5404 11.9803L65.4204 12.3703C65.3304 12.6703 65.0604 13.5603 65.0604 14.0703C65.0604 15.2803 66.2204 15.2803 67.0004 15.2803H67.5504C67.9404 15.2803 68.4804 15.1203 68.4804 14.6303V8.82031H69.4104V13.7703C69.5704 13.8503 69.8104 13.8903 70.0504 13.8903H70.3704V14.6903H70.0504C69.8804 14.6903 69.6404 14.6603 69.4104 14.5903V14.7103C69.4104 15.1603 69.0604 16.0903 67.4104 16.0903Z" fill="white"/>
<path d="M73.5002 10.6904V13.1404C73.5002 14.1804 72.8802 14.6804 71.6502 14.6804H70.2002V13.8804H71.6102C72.3502 13.8804 72.5502 13.5604 72.5502 13.0104V10.6904H73.4902H73.5002ZM71.1602 16.6304C70.8502 16.6304 70.6002 16.3904 70.6002 16.0604C70.6002 15.7304 70.8502 15.5004 71.1802 15.5004C71.5102 15.5004 71.7602 15.7404 71.7602 16.0604C71.7602 16.4004 71.5202 16.6304 71.1702 16.6304H71.1602ZM72.6302 16.6304C72.3202 16.6304 72.0702 16.3904 72.0702 16.0604C72.0702 15.7304 72.3202 15.5004 72.6502 15.5004C72.9802 15.5004 73.2202 15.7404 73.2202 16.0604C73.2202 16.4004 72.9802 16.6304 72.6302 16.6304Z" fill="white"/>
<path d="M74.19 15.9902C74.33 16.0102 74.48 16.0202 74.59 16.0202C75.36 16.0202 75.74 15.5802 75.74 14.6802V11.1802H76.68V13.8902H77.54V14.6902H76.67C76.63 15.4302 76.42 15.9702 76.07 16.3002C75.7 16.6302 75.18 16.8102 74.55 16.8102C74.38 16.8102 74.17 16.7902 73.96 16.7702L74.19 15.9902ZM76.17 10.3302C75.86 10.3302 75.61 10.0902 75.61 9.7602C75.61 9.4302 75.86 9.2002 76.19 9.2002C76.52 9.2002 76.77 9.4402 76.77 9.7602C76.77 10.1002 76.53 10.3302 76.18 10.3302H76.17Z" fill="white"/>
<path d="M80.6396 14.6804C80.3696 14.6804 79.9296 14.5904 79.5696 14.3804C79.2496 14.6204 78.7196 14.6804 78.0996 14.6804H77.3896V13.8804H78.1497C78.8597 13.8804 78.9996 13.7704 78.9996 13.2404V10.6904H79.9296V13.7204C80.0996 13.8204 80.3896 13.8804 80.6396 13.8804H81.2197V14.6804H80.6396ZM79.4296 9.82043C79.1196 9.82043 78.8697 9.58043 78.8697 9.25043C78.8697 8.92043 79.1196 8.69043 79.4496 8.69043C79.7796 8.69043 80.0296 8.93043 80.0296 9.25043C80.0296 9.59043 79.7897 9.82043 79.4397 9.82043H79.4296Z" fill="white"/>
<path d="M83.4496 10.6904V13.1404C83.4496 14.1804 82.8296 14.6804 81.5996 14.6804H81.0596V13.8804H81.5696C82.3096 13.8804 82.5096 13.5604 82.5096 13.0104V10.6904H83.4496ZM82.0696 9.82043C81.7596 9.82043 81.5096 9.58043 81.5096 9.25043C81.5096 8.92043 81.7596 8.69043 82.0896 8.69043C82.4196 8.69043 82.6696 8.93043 82.6696 9.25043C82.6696 9.59043 82.4296 9.82043 82.0796 9.82043H82.0696ZM83.5296 9.82043C83.2196 9.82043 82.9696 9.58043 82.9696 9.25043C82.9696 8.92043 83.2196 8.69043 83.5496 8.69043C83.8796 8.69043 84.1296 8.93043 84.1296 9.25043C84.1296 9.59043 83.8896 9.82043 83.5396 9.82043H83.5296Z" fill="white"/>
</g>
<defs>
<clipPath id="clip0_535_1692">
<rect width="119.67" height="40" fill="white"/>
</clipPath>
</defs>
</svg>
