<svg width="60" height="60" viewBox="0 0 60 60" fill="none" xmlns="http://www.w3.org/2000/svg">
<path d="M29.9994 39.0837C30.6332 39.0837 31.1477 38.5692 31.1477 37.9354C31.1477 37.3016 30.6332 36.7871 29.9994 36.7871C29.3656 36.7871 28.8511 37.3016 28.8511 37.9354C28.8511 38.5692 29.3656 39.0837 29.9994 39.0837Z" fill="#0055B8"/>
<path d="M44.7727 33.0381C44.5704 32.6882 44.1986 32.4706 43.7944 32.4648C43.789 32.4648 43.7841 32.4648 43.7787 32.4648C43.3804 32.4648 43.0103 32.6716 42.8008 33.0112L38.3857 40.1858L31.1478 28.4242V14.7396H48.3724C48.8138 14.7396 49.2161 14.4866 49.4072 14.0888C49.5987 13.6909 49.5449 13.2186 49.269 12.8741L45.2495 7.8498L49.269 2.82551C49.5449 2.48102 49.5987 2.00869 49.4072 1.61082C49.2161 1.21295 48.8138 0.959961 48.3724 0.959961H29.9995C29.3652 0.959961 28.8512 1.47401 28.8512 2.10827V28.4242L21.6133 40.1863L17.1977 33.0112C16.9859 32.6671 16.61 32.4594 16.2046 32.4648C15.8 32.4702 15.4285 32.6882 15.2258 33.0381L0.757143 58.0294C0.551704 58.3851 0.551256 58.8229 0.756246 59.1786C0.961237 59.5343 1.34072 59.7532 1.75115 59.7532H58.2478C58.6582 59.7532 59.0377 59.5343 59.2427 59.1786C59.4477 58.8229 59.4473 58.3847 59.2414 58.0294L44.7727 33.0381ZM22.6055 42.9552C22.6068 42.953 22.6082 42.9512 22.6095 42.9489L29.9995 30.9402L46.3171 57.4566H13.6814L22.6055 42.9552ZM42.8825 7.13256C42.547 7.55196 42.547 8.14764 42.8825 8.56704L45.9829 12.443H31.1478V3.25657H45.9829L42.8825 7.13256ZM16.2499 35.8528L20.2649 42.377L10.9847 57.4566H3.74274L16.2499 35.8528ZM49.0138 57.4566L39.7341 42.3766L43.7491 35.8528L56.2562 57.4566H49.0138Z" fill="#0055B8"/>
<path d="M39.1748 54.6134C39.5072 55.1539 40.2146 55.3217 40.7547 54.9893C41.2947 54.6569 41.4634 53.95 41.1305 53.4099L33.5701 41.1239C33.2382 40.5839 32.5308 40.4152 31.9903 40.7476C31.4502 41.0804 31.282 41.7873 31.6144 42.3274L39.1748 54.6134Z" fill="#0055B8"/>
</svg>
