<?xml version="1.0" encoding="UTF-8"?>
<svg xmlns="http://www.w3.org/2000/svg" version="1.1" viewBox="0 0 512 512">
  <defs>
    <style>
      .cls-1 {
        fill: #fff;
      }
    </style>
  </defs>
  <!-- Generator: Adobe Illustrator 28.7.7, SVG Export Plug-In . SVG Version: 1.2.0 Build 194)  -->
  <g>
    <g id="Layer_1">
      <path class="cls-1" d="M161,77.9c-50.8,0-92,41.2-92,92s18.7,64.2,46.5,80c13.4,7.7,28.9,12,45.5,12,16.5,0,32-4.4,45.4-12,27.8-15.8,46.5-45.7,46.6-80,0-50.8-41.2-92-92-92ZM161,241.9c-39.8,0-72-32.2-72-72s32.2-72,72-72c39.8,0,72,32.2,72,72,0,39.8-32.2,72-72,72Z"/>
      <path class="cls-1" d="M253,278.8c-4.8,4.6-9.3,9.6-13.4,14.9,4.9,4.8,9.4,10,13.4,15.5,4-5.6,8.5-10.8,13.4-15.5-4.1-5.3-8.6-10.3-13.4-14.9ZM266.4,293.7c-4.1-5.3-8.6-10.3-13.4-14.9-13.2-12.7-29-22.6-46.6-29-14.2-5.2-29.5-8-45.4-8s-31.3,2.8-45.5,8c-51.1,18.6-87.5,67.5-87.5,125v49.2c0,5.5,4.5,10,10,10h246c5.5,0,10-4.5,10-10v-49.2c0-30.5-10.3-58.7-27.6-81.2ZM48,414.1v-39.2c0-62.4,50.6-113,113-113s58.3,12.1,78.6,31.8c4.9,4.8,9.4,10,13.4,15.5,13.2,18.5,21,41.1,21,65.6v39.2H48Z"/>
      <path class="cls-1" d="M345,77.9c-50.8,0-92,41.2-92,92s18.7,64.2,46.5,80c13.4,7.7,28.9,12,45.5,12,16.5,0,32-4.4,45.4-12,27.8-15.8,46.5-45.7,46.6-80,0-50.8-41.2-92-92-92ZM345,241.9c-39.8,0-72-32.2-72-72s32.2-72,72-72c39.8,0,72,32.2,72,72,0,39.8-32.2,72-72,72Z"/>
      <path class="cls-1" d="M299.5,249.9c-17.5,6.4-33.3,16.3-46.5,29,4.8,4.6,9.3,9.6,13.4,14.9,20.3-19.7,48.1-31.8,78.6-31.8-16.5,0-32.1-4.4-45.5-12ZM390.4,249.8c-14.2-5.2-29.5-8-45.4-8s-31.3,2.8-45.5,8c-17.5,6.4-33.3,16.3-46.5,29-4.8,4.6-9.3,9.6-13.4,14.9,4.9,4.8,9.4,10,13.4,15.5,4-5.6,8.5-10.8,13.4-15.5,20.3-19.7,48.1-31.8,78.6-31.8,62.4,0,113,50.6,113,113v39.2h-246v10c0,5.5,4.5,10,10,10h246c5.5,0,10-4.5,10-10v-49.2c0-57.5-36.5-106.5-87.6-125Z"/>
    </g>
  </g>
</svg>