<svg width="68" height="68" viewBox="0 0 68 68" fill="none" xmlns="http://www.w3.org/2000/svg">
<path d="M34.6641 21.7428C34.6641 22.7402 34.9598 23.7151 35.5139 24.5444C36.068 25.3736 36.8555 26.0199 37.777 26.4016C38.6984 26.7833 39.7123 26.8831 40.6905 26.6886C41.6686 26.494 42.5671 26.0137 43.2724 25.3085C43.9776 24.6033 44.4578 23.7048 44.6524 22.7266C44.847 21.7484 44.7471 20.7345 44.3655 19.8131C43.9838 18.8917 43.3375 18.1041 42.5082 17.55C41.679 16.9959 40.704 16.7002 39.7067 16.7002C38.3696 16.7013 37.0877 17.233 36.1423 18.1784C35.1968 19.1238 34.6652 20.4058 34.6641 21.7428ZM42.8899 21.7428C42.8899 22.3724 42.7032 22.9879 42.3535 23.5113C42.0037 24.0348 41.5065 24.4428 40.9249 24.6838C40.3432 24.9247 39.7032 24.9877 39.0857 24.8649C38.4682 24.7421 37.901 24.4389 37.4558 23.9937C37.0106 23.5485 36.7074 22.9813 36.5846 22.3638C36.4618 21.7464 36.5248 21.1063 36.7657 20.5246C37.0067 19.943 37.4147 19.4458 37.9382 19.096C38.4617 18.7463 39.0771 18.5596 39.7067 18.5596C40.5506 18.5607 41.3596 18.8964 41.9563 19.4932C42.5531 20.0899 42.8888 20.8989 42.8899 21.7428Z" fill="#0056B1"/>
<path d="M21.9181 41.4121C20.9208 41.4121 19.9458 41.7079 19.1166 42.2619C18.2873 42.816 17.641 43.6036 17.2593 44.525C16.8777 45.4464 16.7778 46.4603 16.9724 47.4385C17.167 48.4167 17.6472 49.3152 18.3524 50.0204C19.0577 50.7256 19.9562 51.2059 20.9343 51.4005C21.9125 51.595 22.9264 51.4952 23.8478 51.1135C24.7693 50.7318 25.5568 50.0855 26.1109 49.2563C26.665 48.427 26.9607 47.4521 26.9607 46.4547C26.9596 45.1177 26.428 43.8357 25.4825 42.8903C24.5371 41.9449 23.2552 41.4132 21.9181 41.4121ZM21.9181 49.638C21.2885 49.638 20.6731 49.4513 20.1496 49.1015C19.6261 48.7517 19.2181 48.2546 18.9772 47.6729C18.7362 47.0912 18.6732 46.4512 18.796 45.8337C18.9189 45.2162 19.222 44.649 19.6672 44.2038C20.1124 43.7586 20.6796 43.4555 21.2971 43.3326C21.9146 43.2098 22.5546 43.2729 23.1363 43.5138C23.718 43.7547 24.2151 44.1627 24.5649 44.6862C24.9147 45.2097 25.1014 45.8251 25.1014 46.4547C25.1002 47.2986 24.7645 48.1077 24.1678 48.7044C23.571 49.3011 22.762 49.6369 21.9181 49.638Z" fill="#0056B1"/>
<path d="M51.7886 62.0371C52.0351 62.0371 52.2716 61.9392 52.446 61.7648C52.6203 61.5905 52.7183 61.354 52.7183 61.1074V58.4512C52.7183 58.2046 52.6203 57.9681 52.446 57.7938C52.2716 57.6194 52.0351 57.5215 51.7886 57.5215C51.542 57.5215 51.3055 57.6194 51.1312 57.7938C50.9568 57.9681 50.8589 58.2046 50.8589 58.4512V61.1074C50.8589 61.354 50.9568 61.5905 51.1312 61.7648C51.3055 61.9392 51.542 62.0371 51.7886 62.0371Z" fill="#0056B1"/>
<path d="M62.9531 2.52344H5.04688C4.37762 2.52344 3.73577 2.7893 3.26254 3.26254C2.7893 3.73577 2.52344 4.37762 2.52344 5.04688C2.52344 5.71613 2.7893 6.35798 3.26254 6.83121C3.73577 7.30445 4.37762 7.57031 5.04688 7.57031H12.0966V46.4525C12.0952 46.8719 12.1236 47.2909 12.1816 47.7063C12.4842 50.0751 13.64 52.2525 15.4325 53.8305C17.225 55.4086 19.5312 56.2791 21.9194 56.2791C24.3075 56.2791 26.6138 55.4086 28.4063 53.8305C30.1987 52.2525 31.3545 50.0751 31.6572 47.7063C31.7151 47.2909 31.7435 46.8719 31.7422 46.4525V27.4709C32.6483 28.7378 33.8436 29.7703 35.2288 30.4826C36.614 31.1949 38.1491 31.5664 39.7067 31.5664C41.2643 31.5664 42.7994 31.1949 44.1846 30.4826C45.5698 29.7703 46.7651 28.7378 47.6712 27.4709V51.2449C47.0173 51.437 46.4383 51.8254 46.0126 52.3575C45.5869 52.8897 45.335 53.5398 45.2912 54.2199H42.2259C41.9793 54.2199 41.7428 54.3179 41.5685 54.4922C41.3941 54.6666 41.2962 54.903 41.2962 55.1496V64.5469C41.2963 64.7934 41.3943 65.0298 41.5686 65.2041C41.743 65.3784 41.9794 65.4764 42.2259 65.4766H54.9759C55.2224 65.4764 55.4588 65.3784 55.6331 65.2041C55.8074 65.0298 55.9054 64.7934 55.9056 64.5469V55.148C55.9056 54.9014 55.8076 54.665 55.6333 54.4906C55.4589 54.3163 55.2224 54.2183 54.9759 54.2183H51.9106C51.8667 53.5382 51.6149 52.8881 51.1892 52.3559C50.7634 51.8238 50.1844 51.4354 49.5306 51.2433V21.7425C49.5267 19.2995 48.6139 16.9455 46.9698 15.1386C45.3258 13.3317 43.0681 12.2013 40.6364 11.9675V7.57031H62.9531C63.6224 7.57031 64.2642 7.30445 64.7375 6.83121C65.2107 6.35798 65.4766 5.71613 65.4766 5.04688C65.4766 4.37762 65.2107 3.73577 64.7375 3.26254C64.2642 2.7893 63.6224 2.52344 62.9531 2.52344ZM54.0462 63.6172H43.1556V56.0777H54.0462V63.6172ZM50.0437 54.204H47.1575C47.2113 53.8598 47.3863 53.5462 47.651 53.3197C47.9156 53.0932 48.2525 52.9687 48.6009 52.9687C48.9492 52.9687 49.2861 53.0932 49.5508 53.3197C49.8155 53.5462 49.9899 53.8598 50.0437 54.204ZM21.9188 54.4212C20.3425 54.4223 18.8013 53.9558 17.4902 53.0809C16.179 52.2059 15.1568 50.9617 14.5529 49.5057C13.9489 48.0497 13.7904 46.4473 14.0973 44.9011C14.4041 43.355 15.1627 41.9346 16.2769 40.8196C17.3911 39.7046 18.811 38.9452 20.357 38.6373C21.9029 38.3294 23.5054 38.4869 24.9618 39.0898C26.4182 39.6928 27.6631 40.7142 28.5389 42.0247C29.4148 43.3353 29.8823 44.8762 29.8823 46.4525C29.8809 48.5645 29.0417 50.5897 27.5488 52.0836C26.0559 53.5776 24.0308 54.4183 21.9188 54.4212ZM47.6712 21.7425C47.6712 23.3177 47.2041 24.8576 46.3289 26.1673C45.4538 27.4771 44.2099 28.4979 42.7546 29.1007C41.2992 29.7035 39.6979 29.8612 38.1529 29.5539C36.6079 29.2466 35.1888 28.4881 34.0749 27.3742C32.9611 26.2604 32.2025 24.8412 31.8952 23.2963C31.5879 21.7513 31.7456 20.1499 32.3484 18.6946C32.9513 17.2393 33.9721 15.9954 35.2818 15.1202C36.5916 14.2451 38.1315 13.778 39.7067 13.778C41.8183 13.7804 43.8427 14.6202 45.3358 16.1134C46.8289 17.6065 47.6688 19.6309 47.6712 21.7425ZM38.777 11.9675C36.3453 12.2013 34.0876 13.3317 32.4435 15.1386C30.7995 16.9455 29.8866 19.2995 29.8828 21.7425V40.7081C28.974 39.4454 27.7779 38.4169 26.3933 37.7075C25.0086 36.9981 23.4752 36.6281 21.9194 36.6281C20.3636 36.6281 18.8301 36.9981 17.4455 37.7075C16.0609 38.4169 14.8648 39.4454 13.9559 40.7081V7.57031H38.777V11.9675ZM62.9531 5.71094H5.04688C4.87075 5.71094 4.70185 5.64097 4.57731 5.51644C4.45278 5.3919 4.38281 5.223 4.38281 5.04688C4.38281 4.87075 4.45278 4.70185 4.57731 4.57731C4.70185 4.45278 4.87075 4.38281 5.04688 4.38281H62.9531C63.1292 4.38281 63.2981 4.45278 63.4227 4.57731C63.5472 4.70185 63.6172 4.87075 63.6172 5.04688C63.6172 5.223 63.5472 5.3919 63.4227 5.51644C63.2981 5.64097 63.1292 5.71094 62.9531 5.71094Z" fill="#0056B1"/>
</svg>
