<svg width="42" height="42" viewBox="0 0 42 42" fill="none" xmlns="http://www.w3.org/2000/svg">
<g clip-path="url(#clip0_4512_66)">
<path d="M41.9508 3.13539C41.8598 1.46704 40.533 0.140345 38.8646 0.0492907C35.4982 -0.134623 28.9108 0.0442869 22.6118 3.30232C19.4007 4.96329 16.0046 7.77934 13.2943 11.0284C13.2609 11.0685 13.2285 11.1087 13.1953 11.1489L7.04462 11.624C6.03219 11.7022 5.13042 12.2329 4.57047 13.0798L0.374247 19.4267C-0.0504287 20.069 -0.11794 20.8728 0.193532 21.5769C0.505087 22.2811 1.14526 22.7718 1.9061 22.8897L7.08809 23.6923C7.0698 23.793 7.05143 23.8936 7.03461 23.9944C6.8621 25.0263 7.204 26.0873 7.94934 26.8326L15.1674 34.0508C15.7854 34.6687 16.6204 35.0094 17.476 35.0094C17.6522 35.0094 17.8293 34.9949 18.0057 34.9654C18.1064 34.9486 18.2071 34.9302 18.3078 34.9119L19.1104 40.094C19.2283 40.8548 19.719 41.4951 20.423 41.8066C20.7159 41.9362 21.0259 42.0002 21.3345 42.0002C21.7679 42.0001 22.1982 41.8739 22.5733 41.6259L28.9202 37.4296C29.7672 36.8696 30.2978 35.9678 30.3759 34.9555L30.851 28.8049C30.8911 28.7717 30.9315 28.7392 30.9715 28.7058C34.2207 25.9956 37.0368 22.5995 38.6977 19.3883C41.9559 13.0891 42.1345 6.50154 41.9508 3.13539ZM27.563 35.3767L21.4918 39.3907L20.7095 34.3405C23.2755 33.586 25.8138 32.3777 28.232 30.759L27.9225 34.7658C27.9032 35.0158 27.7721 35.2385 27.563 35.3767ZM16.9076 32.3106L9.68939 25.0924C9.50523 24.9082 9.42008 24.6494 9.46183 24.4001C9.67643 23.1169 10.0099 21.8954 10.4227 20.7446L21.2531 31.575C19.871 32.0701 18.6331 32.3654 17.5999 32.5382C17.3502 32.5797 17.0917 32.4948 16.9076 32.3106ZM7.23419 14.0776L11.2409 13.7681C9.62212 16.1863 8.4138 18.7246 7.65936 21.2905L2.60919 20.5084L6.62331 14.4371C6.76161 14.2279 6.98433 14.0969 7.23419 14.0776ZM29.3953 26.8159C27.4075 28.474 25.4779 29.6733 23.6993 30.5411L11.4585 18.3003C12.5953 15.9785 13.9827 14.0451 15.1841 12.6048C17.6922 9.59797 20.8116 7.00406 23.7425 5.48813C29.5236 2.49784 35.6145 2.33681 38.7307 2.50645C39.1431 2.52893 39.4712 2.85697 39.4936 3.26951C39.6635 6.38571 39.5022 12.4765 36.5119 18.2577C34.996 21.1885 32.4021 24.3078 29.3953 26.8159Z" fill="white"/>
<path d="M28.7703 19.3795C30.3455 19.3794 31.9213 18.7797 33.1205 17.5805C34.2826 16.4185 34.9224 14.8736 34.9224 13.2303C34.9224 11.5871 34.2825 10.0421 33.1205 8.88012C30.7218 6.48128 26.8187 6.48145 24.4201 8.88012C23.2581 10.0421 22.6182 11.5871 22.6182 13.2303C22.6182 14.8736 23.2582 16.4185 24.4201 17.5805C25.6196 18.78 27.1946 19.3797 28.7703 19.3795ZM26.1601 10.6202C26.8797 9.90051 27.8249 9.54072 28.7702 9.54072C29.7155 9.54072 30.6608 9.90051 31.3803 10.6202C32.0775 11.3174 32.4614 12.2443 32.4614 13.2302C32.4614 14.2162 32.0775 15.1432 31.3803 15.8404C29.9412 17.2796 27.5993 17.2795 26.16 15.8404C25.4628 15.1432 25.0789 14.2163 25.0789 13.2303C25.0789 12.2444 25.4629 11.3174 26.1601 10.6202Z" fill="white"/>
<path d="M1.25484 34.6121C1.56976 34.6121 1.88468 34.492 2.12487 34.2516L6.14218 30.2343C6.62272 29.7538 6.62272 28.9747 6.14218 28.4942C5.66173 28.0137 4.88259 28.0137 4.40205 28.4942L0.384818 32.5115C-0.0957207 32.992 -0.0957207 33.7711 0.384818 34.2516C0.625006 34.4919 0.939924 34.6121 1.25484 34.6121Z" fill="white"/>
<path d="M9.8241 32.1758C9.34365 31.6953 8.56451 31.6953 8.08397 32.1758L0.360404 39.8995C-0.120135 40.38 -0.120135 41.1591 0.360404 41.6396C0.600674 41.8799 0.91551 42 1.23043 42C1.54535 42 1.86026 41.8799 2.10045 41.6395L9.82402 33.916C10.3046 33.4354 10.3046 32.6564 9.8241 32.1758Z" fill="white"/>
<path d="M11.7654 35.8575L7.7481 39.8748C7.26756 40.3553 7.26756 41.1344 7.7481 41.6149C7.98837 41.8552 8.30329 41.9754 8.61812 41.9754C8.93296 41.9754 9.24796 41.8553 9.48815 41.6149L13.5055 37.5976C13.986 37.1171 13.986 36.338 13.5055 35.8575C13.025 35.3769 12.2459 35.3769 11.7654 35.8575Z" fill="white"/>
</g>
<defs>
<clipPath id="clip0_4512_66">
<rect width="42" height="42" fill="white"/>
</clipPath>
</defs>
</svg>
