<svg width="52" height="45" viewBox="0 0 52 45" fill="none" xmlns="http://www.w3.org/2000/svg">
<g clip-path="url(#clip0_621_834)">
<path d="M26.0002 31.1454C26.5635 31.1454 27.02 30.6999 27.02 30.1504C27.02 29.6008 26.5635 29.1553 26.0002 29.1553C25.437 29.1553 24.9805 29.6008 24.9805 30.1504C24.9805 30.6999 25.437 31.1454 26.0002 31.1454Z" fill="#0056B1"/>
<path d="M47.9296 0H4.0704C1.82166 0 0 1.77755 0 3.97184V31.6982C0 33.8925 1.82166 35.67 4.0704 35.67H20.4043L19.2625 39.089C17.8243 39.3272 16.7174 40.5519 16.7174 42.0232C16.7174 43.6647 18.0858 45 19.768 45H32.2145C33.8967 45 35.2652 43.6647 35.2652 42.0232C35.2652 40.5519 34.1669 39.3272 32.7201 39.089L31.5783 35.67H47.9122C50.1609 35.67 51.9826 33.8925 51.9826 31.6982V3.97184C51.9826 1.77755 50.1609 0 47.9122 0H47.9296ZM33.243 42.0232C33.243 42.5676 32.7898 43.0183 32.2233 43.0183H19.7767C19.2189 43.0183 18.757 42.5761 18.757 42.0232C18.757 41.4704 19.2102 41.0282 19.7767 41.0282H32.2233C32.7811 41.0282 33.243 41.4704 33.243 42.0232ZM30.5759 39.0465H21.4154L22.5397 35.67H29.4516L30.5759 39.0465ZM49.9692 31.6982C49.9692 32.7953 49.054 33.6883 47.9296 33.6883H4.0704C2.94603 33.6883 2.03084 32.7953 2.03084 31.6982V3.97184C2.03084 2.87469 2.94603 1.98167 4.0704 1.98167H47.9296C49.054 1.98167 49.9692 2.87469 49.9692 3.97184V31.6982Z" fill="#0056B1"/>
<path d="M44.8177 4.52441H7.18181C5.77852 4.52441 4.63672 5.63857 4.63672 7.00788V28.6531C4.63672 30.0224 5.77852 31.1366 7.18181 31.1366H21.4326C21.9904 31.1366 22.4523 30.6943 22.4523 30.1415C22.4523 29.5887 21.9991 29.1464 21.4326 29.1464H7.18181C6.90289 29.1464 6.67628 28.9253 6.67628 28.6531V7.00788C6.67628 6.73572 6.90289 6.51459 7.18181 6.51459H44.809C45.0879 6.51459 45.3146 6.73572 45.3146 7.00788V28.6531C45.3146 28.9253 45.0879 29.1464 44.809 29.1464H30.5583C30.0004 29.1464 29.5385 29.5887 29.5385 30.1415C29.5385 30.6943 29.9917 31.1366 30.5583 31.1366H44.809C46.2123 31.1366 47.3541 30.0224 47.3541 28.6531V7.00788C47.3541 5.63857 46.2123 4.52441 44.809 4.52441H44.8177Z" fill="#0056B1"/>
<path d="M20.1078 14.2544V10.963C20.1078 9.59365 18.966 8.47949 17.5627 8.47949H12.089C10.6857 8.47949 9.54395 9.59365 9.54395 10.963V14.2544C9.54395 15.6237 10.6857 16.7379 12.089 16.7379H17.5627C18.966 16.7379 20.1078 15.6237 20.1078 14.2544ZM18.0682 14.2544C18.0682 14.5266 17.8416 14.7477 17.5627 14.7477H12.089C11.8101 14.7477 11.5835 14.5266 11.5835 14.2544V10.963C11.5835 10.6908 11.8101 10.4697 12.089 10.4697H17.5627C17.8416 10.4697 18.0682 10.6908 18.0682 10.963V14.2544Z" fill="#0056B1"/>
<path d="M41.8108 18.7708C41.7149 18.4306 41.4447 18.1584 41.0874 18.0649L33.6177 16.1087C33.2691 16.0152 32.8943 16.1087 32.6328 16.3639C32.3713 16.619 32.2755 16.9762 32.3713 17.325L34.376 24.6137C34.4719 24.9539 34.7421 25.2261 35.0995 25.3197C35.4481 25.4132 35.8229 25.3197 36.0844 25.0645L36.6596 24.5032L39.379 27.1567C39.5708 27.3439 39.8323 27.4459 40.1025 27.4459C40.3727 27.4459 40.6342 27.3439 40.8259 27.1567L43.7022 24.3501C44.1031 23.9589 44.1031 23.3295 43.7022 22.9468L40.9828 20.2932L41.5581 19.7319C41.8195 19.4767 41.9154 19.1195 41.8195 18.7708H41.8108ZM41.5319 23.6442L40.0938 25.0475L37.3744 22.3939C37.1739 22.1983 36.9124 22.1048 36.6509 22.1048C36.3894 22.1048 36.128 22.1983 35.9275 22.3939L35.8752 22.445L34.7857 18.4816L38.8474 19.5448L38.7951 19.5958C38.3941 19.987 38.3941 20.6164 38.7951 20.9991L41.5145 23.6527L41.5319 23.6442Z" fill="#0056B1"/>
<path d="M22.5569 11.6181H28.8325C29.3903 11.6181 29.8522 11.1758 29.8522 10.623C29.8522 10.0702 29.399 9.62793 28.8325 9.62793H22.5569C21.9991 9.62793 21.5371 10.0702 21.5371 10.623C21.5371 11.1758 21.9903 11.6181 22.5569 11.6181Z" fill="#0056B1"/>
<path d="M22.5569 15.5898H28.8325C29.3903 15.5898 29.8522 15.1475 29.8522 14.5947C29.8522 14.0419 29.399 13.5996 28.8325 13.5996H22.5569C21.9991 13.5996 21.5371 14.0419 21.5371 14.5947C21.5371 15.1475 21.9903 15.5898 22.5569 15.5898Z" fill="#0056B1"/>
<path d="M22.5569 21.2714H28.8325C29.3903 21.2714 29.8522 20.8292 29.8522 20.2763C29.8522 19.7235 29.399 19.2812 28.8325 19.2812H22.5569C21.9991 19.2812 21.5371 19.7235 21.5371 20.2763C21.5371 20.8207 21.9903 21.2714 22.5569 21.2714Z" fill="#0056B1"/>
<path d="M29.8522 24.248C29.8522 23.7037 29.399 23.2529 28.8325 23.2529H22.5569C21.9991 23.2529 21.5371 23.6952 21.5371 24.248C21.5371 24.8008 21.9903 25.2431 22.5569 25.2431H28.8325C29.3903 25.2431 29.8522 24.8008 29.8522 24.248Z" fill="#0056B1"/>
<path d="M10.5898 22.3593C10.5898 24.6386 12.4899 26.4842 14.8171 26.4842C17.1443 26.4842 19.0444 24.6301 19.0444 22.3593C19.0444 20.0885 17.1443 18.2344 14.8171 18.2344C12.4899 18.2344 10.5898 20.0885 10.5898 22.3593ZM17.0223 22.3593C17.0223 23.5415 16.0374 24.5026 14.8258 24.5026C13.6143 24.5026 12.6294 23.5415 12.6294 22.3593C12.6294 21.1771 13.6143 20.216 14.8258 20.216C16.0374 20.216 17.0223 21.1771 17.0223 22.3593Z" fill="#0056B1"/>
</g>
<defs>
<clipPath id="clip0_621_834">
<rect width="52" height="45" fill="white"/>
</clipPath>
</defs>
</svg>
