<svg width="78" height="78" viewBox="0 0 78 78" fill="none" xmlns="http://www.w3.org/2000/svg">
<g clip-path="url(#clip0_4594_12)">
<path d="M38.8865 71.2936C20.9887 71.2936 6.48047 56.7854 6.48047 38.8875C6.48047 20.9896 20.9887 6.48145 38.8865 6.48145C56.7844 6.48145 71.2926 20.9896 71.2926 38.8875C71.2926 56.7854 56.7844 71.2936 38.8865 71.2936ZM34.421 27.2699C34.226 27.1398 33.9993 27.065 33.7651 27.0535C33.5309 27.042 33.298 27.0943 33.0912 27.2047C32.8844 27.3151 32.7113 27.4795 32.5906 27.6805C32.4698 27.8814 32.4058 28.1114 32.4053 28.3458V49.4292C32.4058 49.6637 32.4698 49.8936 32.5906 50.0946C32.7113 50.2955 32.8844 50.46 33.0912 50.5704C33.298 50.6808 33.5309 50.733 33.7651 50.7215C33.9993 50.71 34.226 50.6352 34.421 50.5051L50.2319 39.9666C50.4097 39.8483 50.5555 39.6879 50.6564 39.4996C50.7572 39.3114 50.81 39.1011 50.81 38.8875C50.81 38.6739 50.7572 38.4637 50.6564 38.2754C50.5555 38.0871 50.4097 37.9267 50.2319 37.8084L34.421 27.2699Z" fill="white"/>
</g>
<defs>
<clipPath id="clip0_4594_12">
<rect width="77.7746" height="77.7746" fill="white"/>
</clipPath>
</defs>
</svg>
