<svg width="59" height="43" viewBox="0 0 59 43" fill="none" xmlns="http://www.w3.org/2000/svg">
<path fill-rule="evenodd" clip-rule="evenodd" d="M45.7648 11.6352C47.8638 8.63769 51.841 5.38563 57.2267 2.69915C58.6352 1.99218 58 -0.185286 56.4533 0.0126653C45.1019 1.48316 37.7552 6.57334 33.7505 14.1238C32.2591 16.9516 31.32 19.9209 30.8229 23.0033C30.4914 25.0111 30.4086 26.5381 30.4086 28.2914C30.4086 36.0964 36.5952 42.4308 44.2181 42.4308C51.841 42.4308 58.0276 36.0964 58.0276 28.2914C58.0276 20.4865 51.7581 14.152 44.5219 14.152C44.9086 13.0775 44.9914 12.7664 45.7924 11.6635L45.7648 11.6352ZM15.3838 11.6352C17.4829 8.63769 21.46 5.38563 26.8457 2.69915C28.2543 1.99218 27.619 -0.185286 26.0724 0.0126653C14.721 1.48316 7.37429 6.57334 3.34191 14.152C1.85048 16.9799 0.911429 19.9492 0.414286 23.0316C0.0828572 25.0394 0 26.5664 0 28.3197C0 36.1246 6.18667 42.4591 13.8095 42.4591C21.4324 42.4591 27.619 36.1246 27.619 28.3197C27.619 20.5148 21.3495 14.1803 14.1133 14.1803C14.5 13.1057 14.5829 12.7947 15.3838 11.6918V11.6352Z" fill="#0056B1"/>
</svg>
