<svg width="79" height="120" viewBox="0 0 79 120" fill="none" xmlns="http://www.w3.org/2000/svg">
<path d="M9.97391 116.386C3.98784 104.016 12.9916 116.691 26.2224 115.485C47.4392 114.595 64.4318 94.0324 64.6021 73.3754C64.4655 71.6236 64.6593 70.0012 65.9743 68.7118C68.0398 65.8598 69.9195 62.8986 71.4892 59.7392C75.168 52.3671 77.4505 44.6012 78.2885 36.3935C79.3837 27.0786 77.8419 4.07052 68.1596 0.0353818C66.6203 0.0131282 65.4318 2.11991 66.2197 3.45034C67.8493 5.76057 69.3348 8.13313 70.2578 10.8168C72.4353 16.6298 73.2467 22.8528 73.1853 29.0375C73.0665 40.5961 70.2418 52.59 63.5881 62.1436C62.6566 63.0333 60.186 55.902 58.0242 54.6999C52.8586 49.1926 43.4606 49.953 39.311 56.2615C29.5193 70.5467 41.8776 87.6015 57.8866 76.8753C58.2914 76.709 58.7048 77.0169 58.6926 77.4911C57.7005 86.8193 52.6509 95.2269 45.8348 101.503C37.1768 109.669 22.8473 113.14 12.4408 106.276C11.4997 104.348 23.0548 103.436 22.5729 99.1085C21.6891 93.8409 16.0118 99.5157 13.1539 99.7521C9.72471 101.702 0.383207 100.861 0.358867 105.829C2.12554 110.063 3.24647 116.374 6.63088 119.434C8.66193 120.582 10.716 118.383 9.98076 116.379L9.97391 116.386ZM41.4222 66.8437C42.471 51.9491 56.6002 54.2581 58.5077 67.5552C58.4902 70.4964 54.6884 72.0211 52.5356 73.4508C46.9667 76.6651 41.2181 73.503 41.4222 66.8437Z" fill="#F8B21F"/>
</svg>
