<svg width="220" height="22" viewBox="0 0 220 22" fill="none" xmlns="http://www.w3.org/2000/svg">
<path d="M216.154 1.24562C213.324 3.15554 210.327 4.82451 207.518 6.76757C204.428 8.91306 201.162 10.8417 197.574 12.3458C190.717 15.2178 183.176 15.8417 175.795 12.4644C167.591 8.68749 161.02 3.09293 151.89 1.22893C143.743 -0.449687 135.418 0.320143 127.809 2.38831C120.369 4.40496 113.883 7.74369 107.088 10.902C99.6708 14.3658 91.7512 17.1068 82.8493 14.9168C73.9474 12.7269 66.1223 7.68602 57.7145 4.34956C50.6173 1.51757 43.1189 0.208776 35.6161 0.525069C27.7685 0.86301 20 2.85304 13.555 6.44496C7.71103 9.69826 0.741522 14.7201 0.435859 21.447C0.413281 21.7064 0.838837 22.0042 1.10372 21.85C6.88777 18.4973 10.8246 13.4531 16.9786 10.3802C23.097 7.32242 30.0179 5.48447 37.268 5.37962C45.509 5.2491 53.1585 7.51341 60.6752 11.0412C68.7521 14.8304 76.6579 19.3375 85.6232 20.6681C102.352 23.1533 114.786 11.6889 129.36 7.74351C136.934 5.69047 145.401 4.86012 153.428 7.19318C162.074 9.70014 168.632 16.0907 177.149 18.9023C184.859 21.453 192.803 20.533 199.767 17.8025C203.531 16.3283 207.002 14.333 210.274 12.1932C213.784 9.8903 216.384 7.26619 219.245 4.40651C221.06 2.59466 218.363 -0.171873 216.158 1.32702L216.154 1.24562Z" fill="#F8B21F"/>
</svg>
