<svg width="36" height="36" viewBox="0 0 36 36" fill="none" xmlns="http://www.w3.org/2000/svg">
<path d="M45 0H-9V36H45V0Z" fill="#006634"/>
<path d="M5.20365 9.42843C5.41965 9.26643 5.40165 9.71283 5.22165 10.2132C5.32965 10.035 5.54565 9.65883 5.52765 9.35643C5.47365 8.96403 5.23965 9.03423 5.05965 9.26643C4.91565 9.42843 5.02365 9.57063 5.20365 9.42843Z" fill="white"/>
<path d="M5.27573 12.6253C5.54573 12.1429 5.43773 11.7145 5.68973 10.9999C5.83373 10.5535 5.88773 10.8937 5.83373 11.1619C5.70773 11.8765 5.74373 13.0375 6.76973 13.0195C6.82373 13.6639 7.00373 14.8609 7.00373 15.2695C7.02173 15.6997 7.07573 15.5737 7.18373 15.3415C7.29173 15.1093 7.27373 14.8591 7.25573 14.5189C7.21973 14.1625 7.20173 13.5721 7.12973 12.7693C7.27373 12.6613 7.39973 12.4831 7.45373 12.3751C7.59773 12.1069 7.63373 12.1249 7.68773 12.3409C7.79573 12.7693 8.22773 13.0555 8.80373 12.6433C9.34373 12.2689 9.10973 11.4823 8.87573 10.6255C9.07373 10.6597 9.14573 10.4995 9.01973 10.2853C8.96573 10.1593 8.85773 10.0531 8.76773 9.94515C8.67773 9.83715 8.58773 9.74895 8.49773 9.85515C8.42573 9.96135 8.33573 10.0513 8.27993 10.1233C8.22593 10.1953 8.22593 10.2673 8.29973 10.4455C8.51573 10.9459 8.65973 11.4823 8.69573 11.7865C8.74973 12.0727 8.64173 12.1447 8.44373 12.1447C8.24573 12.1447 7.97573 12.0907 7.86773 11.6623C7.75973 11.2339 7.70573 11.0377 7.72373 10.7515C7.74173 10.4671 7.77773 10.2691 7.57973 9.98475C7.36373 9.69855 7.34573 9.75255 7.29173 9.89475C7.25573 10.0549 7.18373 10.2889 7.25573 10.5553C7.34573 10.9477 7.39973 11.2879 7.45373 11.5201C7.48973 11.6803 7.32773 12.0205 7.09373 12.1987C7.03973 11.6623 6.94973 10.9477 6.91373 10.3753C7.21973 10.2691 7.05773 9.85695 6.80573 9.41055C6.62573 9.07035 6.55373 9.21255 6.42773 9.42855C6.30173 9.64275 6.39173 9.73095 6.48173 9.91095C6.40973 10.0531 6.53573 10.2673 6.58973 10.6615C6.60773 10.9117 6.66173 11.6281 6.71573 12.2527C6.46373 12.2527 6.31973 12.0925 6.22973 11.8765C6.03173 11.4301 6.08573 11.0197 6.17573 10.7515C6.26573 10.4833 6.35573 10.0729 6.19373 9.96675C6.04973 9.86055 5.85173 9.98475 5.72573 10.1809C5.50973 10.5031 5.31173 10.9675 5.29373 11.4499C5.27573 11.6461 5.22173 12.0223 5.13173 12.1645C5.05973 12.3085 4.93373 12.3247 4.80773 12.1105C4.59173 11.7703 4.51973 10.9117 4.53773 10.4671C4.53773 10.2529 4.48373 10.2169 4.41173 10.4671C4.17773 11.3239 4.44773 12.2527 4.64573 12.6469C4.84373 13.0411 5.09573 12.9511 5.27573 12.6289V12.6253Z" fill="white"/>
<path d="M7.97568 9.73081C8.06568 9.62281 8.06568 9.60661 8.15568 9.74881C8.20968 9.85501 8.38968 9.82081 8.44368 9.71281C8.47968 9.62281 8.53368 9.53461 8.47968 9.41041C8.42568 9.28441 8.42568 9.32041 8.38968 9.46441C8.35368 9.69661 8.13768 9.64261 8.11968 9.35641C8.11968 9.08821 8.06568 9.23221 7.99368 9.41041C7.86768 9.67681 7.68768 9.62461 7.68768 9.39241C7.68768 9.19621 7.63368 9.03601 7.54368 9.26641C7.48968 9.41041 7.52568 9.58861 7.61568 9.69481C7.70568 9.82081 7.86768 9.82081 7.97568 9.73081Z" fill="white"/>
<path d="M6.28377 13.9123C6.46377 13.8583 6.48177 13.8403 6.46377 13.6441C6.46377 13.4299 6.35577 13.5199 6.13977 13.5901C5.79777 13.6963 5.13177 14.0185 4.60977 14.6431C4.39377 14.8933 4.57377 14.7673 4.71777 14.6611C5.00577 14.4469 5.86977 14.0185 6.28377 13.9123Z" fill="white"/>
<path d="M5.18387 17.4133C5.00387 17.6995 4.67987 17.3233 4.89587 16.5565C4.93187 16.3963 5.00567 16.2703 5.00567 16.1461C5.00567 16.0741 5.00567 15.9499 4.98767 15.7717C4.95167 15.6475 4.87967 15.8257 4.82567 16.0579C4.75367 16.3981 4.51967 16.5583 4.60967 17.5771C4.66367 18.2215 5.40167 18.1675 5.41967 17.3989C5.43767 17.1667 5.34767 17.1307 5.18567 17.4169L5.18387 17.4133Z" fill="white"/>
<path d="M10.1357 15.1274C10.1357 14.8592 10.1177 14.573 10.0997 14.2688C10.1357 14.2508 10.1537 14.2148 10.1717 14.1968C10.3337 14.7152 11.0897 14.5712 11.3237 14.2688C11.4497 14.1248 11.4497 14.1086 11.5577 14.2688C11.7197 14.501 12.2777 14.573 12.4217 14.2508C12.5477 13.9106 12.5297 13.5902 12.4937 13.34C12.4577 13.0898 12.4037 13.1078 12.2417 13.2338C12.0617 13.376 12.2057 13.394 12.2237 13.5722C12.2957 14.2526 11.7017 14.1986 11.6297 13.5002C11.5937 13.0718 11.5199 13.232 11.4659 13.43C11.2139 14.2688 10.4759 14.429 10.5479 13.466C10.5659 13.1798 10.3841 13.268 10.2959 13.376C10.2059 13.448 10.1339 13.5362 10.0439 13.5902C9.98988 12.8036 9.93588 11.9108 9.84588 10.838C10.0619 11.1062 10.2599 10.802 10.1159 10.4978C10.0079 10.2656 9.84588 9.74717 9.73788 9.46277C9.64788 9.17657 9.59388 9.26477 9.35988 9.49877C9.14388 9.74897 9.17988 9.80297 9.28788 10.0532C9.25188 10.3574 9.30588 10.6598 9.37788 11.2862C9.43188 11.7326 9.57588 12.6614 9.64788 13.8422C9.53988 13.8944 9.37788 14.0024 9.26988 14.0564C9.17988 13.8602 9.05388 13.7 8.85588 13.502C8.53188 13.1816 8.26188 13.1618 7.99188 13.556C7.73988 13.9304 7.75788 14.0204 7.77588 14.3606C7.79388 14.7008 7.72188 14.825 7.99188 14.9132C8.24388 15.0032 8.35368 14.9672 8.51388 14.9132C8.63988 14.8772 8.81988 14.8232 8.99988 14.753C9.03588 14.933 9.01788 15.1292 8.90988 15.2714C8.24388 16.058 7.21788 16.6304 6.76788 16.112C6.51588 15.8258 6.40788 15.3794 6.47988 14.843C6.55188 14.3966 6.40788 14.5928 6.35388 14.753C6.19188 15.2714 6.13788 16.022 6.35388 16.3964C6.65988 16.9148 7.14588 17.147 7.91988 16.8068C8.69388 16.4666 9.44988 15.86 9.41568 15.0212C9.41568 14.861 9.39768 14.717 9.39768 14.6108C9.46968 14.5748 9.59568 14.4848 9.68568 14.4488C9.70368 14.735 9.66768 15.0932 9.68568 15.3776C9.72168 16.2884 9.36168 16.5566 9.03768 16.8068C8.58768 17.1632 7.97568 17.3972 7.45368 17.4872C6.20988 17.6654 5.92188 16.8788 5.94168 15.8258C5.94168 15.6656 6.01368 15.5576 6.01368 15.3254C5.99568 14.8772 5.94168 14.9492 5.79768 15.3974C5.67168 15.8258 5.50968 16.8266 5.92368 17.6474C6.35568 18.47 7.81548 18.2378 8.94768 17.7014C10.0637 17.165 10.1897 16.148 10.1357 15.1292V15.1274ZM8.58768 14.3066C8.26368 14.3948 8.20968 14.2706 8.22768 14.0744C8.24568 13.8782 8.26368 13.8242 8.47968 13.9142C8.56968 13.9484 8.67768 14.0744 8.78568 14.2346C8.71368 14.2544 8.64168 14.2886 8.58768 14.3066Z" fill="white"/>
<path d="M11.4336 16.0561C11.5416 15.8419 11.6136 15.5917 11.5596 15.3415C11.5416 15.1615 11.5416 15.1093 11.3796 15.0373C11.1996 14.9653 11.1438 15.0733 11.0916 15.2155C11.0178 15.3955 11.1096 15.5917 11.3616 15.4855C11.3976 15.6097 11.3796 15.8959 11.3256 16.0201C11.2536 16.1803 11.3256 16.2523 11.4336 16.0561Z" fill="white"/>
<path d="M11.8475 11.5543C11.6315 11.8225 11.4695 12.2149 11.7755 12.4471C11.9375 12.5911 12.2795 12.4291 12.4055 12.1627C12.5315 11.8765 12.4775 11.8405 12.2615 12.0727C11.9537 12.4129 11.6495 12.1087 11.9735 11.6443C12.1895 11.3239 12.0635 11.2519 11.8475 11.5543Z" fill="white"/>
<path d="M10.9476 11.6082C11.7216 11.268 12.1716 10.8576 12.4056 10.4832C12.6216 10.5192 12.6774 10.3392 12.5676 10.197C12.6396 10.053 12.6936 9.91081 12.7116 9.80461C12.9096 9.09001 12.1896 9.01981 11.9736 9.57241C11.8836 9.82261 11.8836 10.1088 12.1176 10.305C11.8116 10.7334 11.3256 11.1456 10.8036 11.484C10.5336 11.6442 10.5876 11.7684 10.9476 11.6082ZM12.2796 9.67681C12.3516 9.51661 12.4416 9.62281 12.4056 9.73081C12.3876 9.80281 12.3516 9.89101 12.3156 9.96301C12.2076 9.89101 12.2256 9.80281 12.2796 9.67681Z" fill="white"/>
<path d="M14.2056 12.0547C14.3676 11.6605 14.4756 11.2681 14.5836 10.9999C14.6916 10.7317 14.7816 10.7857 14.7636 11.0359C14.7096 11.5345 14.6736 12.3409 15.1776 12.6433C15.6816 12.9475 16.4556 12.4291 16.7274 11.8927C17.5374 12.9637 18.2592 12.4651 18.3492 11.4265C18.3672 11.1061 18.2232 10.4095 18.1314 10.2115C18.0414 9.9973 18.0954 9.9973 18.2232 10.1053C18.3492 10.2295 18.5652 10.3015 18.4572 9.9451C18.3312 9.6049 18.1854 9.4087 17.9874 9.2467C17.8074 9.0865 17.7714 9.1765 17.6994 9.3007C17.6274 9.4267 17.6454 9.4627 17.5374 9.5509C17.4294 9.6571 17.4474 9.7111 17.5374 9.9073C17.8434 10.6921 18.1314 11.8369 17.6454 11.9431C17.1954 12.0313 16.9092 11.0683 16.8894 10.6381C16.8714 10.0657 16.7994 9.5851 16.6914 9.2809C16.5654 8.9767 16.5294 8.9245 16.4394 9.0847C16.3674 9.2089 16.3494 9.2989 16.2756 9.4249C16.2036 9.5491 16.2756 9.5851 16.3296 9.8353C16.5996 11.0863 16.5636 11.6587 15.9876 11.9791C15.4116 12.3193 15.1056 11.9989 15.1056 11.6047C15.0876 11.2123 15.0876 10.7299 15.1416 10.3717C15.1776 10.0153 15.2676 9.9613 15.1416 9.7813C15.0156 9.5851 14.9076 9.6571 14.7456 9.8893C14.3856 10.3897 14.0256 11.2285 13.8996 11.6227C13.7736 12.0331 13.5216 11.8909 13.3416 11.5507C13.1436 11.1403 13.1616 10.4077 13.2336 10.1215C13.3056 9.8353 13.2696 9.7111 13.1436 10.0333C12.8556 10.8361 12.8736 11.6047 13.4676 12.2653C13.8096 12.6397 14.0616 12.4615 14.2056 12.0511V12.0547Z" fill="white"/>
<path d="M15.7895 10.5716C15.7715 10.7498 15.8075 10.9298 15.8975 10.6076C15.9695 10.2872 15.9515 9.83901 15.8615 9.57261C15.7715 9.30441 15.6635 9.23241 15.5915 9.34041C15.4655 9.46641 15.4655 9.48441 15.5735 9.64461C15.6815 9.77061 15.8435 10.163 15.7895 10.5734V10.5716Z" fill="white"/>
<path d="M12.8375 16.0381C12.7475 16.1281 12.5675 16.2343 12.4415 16.3423C12.4235 16.1101 12.4595 15.7897 12.4595 15.6637C12.4595 15.5035 12.4055 15.4333 12.3155 15.6277C12.1535 15.9499 11.9915 16.3963 11.9195 16.7185C11.1815 17.2369 10.2815 17.7175 9.70367 18.0037C9.43367 18.1297 9.59567 18.2197 9.79367 18.1477C10.6577 17.8975 11.3255 17.6653 11.8997 17.3971C11.9357 17.8615 12.1355 18.2359 12.5477 18.3259C13.3757 18.5401 14.2577 17.8435 15.1595 16.5745C15.3935 17.1991 15.9155 18.0037 17.3735 18.2359C17.9675 18.3259 17.9675 18.2539 18.0395 17.9857C18.1295 17.6995 18.1835 17.6455 17.6975 17.5213C17.0675 17.2891 16.8515 16.8427 17.4635 16.5925C18.0755 16.3423 18.9233 16.0921 19.4975 15.9841C19.8593 15.9301 20.0033 15.9661 20.1293 15.6097C20.2553 15.2353 20.3273 15.1633 19.8935 15.1993C19.4615 15.2533 17.2997 15.2893 16.7777 15.2533C17.2097 15.0211 17.8235 14.7889 18.2915 14.6287C18.4535 14.7367 18.5255 14.7007 18.4715 14.5747C18.6695 14.5027 18.8315 14.4307 18.9593 14.3605C19.4813 14.0563 19.6973 13.4677 19.1573 13.0915C18.6173 12.7153 18.1493 12.5911 17.8595 13.0015C17.6255 13.3417 17.4275 13.6621 17.7335 14.1085C17.2475 14.2525 16.7795 14.4307 16.3115 14.6089C15.9695 14.7511 15.8255 14.8051 15.6995 15.2155C15.5735 15.6259 15.5195 15.6799 15.9875 15.6979C16.6175 15.7339 17.1755 15.6799 17.5355 16.0201C16.9415 16.2343 16.4915 16.6987 16.7075 17.3053C16.4195 17.2333 16.1495 17.1091 15.9335 16.9129C15.4655 16.4845 15.5015 15.6979 15.3035 14.7871C15.1235 13.8763 14.7275 13.1077 14.6015 12.8035C14.4755 12.4831 14.4215 12.6253 14.3135 12.8575C14.2235 13.0897 14.1155 13.2139 14.2235 13.5019C14.4395 14.0743 14.7995 15.1993 14.9615 15.8239C14.6015 16.5745 13.7555 17.5573 12.9995 17.6635C12.4235 17.7535 12.2975 17.4493 12.3335 17.1451C12.7295 16.9309 13.0715 16.6645 13.3955 16.3243C14.0975 15.6457 14.2055 15.0553 13.7555 13.9123C14.0435 13.9465 13.9895 13.7341 13.5755 13.2517C13.2875 12.9115 13.2335 12.9835 13.0895 13.2877C12.9455 13.5919 12.8555 13.7701 13.1795 13.8943C13.2335 14.0383 13.3595 14.2705 13.5215 14.5927C13.8995 15.3073 13.3415 15.5935 12.8375 16.0381ZM18.5093 13.5901C18.7613 13.7503 18.9773 13.7863 18.5993 13.8745C18.4553 13.9105 18.3293 13.9285 18.2033 13.9645C18.1673 13.8205 18.1673 13.7143 18.1493 13.6063C18.1313 13.4281 18.2393 13.4281 18.5093 13.5883V13.5901Z" fill="white"/>
<path d="M16.9613 13.1618C16.9613 13.6082 16.8173 13.6082 16.6553 13.1816C16.6013 13.0196 16.5293 13.0196 16.5095 13.2356C16.5095 13.646 16.3295 13.7 16.2233 13.2896C16.1873 13.1096 16.1513 12.9674 16.1153 13.2356C16.0793 13.4858 16.1333 13.646 16.2233 13.7702C16.3133 13.8944 16.4933 13.8764 16.5473 13.7342C16.6013 13.574 16.6391 13.556 16.7453 13.6802C16.8713 13.8044 17.2853 13.6982 17.0873 13.0736C16.9973 12.8216 16.9613 12.8756 16.9613 13.1618Z" fill="white"/>
<path d="M21.4631 9.69481C21.6071 9.80281 21.8231 10.089 21.7331 10.4094C21.6791 10.6596 21.7331 10.8558 21.8951 10.4994C22.0571 10.1232 21.9311 9.67681 21.7691 9.39241C21.6251 9.14221 21.5351 9.19621 21.4451 9.33841C21.3731 9.48241 21.3191 9.58861 21.4631 9.69661V9.69481Z" fill="white"/>
<path d="M18.6534 9.83901C18.6354 10.001 18.6894 10.1072 18.9234 10.1972C19.3914 10.8038 19.8594 11.4284 20.2914 12.0728C20.3454 12.6092 20.4534 13.1978 20.5074 13.6802C20.6514 14.8232 20.8674 16.3064 20.6874 16.949C20.5434 17.4314 20.6874 17.6456 20.9214 16.913C21.1374 16.1804 21.1194 15.4838 20.9754 14.393C20.9214 13.9646 20.9034 13.4282 20.8494 12.9278C21.6054 14.0888 22.2894 15.1958 22.5954 15.9644C22.7574 16.3748 22.9014 16.4648 22.7934 15.8564C22.6314 15.0518 21.8934 13.7666 20.7954 12.0872C20.7594 11.6408 20.7414 11.2304 20.7414 10.8542C20.9034 11.0342 21.0114 10.9262 20.9574 10.694C20.8494 10.2836 20.6874 9.94521 20.4894 9.47901C20.4174 9.28281 20.2194 9.22881 20.1294 9.51501C20.0034 9.85521 19.9854 9.92541 20.1474 10.1576C20.1294 10.4078 20.2194 10.8362 20.2554 11.2286C20.0574 10.9424 19.8054 10.586 19.6074 10.2818C19.9134 10.406 20.0934 10.3178 19.8234 10.0316C19.5534 9.72741 19.1754 9.42501 18.9414 9.20901C18.7074 8.99481 18.5994 9.13881 18.6354 9.33321C18.6534 9.53121 18.6714 9.67341 18.6534 9.83361V9.83901Z" fill="white"/>
<path d="M21.8052 11.4104C21.7512 11.6786 21.6612 11.5706 21.5892 11.3564C21.5532 11.2142 21.4812 11.3024 21.4992 11.5166C21.5352 11.7668 21.6072 11.8928 21.8052 11.7128C21.8952 11.6246 21.9312 11.6246 22.0572 11.7308C22.1652 11.837 22.3092 11.7488 22.3272 11.6768C22.3632 11.5868 22.3812 11.4986 22.3452 11.2304C22.3092 10.9802 22.2372 11.1062 22.1832 11.3384C22.1472 11.5706 22.0032 11.6066 21.9492 11.3564C21.9132 11.1062 21.8412 11.1782 21.8052 11.4104Z" fill="white"/>
<path d="M19.3914 18.1099C19.5534 18.0739 19.8414 17.8597 20.0394 17.6995C20.2914 17.5033 20.1114 17.5033 19.9494 17.5753C19.7694 17.6473 19.6434 17.7355 19.4274 17.8075C19.1934 17.8975 19.1394 17.7895 19.2474 17.4331C19.3554 17.1289 19.2474 17.1109 19.1034 17.1829C18.9594 17.2369 18.8694 17.3251 18.6894 17.4331C18.5994 17.4871 18.5814 17.5933 18.8334 17.4871C19.0494 17.3971 18.9954 17.5051 18.9234 17.7733C18.8514 18.0577 19.0314 18.2017 19.3914 18.1117V18.1099Z" fill="white"/>
<path d="M23.0832 15.0192C23.1372 16.02 23.2812 16.4844 22.6512 17.163C21.9672 17.8956 21.5532 18.0738 21.2472 18.1458C20.8674 18.252 20.7252 18.414 21.3012 18.378C22.1472 18.3258 22.2732 18.3078 22.959 17.5032C23.355 17.0748 23.553 16.5024 23.517 15.1812C23.481 12.8574 23.157 11.8584 23.211 10.6074C23.355 10.7334 23.517 10.7334 23.427 10.4652C23.337 10.197 23.265 9.87481 23.175 9.57241C23.085 9.26821 23.031 9.19621 22.923 9.34021C22.797 9.50041 22.707 9.55441 22.617 9.66241C22.527 9.75241 22.509 9.94861 22.617 10.1268C23.013 12.825 23.031 14.022 23.085 15.0228L23.0832 15.0192Z" fill="white"/>
<path d="M24.559 15.2516C24.631 15.824 24.721 16.1984 24.577 16.8248C24.523 17.021 24.595 17.075 24.721 16.8428C25.225 15.896 24.883 15.0734 24.829 14.5388C24.739 13.7162 24.451 11.5364 24.397 10.6616L24.451 10.6976C24.703 10.8236 24.973 10.8938 24.775 10.5914C24.577 10.3052 24.415 9.8228 24.307 9.4664C24.181 9.1082 24.145 9.1262 23.947 9.4304C23.641 9.8948 23.911 10.3412 23.983 10.8776C24.2368 12.7892 24.487 14.7368 24.559 15.2534V15.2516Z" fill="white"/>
<path d="M25.693 12.1429C25.873 12.3211 25.999 12.6253 26.089 12.8035C26.215 13.0735 26.287 12.8395 26.287 12.6793C26.305 12.5011 26.251 12.0007 26.305 11.8207C26.413 11.5705 26.575 11.9269 26.647 11.7487C26.701 11.6245 26.593 11.6065 26.557 11.4643C26.503 11.3023 26.431 11.3203 26.305 11.4103C26.197 11.5003 26.143 11.6065 26.125 11.6947C26.107 11.8567 26.143 12.0709 26.161 12.3031C26.161 12.4993 26.125 12.5353 26.053 12.3913C25.999 12.2491 25.819 11.8567 25.711 11.7307C25.621 11.6065 25.441 11.6947 25.459 11.8369C25.459 11.9791 25.477 11.9449 25.459 12.1231C25.441 12.3031 25.657 12.3031 25.693 12.1411V12.1429Z" fill="white"/>
<path d="M26.7569 13.3398C26.5949 13.5 26.0909 13.8582 25.9109 14.0004C25.6931 14.1786 25.6409 14.2146 25.6409 14.3406C25.6409 14.4666 25.8749 14.2866 26.0549 14.1444C26.2169 14.0202 26.7389 13.698 26.9369 13.608C27.1349 13.5018 27.0989 13.4298 27.0809 13.2336C27.0449 13.0374 26.9189 13.1796 26.7569 13.3398Z" fill="white"/>
<path d="M28.0169 12.6794C28.3769 13.1798 28.7009 13.6262 28.9529 13.9826C29.0789 14.699 29.1509 15.3416 29.1149 15.8582C29.0789 16.4486 29.2049 16.4486 29.3309 15.8402C29.3669 15.59 29.3669 15.0716 29.3129 14.447C29.8007 15.0914 30.0869 15.5198 30.2849 15.8222C30.5009 16.1966 30.6269 16.5188 30.5729 15.7502C30.5369 15.5 30.4649 15.2498 30.1409 14.7674C29.8169 14.303 29.5289 13.8746 29.2409 13.4642C29.1509 12.3914 29.0249 11.2484 29.0249 10.64C29.1689 10.784 29.2769 10.64 29.2049 10.4078C29.1329 10.1756 28.9889 9.55099 28.8809 9.28279C28.7891 9.03259 28.6811 9.08659 28.5371 9.31699C28.4111 9.54919 28.3211 9.65719 28.4111 9.83539C28.4471 10.8722 28.5911 11.8712 28.7531 12.7838C28.4651 12.3896 28.1951 12.0152 27.9431 11.6768C27.9251 11.2826 27.8891 10.8902 27.8711 10.4978C28.0331 10.6238 28.1051 10.5878 28.0151 10.3556C27.9431 10.1054 27.7451 9.58699 27.6551 9.35479C27.5651 9.12259 27.5111 9.12259 27.3851 9.30079C27.1853 9.60499 27.1331 9.81919 27.2951 10.1054C27.3131 10.3556 27.3491 10.6238 27.3671 10.8542C27.2051 10.64 27.0611 10.4258 26.9351 10.2296C27.0971 10.3196 27.2231 10.1756 27.0431 10.0154C26.8811 9.85519 26.5391 9.58699 26.3951 9.39079C26.2313 9.19459 26.0891 9.19459 26.0891 9.37279C26.0891 9.55099 26.1071 9.71299 26.0891 9.87319C26.0531 10.0154 26.0531 10.1594 26.2691 10.4096C26.6849 10.9082 27.0791 11.4266 27.4571 11.9108C27.6011 13.6964 27.6911 14.8412 27.6551 15.5558C27.6371 15.9842 27.4931 16.2344 27.2591 16.3064C27.0251 16.3964 26.7911 16.2344 26.5751 15.914C26.1773 15.3416 26.0351 15.4496 25.7291 15.9482C25.4411 16.4126 25.2431 16.805 25.0811 17.1452C24.9371 17.4674 24.6833 17.7536 24.4511 17.3234C24.2351 16.895 24.1991 16.4126 24.2171 16.0724C24.2171 15.7322 24.1631 15.464 24.0389 16.0004C23.7131 17.3234 23.9129 17.6078 24.2729 17.894C24.7229 18.2864 24.8669 18.3224 25.1009 17.984C25.5689 17.3414 25.6949 16.769 25.9649 16.4486C26.1809 16.1984 26.1809 16.3946 26.2889 16.5206C26.5589 16.8608 26.7947 16.9868 27.1709 17.039C27.5489 17.1092 28.2329 16.7888 28.1789 15.5378C28.1429 14.7872 28.0889 13.7684 28.0169 12.6794Z" fill="white"/>
<path d="M29.7989 11.1618C29.7989 11.466 29.9069 11.4282 29.9609 11.1438C30.0149 10.8756 29.9969 10.3392 29.8349 9.96478C29.6729 9.57238 29.6189 9.71458 29.5289 9.83878C29.4209 10.017 29.4389 10.053 29.5649 10.2492C29.6909 10.4634 29.7989 10.8558 29.7989 11.16V11.1618Z" fill="white"/>
<path d="M31.3127 14.6268C31.2209 12.3048 30.9167 11.286 30.9869 10.4112C31.1849 10.5894 31.2947 10.5354 31.1669 10.233C31.0229 9.92881 30.8789 9.60841 30.7529 9.32221C30.6089 9.01981 30.5729 9.09181 30.4109 9.30421C30.2309 9.52021 30.2129 9.67861 30.2849 9.80461C30.6269 12.645 30.7889 14.1282 30.8249 14.985C30.8969 16.2342 30.5909 16.9308 29.3651 17.7354C28.9691 18.0036 28.5191 18.3078 29.4731 18.0756C30.4109 17.8434 31.4189 17.217 31.3109 14.6268H31.3127Z" fill="white"/>
<path d="M27.0504 15.0626C27.2124 14.7836 27.0864 14.4524 26.9244 14.24C26.7804 14.0546 26.6904 14.0942 26.6004 14.2004C26.5284 14.3066 26.4744 14.3858 26.6184 14.4668C26.7624 14.546 26.9784 14.7584 26.8884 14.9978C26.8344 15.1832 26.8884 15.329 27.0504 15.0644V15.0626Z" fill="white"/>
<path d="M27.88 17.7518C27.844 17.7518 27.8224 17.678 27.88 17.5772C27.9268 17.5124 27.943 17.4728 27.9754 17.3954C28.0096 17.318 27.9808 17.2676 27.853 17.2244C27.7234 17.201 27.673 17.2136 27.529 17.2244C27.4516 17.2406 27.4246 17.2748 27.412 17.3684C27.4174 17.5106 27.5038 17.5016 27.592 17.5574C27.6442 17.6222 27.6784 17.6834 27.5884 17.7896C27.5038 17.867 27.4444 17.9084 27.358 17.9858C27.3184 18.0542 27.2932 18.155 27.4156 18.1892C27.6406 18.2522 28.0672 17.9732 28.0672 17.966C28.1518 17.903 28.123 17.7842 28.1176 17.7842C28.0672 17.7284 27.9556 17.7626 27.8818 17.7536L27.88 17.7518Z" fill="white"/>
<path d="M26.9388 25.3585C26.2386 25.3711 25.5258 25.3819 24.8004 25.3891L24.7968 25.1569C24.9912 24.9391 24.9966 24.8527 24.8346 24.6205C24.7554 24.5179 24.7284 24.4927 24.687 24.4927C24.6438 24.4927 24.588 24.5359 24.5214 24.6295C24.3846 24.8221 24.3504 24.8995 24.5844 25.1677L24.588 25.3873C19.08 25.4359 12.9672 25.3549 7.74536 25.2757C8.31776 26.2243 10.2798 26.2333 14.301 26.2477C15.9444 26.2531 19.3086 26.1919 24.606 26.0803L24.6114 26.3341C24.3774 26.6005 24.435 26.6851 24.5394 26.8327C24.6096 26.9335 24.6672 26.9983 24.7356 26.9983C24.804 26.9983 24.849 26.9191 24.885 26.8705C24.921 26.8219 24.939 26.7823 24.9534 26.7445L25.7994 26.7283C25.803 26.8147 25.9362 26.8903 26.0082 26.8903C26.0802 26.8903 26.1972 26.8183 26.1972 26.7121L27.1242 26.7013C27.216 26.8453 27.36 26.9209 27.4914 26.9119C27.8334 26.8957 27.9792 26.5033 27.945 26.0209C27.8928 25.4485 27.6066 25.3405 26.9406 25.3549L26.9388 25.3585ZM27.0432 26.4907L26.1972 26.4997C26.181 26.4061 26.0748 26.3395 25.9992 26.3395C25.9146 26.3395 25.8012 26.4223 25.7994 26.5159L24.9606 26.5303C24.93 26.4475 24.894 26.3917 24.8094 26.3179L24.8058 26.0785C25.542 26.0605 26.2998 26.0425 27.0792 26.0209C27.0216 26.2027 27.0162 26.3593 27.0414 26.4907H27.0432Z" fill="white"/>
</svg>
