<svg width="68" height="83" viewBox="0 0 68 83" fill="none" xmlns="http://www.w3.org/2000/svg">
<g clip-path="url(#clip0_698_4560)">
<path fill-rule="evenodd" clip-rule="evenodd" d="M15.73 16.4666C14.1072 21.5953 11.921 27.8055 10.9518 30.2329C9.04969 35.3317 9.62683 37.7269 12.8164 37.509C14.5335 37.4624 15.3088 36.7951 17.3065 34.1606C19.7959 30.6613 26.6607 10.9928 26.1808 8.46091C25.7361 5.99528 23.2383 4.89359 20.9333 6.11955C19.2377 7.02141 18.2875 9.0053 15.7265 16.46L15.73 16.4666Z" fill="#F8B21F"/>
<path fill-rule="evenodd" clip-rule="evenodd" d="M25.1452 46.1025C23.9665 48.4714 24.8373 50.2685 27.3644 50.9298C29.0594 51.3369 30.6201 50.6767 40.1482 45.3456C49.9478 39.87 51.0299 39.1246 51.2978 37.5036C51.5837 35.2612 51.4393 34.9896 49.4589 34.0461C48.0312 33.3269 46.6304 33.8085 36.9568 38.6902C27.6872 43.357 25.9331 44.4684 25.1452 46.1025Z" fill="#F8B21F"/>
<path fill-rule="evenodd" clip-rule="evenodd" d="M32.4143 70.0903C32.2263 70.887 32.6406 72.1452 33.4547 73.0208C34.5147 74.199 36.6203 74.3876 43.8965 73.993C54.028 73.5668 56.6165 72.5384 55.4395 69.5106C53.3828 64.3336 33.5263 64.7999 32.421 70.0867L32.4143 70.0903Z" fill="#F8B21F"/>
</g>
<defs>
<clipPath id="clip0_698_4560">
<rect width="36.7605" height="74.3237" fill="white" transform="translate(0 17.2621) rotate(-28.0072)"/>
</clipPath>
</defs>
</svg>
