<svg width="61" height="61" viewBox="0 0 61 61" fill="none" xmlns="http://www.w3.org/2000/svg">
<g clip-path="url(#clip0_4198_963)">
<path d="M30.5 34.3125C33.8932 34.3125 37.2102 33.3063 40.0315 31.4212C42.8528 29.536 45.0518 26.8566 46.3503 23.7217C47.6488 20.5868 47.9886 17.1372 47.3266 13.8092C46.6646 10.4813 45.0306 7.4243 42.6313 5.02496C40.232 2.62561 37.175 0.991638 33.847 0.32966C30.519 -0.332317 27.0695 0.00743356 23.9346 1.30595C20.7997 2.60447 18.1203 4.80343 16.2351 7.62476C14.3499 10.4461 13.3438 13.7631 13.3438 17.1563C13.349 21.7048 15.1583 26.0654 18.3746 29.2817C21.5908 32.498 25.9515 34.3072 30.5 34.3125ZM43.4234 9.09949C45.1372 11.8234 45.9394 15.0222 45.7137 18.2325C45.488 21.4428 44.2462 24.498 42.1682 26.9553L38.3032 21.7036L38.9704 19.5696L41.663 16.877C41.84 16.6975 41.9387 16.4552 41.9375 16.2031V13.3438C41.9372 13.1555 41.8815 12.9716 41.7774 12.8148L40.4382 10.8056L43.4234 9.09949ZM30.5 1.90626C32.7646 1.90658 35.0007 2.41205 37.0452 3.38585C39.0898 4.35966 40.8914 5.77727 42.3188 7.53541L38.6016 9.65707C38.4881 9.7219 38.3891 9.80938 38.3109 9.91408C38.2327 10.0188 38.1768 10.1384 38.1467 10.2656C38.1167 10.3928 38.1132 10.5249 38.1363 10.6535C38.1595 10.7821 38.2088 10.9046 38.2813 11.0134L40.0312 13.6297V15.8057L37.4511 18.3858C37.3417 18.4952 37.2606 18.6297 37.2148 18.7775L36.3407 21.5969C36.2964 21.7394 36.2862 21.8903 36.3109 22.0374C36.3355 22.1846 36.3944 22.3239 36.4828 22.4442L40.8243 28.344C39.4845 29.5862 37.9326 30.5779 36.2426 31.272L35.2656 29.3219V25.7344C35.2672 25.5869 35.2346 25.4411 35.1703 25.3083L33.2641 21.4958C33.171 21.3064 33.0172 21.1534 32.8273 21.0614C32.6373 20.9693 32.422 20.9434 32.2156 20.9878L27.9504 21.8399L26.9572 20.8477L28.4298 18.6384C28.5398 18.4747 28.5963 18.2809 28.5915 18.0837C28.5868 17.8865 28.5209 17.6957 28.4031 17.5375L26.027 14.3693L29.1656 11.061C29.3334 10.8839 29.4269 10.6492 29.4268 10.4053V7.70412C29.4264 7.51122 29.3679 7.32291 29.259 7.16369L26.0927 2.56105C27.5217 2.12748 29.0067 1.90684 30.5 1.90626ZM15.25 17.1563C15.2543 14.2185 16.1065 11.3443 17.7042 8.87896C19.3019 6.41359 21.5773 4.46175 24.257 3.25779L27.5215 8.00054V10.025L24.0902 13.6411C23.9353 13.8044 23.8431 14.0172 23.83 14.2419C23.817 14.4666 23.8838 14.6886 24.0188 14.8688L26.473 18.1418L24.9414 20.4398C24.8191 20.6231 24.7642 20.8432 24.7859 21.0625C24.8076 21.2818 24.9047 21.4868 25.0605 21.6426L26.9668 23.5489C27.0774 23.6593 27.2136 23.7407 27.3632 23.7861C27.5128 23.8315 27.6712 23.8394 27.8246 23.8091L31.8763 22.9989L33.3594 25.9593V29.5469C33.3578 29.6944 33.3904 29.8402 33.4547 29.9729L34.4078 31.8792C32.0428 32.5215 29.5569 32.5777 27.1654 32.0427C24.7738 31.5078 22.5487 30.3979 20.6828 28.8092L22.4938 27.45C22.6887 27.3038 22.8203 27.0885 22.8614 26.8483C22.9026 26.6081 22.8501 26.3613 22.7149 26.1585L21.1155 23.7595L22.7797 20.4417C22.8789 20.2415 22.9046 20.0128 22.8524 19.7955C22.8001 19.5783 22.6732 19.3863 22.4938 19.2531L18.6813 16.3938C18.5505 16.2956 18.3967 16.2327 18.2346 16.2112C18.0725 16.1897 17.9076 16.2102 17.7558 16.2708L15.2557 17.2706C15.2557 17.2325 15.25 17.1953 15.25 17.1563ZM17.9664 18.24L20.7133 20.3016L19.1626 23.403C19.0879 23.5532 19.0541 23.7203 19.0646 23.8877C19.0752 24.055 19.1297 24.2166 19.2226 24.3562L20.6294 26.4654L19.2951 27.4653C17.1942 25.1905 15.8393 22.3276 15.412 19.2608L17.9664 18.24Z" fill="#0056B1"/>
<path d="M59.435 55.6883C59.3046 54.7771 58.9132 53.9232 58.308 53.2298C57.7028 52.5363 56.9098 52.0329 56.0247 51.7804L52.4219 50.7492V49.5377C53.0117 49.0975 53.4909 48.5261 53.8218 47.8687C54.1526 47.2113 54.326 46.486 54.3281 45.75V42.2825L56.1638 40.0789C56.4509 39.7352 56.6338 39.3168 56.6912 38.8727C56.7487 38.4286 56.6781 37.9774 56.488 37.572C56.2978 37.1666 55.9959 36.8239 55.6176 36.5842C55.2394 36.3445 54.8007 36.2177 54.3529 36.2188H47.6562C46.14 36.2203 44.6863 36.8233 43.6141 37.8954C42.542 38.9676 41.939 40.4213 41.9375 41.9375V42.8906C41.9358 43.8705 42.2388 44.8266 42.8046 45.6267C43.3703 46.4267 44.1708 47.0311 45.0952 47.356C45.4105 48.2228 45.9687 48.9806 46.7031 49.5387V50.7492L43.0984 51.7795C42.4138 51.9763 41.7822 52.3242 41.25 52.7977C40.7179 53.2711 40.2988 53.858 40.0236 54.515C39.7018 53.7496 39.1869 53.081 38.5291 52.5744C38.9943 52.2217 39.3719 51.7665 39.6324 51.2441C39.8929 50.7217 40.0294 50.1463 40.0312 49.5625C40.0322 49.3846 39.9834 49.2099 39.8902 49.0583C39.7971 48.9067 39.6633 48.7842 39.5042 48.7047C39.0893 48.4994 38.7402 48.1821 38.4964 47.7885C38.2527 47.395 38.124 46.9411 38.125 46.4782V43.8438C38.125 41.8215 37.3216 39.882 35.8917 38.4521C34.4617 37.0221 32.5223 36.2188 30.5 36.2188C28.4777 36.2188 26.5383 37.0221 25.1083 38.4521C23.6783 39.882 22.875 41.8215 22.875 43.8438V46.4782C22.8769 46.9419 22.7486 47.3968 22.5048 47.7913C22.261 48.1857 21.9114 48.5038 21.4958 48.7095C21.3374 48.7886 21.2041 48.9104 21.111 49.0611C21.0179 49.2118 20.9687 49.3854 20.9687 49.5625C20.9706 50.1465 21.1072 50.7222 21.3679 51.2447C21.6286 51.7673 22.0064 52.2226 22.4718 52.5753C21.8131 53.0818 21.2974 53.7509 20.9754 54.5169C20.7007 53.8591 20.2817 53.2715 19.7493 52.7975C19.2169 52.3236 18.5848 51.9753 17.8997 51.7785L14.2969 50.7492V49.5377C14.8867 49.0975 15.3659 48.5261 15.6968 47.8687C16.0276 47.2113 16.201 46.486 16.2031 45.75V42.7353C16.971 42.5085 17.6312 42.0123 18.0627 41.3379C18.4942 40.6634 18.668 39.856 18.5521 39.0637C18.4363 38.2715 18.0385 37.5477 17.4319 37.0251C16.8254 36.5025 16.0506 36.2162 15.25 36.2188H9.53124C8.015 36.2203 6.56129 36.8233 5.48915 37.8954C4.417 38.9676 3.814 40.4213 3.81249 41.9375V42.8906C3.81086 43.8704 4.1139 44.8264 4.67965 45.6262C5.2454 46.4261 6.04587 47.0303 6.97019 47.3551C7.28548 48.2222 7.84367 48.9802 8.57812 49.5387V50.7492L4.9753 51.7785C4.09056 52.0313 3.29792 52.5349 2.6931 53.2283C2.08828 53.9217 1.69715 54.7755 1.56693 55.6863L0.962647 59.9125C0.943398 60.0477 0.953408 60.1854 0.992001 60.3163C1.03059 60.4473 1.09687 60.5684 1.18634 60.6715C1.27581 60.7746 1.38639 60.8573 1.51059 60.914C1.63479 60.9707 1.76972 61 1.90624 61H59.0937C59.2309 61.0005 59.3665 60.9714 59.4914 60.9147C59.6162 60.858 59.7274 60.775 59.8172 60.6714C59.9071 60.5678 59.9735 60.446 60.012 60.3144C60.0505 60.1828 60.0601 60.0444 60.0402 59.9087L59.435 55.6883ZM14.2969 45.75C14.2969 46.5084 13.9956 47.2357 13.4594 47.7719C12.9231 48.3081 12.1958 48.6094 11.4375 48.6094C10.6791 48.6094 9.95184 48.3081 9.41561 47.7719C8.87937 47.2357 8.57812 46.5084 8.57812 45.75V43.8438C8.57812 43.591 8.67853 43.3486 8.85728 43.1698C9.03603 42.9911 9.27846 42.8906 9.53124 42.8906H14.2969V45.75ZM12.3906 50.4203V51.4688C12.3906 51.7216 12.2902 51.964 12.1115 52.1427C11.9327 52.3215 11.6903 52.4219 11.4375 52.4219C11.1847 52.4219 10.9423 52.3215 10.7635 52.1427C10.5848 51.964 10.4844 51.7216 10.4844 51.4688V50.407C10.7975 50.4757 11.1169 50.5121 11.4375 50.5156C11.7576 50.516 12.0769 50.484 12.3906 50.4203ZM6.67187 43.8438V45.0199C6.37126 44.7528 6.13084 44.4248 5.96652 44.0577C5.80221 43.6906 5.71775 43.2928 5.71874 42.8906V41.9375C5.71874 40.9264 6.12041 39.9567 6.8354 39.2417C7.55038 38.5267 8.5201 38.125 9.53124 38.125H15.25C15.6292 38.125 15.9928 38.2756 16.2609 38.5438C16.529 38.8119 16.6797 39.1755 16.6797 39.5547C16.6797 39.9339 16.529 40.2975 16.2609 40.5656C15.9928 40.8338 15.6292 40.9844 15.25 40.9844H9.53124C8.77289 40.9844 8.04559 41.2856 7.50936 41.8219C6.97312 42.3581 6.67187 43.0854 6.67187 43.8438ZM3.00519 59.0938L3.45316 55.957C3.53125 55.4106 3.76585 54.8984 4.12863 54.4823C4.49142 54.0663 4.96688 53.7641 5.49762 53.6123L8.84404 52.6592C9.07012 53.1575 9.43493 53.5801 9.89486 53.8764C10.3548 54.1728 10.8903 54.3304 11.4375 54.3304C11.9846 54.3304 12.5202 54.1728 12.9801 53.8764C13.44 53.5801 13.8049 53.1575 14.0309 52.6592L17.3774 53.6123C17.9081 53.7641 18.3836 54.0663 18.7464 54.4823C19.1091 54.8984 19.3437 55.4106 19.4218 55.957L19.8698 59.0938H3.00519ZM24.7812 46.4782V43.8438C24.7812 42.3271 25.3837 40.8725 26.4562 39.8C27.5287 38.7275 28.9833 38.125 30.5 38.125C32.0167 38.125 33.4713 38.7275 34.5438 39.8C35.6162 40.8725 36.2187 42.3271 36.2187 43.8438V46.4782C36.2161 47.179 36.382 47.8702 36.7025 48.4934C37.0229 49.1166 37.4886 49.6536 38.0602 50.0591C37.9502 50.4635 37.7105 50.8205 37.3777 51.0752C37.045 51.3299 36.6378 51.4682 36.2187 51.4688H35.8775L33.3594 50.7492V49.5377C33.9492 49.0975 34.4284 48.5261 34.7593 47.8687C35.0901 47.2113 35.2635 46.486 35.2656 45.75V45.0218C35.2673 44.4905 35.1201 43.9694 34.8408 43.5175C34.5615 43.0655 34.1612 42.7008 33.6853 42.4646L30.926 41.0845C30.7937 41.0184 30.6479 40.9839 30.5 40.9839C30.3521 40.9839 30.2062 41.0184 30.0739 41.0845L27.3146 42.4646C26.8387 42.7008 26.4385 43.0655 26.1592 43.5175C25.8799 43.9694 25.7327 44.4905 25.7344 45.0218V45.75C25.7365 46.486 25.9099 47.2113 26.2407 47.8687C26.5716 48.5261 27.0508 49.0975 27.6406 49.5377V50.7492L25.1225 51.4688H24.7812C24.3622 51.4682 23.955 51.3299 23.6223 51.0752C23.2895 50.8205 23.0497 50.4635 22.9398 50.0591C23.5112 49.6534 23.9767 49.1164 24.2972 48.4932C24.6177 47.87 24.7837 47.179 24.7812 46.4782ZM30.5 48.6094C29.7416 48.6094 29.0143 48.3081 28.4781 47.7719C27.9419 47.2357 27.6406 46.5084 27.6406 45.75V45.0218C27.6399 44.8447 27.689 44.671 27.7822 44.5203C27.8753 44.3697 28.0089 44.2482 28.1677 44.1697L30.5 43.0031L32.8323 44.1697C32.9911 44.2482 33.1247 44.3697 33.2178 44.5203C33.311 44.671 33.36 44.8447 33.3594 45.0218V45.75C33.3594 46.5084 33.0581 47.2357 32.5219 47.7719C31.9856 48.3081 31.2583 48.6094 30.5 48.6094ZM31.4531 50.4203V51.4688C31.4531 51.7216 31.3527 51.964 31.174 52.1427C30.9952 52.3215 30.7528 52.4219 30.5 52.4219C30.2472 52.4219 30.0048 52.3215 29.826 52.1427C29.6473 51.964 29.5469 51.7216 29.5469 51.4688V50.4203C30.1758 50.5487 30.8242 50.5487 31.4531 50.4203ZM22.0677 59.0938L22.5157 55.957C22.5938 55.4106 22.8283 54.8984 23.1911 54.4823C23.5539 54.0663 24.0294 53.7641 24.5601 53.6123L27.9065 52.6592C28.1326 53.1575 28.4974 53.5801 28.9574 53.8764C29.4173 54.1728 29.9528 54.3304 30.5 54.3304C31.0471 54.3304 31.5827 54.1728 32.0426 53.8764C32.5026 53.5801 32.8674 53.1575 33.0934 52.6592L36.4399 53.6123C36.9706 53.7641 37.4461 54.0663 37.8089 54.4823C38.1716 54.8984 38.4062 55.4106 38.4843 55.957L38.9323 59.0938H22.0677ZM52.4219 45.75C52.4219 46.5084 52.1206 47.2357 51.5844 47.7719C51.0481 48.3081 50.3208 48.6094 49.5625 48.6094C48.8041 48.6094 48.0768 48.3081 47.5406 47.7719C47.0044 47.2357 46.7031 46.5084 46.7031 45.75V43.8438C46.7031 43.591 46.8035 43.3486 46.9823 43.1698C47.161 42.9911 47.4035 42.8906 47.6562 42.8906H52.4219V45.75ZM50.5156 50.4203V51.4688C50.5156 51.7216 50.4152 51.964 50.2365 52.1427C50.0577 52.3215 49.8153 52.4219 49.5625 52.4219C49.3097 52.4219 49.0673 52.3215 48.8885 52.1427C48.7098 51.964 48.6094 51.7216 48.6094 51.4688V50.407C48.9225 50.4757 49.2419 50.5121 49.5625 50.5156C49.8826 50.516 50.2019 50.484 50.5156 50.4203ZM44.7969 43.8438V45.0199C44.4963 44.7528 44.2558 44.4248 44.0915 44.0577C43.9272 43.6906 43.8428 43.2928 43.8437 42.8906V41.9375C43.8437 40.9264 44.2454 39.9567 44.9604 39.2417C45.6754 38.5267 46.6451 38.125 47.6562 38.125H54.3577C54.4426 38.1251 54.5257 38.1494 54.5973 38.195C54.6689 38.2406 54.726 38.3056 54.762 38.3825C54.798 38.4594 54.8114 38.5449 54.8005 38.6291C54.7897 38.7133 54.7551 38.7927 54.7008 38.858L52.928 40.9844H47.6562C46.8979 40.9844 46.1706 41.2856 45.6344 41.8219C45.0981 42.3581 44.7969 43.0854 44.7969 43.8438ZM41.1302 59.0938L41.5782 55.957C41.6563 55.4106 41.8909 54.8984 42.2536 54.4823C42.6164 54.0663 43.0919 53.7641 43.6226 53.6123L46.969 52.6592C47.1951 53.1575 47.5599 53.5801 48.0199 53.8764C48.4798 54.1728 49.0154 54.3304 49.5625 54.3304C50.1096 54.3304 50.6452 54.1728 51.1051 53.8764C51.5651 53.5801 51.9299 53.1575 52.1559 52.6592L55.5014 53.6123C56.0323 53.764 56.508 54.066 56.871 54.4821C57.2339 54.8982 57.4687 55.4105 57.5468 55.957L57.9948 59.0938H41.1302Z" fill="#0056B1"/>
</g>
<defs>
<clipPath id="clip0_4198_963">
<rect width="61" height="61" fill="white"/>
</clipPath>
</defs>
</svg>
