<svg width="38" height="38" viewBox="0 0 38 38" fill="none" xmlns="http://www.w3.org/2000/svg">
<g clip-path="url(#clip0_5121_23)">
<path d="M21.9483 19.6252L19.3256 15.5532C19.177 15.3195 19.1081 15.038 19.1344 14.7622C19.2462 13.5624 19.177 12.3732 18.9275 11.2208C18.8797 11.0085 18.9169 10.7963 19.0283 10.5998C19.74 9.37861 19.7133 7.86574 18.97 6.65504C17.1809 3.77228 14.2451 1.66438 10.7037 0.71413C8.09676 0.0186549 5.47404 -0.17253 2.91006 0.156778C2.4163 0.220371 2.06593 0.6716 2.12952 1.16536C2.19312 1.65912 2.64435 2.00949 3.13811 1.9459C5.47404 1.64859 7.86345 1.82397 10.2419 2.46072C13.3369 3.28905 15.896 5.11543 17.4409 7.60529C17.8391 8.25297 17.8496 9.05497 17.4729 9.69698C17.1331 10.2758 17.027 10.9555 17.1703 11.6084C17.3826 12.5801 17.4409 13.5835 17.3401 14.5973C17.2765 15.2717 17.4462 15.9619 17.8128 16.5355L20.4355 20.6075C20.5363 20.7614 20.5521 20.9526 20.4776 21.1118C20.4035 21.271 20.2496 21.3823 20.0689 21.4091C19.7027 21.4569 19.3524 21.4674 19.0283 21.4358C19.0231 21.4358 19.0231 21.4358 19.0178 21.4358C18.9967 21.4358 18.9805 21.4358 18.9595 21.4358C18.9489 21.4358 18.9327 21.4358 18.9222 21.4358C18.9064 21.4358 18.8902 21.4358 18.8797 21.4411C18.8639 21.4411 18.8481 21.4411 18.8319 21.4463C18.8213 21.4463 18.8108 21.4516 18.8003 21.4516C18.7788 21.4569 18.7577 21.4569 18.7415 21.4621C18.7363 21.4621 18.7363 21.4621 18.731 21.4621C18.7257 21.4621 18.7205 21.4674 18.7152 21.4674C18.6937 21.4727 18.6727 21.4779 18.6569 21.4832C18.646 21.4889 18.6354 21.4889 18.6249 21.4941C18.6091 21.4994 18.5929 21.5099 18.5771 21.5152C18.5666 21.5205 18.5508 21.5257 18.5398 21.531C18.524 21.5367 18.5135 21.5472 18.4973 21.5525C18.4815 21.5577 18.471 21.5683 18.4604 21.5788C18.4495 21.5845 18.439 21.595 18.4284 21.6003C18.4179 21.6108 18.4021 21.6213 18.3912 21.6266C18.3806 21.6375 18.3701 21.6428 18.3596 21.6533C18.3486 21.6639 18.3381 21.6744 18.3276 21.6853C18.317 21.6959 18.3065 21.7064 18.2956 21.7169C18.285 21.7275 18.2745 21.7384 18.2693 21.7489C18.2587 21.7595 18.2478 21.77 18.2425 21.7862C18.2373 21.7967 18.2267 21.8072 18.2215 21.8178C18.2109 21.834 18.2 21.8445 18.1947 21.8603C18.1895 21.8708 18.1842 21.8818 18.1789 21.8923C18.1684 21.9081 18.1631 21.9239 18.1522 21.9401C18.1469 21.9506 18.1417 21.9612 18.1364 21.9717C18.1311 21.9879 18.1206 22.0037 18.1153 22.0195C18.1101 22.0304 18.1048 22.0462 18.0991 22.0568C18.0939 22.0726 18.0886 22.0835 18.0886 22.0993C18.0833 22.1151 18.0781 22.1313 18.0781 22.1471C18.0781 22.1576 18.0728 22.1681 18.0728 22.1844C18.0675 22.2054 18.0675 22.2212 18.0623 22.2427C18.0623 22.2479 18.0623 22.2585 18.057 22.2637V22.2743V22.333V22.3699C18.057 22.3861 18.057 22.4019 18.0623 22.4177C18.0623 22.4339 18.0623 22.4497 18.0675 22.4655C18.0675 22.4764 18.0728 22.4869 18.0728 22.5027C18.0781 22.5238 18.0781 22.54 18.0833 22.5558V22.5663L18.4442 24.016C18.4442 24.0265 18.4495 24.0318 18.4495 24.0423C18.4495 24.0476 18.4495 24.0529 18.4552 24.0581C18.5188 24.2655 18.4232 24.4778 18.232 24.5681C18.2267 24.5681 18.2215 24.5734 18.2215 24.5734C18.2057 24.5786 18.1895 24.5891 18.1737 24.5997C18.1631 24.6054 18.1469 24.6159 18.1364 24.6211C18.1259 24.6264 18.1153 24.6369 18.0991 24.6475C18.0833 24.6584 18.0728 24.6689 18.057 24.6795C18.0513 24.6847 18.0461 24.6847 18.0461 24.69C18.0408 24.6953 18.0355 24.7005 18.0303 24.7062C18.0145 24.7167 18.0035 24.7325 17.9877 24.7431C17.9772 24.754 17.9719 24.7593 17.9614 24.7698C17.9505 24.7803 17.9399 24.7961 17.9294 24.8071C17.9189 24.8176 17.9136 24.8281 17.9027 24.8387C17.8921 24.8492 17.8869 24.8601 17.8763 24.8759C17.8658 24.8865 17.8606 24.9027 17.8496 24.9132C17.8444 24.9237 17.8391 24.9343 17.8286 24.9448C17.818 24.961 17.8128 24.9768 17.8075 24.9873C17.8018 24.9978 17.7966 25.0088 17.7913 25.0193C17.786 25.0351 17.7808 25.0513 17.7702 25.0671C17.765 25.0776 17.7597 25.0882 17.7597 25.1044C17.754 25.1202 17.7488 25.136 17.7435 25.1465C17.7382 25.1627 17.7382 25.1732 17.733 25.189C17.7277 25.2052 17.7277 25.2158 17.7224 25.2316C17.7224 25.2474 17.7172 25.2636 17.7172 25.2794C17.7172 25.2899 17.7119 25.3061 17.7119 25.3166V25.3644V25.4017V25.4495C17.7119 25.46 17.7119 25.4758 17.7172 25.4863C17.7172 25.5025 17.7224 25.5183 17.7224 25.5341C17.7224 25.5503 17.7277 25.5609 17.733 25.5767C17.7382 25.5925 17.7382 25.6034 17.7435 25.6192C17.7488 25.635 17.754 25.6512 17.7597 25.667C17.765 25.6775 17.765 25.6881 17.7702 25.699C17.7755 25.7148 17.786 25.7359 17.7913 25.7521C17.7966 25.7573 17.7966 25.7626 17.7966 25.7679C17.8018 25.7731 17.8018 25.7784 17.8075 25.7836C17.8128 25.7946 17.818 25.8051 17.8233 25.8104C17.8338 25.8314 17.8444 25.8476 17.8606 25.8687C17.8606 25.874 17.8658 25.874 17.8658 25.8792C17.8816 25.906 17.8974 25.927 17.9189 25.9485C17.9189 25.9485 17.9189 25.9538 17.9241 25.9538C18.1789 26.2616 18.1469 26.697 17.8549 26.9624C17.4567 27.3233 17.2339 27.8648 17.2603 28.4011C17.3028 29.208 16.9472 29.9832 16.3047 30.477C15.6623 30.976 14.8129 31.1247 14.0433 30.8752L13.4483 30.6892C12.737 30.4665 11.9565 30.5568 11.3088 30.9335C10.6559 31.3106 10.1889 31.9477 10.0293 32.6748C9.83282 33.5615 9.78542 34.4749 9.88061 35.3879C9.90208 35.6588 9.89155 35.9294 9.84375 36.1895C9.83849 36.1895 9.83849 36.1951 9.83282 36.1951L3.54721 34.2039C3.06925 34.0552 2.56496 34.3157 2.4163 34.7932C2.26765 35.2712 2.52769 35.7755 3.00565 35.9241L9.30746 37.9202C9.32853 37.9255 9.34999 37.9312 9.37106 37.9364C9.52498 37.979 9.6789 38 9.83849 38C10.1674 38 10.4914 37.9097 10.7835 37.7347C11.2294 37.469 11.532 37.0231 11.6276 36.5135C11.7017 36.0995 11.7232 35.6694 11.6859 35.2392C11.6859 35.2339 11.6859 35.2339 11.6859 35.2287C11.6859 35.2234 11.6859 35.2234 11.6859 35.2181C11.6061 34.4959 11.6434 33.7741 11.7973 33.073C11.8504 32.8397 12.0043 32.6327 12.2222 32.5051C12.4397 32.3775 12.684 32.3512 12.9177 32.4253L13.507 32.6112H13.5123C13.9368 32.7441 14.3722 32.8129 14.8077 32.8129C15.7421 32.8129 16.6604 32.5051 17.4199 31.921C18.5293 31.0663 19.1454 29.7232 19.0761 28.327C19.0761 28.3217 19.0814 28.316 19.0814 28.316C19.8461 27.6206 20.0904 26.5589 19.7769 25.6297C20.239 25.0776 20.414 24.3238 20.207 23.5911L20.122 23.246C20.1912 23.2407 20.2601 23.2302 20.3289 23.2197C21.1257 23.1131 21.805 22.6194 22.1395 21.8923C22.4421 21.1438 22.3838 20.3049 21.9483 19.6252C21.9483 19.6305 21.9483 19.6305 21.9483 19.6252Z" fill="#0056B1"/>
<path d="M24.7885 21.6428C24.9745 21.6428 25.1604 21.5844 25.3248 21.4674L33.9682 15.1178C34.3717 14.8205 34.4567 14.2578 34.1594 13.854C33.8621 13.4506 33.2991 13.3659 32.8957 13.6632L24.2579 20.0128C23.8545 20.3101 23.7694 20.8728 24.0667 21.2762C24.2417 21.5152 24.5127 21.6428 24.7885 21.6428Z" fill="#0056B1"/>
<path d="M35.0088 24.4725H26.3338C25.8347 24.4725 25.4309 24.8759 25.4309 25.3749C25.4309 25.874 25.8347 26.2774 26.3338 26.2774H35.0088C35.5078 26.2774 35.9112 25.874 35.9112 25.3749C35.9112 24.8759 35.5078 24.4725 35.0088 24.4725Z" fill="#0056B1"/>
<path d="M33.91 35.6957L25.3301 29.2719C24.932 28.9746 24.3641 29.054 24.0668 29.4522C23.7695 29.8504 23.8493 30.4186 24.2474 30.716L32.8269 37.1401C32.9913 37.262 33.1772 37.3203 33.3684 37.3203C33.6442 37.3203 33.9152 37.1932 34.0902 36.9594C34.3928 36.556 34.3081 35.993 33.91 35.6957Z" fill="#0056B1"/>
</g>
<defs>
<clipPath id="clip0_5121_23">
<rect width="38" height="38" fill="white"/>
</clipPath>
</defs>
</svg>
