<svg width="34" height="49" viewBox="0 0 34 49" fill="none" xmlns="http://www.w3.org/2000/svg">
<g clip-path="url(#clip0_771_132)">
<path fill-rule="evenodd" clip-rule="evenodd" d="M10.4849 45.0545C13.2615 43.8772 29.5577 33.6044 30.2813 32.5377C31.3343 31.0564 30.5369 29.4307 28.661 29.213C27.4104 29.0679 26.5098 29.5571 15.1959 36.6409C10.4861 39.6133 6.39249 42.4158 6.13332 42.8386C5.7505 43.4215 5.77358 43.8066 6.14508 44.5475C6.77903 45.7717 8.34058 45.953 10.4886 45.0516L10.4849 45.0545Z" fill="#F8B21F"/>
<path fill-rule="evenodd" clip-rule="evenodd" d="M14.0299 22.3924C19.1014 22.669 26.4018 22.5736 27.1492 22.2075C28.2275 21.7053 28.7757 20.3398 28.2341 19.5456C27.455 18.375 26.4198 18.1844 20.6125 18.1746C17.4462 18.156 12.5037 17.9648 9.6387 17.7732C4.08289 17.4068 3.14819 17.5768 2.97646 19.0564C2.84891 20.1554 3.24807 20.6579 4.52506 21.1886C5.56565 21.6247 9.86474 22.1908 14.0329 22.3961L14.0299 22.3924Z" fill="#F8B21F"/>
<path fill-rule="evenodd" clip-rule="evenodd" d="M28.2479 13.0625C29.2955 12.2414 29.0202 10.6428 27.4764 8.78966C24.4517 5.12749 20.4058 1.76616 18.8075 1.58065C17.9749 1.48402 17.2739 2.06354 17.1698 2.96058C17.0742 3.7848 18.3971 5.4379 22.796 9.99089C25.9056 13.2436 27.1254 13.9454 28.2479 13.0625Z" fill="#F8B21F"/>
</g>
<defs>
<clipPath id="clip0_771_132">
<rect width="29" height="45" fill="white" transform="translate(28.8066 48.0433) rotate(-173.38)"/>
</clipPath>
</defs>
</svg>
