<svg width="70" height="73" viewBox="0 0 70 73" fill="none" xmlns="http://www.w3.org/2000/svg">
<path fill-rule="evenodd" clip-rule="evenodd" d="M29.7152 1.19835C28.678 3.06145 28.7521 10.7089 29.924 18.2151C31.0959 26.0037 31.7896 27.4498 34.5443 27.4498C37.9927 27.4498 38.2015 25.8625 35.9924 12.2895C34.0594 0.371065 34.0594 0.229816 32.2678 0.0280369C31.0286 -0.106483 30.2002 0.236541 29.7152 1.19835Z" fill="#F8B21F"/>
<path fill-rule="evenodd" clip-rule="evenodd" d="M2.04708 28.3445C0.255524 29.2391 -0.646988 31.9295 0.531666 33.0998C1.70359 34.2701 18.6762 33.7858 20.5418 32.5483C22.5422 31.2367 22.266 29.5149 19.9896 28.3445C17.7131 27.1742 4.39765 27.1742 2.05382 28.3445H2.04708Z" fill="#F8B21F"/>
<path fill-rule="evenodd" clip-rule="evenodd" d="M49.0989 30.1335C44.2024 30.6178 42.2694 32.0639 43.5087 34.4045C44.4718 36.2676 46.6136 36.6106 56.8241 36.2676C64.1385 36.0591 66.3477 35.7833 67.8631 34.8215C70.0722 33.3082 70.0049 31.6536 67.5869 30.4093C65.7954 29.5147 57.1003 29.3735 49.0989 30.1335Z" fill="#F8B21F"/>
<path fill-rule="evenodd" clip-rule="evenodd" d="M32.4764 41.5069C31.4392 42.7445 32.0655 65.5523 33.2375 69.339C33.9985 71.8209 36.5512 72.9239 38.2754 71.5451C39.5146 70.5093 39.7234 58.2479 38.6189 50.5332C37.4469 42.7445 34.7529 38.7493 32.4764 41.5069Z" fill="#F8B21F"/>
</svg>
