<svg width="93" height="143" viewBox="0 0 93 143" fill="none" xmlns="http://www.w3.org/2000/svg">
<path fill-rule="evenodd" clip-rule="evenodd" d="M68.2171 61.3737C67.8446 61.7991 67.5807 62.9663 67.5807 63.926C67.5807 66.8466 66.0441 75.5617 64.9317 79.1255C61.8584 88.9559 55.8154 97.5673 50.3052 100.062C45.9074 102.029 46.5438 103.357 53.2181 106.49C58.2005 108.772 58.4126 108.985 60.3218 112.227C62.7587 116.268 66.6805 128.008 68.2171 135.556C69.4899 142.04 69.9141 142.995 71.5542 142.995C73.5151 142.995 73.9911 141.827 74.255 136.936C74.6792 128.272 77.1678 118.764 80.5102 113.182C82.2589 110.313 86.8171 106.168 90.6871 104.041C92.3841 103.087 92.8601 102.501 92.9636 101.121C93.1757 99.2584 92.379 98.6774 88.778 98.0912C87.7173 97.9304 85.8651 97.0796 84.6441 96.177C79.4495 92.4575 76.3245 84.2197 71.9785 62.7536C71.6629 61.2648 71.3421 60.8394 70.2297 60.7357C69.4899 60.6319 68.5844 60.9484 68.2171 61.3737ZM71.875 84.2768C74.8448 93.4691 78.3941 99.1028 82.6314 101.333L84.1163 102.132L81.7829 104.098C77.1213 107.979 75 111.325 72.6666 118.608C70.9696 123.92 70.2814 125.357 70.2814 123.707C70.2814 122.27 67.2599 113.981 65.7233 111.06C63.5503 107.076 61.0047 104.363 58.4075 103.408L56.131 102.506L58.6765 99.9535C62.3344 96.2859 66.2045 90.0713 68.1084 84.8111C69.0087 82.3159 69.7537 79.8673 69.7537 79.3901C69.7537 77.9013 70.178 78.8039 71.875 84.2768Z" fill="#F8B21F"/>
</svg>
