<svg width="90" height="90" viewBox="0 0 90 90" fill="none" xmlns="http://www.w3.org/2000/svg">
<circle cx="45.1772" cy="45.1382" r="44.2368" fill="#F2AB37"/>
<path d="M62.2855 55.2768C62.2734 54.9151 61.9706 54.6295 61.6088 54.6436C61.2471 54.6557 60.9637 54.9586 60.9757 55.3203C61.0493 57.5349 61.0709 59.3909 61.0709 61.3736C61.0709 64.0313 59.1106 66.1935 56.7011 66.1935H33.6534C31.2439 66.1935 29.2836 64.0313 29.2836 61.3736C29.2836 54.5095 29.5859 50.3982 30.1079 43.5386C30.328 40.6453 30.3366 39.8464 30.7136 38.3441C32.1096 32.7811 36.7919 28.5284 42.5007 28.5284H47.8573C54.1461 28.531 59.5239 33.8977 60.041 40.8201C60.6126 48.4715 60.7132 49.6268 60.8479 52.2768C60.8657 52.6269 61.1551 52.8987 61.5017 52.8987C61.5129 52.8987 61.5242 52.8985 61.5355 52.8979C61.897 52.8795 62.1751 52.5716 62.1566 52.2102C62.0214 49.55 61.9224 48.414 61.3479 40.7225C61.2807 39.8232 61.1383 38.9402 60.9257 38.0826L60.0008 24.187C59.948 23.3935 59.2837 22.772 58.4885 22.772H54.1589C53.3637 22.772 52.6994 23.3935 52.6466 24.187L52.3885 28.0639C51.6926 27.7957 50.9758 27.5895 50.2444 27.4479L49.9734 25.1491C49.8111 23.7717 48.7555 22.772 47.4634 22.772H42.8912C41.5991 22.772 40.5435 23.7717 40.3811 25.1492L40.1104 27.4452C39.3789 27.5861 38.6624 27.7923 37.9657 28.061L37.7079 24.1871C37.655 23.3935 36.9908 22.772 36.1955 22.772H31.866C31.0708 22.772 30.4064 23.3935 30.3536 24.187L30.1927 26.605C30.1687 26.9661 30.4419 27.2783 30.803 27.3023C31.1645 27.3276 31.4763 27.0531 31.5002 26.6921L31.6612 24.274C31.6683 24.1666 31.7582 24.0825 31.8659 24.0825H36.1955C36.3031 24.0825 36.393 24.1666 36.4002 24.274L36.6905 28.6351C34.4616 29.788 32.4318 31.6639 31.0044 34.1433L31.2972 29.7432C31.3212 29.3821 31.0479 29.0699 30.6869 29.0459C30.3265 29.0206 30.0136 29.2951 29.9897 29.6562L29.4296 38.0703C29.0336 39.6694 29.0194 40.572 28.8012 43.4392C28.2753 50.3497 27.9731 54.4724 27.9731 61.3736C27.9731 64.7539 30.5214 67.504 33.6535 67.504H56.7032H56.7039C59.8347 67.5023 62.3816 64.7529 62.3816 61.3736C62.3814 59.3403 62.3585 57.4759 62.2855 55.2768ZM43.7499 27.2179L43.8511 26.36H46.5034L46.6046 27.2179H43.7499ZM53.9542 24.274C53.9614 24.1666 54.0513 24.0825 54.1589 24.0825H58.4885C58.5962 24.0825 58.6861 24.1666 58.6932 24.274L59.3505 34.1481C58.0158 31.8221 56.0574 29.8707 53.664 28.6359L53.9542 24.274ZM41.4516 27.2613L41.6826 25.3027C41.7659 24.5956 42.2741 24.0825 42.8911 24.0825H47.4633C48.0803 24.0825 48.5886 24.5956 48.6719 25.3027L48.9028 27.2613C48.5904 27.2352 48.2363 27.2212 47.9242 27.2184L47.7367 25.628C47.6978 25.2981 47.4181 25.0495 47.086 25.0495H43.2686C42.9365 25.0495 42.6568 25.2981 42.6179 25.628L42.4303 27.2184C42.416 27.2185 42.4007 27.219 42.3863 27.2191C42.0566 27.222 41.7398 27.2372 41.4516 27.2613Z" fill="white"/>
<path d="M57.9903 40.4787L57.6775 36.8398C57.6234 36.2104 57.1062 35.7357 56.4745 35.7357H56.0249C54.2754 32.5465 51.0741 30.515 47.5291 30.515H42.825C40.3682 30.515 38.0131 31.494 36.1936 33.2715C35.36 34.0859 34.6682 35.0368 34.1373 36.0979C33.9754 36.4215 34.1064 36.8152 34.4301 36.977C34.7548 37.1395 35.1478 37.007 35.3093 36.6842C35.7747 35.754 36.3803 34.9212 37.1094 34.2091C38.6827 32.672 40.7125 31.8256 42.825 31.8256H47.5291C49.6415 31.8256 51.6714 32.672 53.2447 34.2091C53.7242 34.6775 54.1493 35.1998 54.5175 35.7667C54.0137 35.8797 53.6301 36.3029 53.584 36.8398L53.2712 40.4789C53.2073 41.2234 53.7956 41.8645 54.5429 41.8645H56.7185C57.466 41.8644 58.0542 41.2234 57.9903 40.4787ZM54.5801 40.5539L54.8817 37.0462H56.3798L56.6813 40.5539H54.5801Z" fill="white"/>
<path d="M56.8067 48.1377C56.8067 47.0462 55.9187 46.1583 54.8273 46.1583H35.5268C34.4354 46.1583 33.5474 47.0462 33.5474 48.1377V51.3623V58.1563C33.5474 60.2739 35.2702 61.9967 37.3877 61.9967H52.9664C55.0839 61.9967 56.8067 60.2739 56.8067 58.1563C56.8067 57.7112 56.8067 57.8578 56.8067 51.3623V48.1377ZM34.858 48.1377C34.858 47.7689 35.1581 47.4688 35.5268 47.4688H54.8274C55.1962 47.4688 55.4963 47.7689 55.4963 48.1377V51.3623C55.4963 52.9184 54.23 54.1902 52.6684 54.1902H37.6858C36.1143 54.1902 34.8579 52.9087 34.8579 51.3623V48.1377H34.858ZM55.4962 58.1563C55.4962 59.5513 54.3613 60.6862 52.9664 60.6862H37.3878C35.9929 60.6862 34.858 59.5513 34.858 58.1563V54.3881C35.6416 55.1202 36.6582 55.5007 37.6859 55.5007H52.6684C53.6821 55.5007 54.7031 55.129 55.4963 54.3882V58.1563H55.4962Z" fill="white"/>
</svg>
