<svg width="90" height="90" viewBox="0 0 90 90" fill="none" xmlns="http://www.w3.org/2000/svg">
<circle cx="45" cy="45.1382" r="44.2368" fill="#F2AB37"/>
<path d="M45.0009 43.4699C45.3629 43.4699 45.6562 43.1765 45.6562 42.8146V42.0539C48.5337 41.4894 49.3415 37.2939 46.2353 36.1958C46.045 36.1285 45.8504 36.058 45.6562 35.9845V32.8859C46.1444 33.0028 46.4353 33.2497 46.4606 33.2718C46.7268 33.5129 47.138 33.4949 47.382 33.2303C47.6274 32.9644 47.6106 32.5497 47.3446 32.3044C47.3074 32.27 46.6812 31.7061 45.6562 31.5521V30.9192C45.6562 30.5573 45.3629 30.2639 45.0009 30.2639C44.6389 30.2639 44.3456 30.5573 44.3456 30.9192V31.6024C44.2484 31.6238 44.1497 31.6484 44.0488 31.6788C42.0609 32.2776 41.5614 34.967 42.9901 36.0876C43.3334 36.3568 43.7606 36.6035 44.3457 36.8639V40.7933C43.8392 40.7561 43.489 40.6323 42.9142 40.2563C42.6112 40.0581 42.2054 40.1432 42.0072 40.4459C41.809 40.7487 41.8939 41.1549 42.1968 41.353C43.0346 41.901 43.6068 42.0644 44.3457 42.1059V42.8146C44.3456 43.1765 44.6389 43.4699 45.0009 43.4699ZM43.7989 35.0564C43.2291 34.6095 43.4375 33.3047 44.3456 32.9619V35.4059C44.1399 35.2942 43.9537 35.1778 43.7989 35.0564ZM45.7985 37.4315C47.493 38.0304 47.0819 40.1826 45.6562 40.6926V37.3805C45.7036 37.3975 45.7498 37.4143 45.7985 37.4315Z" fill="white"/>
<path d="M45.0008 49.4973C51.9653 49.4973 57.6313 43.8312 57.6313 36.8668C57.6313 29.9024 51.9653 24.2363 45.0008 24.2363C38.0364 24.2363 32.3704 29.9024 32.3704 36.8668C32.3704 43.8312 38.0364 49.4973 45.0008 49.4973ZM45.0008 25.5469C51.2426 25.5469 56.3207 30.625 56.3207 36.8668C56.3207 43.1086 51.2426 48.1867 45.0008 48.1867C38.759 48.1867 33.6809 43.1086 33.6809 36.8668C33.6809 30.625 38.759 25.5469 45.0008 25.5469Z" fill="white"/>
<path d="M45.0008 46.5094C47.1292 46.5094 49.1473 45.8296 50.8367 44.5435C51.1246 44.3243 51.1804 43.9132 50.9612 43.6252C50.742 43.3373 50.3309 43.2814 50.0428 43.5008C48.5835 44.6117 46.84 45.199 45.0008 45.199C40.4065 45.199 36.6687 41.4612 36.6687 36.8669C36.6687 35.0255 37.2571 33.2805 38.3705 31.8201C38.5898 31.5323 38.5344 31.1212 38.2466 30.9018C37.9586 30.6823 37.5476 30.7379 37.3281 31.0256C36.0394 32.7161 35.3582 34.736 35.3582 36.8668C35.3582 42.1838 39.6838 46.5094 45.0008 46.5094Z" fill="white"/>
<path d="M40.4822 29.8652C41.8279 28.9948 43.3905 28.5347 45.0009 28.5347C49.5953 28.5347 53.333 32.2724 53.333 36.8668C53.333 38.4856 52.8685 40.0549 51.9897 41.4052C51.7923 41.7085 51.8782 42.1144 52.1814 42.3118C52.4835 42.5084 52.8898 42.4247 53.0881 42.12C54.1056 40.5564 54.6436 38.7399 54.6436 36.8668C54.6436 31.5498 50.3179 27.2241 45.0009 27.2241C43.1374 27.2241 41.3288 27.7568 39.7704 28.7646C39.4666 28.9612 39.3795 29.3669 39.576 29.6708C39.7725 29.9747 40.1783 30.0617 40.4822 29.8652Z" fill="white"/>
<path d="M66.8878 53.4788C66.0419 52.2355 64.3471 51.8974 63.0897 52.7129L56.7322 55.883C55.3388 56.5779 53.8566 56.9989 52.3173 57.1383L52.3524 56.5859C52.4294 55.4006 51.2424 53.1937 48.8773 52.8591C48.8717 52.8583 48.866 52.8575 48.8604 52.8569L41.724 52.0353C40.2096 51.8195 39.4704 51.3168 38.0628 50.4935C36.0027 49.2884 33.6523 48.6515 31.2658 48.6515H29.3594V48.2733C29.3594 47.2355 28.515 46.3911 27.4772 46.3911H24.5159C23.4781 46.3911 22.6338 47.2355 22.6338 48.2733V63.2965C22.6338 64.3343 23.4781 65.1786 24.5159 65.1786H27.4772C28.515 65.1786 29.3594 64.3343 29.3594 63.2965V62.4468L36.4882 65.6322C36.5009 65.6378 36.5137 65.6431 36.5266 65.6479C37.4077 65.9765 38.3685 66.1023 39.306 66.0111L53.6549 64.6145C54.6499 64.5176 55.6182 64.1776 56.4551 63.6315C67.0249 56.7309 66.3688 57.1697 66.4369 57.109C67.475 56.1871 67.6688 54.6265 66.8878 53.4788ZM65.5992 56.0992L55.7386 62.5339C55.0779 62.9652 54.3134 63.2336 53.5278 63.31L39.1789 64.7066C38.4459 64.778 37.6942 64.6812 37.0032 64.4269L29.3593 61.0114V59.7814C29.3593 59.4195 29.066 59.1261 28.704 59.1261C28.342 59.1261 28.0487 59.4195 28.0487 59.7814V61.4224V61.4239V63.2965C28.0487 63.6116 27.7923 63.8681 27.4771 63.8681H24.5159C24.2008 63.8681 23.9444 63.6116 23.9444 63.2965V48.2733C23.9444 47.9581 24.2008 47.7017 24.5159 47.7017H27.4772C27.7924 47.7017 28.0488 47.9581 28.0488 48.2733V56.7179C28.0488 57.0798 28.3421 57.3731 28.7041 57.3731C29.0661 57.3731 29.3594 57.0798 29.3594 56.7179V49.9621H31.2658C33.42 49.9621 35.5416 50.5371 37.401 51.6247C38.8728 52.4856 39.7733 53.0827 41.5488 53.334C41.5544 53.3348 41.5601 53.3355 41.5656 53.3362L48.7017 54.1578C49.9405 54.3366 50.8951 55.3192 51.041 56.5587L50.9989 57.2194L41.7275 57.7938C41.3663 57.8161 41.0917 58.1271 41.1141 58.4884C41.1356 58.8358 41.4241 59.1031 41.7676 59.1031C41.7811 59.1031 41.7949 59.1027 41.8087 59.1019L51.6553 58.4918C53.6373 58.4239 55.5422 57.941 57.3172 57.0558C64.0953 53.6739 63.7159 53.8707 63.7832 53.8255C64.4474 53.3791 65.3541 53.5542 65.8044 54.216C66.2076 54.8087 66.1176 55.6101 65.5992 56.0992Z" fill="white"/>
</svg>
