<svg width="90" height="90" viewBox="0 0 90 90" fill="none" xmlns="http://www.w3.org/2000/svg">
<circle cx="44.8228" cy="45.1382" r="44.2368" fill="#F2AB37"/>
<path d="M65.4178 32.6415L45.1077 22.8366C44.9276 22.7498 44.7179 22.7498 44.538 22.8366L24.2278 32.6415C24.0013 32.7508 23.8574 32.9801 23.8574 33.2316V57.0434C23.8574 57.2949 24.0013 57.5242 24.2278 57.6335L44.5379 67.4384C44.6279 67.4818 44.7254 67.5036 44.8228 67.5036C44.9202 67.5036 45.0176 67.4818 45.1077 67.4384L65.4178 57.6335C65.6442 57.5242 65.7881 57.2949 65.7881 57.0434V33.2317C65.7881 32.98 65.6441 32.7509 65.4178 32.6415ZM44.8228 24.1544L63.6257 33.2316L58.1751 35.8629C58.1406 35.8366 58.1042 35.8123 58.0642 35.793L39.389 26.7776L44.8228 24.1544ZM37.9091 27.5185L56.6847 36.5825L52.8392 38.4389L34.0714 29.3786L37.9091 27.5185ZM57.124 37.8255V44.6879L53.5321 46.4219V39.5596L57.124 37.8255ZM64.4776 56.6323L45.478 65.8043V43.4477L50.01 41.2598C50.3359 41.1025 50.4725 40.7108 50.3152 40.3849C50.1579 40.0591 49.7662 39.9223 49.4402 40.0797L44.8228 42.3089L43.0059 41.4317C42.6799 41.2742 42.2882 41.411 42.1309 41.7369C41.9736 42.0627 42.1102 42.4545 42.4361 42.6119L44.1675 43.4477V65.8043L25.1679 56.6321V34.2755L39.636 41.2601C39.7278 41.3045 39.8248 41.3255 39.9203 41.3255C40.1639 41.3255 40.3979 41.189 40.5108 40.9549C40.6682 40.6291 40.5316 40.2373 40.2057 40.0799L26.0198 33.2316L32.5291 30.0891L52.2125 39.5915C52.2154 39.5955 52.2186 39.5991 52.2216 39.603V47.466C52.2216 47.6915 52.3375 47.9011 52.5285 48.021C52.6345 48.0876 52.7555 48.1212 52.8769 48.1212C52.9741 48.1212 53.0715 48.0997 53.1617 48.0561L58.0642 45.6894C58.2906 45.5801 58.4345 45.3508 58.4345 45.0993V37.193L64.4776 34.2756V56.6323Z" fill="white"/>
<path d="M30.5756 54.0912L27.5951 52.6523C27.269 52.4948 26.8775 52.6316 26.7201 52.9575C26.5628 53.2834 26.6994 53.6751 27.0253 53.8325L30.0058 55.2713C30.0976 55.3157 30.1947 55.3367 30.2902 55.3367C30.5338 55.3367 30.7678 55.2002 30.8807 54.9662C31.0382 54.6402 30.9015 54.2486 30.5756 54.0912Z" fill="white"/>
<path d="M33.3184 52.305L27.5989 49.5438C27.273 49.3865 26.8813 49.5231 26.724 49.8491C26.5667 50.175 26.7033 50.5667 27.0292 50.7241L32.7487 53.4852C32.8405 53.5295 32.9376 53.5506 33.0331 53.5506C33.2767 53.5506 33.5107 53.4141 33.6236 53.1801C33.781 52.854 33.6443 52.4623 33.3184 52.305Z" fill="white"/>
</svg>
