<svg width="90" height="90" viewBox="0 0 90 90" fill="none" xmlns="http://www.w3.org/2000/svg">
<circle cx="44.8228" cy="45.1382" r="44.2368" fill="#F8F2EE"/>
<path d="M65.4178 32.642L45.1077 22.8371C44.9276 22.7503 44.7179 22.7503 44.538 22.8371L24.2278 32.642C24.0013 32.7513 23.8574 32.9806 23.8574 33.2321V57.0439C23.8574 57.2954 24.0013 57.5247 24.2278 57.634L44.5379 67.4389C44.6279 67.4823 44.7254 67.5041 44.8228 67.5041C44.9202 67.5041 45.0176 67.4823 45.1077 67.4389L65.4178 57.634C65.6442 57.5247 65.7881 57.2954 65.7881 57.0439V33.2322C65.7881 32.9805 65.6441 32.7514 65.4178 32.642ZM44.8228 24.1549L63.6257 33.2321L58.1751 35.8634C58.1406 35.8371 58.1042 35.8128 58.0642 35.7935L39.389 26.7781L44.8228 24.1549ZM37.9091 27.5189L56.6847 36.5829L52.8392 38.4394L34.0714 29.3791L37.9091 27.5189ZM57.124 37.826V44.6884L53.5321 46.4224V39.5601L57.124 37.826ZM64.4776 56.6328L45.478 65.8048V43.4482L50.01 41.2603C50.3359 41.103 50.4725 40.7113 50.3152 40.3853C50.1579 40.0596 49.7662 39.9227 49.4402 40.0802L44.8228 42.3094L43.0059 41.4322C42.6799 41.2747 42.2882 41.4115 42.1309 41.7374C41.9736 42.0632 42.1102 42.455 42.4361 42.6123L44.1675 43.4482V65.8048L25.1679 56.6326V34.276L39.636 41.2606C39.7278 41.305 39.8248 41.3259 39.9203 41.3259C40.1639 41.3259 40.3979 41.1895 40.5108 40.9554C40.6682 40.6295 40.5316 40.2378 40.2057 40.0804L26.0198 33.2321L32.5291 30.0896L52.2125 39.592C52.2154 39.596 52.2186 39.5996 52.2216 39.6035V47.4665C52.2216 47.692 52.3375 47.9016 52.5285 48.0215C52.6345 48.0881 52.7555 48.1217 52.8769 48.1217C52.9741 48.1217 53.0715 48.1001 53.1617 48.0565L58.0642 45.6899C58.2906 45.5806 58.4345 45.3513 58.4345 45.0998V37.1935L64.4776 34.2761V56.6328Z" fill="#F2AB37"/>
<path d="M30.5754 54.0913L27.5949 52.6524C27.2688 52.4949 26.8772 52.6317 26.7199 52.9576C26.5625 53.2835 26.6992 53.6752 27.025 53.8326L30.0056 55.2714C30.0974 55.3158 30.1945 55.3368 30.29 55.3368C30.5335 55.3368 30.7675 55.2003 30.8805 54.9663C31.0379 54.6403 30.9013 54.2487 30.5754 54.0913Z" fill="#F2AB37"/>
<path d="M33.3187 52.3059L27.5992 49.5447C27.2732 49.3873 26.8816 49.524 26.7242 49.85C26.5669 50.1758 26.7036 50.5676 27.0295 50.7249L32.749 53.4861C32.8408 53.5304 32.9379 53.5514 33.0333 53.5514C33.2769 53.5514 33.5109 53.415 33.6239 53.1809C33.7812 52.8549 33.6446 52.4631 33.3187 52.3059Z" fill="#F2AB37"/>
</svg>
