<svg width="42" height="42" viewBox="0 0 42 42" fill="none" xmlns="http://www.w3.org/2000/svg">
<g clip-path="url(#clip0_4615_49)">
<path d="M38.5065 7.87129C38.5082 6.35754 37.5877 5.05379 36.1615 4.54979L24.8477 0.558036C22.4187 -0.301214 19.7447 -0.302964 17.3175 0.547536L5.86722 4.55504C4.43572 5.05554 3.51172 6.35754 3.51172 7.87304C3.51172 9.39029 4.43747 10.6923 5.86897 11.191L10.4995 12.8063V15.7498C10.4995 21.5405 15.2087 26.2498 20.9995 26.2498C26.7902 26.2498 31.4995 21.5405 31.4995 15.7498V12.8063L34.9995 11.5848V19.248C34.9995 20.214 35.7835 20.998 36.7495 20.998C37.7155 20.998 38.4995 20.214 38.4995 19.248V7.91329C38.4995 7.89754 38.5065 7.88704 38.5065 7.87129ZM27.9995 15.7498C27.9995 19.6103 24.86 22.7498 20.9995 22.7498C17.139 22.7498 13.9995 19.6103 13.9995 15.7498V14.0278L17.2562 15.1635C18.462 15.5835 19.7307 15.7953 20.9977 15.7953C22.2647 15.7953 23.5317 15.5835 24.7375 15.1635L27.9995 14.026V15.748V15.7498ZM23.586 11.8595C21.9182 12.4423 20.079 12.4423 18.4112 11.8595L7.02397 7.85729L18.476 3.84979C19.3125 3.55754 20.1892 3.41054 21.0695 3.41054C21.955 3.41054 22.8405 3.55929 23.684 3.85679L34.9977 7.87829L23.586 11.8595ZM34.9225 39.73C35.2095 40.6523 34.6932 41.634 33.771 41.921C33.5977 41.9753 33.4227 41.9998 33.2512 41.9998C32.5057 41.9998 31.8145 41.5185 31.58 40.7678C30.2027 36.3403 25.854 33.248 21.0012 33.248C16.1485 33.248 11.7997 36.3403 10.4225 40.7678C10.1355 41.6918 9.14847 42.2045 8.23147 41.9193C7.30922 41.6323 6.79297 40.6505 7.07997 39.7283C8.90697 33.8518 14.6312 29.748 21.0012 29.748C27.3712 29.748 33.0955 33.8535 34.9225 39.73Z" fill="#0056B1"/>
</g>
<defs>
<clipPath id="clip0_4615_49">
<rect width="42" height="42" fill="white"/>
</clipPath>
</defs>
</svg>
