<svg width="105" height="99" viewBox="0 0 105 99" fill="none" xmlns="http://www.w3.org/2000/svg">
<g clip-path="url(#clip0_528_199)">
<path d="M55.4678 26.3969C55.4678 23.9581 55.4906 22.3685 55.4678 20.7847C55.3827 15.643 55.2634 10.5071 55.2066 5.37117C55.1952 4.25791 55.2634 3.10447 55.5644 2.0486C55.695 1.58378 56.4618 1.08454 56.9957 1.00994C57.5239 0.935335 58.4042 1.21652 58.6428 1.62395C59.8412 3.67832 60.9146 5.81303 61.9597 7.95348C63.9987 12.1253 65.89 16.3775 68.0256 20.4978C71.9332 28.0324 75.9714 35.4981 79.9586 42.9868C80.4868 43.9738 81.0888 44.9264 81.583 45.9306C83.4288 49.6836 83.2471 50.7911 80.1346 53.3792C78.2944 54.9056 76.3065 56.2484 74.4209 57.7232C71.28 60.1792 68.0142 62.5033 65.0892 65.1947C61.5735 68.4312 58.3531 71.9947 55.0135 75.4321C53.9003 76.5798 52.9234 77.8709 51.7306 78.9153C49.0555 81.2681 46.7041 81.0673 44.2619 78.3759C43.6201 77.6701 43.0862 76.861 42.5068 76.092C39.9056 72.6432 37.327 69.1772 34.6973 65.7513C27.2683 56.0877 19.1293 47.0955 9.81468 39.2339C8.48564 38.1091 7.0998 37.0819 6.94077 35.0333C6.7363 32.4051 7.4633 31.2689 10.0135 31.4927C13.9665 31.837 17.948 32.2042 21.8158 33.0248C26.4675 34.0118 31.0169 35.4924 35.6117 36.7548C36.7704 37.0762 37.486 36.399 37.0316 35.2054C34.6405 28.9218 32.1755 22.6612 29.7162 16.4005C29.2505 15.2069 28.603 14.0822 28.2054 12.8713C27.7284 11.4138 29.2903 9.84143 30.6988 10.3923C31.8631 10.8514 32.9593 11.54 34.0157 12.2401C40.2577 16.3833 46.4769 20.5666 52.7075 24.727C53.3437 25.1517 54.0139 25.5189 55.4678 26.3912V26.3969ZM13.7848 36.5196C14.7162 37.4951 15.216 38.0632 15.7556 38.5797C17.3686 40.1291 19.0328 41.6153 20.6117 43.1991C29.5345 52.1626 37.5485 61.9065 44.9434 72.1898C45.6875 73.2285 46.4769 74.2385 47.2948 75.214C47.9309 75.9715 48.6977 75.8739 49.3622 75.2599C50.0608 74.6057 50.7083 73.8999 51.3217 73.1597C57.6943 65.4701 65.0778 58.934 73.2566 53.2816C74.5686 52.3749 75.7897 51.3478 77.0619 50.3837C78.1411 49.5688 78.2831 48.6162 77.5788 47.4628C77.079 46.6422 76.653 45.7814 76.1929 44.9379C71.2516 35.9629 66.0604 27.1257 62.0335 17.663C61.7212 16.9284 61.352 16.2111 60.9317 15.534C60.8067 15.3331 60.3921 15.1553 60.1706 15.2126C59.9434 15.2643 59.6254 15.6258 59.631 15.8439C59.6935 18.0876 59.8696 20.3313 59.8923 22.5808C59.9207 24.9852 60.0116 27.4126 59.7106 29.7826C59.4095 32.1411 57.4955 32.9732 55.4792 31.8771C54.6443 31.4238 53.8889 30.8155 53.0937 30.2818C48.2036 26.988 43.3247 23.6826 38.4175 20.4059C37.8438 20.0215 37.2475 19.2468 36.2706 20.1649C36.6 21.1749 36.9237 22.225 37.2872 23.258C38.6617 27.1888 40.093 31.0967 41.4163 35.0448C41.8707 36.4048 42.1604 37.8394 42.3365 39.2683C42.6659 41.9481 41.1267 43.2852 38.656 42.5163C37.5939 42.1892 36.583 41.7071 35.5436 41.3112C29.7276 39.1019 23.7299 37.5697 17.6072 36.5253C16.5962 36.3531 15.5284 36.5023 13.8018 36.5023L13.7848 36.5196Z" fill="#F8B21F"/>
<path d="M1.74408 69.8256C1.21587 69.2403 0.415039 68.6894 0.114017 67.9434C-0.28924 66.9334 0.420718 66.1301 1.29539 65.6366C1.69296 65.4128 2.18709 65.3439 2.65283 65.2636C5.9016 64.6897 9.15037 64.0929 12.4162 63.5822C13.4953 63.41 14.6085 63.3986 15.7047 63.4445C16.7725 63.4904 17.5676 64.1732 17.5052 65.2234C17.4654 65.8718 16.7952 66.4858 16.3863 67.0941C16.3124 67.2032 16.108 67.2433 15.9546 67.2663C11.32 68.1041 6.68539 68.9362 1.74408 69.8256Z" fill="#F8B21F"/>
<path d="M77.8628 16.016C76.3293 16.0562 75.2388 14.8167 75.5967 13.7666C75.9488 12.7279 76.4656 11.7237 77.0222 10.7768C78.8681 7.6264 80.7595 4.50468 82.6394 1.37148C82.8041 1.10177 82.9348 0.705815 83.179 0.608261C83.8606 0.327076 84.6898 -0.143478 85.2691 0.0458911C85.8712 0.246737 86.5073 1.07881 86.6493 1.73874C86.7969 2.42735 86.5414 3.34551 86.1608 3.98248C83.9514 7.66083 81.6909 11.3105 79.3623 14.9085C78.9817 15.4938 78.1809 15.798 77.8685 16.0218L77.8628 16.016Z" fill="#F8B21F"/>
<path d="M8.65037 87.9132C7.43492 87.787 6.4637 86.2261 6.92943 85.3424C7.28725 84.6653 7.77002 83.9939 8.36071 83.5176C11.3028 81.1304 14.2789 78.7948 17.2721 76.4765C17.7549 76.1035 18.3569 75.7305 18.9362 75.6673C19.4929 75.6042 20.3618 75.7706 20.6004 76.1551C20.9582 76.729 20.9923 77.584 20.9468 78.307C20.9241 78.7087 20.5322 79.1793 20.1858 79.4547C16.7325 82.2035 13.2623 84.9292 9.76358 87.6263C9.42848 87.8845 8.88891 87.8616 8.65605 87.919L8.65037 87.9132Z" fill="#F8B21F"/>
<path d="M86.4328 25.76C86.0636 25.4157 85.4388 25.0771 85.24 24.5721C85.0413 24.0499 85.0981 23.281 85.348 22.7703C85.6092 22.2423 86.1772 21.7718 86.7167 21.4906C89.9712 19.8207 93.2484 18.191 96.5483 16.6072C97.0878 16.3489 97.8773 16.1538 98.3658 16.3661C99.0132 16.6416 99.6721 17.2613 99.9504 17.8983C100.138 18.323 99.7232 19.069 99.4676 19.6198C99.354 19.8723 98.9962 20.0445 98.7179 20.188C95.1624 21.9726 91.6013 23.7515 88.0288 25.496C87.6198 25.6969 87.103 25.6567 86.4271 25.7657L86.4328 25.76Z" fill="#F8B21F"/>
<path d="M96.7649 36.1122C95.1973 36.1122 93.607 36.2499 92.0678 36.0376C91.5055 35.963 90.7274 35.0907 90.6536 34.5054C90.5741 33.8914 91.0966 33.0593 91.5907 32.5543C91.9883 32.1526 92.7267 31.9633 93.3344 31.9231C96.4752 31.7165 99.6218 31.5903 102.768 31.4353C102.922 31.4296 103.081 31.464 103.234 31.5042C104.239 31.7395 104.944 32.2789 105.006 33.4094C105.063 34.4078 104.427 35.2629 103.37 35.3834C101.178 35.6301 98.98 35.7793 96.7819 35.963C96.7819 36.0089 96.7819 36.0605 96.7819 36.1064L96.7649 36.1122Z" fill="#F8B21F"/>
<path d="M32.3459 88.82C32.1755 89.4914 32.13 89.9792 31.9312 90.3981C30.8578 92.6992 29.7616 94.9889 28.6427 97.267C28.4383 97.6859 28.1259 98.0589 27.8078 98.4032C27.2114 99.0517 25.7972 99.2468 25.2292 98.5869C24.7749 98.0532 24.2523 97.0318 24.4682 96.5497C25.7631 93.6633 27.1887 90.8342 28.7279 88.074C29.2164 87.196 30.3069 86.9894 31.2326 87.5518C31.7097 87.8445 32.0164 88.4298 32.3459 88.82Z" fill="#F8B21F"/>
</g>
<defs>
<clipPath id="clip0_528_199">
<rect width="105" height="99" fill="white"/>
</clipPath>
</defs>
</svg>
