<svg width="49" height="43" viewBox="0 0 49 43" fill="none" xmlns="http://www.w3.org/2000/svg">
<path d="M9.38064 28.1153C8.10311 28.1153 6.85427 27.7364 5.79208 27.0266C4.72989 26.3168 3.90205 25.3079 3.41328 24.1276C2.92451 22.9473 2.79675 21.6485 3.04617 20.3955C3.29558 19.1426 3.91097 17.9918 4.8145 17.0886C5.71802 16.1854 6.8691 15.5705 8.12214 15.3216C9.37518 15.0726 10.6739 15.2009 11.854 15.6901C13.0342 16.1794 14.0427 17.0076 14.7521 18.0701C15.4615 19.1325 15.8399 20.3815 15.8394 21.659C15.8374 23.3712 15.1562 25.0125 13.9453 26.223C12.7344 27.4334 11.0928 28.1139 9.38064 28.1153ZM9.38064 17.7203C8.60162 17.7203 7.84011 17.9513 7.19238 18.3841C6.54465 18.8169 6.03981 19.432 5.7417 20.1517C5.44358 20.8715 5.36558 21.6634 5.51756 22.4275C5.66954 23.1915 6.04467 23.8933 6.59551 24.4442C7.14636 24.995 7.84818 25.3701 8.61222 25.5221C9.37627 25.6741 10.1682 25.5961 10.8879 25.298C11.6076 24.9999 12.2228 24.495 12.6556 23.8473C13.0884 23.1996 13.3194 22.438 13.3194 21.659C13.3187 20.6146 12.9035 19.6132 12.165 18.8747C11.4265 18.1361 10.4251 17.7209 9.38064 17.7203Z" fill="white"/>
<path d="M16.9405 42.9203C16.6064 42.9203 16.2859 42.7876 16.0496 42.5513C15.8133 42.315 15.6805 41.9945 15.6805 41.6603V39.1403C15.6805 37.4694 15.0168 35.867 13.8353 34.6855C12.6538 33.5041 11.0514 32.8403 9.38055 32.8403C7.70968 32.8403 6.10725 33.5041 4.92577 34.6855C3.74429 35.867 3.08055 37.4694 3.08055 39.1403V41.6603C3.08055 41.9945 2.9478 42.315 2.7115 42.5513C2.47521 42.7876 2.15472 42.9203 1.82055 42.9203C1.48637 42.9203 1.16589 42.7876 0.929593 42.5513C0.693297 42.315 0.560547 41.9945 0.560547 41.6603V39.1403C0.560547 36.8011 1.48979 34.5577 3.14387 32.9036C4.79794 31.2496 7.04134 30.3203 9.38055 30.3203C11.7198 30.3203 13.9632 31.2496 15.6172 32.9036C17.2713 34.5577 18.2005 36.8011 18.2005 39.1403V41.6603C18.2005 41.9945 18.0678 42.315 17.8315 42.5513C17.5952 42.7876 17.2747 42.9203 16.9405 42.9203Z" fill="white"/>
<path d="M16.9408 41.3074C16.7011 41.3073 16.4665 41.2387 16.2644 41.1099C16.0623 40.9811 15.9011 40.7973 15.7998 40.5801C15.6985 40.3629 15.6612 40.1213 15.6923 39.8837C15.7235 39.6461 15.8217 39.4222 15.9756 39.2385L33.6156 18.1713C33.8338 17.9277 34.1381 17.7785 34.4643 17.7552C34.7904 17.7318 35.1129 17.8362 35.3635 18.0463C35.6141 18.2563 35.7733 18.5556 35.8073 18.8808C35.8413 19.206 35.7476 19.5318 35.5459 19.7891L17.9059 40.8563C17.7877 40.9975 17.6401 41.111 17.4734 41.1889C17.3066 41.2668 17.1248 41.3073 16.9408 41.3074Z" fill="white"/>
<path d="M6.85961 12.6801C6.52544 12.6801 6.20495 12.5473 5.96866 12.311C5.73236 12.0747 5.59961 11.7543 5.59961 11.4201V1.34008C5.59961 1.00591 5.73236 0.68542 5.96866 0.449124C6.20495 0.212828 6.52544 0.0800781 6.85961 0.0800781C7.19378 0.0800781 7.51427 0.212828 7.75056 0.449124C7.98686 0.68542 8.11961 1.00591 8.11961 1.34008V11.4201C8.11961 11.7543 7.98686 12.0747 7.75056 12.311C7.51427 12.5473 7.19378 12.6801 6.85961 12.6801Z" fill="white"/>
<path d="M47.1801 2.60008H4.34008C4.00591 2.60008 3.68542 2.46733 3.44912 2.23103C3.21283 1.99474 3.08008 1.67425 3.08008 1.34008C3.08008 1.00591 3.21283 0.68542 3.44912 0.449124C3.68542 0.212828 4.00591 0.0800781 4.34008 0.0800781H47.1801C47.5142 0.0800781 47.8347 0.212828 48.071 0.449124C48.3073 0.68542 48.4401 1.00591 48.4401 1.34008C48.4401 1.67425 48.3073 1.99474 48.071 2.23103C47.8347 2.46733 47.5142 2.60008 47.1801 2.60008Z" fill="white"/>
<path d="M44.6604 30.3201C44.3262 30.3201 44.0057 30.1873 43.7694 29.951C43.5331 29.7147 43.4004 29.3943 43.4004 29.0601V1.34008C43.4004 1.00591 43.5331 0.68542 43.7694 0.449124C44.0057 0.212828 44.3262 0.0800781 44.6604 0.0800781C44.9946 0.0800781 45.3151 0.212828 45.5513 0.449124C45.7876 0.68542 45.9204 1.00591 45.9204 1.34008V29.0601C45.9204 29.3943 45.7876 29.7147 45.5513 29.951C45.3151 30.1873 44.9946 30.3201 44.6604 30.3201Z" fill="white"/>
<path d="M47.1808 30.3203H32.0608C31.7266 30.3203 31.4061 30.1875 31.1698 29.9512C30.9335 29.715 30.8008 29.3945 30.8008 29.0603C30.8008 28.7261 30.9335 28.4056 31.1698 28.1693C31.4061 27.933 31.7266 27.8003 32.0608 27.8003H47.1808C47.515 27.8003 47.8354 27.933 48.0717 28.1693C48.308 28.4056 48.4408 28.7261 48.4408 29.0603C48.4408 29.3945 48.308 29.715 48.0717 29.9512C47.8354 30.1875 47.515 30.3203 47.1808 30.3203Z" fill="white"/>
<path d="M37.1007 10.1601H21.9807C21.6465 10.1601 21.326 10.0274 21.0897 9.79109C20.8535 9.5548 20.7207 9.23431 20.7207 8.90014C20.7207 8.56596 20.8535 8.24548 21.0897 8.00918C21.326 7.77289 21.6465 7.64014 21.9807 7.64014H37.1007C37.4349 7.64014 37.7554 7.77289 37.9917 8.00918C38.228 8.24548 38.3607 8.56596 38.3607 8.90014C38.3607 9.23431 38.228 9.5548 37.9917 9.79109C37.7554 10.0274 37.4349 10.1601 37.1007 10.1601Z" fill="white"/>
<path d="M37.0997 15.2002H16.9397C16.6055 15.2002 16.285 15.0674 16.0487 14.8311C15.8124 14.5948 15.6797 14.2743 15.6797 13.9402C15.6797 13.606 15.8124 13.2855 16.0487 13.0492C16.285 12.8129 16.6055 12.6802 16.9397 12.6802H37.0997C37.4339 12.6802 37.7543 12.8129 37.9906 13.0492C38.2269 13.2855 38.3597 13.606 38.3597 13.9402C38.3597 14.2743 38.2269 14.5948 37.9906 14.8311C37.7543 15.0674 37.4339 15.2002 37.0997 15.2002Z" fill="white"/>
</svg>
