<svg width="39" height="39" viewBox="0 0 39 39" fill="none" xmlns="http://www.w3.org/2000/svg">
<g clip-path="url(#clip0_5121_8)">
<path d="M0.955445 24.3038C1.16933 24.452 1.39498 24.5824 1.63015 24.6938C1.9116 24.8374 2.3822 25.0779 2.41535 25.2469C2.45672 25.4688 2.43021 25.6981 2.3393 25.9047C2.24245 26.1127 2.1404 26.2915 2.0533 26.4462C1.81475 26.8661 1.41695 27.57 2.01755 28.0614C2.15795 28.1914 2.4004 28.3793 2.62205 28.5489C2.45917 28.8333 2.38535 29.1601 2.41015 29.4869C2.44429 29.7426 2.5823 29.9731 2.7917 30.1239C2.93795 30.2279 3.0946 30.3189 3.2467 30.4066C3.6289 30.6244 3.7784 30.7258 3.8317 30.9266C3.86666 31.1911 3.84223 31.46 3.7602 31.7138C3.72185 31.8828 3.6848 32.0511 3.66075 32.224C3.59632 32.8169 3.67156 33.4166 3.88045 33.9751C4.17217 35.0102 5.10818 35.7314 6.1834 35.7496C6.36185 35.749 6.53977 35.7302 6.71445 35.6937C8.57138 35.2536 10.4012 34.7061 12.1946 34.0538C13.6584 34.9131 14.584 37.5261 14.8251 38.5069C14.8974 38.7966 15.1577 38.9998 15.4563 38.9996L31.7713 38.9541C31.9781 38.9537 32.1723 38.855 32.2945 38.6882C32.4166 38.5213 32.4521 38.3064 32.3901 38.1091C32.2293 37.6687 32.0077 37.253 31.7316 36.8741C31.5755 36.6499 31.4348 36.4154 31.3105 36.1721C31.0165 35.576 30.7711 34.9571 30.5766 34.3216C30.2058 33.0653 29.9485 31.7784 29.8076 30.4762C29.5795 28.5315 29.8743 26.5612 30.6618 24.7685C31.1423 23.7743 31.7346 22.8381 32.4272 21.9781C32.8172 21.4516 33.2221 20.9062 33.5855 20.3336C34.2102 19.3631 34.6631 18.2923 34.9244 17.1681C34.9992 16.821 34.7818 16.4782 34.436 16.398C34.0901 16.3177 33.7439 16.5298 33.6583 16.8743C33.4297 17.8554 33.0339 18.7899 32.4883 19.6368C32.1509 20.1704 31.7609 20.6956 31.3833 21.2039C30.6311 22.1424 29.9893 23.1642 29.4703 24.2492C28.59 26.254 28.2611 28.4576 28.5174 30.6322C28.6673 32.0132 28.9416 33.3779 29.337 34.7096C29.5506 35.4089 29.8204 36.0897 30.1437 36.7454C30.2919 37.0384 30.4602 37.3207 30.6475 37.5904L30.691 37.6554L15.9477 37.6996C15.5157 36.1578 14.7323 34.737 13.659 33.5487L14.244 33.3453C14.6808 33.1925 15.0104 33.0775 15.1807 33.0203C17.964 32.133 19.3563 30.8655 19.3179 29.2503C19.3162 29.0777 19.2446 28.9133 19.1196 28.7944C18.9945 28.6755 18.8267 28.6123 18.6543 28.6191C18.2955 28.6276 18.0115 28.9253 18.0199 29.2841C18.0355 29.949 17.4875 30.9227 14.7855 31.7833C14.6087 31.8399 14.2655 31.9588 13.8163 32.1168C13.3334 32.2851 12.7211 32.4996 12.0451 32.7291H12.0405C10.2126 33.3994 8.34743 33.9636 6.45445 34.4191C5.84902 34.5329 5.26049 34.1526 5.11545 33.5539C4.97565 33.187 4.92076 32.7932 4.9549 32.4021C4.97375 32.2721 5.0043 32.1356 5.0342 32.003C5.17253 31.5493 5.19488 31.0681 5.0992 30.6036C4.91043 30.0083 4.47265 29.5243 3.8993 29.2769L3.75955 29.197C3.82961 29.0546 3.91366 28.9196 4.01045 28.794C4.11935 28.6556 4.16749 28.479 4.14384 28.3046C4.1202 28.1301 4.02679 27.9727 3.885 27.8684C3.72965 27.754 3.365 27.4784 3.092 27.2613C3.1232 27.2047 3.157 27.1423 3.19015 27.0864C3.2922 26.907 3.4092 26.6964 3.5223 26.4579C3.72829 26.0026 3.78867 25.4947 3.6952 25.0038C3.53985 24.2108 2.78 23.8221 2.22555 23.5387C2.03875 23.4499 1.85961 23.3457 1.68995 23.2274C1.55065 23.1341 1.42011 23.0284 1.29995 22.9115C1.29995 22.8127 1.4059 22.5741 1.90055 21.9716C3.06367 20.4729 4.06076 18.8525 4.8743 17.1388C5.02701 16.8702 5.11306 16.5688 5.1252 16.26C5.05712 15.606 4.7094 15.0134 4.17165 14.635C3.9084 14.3932 3.65945 14.1657 3.6315 13.974C3.63745 13.8147 3.67317 13.6579 3.7368 13.5118C3.84275 13.2336 3.9656 12.9606 4.0878 12.687C4.36189 12.1224 4.57961 11.5321 4.7378 10.9248C4.88674 10.1963 5.08214 9.47814 5.3228 8.77462C5.83512 7.36035 6.62846 6.06444 7.655 4.96496C8.8978 3.64871 10.8543 2.71791 13.4803 2.19661C15.489 1.75562 17.5271 1.4619 19.5786 1.31781C20.2688 1.28224 20.9608 1.29702 21.6488 1.36201C21.8806 1.38361 22.1063 1.27993 22.2409 1.09002C22.3754 0.900105 22.3985 0.652822 22.3013 0.441315C22.2041 0.229808 22.0015 0.0862108 21.7697 0.0646141C21.0186 -0.00420699 20.2636 -0.0191953 19.5103 0.0197641C17.3955 0.166505 15.2943 0.468046 13.2235 0.921964C10.2927 1.50696 8.16265 2.53461 6.70925 4.07121C5.56156 5.29811 4.67443 6.74488 4.10145 8.32417C3.83803 9.09271 3.62418 9.87735 3.4612 10.6733C3.32227 11.1837 3.13555 11.6799 2.9035 12.1553C2.7735 12.451 2.6396 12.7468 2.5226 13.0542C2.37466 13.3979 2.31393 13.7728 2.3458 14.1456C2.48025 14.7258 2.81749 15.2389 3.29675 15.5925C3.61525 15.8843 3.8252 16.0897 3.8278 16.2691C3.80414 16.3678 3.76695 16.4627 3.7173 16.5512C2.93908 18.1902 1.98537 19.74 0.872895 21.1734C0.402295 21.7473 -0.0917048 22.4162 0.0116452 23.0857C0.150059 23.6019 0.490147 24.0408 0.955445 24.3038Z" fill="#0056B1"/>
<path d="M7.75956 9.67784C8.15099 8.59265 8.75767 7.59774 9.54316 6.75284C10.4096 5.83569 11.9079 5.16034 13.997 4.74499C14.3491 4.67517 14.578 4.33308 14.5082 3.98091C14.4384 3.62875 14.0963 3.39987 13.7441 3.46969C11.3853 3.93899 9.65431 4.74239 8.59871 5.85779C7.69168 6.8313 6.9912 7.97843 6.53951 9.22999C6.3207 9.87934 6.14247 10.5417 6.00586 11.2131L7.27531 11.4946C7.3999 10.8798 7.56161 10.2731 7.75956 9.67784Z" fill="#0056B1"/>
<path d="M21.3584 3.64001L20.9684 5.58481C20.5924 5.70827 20.2264 5.86038 19.8738 6.03981L18.2234 4.93481C17.7077 4.59711 17.0258 4.66796 16.5906 5.10446L15.5116 6.18281C15.0665 6.61977 14.9945 7.31126 15.34 7.83056L16.4398 9.47311C16.2604 9.82581 16.1083 10.1917 15.9848 10.5677L14.0426 10.9577C13.4357 11.0803 12.9995 11.6139 13 12.233V13.767C12.9996 14.3851 13.4344 14.918 14.04 15.0417L15.9848 15.4317C16.1083 15.8076 16.2604 16.1736 16.4398 16.5263L15.3348 18.1766C14.9971 18.6923 15.068 19.3742 15.5045 19.8094L16.5835 20.8884C17.0212 21.3315 17.7112 21.4031 18.2306 21.0594L19.8731 19.9596C20.2258 20.139 20.5917 20.2911 20.9677 20.4146L21.3577 22.3568C21.48 22.9639 22.0137 23.4004 22.633 23.4H24.167C24.7851 23.4004 25.318 22.9656 25.4417 22.36L25.8317 20.4152C26.2076 20.2917 26.5736 20.1396 26.9263 19.9602L28.5766 21.0652C29.0923 21.4029 29.7742 21.3321 30.2094 20.8956L31.2878 19.8172C31.7328 19.3802 31.8048 18.6888 31.4594 18.1695L30.3596 16.5269C30.539 16.1742 30.6911 15.8083 30.8146 15.4323L32.7568 15.0423C33.1425 14.9643 33.4719 14.7151 33.6518 14.365L34.6314 15.0215C34.8204 15.1406 35.0391 15.2039 35.2625 15.2042C35.5741 15.2042 35.8729 15.08 36.0926 14.859L36.9571 13.9945C37.3502 13.5994 37.4133 12.9831 37.1085 12.5164L36.27 11.2619C36.3916 11.0175 36.4967 10.7651 36.5846 10.5066L38.0556 10.2135C38.6059 10.1053 39.0021 9.62187 39 9.06101V7.83901C39.002 7.28024 38.6086 6.79806 38.0608 6.68786L36.5833 6.39341C36.4961 6.13483 36.3914 5.88248 36.27 5.63811L37.1215 4.36866C37.4166 3.90372 37.349 3.29621 36.959 2.90746L36.0945 2.04296C35.6995 1.64958 35.083 1.58641 34.6164 1.89151L33.3619 2.73001C33.1174 2.60838 32.8651 2.50328 32.6066 2.41541L32.3128 0.944457C32.2047 0.394347 31.7216 -0.00178718 31.161 7.37886e-06H29.939C29.3802 -0.00196444 28.8981 0.391456 28.7879 0.939257L28.4934 2.41671C28.2348 2.50452 27.9824 2.60985 27.7381 2.73196L26.4687 1.88046C26.0036 1.58591 25.3964 1.65343 25.0075 2.04296L24.4225 2.62796C24.3384 2.61043 24.2529 2.60107 24.167 2.60001H22.633C22.0149 2.59957 21.482 3.0344 21.3584 3.64001ZM31.2956 6.18801L30.992 5.88446C32.1187 6.03527 33.0148 6.90402 33.2005 8.02545C33.3861 9.14688 32.8179 10.2581 31.8 10.764L30.8132 10.569C30.6898 10.193 30.5377 9.82711 30.3583 9.47441L31.4633 7.82406C31.8022 7.30857 31.7321 6.62586 31.2956 6.18996V6.18801ZM25.8551 3.03161L27.341 4.03001C27.5493 4.16974 27.8195 4.17707 28.0352 4.04886C28.4072 3.82987 28.8074 3.66258 29.2246 3.55161C29.4631 3.48722 29.6444 3.2933 29.6926 3.05111L30.0417 1.30001H31.0583L31.4074 3.05501C31.4556 3.2972 31.6369 3.49112 31.8754 3.55551C32.2926 3.66648 32.6928 3.83377 33.0648 4.05276C33.2812 4.17981 33.5514 4.17095 33.7591 4.03001L35.245 3.03291L35.9665 3.75441L34.97 5.24096C34.8303 5.44933 34.8229 5.71951 34.9512 5.93516C35.1701 6.30724 35.3374 6.70742 35.4484 7.12466C35.5128 7.36307 35.7067 7.5444 35.9489 7.59266L37.7039 7.94171V8.95831L35.9522 9.30736C35.71 9.35562 35.516 9.53695 35.4517 9.77536C35.3407 10.1926 35.1734 10.5928 34.9544 10.9649C34.8262 11.1805 34.8335 11.4507 34.9733 11.6591L35.9704 13.145L35.2489 13.8665L33.8 12.8973V12.233C33.8001 11.8524 33.6339 11.4908 33.345 11.2431C34.4894 10.1407 34.8484 8.45319 34.252 6.9804C33.6555 5.50762 32.2235 4.54549 30.6345 4.55001C30.2415 4.55248 29.8513 4.61652 29.4782 4.73981C29.1606 4.69354 28.837 4.76472 28.5682 4.94001L26.9269 6.03981C26.5742 5.86038 26.2083 5.70827 25.8323 5.58481L25.4423 3.64261C25.4308 3.59053 25.4158 3.53928 25.3975 3.48921L25.8551 3.03161ZM22.165 6.22506L22.633 3.90001H24.167L24.6343 6.22701C24.6829 6.46853 24.8639 6.66182 25.1017 6.72621C25.6387 6.87099 26.1546 7.08512 26.6364 7.36321C26.851 7.48772 27.1178 7.47914 27.324 7.34111L29.291 6.02551L30.3804 7.10906L29.0609 9.07791C28.9228 9.28413 28.9142 9.55095 29.0387 9.76561C29.3168 10.2473 29.531 10.7632 29.6758 11.3003C29.7401 11.5381 29.9334 11.719 30.175 11.7676L32.5 12.2324V13.767L30.173 14.2344C29.9315 14.283 29.7382 14.4639 29.6738 14.7017C29.529 15.2388 29.3149 15.7546 29.0368 16.2364C28.9123 16.451 28.9209 16.7178 29.0589 16.9241L30.3745 18.891L29.291 19.9804L27.3221 18.6609C27.1159 18.5228 26.8491 18.5142 26.6344 18.6388C26.1527 18.9168 25.6368 19.131 25.0998 19.2758C24.862 19.3401 24.681 19.5334 24.6324 19.775L24.167 22.1H22.633L22.1657 19.773C22.1171 19.5315 21.9361 19.3382 21.6983 19.2738C21.1613 19.129 20.6454 18.9149 20.1637 18.6368C19.949 18.5123 19.6822 18.5209 19.476 18.6589L17.5091 19.9745L16.4197 18.891L17.7392 16.9221C17.8772 16.7159 17.8858 16.4491 17.7613 16.2344C17.4832 15.7527 17.269 15.2368 17.1242 14.6998C17.0599 14.462 16.8666 14.281 16.6251 14.2324L14.3 13.767V12.233L16.627 11.7657C16.8685 11.7171 17.0618 11.5361 17.1262 11.2983C17.271 10.7613 17.4851 10.2454 17.7632 9.76366C17.8877 9.549 17.8791 9.28218 17.7411 9.07596L16.4255 7.10906L17.5091 6.01966L19.4779 7.33916C19.6841 7.47719 19.9509 7.48577 20.1656 7.36126C20.6473 7.08317 21.1632 6.86904 21.7002 6.72426C21.937 6.65903 22.1168 6.4659 22.165 6.22506Z" fill="#0056B1"/>
<path d="M23.3999 17.55C25.9127 17.55 27.9499 15.5129 27.9499 13C27.9499 10.4871 25.9127 8.45001 23.3999 8.45001C20.887 8.45001 18.8499 10.4871 18.8499 13C18.8527 15.5117 20.8881 17.5471 23.3999 17.55ZM23.3999 9.75001C25.1948 9.75001 26.6499 11.2051 26.6499 13C26.6499 14.7949 25.1948 16.25 23.3999 16.25C21.6049 16.25 20.1499 14.7949 20.1499 13C20.152 11.206 21.6058 9.75216 23.3999 9.75001Z" fill="#0056B1"/>
<path d="M23.4 13.65C23.759 13.65 24.05 13.359 24.05 13C24.05 12.641 23.759 12.35 23.4 12.35C23.041 12.35 22.75 12.641 22.75 13C22.75 13.359 23.041 13.65 23.4 13.65Z" fill="#0056B1"/>
<path d="M5.84995 14.3C6.20894 14.3 6.49995 14.009 6.49995 13.65C6.49995 13.291 6.20894 13 5.84995 13C5.49097 13 5.19995 13.291 5.19995 13.65C5.19995 14.009 5.49097 14.3 5.84995 14.3Z" fill="#0056B1"/>
</g>
<defs>
<clipPath id="clip0_5121_8">
<rect width="39" height="39" fill="white"/>
</clipPath>
</defs>
</svg>
