<svg width="224" height="17" viewBox="0 0 224 17" fill="none" xmlns="http://www.w3.org/2000/svg">
<g clip-path="url(#clip0_571_3692)">
<path d="M92.3607 16.9998C90.1186 16.9998 87.8764 16.9539 85.6383 16.867C77.9049 16.5555 66.4291 15.6466 56.0907 11.3468C32.5725 1.56755 3.96253 12.123 3.67716 12.2302C2.1688 12.797 0.57483 11.7298 0.122321 9.8352C-0.330188 7.94574 0.521833 5.95415 2.0302 5.38221C3.2695 4.9124 32.6296 -5.94431 57.8885 4.55493C67.5176 8.55854 78.443 9.41645 85.8218 9.71264C101.142 10.3305 116.535 8.77812 131.582 5.09624L133.054 4.73367C138.843 3.30891 144.31 1.96076 150.514 1.9148C159.63 1.86374 168.252 3.71234 177.763 5.96947C192.916 9.56455 207.669 9.27347 220.425 5.12688C221.949 4.63153 223.507 5.78053 223.902 7.69041C224.298 9.60029 223.38 11.551 221.856 12.0464C208.289 16.4585 192.671 16.7853 176.699 12.9962C167.485 10.8106 159.153 9.01303 150.543 9.0641C144.88 9.10495 139.67 10.3867 134.151 11.7451L132.671 12.1077C119.405 15.3504 105.875 16.9896 92.3567 16.9896L92.3607 16.9998Z" fill="#FFAB00"/>
</g>
<defs>
<clipPath id="clip0_571_3692">
<rect width="224" height="17" fill="white"/>
</clipPath>
</defs>
</svg>
