<svg width="43" height="45" viewBox="0 0 43 45" fill="none" xmlns="http://www.w3.org/2000/svg">
<path d="M36.0896 0C36.0896 0 36.041 0 36.0248 0C35.9763 0 35.9358 0 35.8873 0H25.9505C19.6146 0 14.363 4.9094 13.5295 11.2647H6.91852C4.97648 11.2647 3.39857 9.62544 3.39857 7.60788V7.17915C3.39857 5.17 4.96839 3.53073 6.89424 3.52232C6.90233 3.52232 6.91043 3.52232 6.91852 3.52232H11.7008C12.6394 3.52232 13.392 2.73211 13.392 1.76537C13.392 0.798618 12.6314 0.0084065 11.7008 0.0084065H6.91852C3.09917 0 0 3.21969 0 7.17915V7.60788C0 11.5758 3.09108 14.787 6.91043 14.787H13.4001V31.7598C13.4001 32.012 13.4729 32.2473 13.6024 32.4575L21.5 45L29.3976 32.4575C29.5271 32.2473 29.5999 32.0036 29.5999 31.7598V20.1672C29.5999 19.2173 28.9121 18.3598 27.9977 18.3094C27.0186 18.2589 26.2094 19.0659 26.2094 20.0663V30.7089C26.2094 30.9611 26.1366 31.1965 26.0072 31.4067L21.5 38.5606L16.9928 31.4067C16.8634 31.1965 16.7906 30.9527 16.7906 30.7089V14.787H36.0815C39.9008 14.787 42.9919 11.5758 42.9919 7.60788V7.17915C42.9919 3.21969 39.8927 0 36.0815 0L36.0896 0ZM35.8792 11.2647H16.9524C17.7535 6.8597 21.4757 3.52232 25.9424 3.52232H35.8792C37.9345 3.52232 39.6095 5.26247 39.6095 7.39772C39.6095 9.53297 37.9345 11.2731 35.8792 11.2731V11.2647Z" fill="white"/>
</svg>
