<svg width="76" height="97" viewBox="0 0 76 97" fill="none" xmlns="http://www.w3.org/2000/svg">
<g clip-path="url(#clip0_439_506)">
<path d="M48.4647 73.7079C51.0461 78.0492 51.4582 87.5336 56.9068 85.9877C62.2071 84.1161 66.9183 80.8126 71.6486 77.8306C72.3491 77.3703 72.9833 76.7738 73.3613 76.0182C74.3677 74.2713 72.4907 72.1143 70.6052 72.712C51.934 83.6923 66.974 75.5487 62.1749 53.0208C57.3373 27.1439 26.5445 10.2238 1.83865 17.1113C-0.651711 18.7201 1.24379 22.151 4.12736 21.1743C8.2918 20.1086 12.5095 20.1892 16.7151 20.7099C29.5362 22.3111 42.0072 28.374 50.0644 38.6538C57.8047 48.7033 60.4889 64.1544 55.3093 75.6514C54.525 75.9005 54.365 74.7328 54.003 74.2596C52.2048 70.4643 50.5381 66.5222 48.3007 62.9768C47.5404 61.9636 45.8967 61.8722 44.9329 62.7986C43.0103 65.1139 48.1126 71.7837 48.471 73.7052L48.4647 73.7079Z" fill="#F8B21F"/>
</g>
<defs>
<clipPath id="clip0_439_506">
<rect width="85.1492" height="45.1239" fill="white" transform="matrix(0.396816 0.917898 0.917898 -0.396816 0 17.906)"/>
</clipPath>
</defs>
</svg>
