<svg width="36" height="36" viewBox="0 0 36 36" fill="none" xmlns="http://www.w3.org/2000/svg">
<g clip-path="url(#clip0_4615_54)">
<path d="M-0.00090625 4.49996C-0.00090625 3.67196 0.671094 2.99996 1.49909 2.99996H2.02109C3.41009 2.99996 4.80209 2.67146 6.04559 2.05046L8.56859 0.788965C9.60209 0.272965 10.7571 0.00146484 11.9091 0.00146484C13.8306 0.00146484 15.6171 0.692965 16.9941 1.94846L18.0441 2.90546L18.9711 2.03246C21.1986 -0.0660353 24.6846 -0.582035 27.4296 0.788965L29.9526 2.05046C31.1961 2.67296 32.5881 2.99996 33.9771 2.99996H34.4991C35.3271 2.99996 35.9991 3.67196 35.9991 4.49996C35.9991 5.32796 35.3271 5.99996 34.4991 5.99996H33.9771C32.1246 5.99996 30.2691 5.56196 28.6101 4.73396L26.0871 3.47247C24.4461 2.65347 22.3581 2.96096 21.0261 4.21496L13.9686 10.8585C13.4316 11.397 13.3056 12.2895 13.7166 12.861C13.9851 13.2345 14.3796 13.4595 14.8251 13.4955C15.2631 13.5375 15.6966 13.374 16.0071 13.0605L22.2681 7.06796C22.8666 6.49646 23.8161 6.51596 24.3891 7.11446C24.9621 7.71297 24.9411 8.66247 24.3426 9.23547L21.6921 11.772L23.3961 13.05C24.0591 13.5465 24.1926 14.487 23.6961 15.15C23.4021 15.543 22.9506 15.75 22.4946 15.75C22.1826 15.75 21.8661 15.6525 21.5961 15.45L19.4961 13.875L18.1056 15.2055C17.2791 16.032 16.1376 16.5 14.9496 16.5C14.8281 16.5 14.7066 16.4955 14.5836 16.485C13.2666 16.3785 12.0621 15.696 11.2821 14.6115C10.0146 12.8505 10.2711 10.311 11.8791 8.70296L15.8496 4.96496L14.9706 4.16397C13.5936 2.90997 11.4471 2.69846 9.90659 3.47096L7.38509 4.73246C5.72759 5.56046 3.87209 5.99847 2.01809 5.99847H1.49609C0.668094 5.99847 -0.00390625 5.32647 -0.00390625 4.49847L-0.00090625 4.49996ZM35.9991 27C35.9991 31.9635 31.9626 36 26.9991 36C22.0356 36 17.9991 31.9635 17.9991 27C17.9991 22.0365 22.0356 18 26.9991 18C31.9626 18 35.9991 22.0365 35.9991 27ZM32.9991 27C32.9991 23.691 30.3081 21 26.9991 21C23.6901 21 20.9991 23.691 20.9991 27C20.9991 30.309 23.6901 33 26.9991 33C30.3081 33 32.9991 30.309 32.9991 27ZM7.79909 21.6C5.99309 20.2455 3.75659 19.5 1.49909 19.5C0.671094 19.5 -0.00090625 20.1705 -0.00090625 21C-0.00090625 21.8295 0.671094 22.5 1.49909 22.5C3.11159 22.5 4.71059 23.0325 5.99909 24L12.5991 28.95C12.8691 29.1525 13.1856 29.25 13.4976 29.25C13.9536 29.25 14.4036 29.043 14.6991 28.65C15.1971 27.9885 15.0621 27.048 14.3991 26.5515L7.79909 21.6015V21.6ZM28.9596 24.417L26.3106 26.9595C26.2581 27.012 26.1756 27.012 26.1231 26.9595L24.7761 25.641C24.1836 25.062 23.2371 25.071 22.6536 25.665C22.0746 26.2575 22.0851 27.2055 22.6761 27.786L24.0231 29.1045C24.6306 29.6985 25.4271 29.9955 26.2221 29.9955C27.0171 29.9955 27.8061 29.7 28.4031 29.1105L31.0371 26.5815C31.6341 26.007 31.6551 25.0575 31.0806 24.4605C30.5076 23.8605 29.5581 23.844 28.9596 24.417Z" fill="#0056B1"/>
</g>
<defs>
<clipPath id="clip0_4615_54">
<rect width="36" height="36" fill="white"/>
</clipPath>
</defs>
</svg>
