<svg width="52" height="45" viewBox="0 0 52 45" fill="none" xmlns="http://www.w3.org/2000/svg">
<path d="M26.0002 31.1454C26.5635 31.1454 27.02 30.6999 27.02 30.1504C27.02 29.6008 26.5635 29.1553 26.0002 29.1553C25.437 29.1553 24.9805 29.6008 24.9805 30.1504C24.9805 30.6999 25.437 31.1454 26.0002 31.1454Z" fill="#0056B1"/>
<path d="M44.8177 4.52441H7.18181C5.77852 4.52441 4.63672 5.63857 4.63672 7.00788V28.6531C4.63672 30.0224 5.77852 31.1366 7.18181 31.1366H21.4326C21.9904 31.1366 22.4523 30.6943 22.4523 30.1415C22.4523 29.5887 21.9991 29.1464 21.4326 29.1464H7.18181C6.90289 29.1464 6.67628 28.9253 6.67628 28.6531V7.00788C6.67628 6.73572 6.90289 6.51459 7.18181 6.51459H44.809C45.0879 6.51459 45.3146 6.73572 45.3146 7.00788V28.6531C45.3146 28.9253 45.0879 29.1464 44.809 29.1464H30.5583C30.0004 29.1464 29.5385 29.5887 29.5385 30.1415C29.5385 30.6943 29.9917 31.1366 30.5583 31.1366H44.809C46.2123 31.1366 47.3541 30.0224 47.3541 28.6531V7.00788C47.3541 5.63857 46.2123 4.52441 44.809 4.52441H44.8177Z" fill="#0056B1"/>
<path d="M20.1078 14.2544V10.963C20.1078 9.59365 18.966 8.47949 17.5627 8.47949H12.089C10.6857 8.47949 9.54395 9.59365 9.54395 10.963V14.2544C9.54395 15.6237 10.6857 16.7379 12.089 16.7379H17.5627C18.966 16.7379 20.1078 15.6237 20.1078 14.2544ZM18.0682 14.2544C18.0682 14.5266 17.8416 14.7477 17.5627 14.7477H12.089C11.8101 14.7477 11.5835 14.5266 11.5835 14.2544V10.963C11.5835 10.6908 11.8101 10.4697 12.089 10.4697H17.5627C17.8416 10.4697 18.0682 10.6908 18.0682 10.963V14.2544Z" fill="#0056B1"/>
<path d="M41.8108 18.7708C41.7149 18.4306 41.4447 18.1584 41.0874 18.0649L33.6177 16.1087C33.2691 16.0152 32.8943 16.1087 32.6328 16.3639C32.3713 16.619 32.2755 16.9762 32.3713 17.325L34.376 24.6137C34.4719 24.9539 34.7421 25.2261 35.0995 25.3197C35.4481 25.4132 35.8229 25.3197 36.0844 25.0645L36.6596 24.5032L39.379 27.1567C39.5708 27.3439 39.8323 27.4459 40.1025 27.4459C40.3727 27.4459 40.6342 27.3439 40.8259 27.1567L43.7022 24.3501C44.1031 23.9589 44.1031 23.3295 43.7022 22.9468L40.9828 20.2932L41.5581 19.7319C41.8195 19.4767 41.9154 19.1195 41.8195 18.7708H41.8108ZM41.5319 23.6442L40.0938 25.0475L37.3744 22.3939C37.1739 22.1983 36.9124 22.1048 36.6509 22.1048C36.3894 22.1048 36.128 22.1983 35.9275 22.3939L35.8752 22.445L34.7857 18.4816L38.8474 19.5448L38.7951 19.5958C38.3941 19.987 38.3941 20.6164 38.7951 20.9991L41.5145 23.6527L41.5319 23.6442Z" fill="#0056B1"/>
<path d="M22.5569 11.6181H28.8325C29.3903 11.6181 29.8522 11.1758 29.8522 10.623C29.8522 10.0702 29.399 9.62793 28.8325 9.62793H22.5569C21.9991 9.62793 21.5371 10.0702 21.5371 10.623C21.5371 11.1758 21.9903 11.6181 22.5569 11.6181Z" fill="#0056B1"/>
<path d="M22.5569 15.5898H28.8325C29.3903 15.5898 29.8522 15.1475 29.8522 14.5947C29.8522 14.0419 29.399 13.5996 28.8325 13.5996H22.5569C21.9991 13.5996 21.5371 14.0419 21.5371 14.5947C21.5371 15.1475 21.9903 15.5898 22.5569 15.5898Z" fill="#0056B1"/>
<path d="M22.5569 21.2714H28.8325C29.3903 21.2714 29.8522 20.8292 29.8522 20.2763C29.8522 19.7235 29.399 19.2812 28.8325 19.2812H22.5569C21.9991 19.2812 21.5371 19.7235 21.5371 20.2763C21.5371 20.8207 21.9903 21.2714 22.5569 21.2714Z" fill="#0056B1"/>
<path d="M29.8522 24.248C29.8522 23.7037 29.399 23.2529 28.8325 23.2529H22.5569C21.9991 23.2529 21.5371 23.6952 21.5371 24.248C21.5371 24.8008 21.9903 25.2431 22.5569 25.2431H28.8325C29.3903 25.2431 29.8522 24.8008 29.8522 24.248Z" fill="#0056B1"/>
<path d="M10.5898 22.3593C10.5898 24.6386 12.4899 26.4842 14.8171 26.4842C17.1443 26.4842 19.0444 24.6301 19.0444 22.3593C19.0444 20.0885 17.1443 18.2344 14.8171 18.2344C12.4899 18.2344 10.5898 20.0885 10.5898 22.3593ZM17.0223 22.3593C17.0223 23.5415 16.0374 24.5026 14.8258 24.5026C13.6143 24.5026 12.6294 23.5415 12.6294 22.3593C12.6294 21.1771 13.6143 20.216 14.8258 20.216C16.0374 20.216 17.0223 21.1771 17.0223 22.3593Z" fill="#0056B1"/>
<path d="M40.0896 0C40.0896 0 40.041 0 40.0248 0C39.9763 0 39.9358 0 39.8873 0H29.9505C23.6146 0 18.363 4.9094 17.5295 11.2647H10.9185C8.97648 11.2647 7.39857 9.62544 7.39857 7.60788V7.17915C7.39857 5.17 8.96839 3.53073 10.8942 3.52232C10.9023 3.52232 10.9104 3.52232 10.9185 3.52232H15.7008C16.6394 3.52232 17.392 2.73211 17.392 1.76537C17.392 0.798618 16.6314 0.0084065 15.7008 0.0084065H10.9185C7.09917 0 4 3.21969 4 7.17915V7.60788C4 11.5758 7.09108 14.787 10.9104 14.787H17.4001V31.7598C17.4001 32.012 17.4729 32.2473 17.6024 32.4575L25.5 45L33.3976 32.4575C33.5271 32.2473 33.5999 32.0036 33.5999 31.7598V20.1672C33.5999 19.2173 32.9121 18.3598 31.9977 18.3094C31.0186 18.2589 30.2094 19.0659 30.2094 20.0663V30.7089C30.2094 30.9611 30.1366 31.1965 30.0072 31.4067L25.5 38.5606L20.9928 31.4067C20.8634 31.1965 20.7906 30.9527 20.7906 30.7089V14.787H40.0815C43.9008 14.787 46.9919 11.5758 46.9919 7.60788V7.17915C46.9919 3.21969 43.8927 0 40.0815 0L40.0896 0ZM39.8792 11.2647H20.9524C21.7535 6.8597 25.4757 3.52232 29.9424 3.52232H39.8792C41.9345 3.52232 43.6095 5.26247 43.6095 7.39772C43.6095 9.53297 41.9345 11.2731 39.8792 11.2731V11.2647Z" fill="white"/>
<path d="M23.8008 20.0577V30.7424H27.1913V20.0577C27.1913 19.0826 26.4306 18.3008 25.5001 18.3008C24.5695 18.3008 23.8089 19.091 23.8089 20.0577H23.8008Z" fill="white"/>
</svg>
