<svg width="60" height="60" viewBox="0 0 60 60" fill="none" xmlns="http://www.w3.org/2000/svg">
<path d="M18.8071 8.20203C23.0495 8.20221 26.5746 11.9849 26.5747 16.7274C26.5747 18.7867 25.9057 20.6732 24.7983 22.1444L24.4868 22.5575L24.9106 22.8544C27.4908 24.6621 29.5895 27.6052 30.8179 31.1884L31.0767 31.9432L31.6431 31.3817C32.7129 30.3216 34.0166 29.4983 35.4683 28.9969L36.4116 28.6708L35.5864 28.1102C34.0794 27.0873 33.0894 25.362 33.0894 23.411C33.0894 20.2844 35.6369 17.7393 38.7642 17.7391C41.8912 17.7391 44.4369 20.284 44.437 23.411C44.437 25.3587 43.4506 27.0818 41.9487 28.1053L41.1235 28.6669L42.0679 28.9911C43.4824 29.4765 44.7782 30.279 45.8755 31.3641L46.022 31.5077H54.0815C54.196 31.5077 54.3017 31.5697 54.3589 31.6688C54.4161 31.7678 54.4161 31.8901 54.3589 31.9891L51.1772 37.4979L50.7437 38.2479H56.0044C57.3657 38.2479 58.4739 39.3564 58.4741 40.7177V42.8641C58.4741 43.0411 58.3308 43.1844 58.1538 43.1844H54.6606V49.4911C54.6606 50.7621 53.625 51.7976 52.3511 51.7977H7.64893C6.37494 51.7977 5.33838 50.7622 5.33838 49.4911V43.1844H1.84521C1.66845 43.1844 1.52496 43.0411 1.5249 42.8641V40.7177C1.52514 39.3564 2.63338 38.2479 3.99463 38.2479H5.59619L5.61279 37.7655C5.82763 31.4127 8.56919 25.7434 12.7026 22.8544L13.1265 22.5585L12.8159 22.1444C11.7086 20.6732 11.0386 18.7867 11.0386 16.7274C11.0387 11.9848 14.5646 8.20203 18.8071 8.20203ZM5.97998 49.4911C5.98004 50.4114 6.72943 51.1571 7.64893 51.1571H52.3511C53.2706 51.1571 54.02 50.4114 54.02 49.4911V43.1844H5.97998V49.4911ZM3.99463 38.8895C2.98594 38.8897 2.16668 39.709 2.1665 40.7177V42.5438H57.8335V40.7177C57.8333 39.709 57.014 38.8896 56.0054 38.8895H3.99463ZM13.2534 23.2538C9.11935 26.023 6.47416 31.5853 6.25342 37.7303L6.23486 38.2479H28.6362L28.6714 37.786C28.813 35.9433 29.4506 34.2375 30.4507 32.8007L30.5864 32.6053L30.521 32.3768C29.3885 28.4386 27.1882 25.153 24.3618 23.2538L24.0366 23.035L23.7466 23.2977C22.3981 24.5202 20.6762 25.2499 18.8071 25.2499C16.9405 25.2499 15.221 24.5227 13.8735 23.3036L13.5923 23.0272L13.2534 23.2538ZM38.7642 29.0868C33.8269 29.087 29.7607 32.8786 29.3218 37.703L29.272 38.2479H41.5122L41.6577 38.0038L45.1587 32.1083L45.3687 31.7548L45.061 31.4803C43.3258 29.9326 41.118 29.0868 38.7642 29.0868ZM45.7349 32.3944L42.7065 37.493L42.2573 38.2479H50.0034L50.1479 37.9979L53.0933 32.8993L53.5269 32.1493H45.8794L45.7349 32.3944ZM38.7642 18.3798C35.9884 18.38 33.73 20.6364 33.73 23.411C33.73 26.1874 35.99 28.445 38.7642 28.4452C41.5391 28.4452 43.7954 26.185 43.7954 23.411C43.7953 20.6367 41.5406 18.3798 38.7642 18.3798ZM18.8071 8.84265C14.8273 8.84265 11.6803 12.4338 11.6802 16.7274C11.6802 21.0214 14.8275 24.6083 18.8071 24.6083C22.7866 24.6082 25.9341 21.0234 25.9341 16.7274C25.934 12.4318 22.787 8.8427 18.8071 8.84265Z" fill="#0056B1" stroke="#0056B1"/>
</svg>
