<?xml version="1.0" encoding="UTF-8"?>
<svg xmlns="http://www.w3.org/2000/svg" version="1.1" viewBox="0 0 512 512">
  <defs>
    <style>
      .cls-1 {
        fill: #fff;
      }
    </style>
  </defs>
  <!-- Generator: Adobe Illustrator 28.7.7, SVG Export Plug-In . SVG Version: 1.2.0 Build 194)  -->
  <g>
    <g id="Layer_1">
      <path class="cls-1" d="M477.9,322.1h-37.5l27.2-47c1.3-2.2,1.3-4.8,0-7-1.2-2.2-3.6-3.5-6.1-3.5h-67c-9.8-9.7-21.4-16.9-34.1-21.2,13.9-9.5,23.1-25.5,23.1-43.6,0-29-23.6-52.7-52.7-52.7s-52.7,23.6-52.7,52.7,9.2,34.1,23.2,43.6c-13,4.5-24.7,11.9-34.3,21.4-10.7-31.3-29.1-57.2-52-73.2,10-13.3,16-30.3,16-48.8,0-42.5-31.7-77-70.6-77s-70.6,34.5-70.6,77,6,35.5,16,48.8c-36.6,25.6-60.5,75.4-62.3,130.6h-9.5c-14,0-25.3,11.4-25.3,25.3v18.3c0,3.9,3.1,7,7,7h25.5v49.5c0,13.2,10.8,24,24,24h381.5c13.2,0,24-10.7,24-24v-49.5h25.5c3.9,0,7-3.1,7-7v-18.3c0-14-11.4-25.3-25.3-25.3h0ZM424.2,322.1h-56.1l25.8-43.5h55.4l-25.1,43.5ZM292.1,199.8c0-21.3,17.4-38.7,38.7-38.7s38.7,17.3,38.7,38.7-17.3,38.7-38.7,38.7-38.7-17.4-38.7-38.7ZM330.8,252.5c19,0,36.9,6.8,50.9,19.3l-29.9,50.3h-97.3c3.5-39,36.4-69.6,76.3-69.6ZM160.5,79.7c31.2,0,56.6,28.3,56.6,63s-25.4,63-56.6,63-56.6-28.3-56.6-63,25.4-63,56.6-63ZM115.5,202c12.2,11.1,27.9,17.8,45,17.8s32.8-6.7,45-17.8c23.1,15.5,41.4,42.6,50.8,75.5-9,12.9-14.7,28.1-15.9,44.7H57.6c1.8-51.5,24-97.5,57.8-120.1h0ZM456.7,422.3c0,5.5-4.5,9.9-10,9.9H65.3c-5.5,0-10-4.5-10-9.9v-49.5h401.4v49.5ZM489.2,358.8H22.8v-11.3c0-6.3,5.1-11.3,11.3-11.3h443.8c6.3,0,11.3,5.1,11.3,11.3v11.3Z"/>
    </g>
  </g>
</svg>