<svg width="47" height="54" viewBox="0 0 47 54" fill="none" xmlns="http://www.w3.org/2000/svg">
<path fill-rule="evenodd" clip-rule="evenodd" d="M12.1178 0.455985C11.7891 0.687645 11.6463 1.24229 11.5057 2.72358C11.3176 4.64368 10.5877 6.86672 9.29109 9.38824C7.94915 11.981 5.7345 13.9702 3.61506 14.5248C2.50887 14.8256 0.90625 16.4004 0.90625 17.209C0.90625 17.8349 1.51828 18.2269 3.21384 18.7816C4.69858 19.2449 5.61663 20.1003 6.41681 21.7442C7.26458 23.5262 8.20757 27.3686 8.46598 30.2153C8.84227 34.4966 9.24349 35.3297 10.7985 35.3297C12.0928 35.3297 12.4238 34.8196 12.7071 32.4139C13.2716 27.2773 15.391 23.5729 18.9 21.5147C21.0194 20.2651 21.16 20.127 21.16 18.9932C21.16 18.1133 21.0421 17.8817 20.2895 17.2335C18.0296 15.2666 16.7103 13.8076 16.1685 12.6515C14.9445 10.0832 14.7563 9.20336 14.4956 5.01567C14.2599 0.712147 14.0944 0.155273 13.0358 0.155273C12.7774 0.155273 12.3535 0.293378 12.1178 0.455985ZM12.6595 12.6292C13.53 14.9904 14.4503 16.4472 15.9804 17.8371L17.1342 18.9019L16.1685 19.3875C14.8742 20.0357 12.9656 21.9558 12.0475 23.5306C11.576 24.3414 11.2473 24.6644 11.1771 24.4572C11.1295 24.2724 10.8484 23.4148 10.565 22.5817C9.92806 20.6148 8.68133 18.5544 7.5026 17.4896L6.55961 16.6343L7.73608 15.8012C8.91254 14.9681 10.7509 12.7473 11.4581 11.3351C11.6712 10.9185 11.8594 10.5955 11.882 10.6401C11.9047 10.6624 12.2583 11.5667 12.6595 12.6292Z" fill="#0055B8"/>
<path fill-rule="evenodd" clip-rule="evenodd" d="M36.2387 15.0427C35.5564 15.2966 35.2028 16.6153 35.0146 19.3707C34.7789 23.1196 34.262 24.5318 31.8343 28.2116C30.3972 30.3879 27.5478 33.3037 25.9225 34.2281C25.3105 34.5756 24.1794 35.0389 23.3792 35.2461C22.4362 35.5 21.8242 35.8252 21.5182 36.2172C21.0716 36.7964 21.0716 36.8187 21.5408 37.8366C21.7993 38.4158 22.1053 38.9482 22.2231 39.0172C22.341 39.0863 23.284 39.2489 24.3199 39.387C28.1349 39.8726 30.2317 40.915 31.7618 43.1136C32.6322 44.3409 33.5525 47.279 34.3278 51.3063C34.6111 52.7408 35.0804 53.2955 36.0936 53.2955C37.1069 53.2955 37.5058 52.6695 37.694 50.471C37.9773 47.3013 39.249 44.1538 41.0851 42.1624C42.3567 40.7747 44.9703 38.7143 45.4418 38.7143C45.9836 38.7143 46.548 38.0661 46.548 37.4646C46.548 36.8164 45.1109 35.4755 44.381 35.4755C43.3677 35.4755 40.8017 32.4216 39.9766 30.2453C39.0586 27.8842 38.2335 22.5382 38.2108 18.8584C38.1881 15.849 38.1405 15.5038 37.7393 15.2008C37.2678 14.8778 36.7736 14.8066 36.2319 15.0382L36.2387 15.0427ZM37.2519 32.7C38.0045 34.159 40.1716 36.4712 41.1621 36.8654C42.0099 37.2129 42.0099 37.351 41.1621 37.8611C39.9131 38.5784 37.7234 40.9395 36.9233 42.3963L36.1457 43.8308L35.4861 42.4876C34.3096 40.0352 32.1653 38.1373 29.4814 37.1884C28.8444 36.9813 28.28 36.7719 28.2324 36.7496C28.2097 36.7028 28.9147 35.9856 29.8577 35.1057C31.8592 33.1856 33.3191 31.3346 34.6157 29.0202L35.5813 27.3073L36.1004 29.3677C36.3838 30.5238 36.9006 32.0051 37.2542 32.7H37.2519Z" fill="#0055B8"/>
</svg>
