<svg width="62" height="74" viewBox="0 0 62 74" fill="none" xmlns="http://www.w3.org/2000/svg">
<path fill-rule="evenodd" clip-rule="evenodd" d="M2.19006 41.1839C1.45296 42.538 1.75673 44.5095 3.01251 46.7693C4.25499 49.0002 5.33262 50.0462 9.74867 53.2637C15.3549 57.3597 19.5759 61.798 22.2155 66.4144C23.4241 68.528 24.3668 69.3381 25.3159 69.0719C26.4496 68.77 26.7272 67.8152 26.4808 64.9782C26.3524 63.4927 26.5158 58.7292 26.8076 54.3753C27.6868 41.5514 26.9023 35.9109 24.0023 33.9682C22.6094 33.0359 20.8681 32.9923 19.3926 33.836C17.7103 34.7979 16.7717 36.8235 16.1461 40.7787C15.692 43.773 15.6723 43.8542 15.0765 43.2922C11.3163 39.5964 9.30791 38.4264 6.92262 38.5811C5.10947 38.7185 2.85368 39.9384 2.19006 41.1839ZM7.73453 42.4072C9.91044 42.7886 12.6742 45.3953 15.6307 49.7273C17.3642 52.3369 18.083 52.7553 18.515 51.469C18.6355 51.0204 18.6839 50.0234 18.5842 49.2476C18.4349 47.6042 18.9112 44.1108 19.9558 39.986C20.4493 37.9051 20.7818 37.1621 21.2649 36.9891C22.9119 36.3238 24.0119 40.9545 23.766 47.4306C23.6195 51.0785 22.8136 60.8494 22.6787 60.6134C22.6342 60.5356 21.8552 59.5954 20.9373 58.528C18.5374 55.7132 15.3597 52.8568 11.5185 50.1066C6.90736 46.7907 5.7551 45.6142 5.4709 43.7348C5.30069 42.6563 6.23282 42.1233 7.73453 42.4072Z" fill="#0055B8"/>
<path fill-rule="evenodd" clip-rule="evenodd" d="M32.8619 5.55675C31.7109 6.24555 30.5465 7.8674 30.1073 9.43092C29.6021 11.2284 29.7258 12.9617 30.7501 19.5486C32.3842 29.8218 32.8876 35.6712 32.3771 37.9348C31.886 40.0387 32.7125 41.5047 34.2169 41.1302C34.9691 40.943 42.1752 35.186 43.9809 33.3121C52.8761 24.2262 57.2223 17.1071 56.5256 12.8226C56.2052 10.7985 55.8014 10.0319 54.5622 9.13051C51.52 6.91681 46.9037 8.12551 43.6274 12.0074C42.9821 12.755 42.4211 13.3298 42.3479 13.2854C42.2747 13.241 42.1382 12.1933 42.0134 10.955C41.8527 9.32322 41.6278 8.41968 41.1717 7.5737C39.5711 4.72106 35.8345 3.79468 32.8619 5.55675ZM36.5175 8.39252C36.9648 8.46594 37.5467 8.81873 37.8137 9.15455C38.5374 10.0889 38.8506 13.8192 38.4992 17.5899C38.3186 19.3363 38.2927 21.3244 38.4527 21.967C38.6791 22.9953 38.8018 23.1197 39.4029 23.0625C40.3085 22.992 40.9306 22.0326 41.3612 20.0659C42.0044 17.3372 46.6314 12.3443 49.2731 11.5943C50.7044 11.1755 52.1097 11.5081 52.8787 12.4937C53.6477 13.4794 52.9111 16.2016 50.9503 19.5682C48.9776 22.8753 42.3023 30.5146 38.9736 33.1997C37.7942 34.1429 36.7616 34.9273 36.6725 34.9495C36.5833 34.9717 36.4764 34.4113 36.3881 33.6883C36.068 29.9299 35.4345 25.4121 34.403 19.4141C33.7652 15.7347 33.2265 12.2155 33.2539 11.5888C33.2531 10.3494 34.3233 8.59899 35.1925 8.38262C35.5101 8.30356 36.0981 8.31217 36.5175 8.39252Z" fill="#0055B8"/>
</svg>
