<svg width="380" height="13" viewBox="0 0 380 13" fill="none" xmlns="http://www.w3.org/2000/svg">
<g clip-path="url(#clip0_698_3047)">
<path d="M378.451 6.92838C373.496 4.50718 368.452 4.76793 362.834 4.54443C356.153 4.24644 349.472 3.98569 342.792 3.72495C330.758 3.27795 318.724 2.83096 306.69 2.45847C281.914 1.67624 257.182 1.08025 232.406 0.670505C182.855 -0.0744805 133.259 -0.335226 83.751 0.596007C69.6818 0.856752 55.6569 1.19199 41.5878 1.56449C28.5362 1.89973 13.5822 0.819502 1.10574 4.35818C-0.442751 4.80518 -0.310023 6.63039 1.23847 6.96563C12.5203 9.49858 25.3065 8.12036 36.8538 7.97136C49.2417 7.82237 61.6297 7.71062 74.0176 7.67337C98.7935 7.56162 123.569 7.48712 148.345 7.56162C197.233 7.74787 246.121 8.6046 294.965 10.0946C309.034 10.5043 323.059 10.9886 337.129 11.5473C343.809 11.808 350.49 12.0688 357.215 12.3668C364.072 12.6648 371.594 14.0057 377.965 11.659C380.354 10.7651 380.929 8.15761 378.495 6.96563L378.451 6.92838Z" fill="#F8B21F"/>
</g>
<defs>
<clipPath id="clip0_698_3047">
<rect width="380" height="13" fill="white"/>
</clipPath>
</defs>
</svg>
