<svg width="283" height="10" viewBox="0 0 283 10" fill="none" xmlns="http://www.w3.org/2000/svg">
<path fill-rule="evenodd" clip-rule="evenodd" d="M274.703 3.07833C274.531 3.24197 266.477 3.23937 256.908 3.02758C247.325 2.90326 233.763 2.81695 226.837 2.9928C219.912 3.16865 203.26 3.02263 189.869 2.77268C176.486 2.43465 157.643 2.20292 148.052 2.16668C138.462 2.13045 118.168 1.78327 103.01 1.30405C60.1151 -0.0171349 39.6847 0.35177 15.9278 2.63679C2.65062 3.95611 -0.495905 4.70748 0.179394 6.39239C0.883434 7.71612 9.791 8.15899 25.1362 7.37656C45.6889 6.46776 69.1805 6.51975 97.2116 7.65991C110.825 8.20239 133.454 8.81521 147.505 8.94042C161.557 9.05682 180.953 9.4212 190.529 9.64242C200.105 9.86365 216.757 10.0009 227.497 9.86254C238.229 9.81231 253.997 9.79052 262.446 9.92202C270.973 10.0598 278.703 9.94795 279.694 9.75204C282.252 9.3173 283.314 6.13947 281.497 4.44348C280.29 3.25704 275.571 2.34068 274.694 3.08651L274.703 3.07833Z" fill="#F8B21F"/>
</svg>
